<svg width="48" height="48" viewBox="0 0 48 48" fill="none" xmlns="http://www.w3.org/2000/svg">
<path d="M18.0002 5.99987V5.54049L30.0002 3.54362V5.99987H18.0002ZM33.0002 6.74987V2.65299C33.0002 1.26549 31.7533 0.206117 30.3846 0.431117L16.8846 2.68112C15.7971 2.86862 15.0002 3.80612 15.0002 4.90299V6.74987C15.0002 7.79049 15.7033 8.66237 16.6689 8.92487C16.5564 9.43112 16.5002 9.95612 16.5002 10.4999C16.5002 14.6436 19.8564 17.9999 24.0002 17.9999C28.1439 17.9999 31.5002 14.6436 31.5002 10.4999C31.5002 9.95612 31.4439 9.43112 31.3314 8.92487C32.2971 8.66237 33.0002 7.79049 33.0002 6.74987ZM19.7533 8.99987H28.2377C28.4064 9.46862 28.4908 9.97487 28.4908 10.4999C28.4908 12.9842 26.4752 14.9999 23.9908 14.9999C21.5064 14.9999 19.4908 12.9842 19.4908 10.4999C19.4908 9.97487 19.5846 9.46862 19.7439 8.99987H19.7533ZM18.0002 27.7499C18.0002 27.5342 18.0189 27.3186 18.0564 27.1217L28.2752 44.9999H19.5002C18.6752 44.9999 18.0002 44.3249 18.0002 43.4999V27.7499ZM30.0002 41.9811L19.9783 24.4499C20.5033 24.1686 21.1127 24.0092 21.7502 24.0092H26.2502C28.3221 24.0092 30.0002 25.6874 30.0002 27.7592V41.9811ZM33.0002 43.4999V28.1436L42.1971 44.2405C42.6096 44.9624 43.5283 45.2061 44.2408 44.803C44.9533 44.3999 45.2064 43.4717 44.8033 42.7592L36.0002 27.3467L40.3971 19.7342C41.2221 18.2999 40.7346 16.4624 39.3002 15.6374L40.8002 13.0405L43.8002 7.84674L44.5502 6.54362C44.9627 5.82174 44.7189 4.91237 43.9971 4.49049L42.6939 3.74049C41.9721 3.32799 41.0627 3.57174 40.6408 4.29362C40.2189 5.01549 40.4721 5.92487 41.1939 6.34674L39.6939 8.94362L38.1939 11.5405L36.6939 14.1374C35.2596 13.3124 33.4221 13.7999 32.5971 15.2342L29.0533 21.3749C28.1627 21.1311 27.2252 20.9999 26.2783 20.9999H26.2502H21.7502H21.722C17.9533 20.9999 14.4752 23.0155 12.6095 26.2874L3.19705 42.7592C2.78455 43.4811 3.03767 44.3905 3.75955 44.803C4.48142 45.2155 5.3908 44.9624 5.8033 44.2405L15.0002 28.1436V43.4999C15.0002 45.9842 17.0158 47.9999 19.5002 47.9999H28.5002C30.9846 47.9999 33.0002 45.9842 33.0002 43.4999ZM31.8189 22.5842L35.1939 16.7436L37.7908 18.2436L34.1439 24.553C33.4596 23.7842 32.6814 23.1186 31.8189 22.5842ZM27.0002 29.9999C27.398 29.9999 27.7795 29.8418 28.0608 29.5605C28.3421 29.2792 28.5002 28.8977 28.5002 28.4999C28.5002 28.102 28.3421 27.7205 28.0608 27.4392C27.7795 27.1579 27.398 26.9999 27.0002 26.9999C26.6024 26.9999 26.2208 27.1579 25.9395 27.4392C25.6582 27.7205 25.5002 28.102 25.5002 28.4999C25.5002 28.8977 25.6582 29.2792 25.9395 29.5605C26.2208 29.8418 26.6024 29.9999 27.0002 29.9999Z" fill="#4F3422"/>
</svg>
