<svg width="30" height="48" viewBox="0 0 30 48" fill="none" xmlns="http://www.w3.org/2000/svg">
<g clip-path="url(#clip0_698_6304)">
<path d="M15.047 7.5C15.0283 7.5 15.0189 7.5 15.0002 7.5C13.7533 7.5 12.7502 6.49688 12.7502 5.25C12.7502 4.1625 13.5189 3.2625 14.5408 3.04688C14.5783 3.0375 14.6064 3.0375 14.6439 3.02812C14.7564 3.00937 14.8783 3 15.0002 3C16.247 3 17.2502 4.00312 17.2502 5.25C17.2502 6.25312 16.5939 7.10625 15.6845 7.39688C15.5439 7.44375 15.4033 7.47188 15.2533 7.49063C15.1877 7.5 15.1127 7.5 15.047 7.5ZM16.2189 10.3594C18.5345 9.81562 20.2502 7.73438 20.2502 5.25C20.2502 2.35313 17.897 0 15.0002 0C14.447 0 13.9127 0.084375 13.4158 0.24375C11.2877 0.91875 9.75018 2.90625 9.75018 5.25C9.75018 8.14687 12.1033 10.5 15.0002 10.5C15.272 10.5 15.5439 10.4813 15.8064 10.4344C15.9471 10.4156 16.0783 10.3875 16.2095 10.3594H16.2189ZM18.0002 30V33V39V46.5C18.0002 47.325 18.6752 48 19.5002 48C19.5939 48 19.6877 47.9906 19.772 47.9719C19.8752 47.9531 19.9783 47.925 20.0814 47.8781C20.6158 47.6531 21.0002 47.1187 21.0002 46.5V18.9562L25.6783 27.7125C26.072 28.4438 26.9814 28.7156 27.7127 28.3313C28.4439 27.9469 28.7158 27.0281 28.3314 26.2969L22.8095 15.9656C21.797 14.0719 20.0345 12.7219 18.0002 12.225V15.375V30ZM11.8408 24.675C12.2158 23.9344 11.9064 23.0344 11.1658 22.6594C10.4252 22.2844 9.52518 22.5937 9.15018 23.3344L3.15017 35.3344C2.9158 35.8031 2.94392 36.3563 3.2158 36.7969C3.48767 37.2375 3.97518 37.5094 4.4908 37.5094H9.00018V46.5094C9.00018 47.3344 9.67518 48.0094 10.5002 48.0094C11.3252 48.0094 12.0002 47.3344 12.0002 46.5094V37.5H15.0002V34.5H10.5002H6.9283L11.8408 24.675ZM15.0002 12C11.5033 12 8.2783 13.9312 6.6283 17.0156L1.6783 26.2969C1.28455 27.0281 1.5658 27.9375 2.29705 28.3313C3.0283 28.725 3.93768 28.4438 4.33143 27.7125L9.28143 18.4313C10.4064 16.3219 12.6095 15 15.0002 15V12Z" fill="#4F3422"/>
</g>
<defs>
<clipPath id="clip0_698_6304">
<rect width="30" height="48" fill="white"/>
</clipPath>
</defs>
</svg>
