<svg width="48" height="48" viewBox="0 0 48 48" fill="none" xmlns="http://www.w3.org/2000/svg">
<g clip-path="url(#clip0_698_6301)">
<path d="M12.9281 3L12.1781 4.5L14.4281 9H16.5H18.5719L20.8219 4.5L20.0719 3H12.9281ZM23.8406 5.175L21.5344 9.7875C28.1812 11.9156 33 18.1406 33 25.5C33 31.5375 29.7656 36.8156 24.9281 39.6844C24.1219 39.0375 23.4188 38.2781 22.8281 37.425C27.0938 35.1563 30 30.6656 30 25.5C30 22.9219 29.2781 20.5031 28.0219 18.45C22.2469 19.9875 18 25.2469 18 31.5C18 34.0781 18.7219 36.4969 19.9781 38.55C20.5406 39.4688 21.2156 40.3125 21.975 41.0719C24.4219 43.5 27.7875 45 31.5 45C38.9531 45 45 38.9531 45 31.5C45 25.1344 40.5938 19.7906 34.6594 18.375C34.2 17.2125 33.6375 16.1062 32.9812 15.0656C41.4 15.8156 48 22.8844 48 31.5C48 40.6125 40.6125 48 31.5 48C26.3156 48 21.6844 45.6094 18.6562 41.8594C17.9531 41.9531 17.2313 42 16.5 42C7.3875 42 0 34.6125 0 25.5C0 18.1406 4.81875 11.9156 11.4656 9.77813L9.15937 5.175C8.94375 4.75313 8.94375 4.25625 9.15937 3.83438L10.6594 0.834375C10.9125 0.31875 11.4281 0 12 0H21C21.5719 0 22.0875 0.31875 22.3406 0.825L23.8406 3.825C24.0563 4.24687 24.0563 4.74375 23.8406 5.16562V5.175ZM16.8 39C15.6469 36.75 15 34.2 15 31.5C15 24.3094 19.6031 18.1875 26.025 15.9281C23.5781 13.5 20.2125 12 16.5 12C9.04688 12 3 18.0469 3 25.5C3 32.9531 9.04688 39 16.5 39C16.6031 39 16.6969 39 16.8 39Z" fill="#4F3422"/>
</g>
<defs>
<clipPath id="clip0_698_6301">
<rect width="48" height="48" fill="white"/>
</clipPath>
</defs>
</svg>
