<svg width="54" height="48" viewBox="0 0 54 48" fill="none" xmlns="http://www.w3.org/2000/svg">
<g clip-path="url(#clip0_698_6316)">
<path d="M37.2281 3C35.5781 3 34.05 3.84375 33.1781 5.24063L28.9594 12H30H37.5C39.9844 12 42 9.98438 42 7.5C42 5.01562 39.9844 3 37.5 3H37.2281ZM25.0406 12L20.8219 5.24063C19.95 3.84375 18.4219 3 16.7719 3H16.5C14.0156 3 12 5.01562 12 7.5C12 9.98438 14.0156 12 16.5 12H24H25.0406ZM27 9.46875L30.6375 3.65625C32.0531 1.3875 34.5469 0 37.2281 0H37.5C41.6438 0 45 3.35625 45 7.5C45 9.1875 44.4375 10.7438 43.5 12H48C51.3094 12 54 14.6906 54 18V42C54 45.3094 51.3094 48 48 48H6C2.69063 48 0 45.3094 0 42V18C0 14.6906 2.69063 12 6 12H10.5C9.5625 10.7438 9 9.1875 9 7.5C9 3.35625 12.3562 0 16.5 0H16.7719C19.4531 0 21.9469 1.37813 23.3625 3.65625L27 9.46875ZM16.5 15H6C4.34062 15 3 16.3406 3 18V27H51V18C51 16.3406 49.6594 15 48 15H37.5H30.2063L35.6531 21.5438C36.1875 22.1813 36.0937 23.1281 35.4656 23.6531C34.8375 24.1781 33.8812 24.0938 33.3562 23.4656L27 15.8438L20.6531 23.4656C20.1188 24.1031 19.1813 24.1875 18.5438 23.6531C17.9063 23.1188 17.8219 22.1813 18.3563 21.5438L23.7938 15H16.5ZM3 30V36H51V30H3ZM51 42V39H3V42C3 43.6594 4.34062 45 6 45H48C49.6594 45 51 43.6594 51 42Z" fill="#4F3422"/>
</g>
<defs>
<clipPath id="clip0_698_6316">
<rect width="54" height="48" fill="white"/>
</clipPath>
</defs>
</svg>
