<svg width="60" height="48" viewBox="0 0 60 48" fill="none" xmlns="http://www.w3.org/2000/svg">
<g clip-path="url(#clip0_698_6307)">
<path d="M12 12C12 10.8181 12.2328 9.64778 12.6851 8.55585C13.1374 7.46392 13.8003 6.47177 14.636 5.63604C15.4718 4.80031 16.4639 4.13738 17.5558 3.68508C18.6478 3.23279 19.8181 3 21 3C22.1819 3 23.3522 3.23279 24.4442 3.68508C25.5361 4.13738 26.5282 4.80031 27.364 5.63604C28.1997 6.47177 28.8626 7.46392 29.3149 8.55585C29.7672 9.64778 30 10.8181 30 12C30 13.1819 29.7672 14.3522 29.3149 15.4442C28.8626 16.5361 28.1997 17.5282 27.364 18.364C26.5282 19.1997 25.5361 19.8626 24.4442 20.3149C23.3522 20.7672 22.1819 21 21 21C19.8181 21 18.6478 20.7672 17.5558 20.3149C16.4639 19.8626 15.4718 19.1997 14.636 18.364C13.8003 17.5282 13.1374 16.5361 12.6851 15.4442C12.2328 14.3522 12 13.1819 12 12ZM33 12C33 8.8174 31.7357 5.76516 29.4853 3.51472C27.2348 1.26428 24.1826 0 21 0C17.8174 0 14.7652 1.26428 12.5147 3.51472C10.2643 5.76516 9 8.8174 9 12C9 15.1826 10.2643 18.2348 12.5147 20.4853C14.7652 22.7357 17.8174 24 21 24C24.1826 24 27.2348 22.7357 29.4853 20.4853C31.7357 18.2348 33 15.1826 33 12ZM3 45C3.1125 37.5281 9.20625 31.5 16.7156 31.5H25.2844C27.1031 31.5 28.8375 31.8563 30.4313 32.4938C30.225 31.3313 30.1031 30.2156 30.0469 29.1844C28.5375 28.7344 26.9437 28.5 25.2937 28.5H16.7156C7.48125 28.5 0 35.9812 0 45.2156C0 46.7531 1.24688 48 2.78438 48H39.2156C39.3844 48 39.5438 47.9813 39.7125 47.9531C38.4563 47.0438 37.3594 46.05 36.3844 45H3ZM36 28.2562L45 24.6562V44.1937C38.1187 40.3969 36.1313 33.2156 36.0094 28.2562H36ZM56.9906 28.2562C56.8688 33.225 54.8719 40.3969 48 44.1937V24.6562L56.9906 28.2562ZM47.3344 21.1594C46.8 20.9437 46.2 20.9437 45.6656 21.1594L34.4156 25.6594C33.5625 26.0063 33 26.8312 33 27.75C33 33.6844 35.4281 43.575 45.6375 47.8313C46.1906 48.0656 46.8187 48.0656 47.3719 47.8313C57.5719 43.575 60 33.6844 60 27.75C60 26.8312 59.4375 26.0063 58.5844 25.6594L47.3344 21.1594Z" fill="#4F3422"/>
</g>
<defs>
<clipPath id="clip0_698_6307">
<rect width="60" height="48" fill="white"/>
</clipPath>
</defs>
</svg>
