<svg width="54" height="48" viewBox="0 0 54 48" fill="none" xmlns="http://www.w3.org/2000/svg">
<g clip-path="url(#clip0_698_6313)">
<path d="M26.0063 0.375098C26.5688 -0.121777 27.422 -0.121777 27.9938 0.375098L36.0001 7.44385V5.2501C36.0001 4.00322 37.0032 3.0001 38.2501 3.0001H45.7501C46.997 3.0001 48.0001 4.00322 48.0001 5.2501V18.0282L53.4938 22.8751C54.1126 23.4188 54.1782 24.3751 53.6251 24.9938C53.072 25.6126 52.1251 25.6782 51.5064 25.1251L48.0001 22.0313V40.5001C48.0001 44.6438 44.6438 48.0001 40.5001 48.0001H13.5001C9.35635 48.0001 6.0001 44.6438 6.0001 40.5001V22.0313L2.49385 25.1251C1.8751 25.6688 0.918848 25.6126 0.375098 24.9938C-0.168652 24.3751 -0.112402 23.4188 0.506348 22.8751L26.0063 0.375098ZM45.0001 15.3845V6.0001H39.0001V10.0876L45.0001 15.3845ZM9.0001 19.3782V40.5001C9.0001 42.9845 11.0157 45.0001 13.5001 45.0001H40.5001C42.9845 45.0001 45.0001 42.9845 45.0001 40.5001V19.3782L27.0001 3.49697L9.0001 19.3782ZM22.247 24.0001C20.7282 24.0001 19.5001 25.2282 19.5001 26.747C19.5001 27.4782 19.7907 28.172 20.3063 28.6876L27.0001 35.3813L33.6938 28.6876C34.2095 28.172 34.5001 27.4782 34.5001 26.747C34.5001 25.2282 33.272 24.0001 31.7532 24.0001C31.022 24.0001 30.3282 24.2907 29.8126 24.8063L28.0595 26.5595C27.4782 27.1407 26.522 27.1407 25.9407 26.5595L24.1876 24.8063C23.672 24.2907 22.9782 24.0001 22.247 24.0001ZM16.5001 26.747C16.5001 23.5782 19.0688 21.0001 22.247 21.0001C23.7657 21.0001 25.2282 21.6095 26.3063 22.6782L27.0001 23.372L27.6938 22.6782C28.772 21.6001 30.2345 21.0001 31.7532 21.0001C34.922 21.0001 37.5001 23.5688 37.5001 26.747C37.5001 28.2657 36.8907 29.7282 35.822 30.8063L28.0688 38.5595C27.4876 39.1407 26.5313 39.1407 25.9501 38.5595L18.197 30.8063C17.1188 29.7282 16.5188 28.2657 16.5188 26.747H16.5001Z" fill="#4F3422"/>
</g>
<defs>
<clipPath id="clip0_698_6313">
<rect width="54" height="48" fill="white"/>
</clipPath>
</defs>
</svg>
