<svg width="36" height="48" viewBox="0 0 36 48" fill="none" xmlns="http://www.w3.org/2000/svg">
<g clip-path="url(#clip0_698_6277)">
<path d="M11.8594 3H24.1406L32.6719 12.75C32.8875 12.9937 33.0094 13.3125 33.0094 13.6406C33.0094 13.7719 32.9906 13.8938 32.9531 14.0156L23.9906 45H12L3.05625 14.0062C3.01875 13.8844 3 13.7625 3 13.6312C3 13.3031 3.12187 12.9844 3.3375 12.7406L11.8687 2.99062L11.8594 3ZM9.6 1.02187L1.06875 10.7719C0.384375 11.5594 0 12.5812 0 13.6312C0 14.0437 0.05625 14.4469 0.16875 14.8406L9.12188 45.8344C9.49688 47.1187 10.6688 48 12 48H23.9906C25.3312 48 26.5031 47.1187 26.8688 45.8344L35.8219 14.8406C35.9344 14.4469 35.9906 14.0437 35.9906 13.6312C35.9906 12.5812 35.6062 11.5594 34.9125 10.7625L26.3812 1.0125C25.8281 0.375 25.0031 0 24.1406 0H11.8594C10.9969 0 10.1719 0.375 9.6 1.02187Z" fill="#4F3422"/>
</g>
<defs>
<clipPath id="clip0_698_6277">
<rect width="36" height="48" fill="white"/>
</clipPath>
</defs>
</svg>
