<svg width="36" height="48" viewBox="0 0 36 48" fill="none" xmlns="http://www.w3.org/2000/svg">
<g clip-path="url(#clip0_698_6283)">
<path d="M15.6093 0.674805C17.0812 -0.21582 18.9187 -0.21582 20.3906 0.674805L21.9281 1.6123C22.1906 1.77168 22.4906 1.85605 22.8 1.84668L24.6 1.7998C26.3156 1.7623 27.9187 2.68105 28.7437 4.19043L29.6062 5.76543C29.7562 6.0373 29.9718 6.25293 30.2437 6.40293L31.8187 7.26543C33.3281 8.09043 34.2468 9.68418 34.2093 11.4092L34.1625 13.2092C34.1531 13.5186 34.2375 13.8186 34.3968 14.0811L35.3343 15.6186C36.225 17.0904 36.225 18.9279 35.3343 20.3998L34.3968 21.9373C34.2375 22.1998 34.1531 22.4998 34.1625 22.8092L34.2093 24.6092C34.2468 26.3248 33.3281 27.9279 31.8187 28.7529L30.2437 29.6154C29.9718 29.7654 29.7562 29.9811 29.6062 30.2529L28.7437 31.8279C27.9187 33.3373 26.325 34.2561 24.6 34.2186L22.8 34.1717C22.4906 34.1623 22.1906 34.2467 21.9281 34.4061L20.3906 35.3436C18.9187 36.2342 17.0812 36.2342 15.6093 35.3436L14.0718 34.4061C13.8093 34.2467 13.5093 34.1623 13.2 34.1717L11.4 34.2186C9.68434 34.2561 8.08122 33.3373 7.25622 31.8279L6.39372 30.2529C6.24372 29.9811 6.02809 29.7654 5.75622 29.6154L4.18122 28.7529C2.67184 27.9279 1.75309 26.3342 1.79059 24.6092L1.83747 22.8092C1.84684 22.4998 1.76247 22.1998 1.60309 21.9373L0.665591 20.3998C-0.225034 18.9279 -0.225034 17.0904 0.665591 15.6186L1.60309 14.0811C1.76247 13.8186 1.84684 13.5186 1.83747 13.2092L1.79059 11.4092C1.75309 9.69355 2.67184 8.09043 4.18122 7.26543L5.75622 6.40293C6.02809 6.25293 6.24372 6.0373 6.39372 5.76543L7.25622 4.19043C8.08122 2.68105 9.67497 1.7623 11.4 1.7998L13.2 1.84668C13.5093 1.85605 13.8093 1.77168 14.0718 1.6123L15.6093 0.674805ZM18.8343 3.23418C18.3281 2.9248 17.6812 2.9248 17.175 3.23418L15.6375 4.17168C14.8875 4.63105 14.0156 4.86543 13.1343 4.8373L11.3343 4.79043C10.7343 4.77168 10.1812 5.0998 9.89997 5.6248L9.03747 7.20918C8.61559 7.97793 7.97809 8.61543 7.20934 9.03731L5.62497 9.8998C5.09997 10.1904 4.78122 10.7436 4.79059 11.3342L4.83747 13.1342C4.85622 14.0154 4.62184 14.8779 4.17184 15.6373L3.23434 17.1748C2.92497 17.6811 2.92497 18.3279 3.23434 18.8342L4.17184 20.3717C4.63122 21.1217 4.86559 21.9936 4.83747 22.8748L4.79059 24.6748C4.77184 25.2748 5.09997 25.8279 5.62497 26.1092L7.19997 26.9717C7.96872 27.3936 8.60622 28.0311 9.02809 28.7998L9.89059 30.3748C10.1812 30.8998 10.7343 31.2186 11.325 31.2092L13.125 31.1623C14.0062 31.1436 14.8687 31.3779 15.6281 31.8279L17.1656 32.7654C17.6718 33.0748 18.3187 33.0748 18.825 32.7654L20.3625 31.8279C21.1125 31.3686 21.9843 31.1342 22.8656 31.1623L24.6656 31.2092C25.2656 31.2279 25.8187 30.8998 26.1 30.3748L26.9625 28.7998C27.3843 28.0311 28.0218 27.3936 28.7906 26.9717L30.3656 26.1092C30.8906 25.8186 31.2093 25.2654 31.2 24.6748L31.1531 22.8748C31.1343 21.9936 31.3687 21.1311 31.8187 20.3717L32.7562 18.8342C33.0656 18.3279 33.0656 17.6811 32.7562 17.1748L31.8187 15.6373C31.3593 14.8873 31.125 14.0154 31.1531 13.1342L31.2 11.3342C31.2187 10.7342 30.8906 10.1811 30.3656 9.8998L28.7906 9.03731C28.0218 8.61543 27.3843 7.97793 26.9625 7.20918L26.1 5.6248C25.8093 5.0998 25.2562 4.78105 24.6656 4.79043L22.8656 4.8373C21.9843 4.85605 21.1218 4.62168 20.3625 4.17168L18.825 3.23418H18.8343ZM18 12.7498C17.3105 12.7498 16.6278 12.8856 15.9909 13.1494C15.3539 13.4133 14.7752 13.8 14.2877 14.2875C13.8001 14.775 13.4134 15.3538 13.1496 15.9907C12.8858 16.6277 12.75 17.3104 12.75 17.9998C12.75 18.6892 12.8858 19.3719 13.1496 20.0089C13.4134 20.6459 13.8001 21.2246 14.2877 21.7121C14.7752 22.1996 15.3539 22.5863 15.9909 22.8502C16.6278 23.114 17.3105 23.2498 18 23.2498C18.6894 23.2498 19.3721 23.114 20.0091 22.8502C20.646 22.5863 21.2248 22.1996 21.7123 21.7121C22.1998 21.2246 22.5865 20.6459 22.8503 20.0089C23.1142 19.3719 23.25 18.6892 23.25 17.9998C23.25 17.3104 23.1142 16.6277 22.8503 15.9907C22.5865 15.3538 22.1998 14.775 21.7123 14.2875C21.2248 13.8 20.646 13.4133 20.0091 13.1494C19.3721 12.8856 18.6894 12.7498 18 12.7498ZM26.25 17.9998C26.25 20.1878 25.3808 22.2863 23.8336 23.8334C22.2864 25.3806 20.188 26.2498 18 26.2498C15.8119 26.2498 13.7135 25.3806 12.1663 23.8334C10.6192 22.2863 9.74997 20.1878 9.74997 17.9998C9.74997 15.8118 10.6192 13.7133 12.1663 12.1662C13.7135 10.619 15.8119 9.7498 18 9.7498C20.188 9.7498 22.2864 10.619 23.8336 12.1662C25.3808 13.7133 26.25 15.8118 26.25 17.9998ZM0.121841 41.4186L3.98434 32.2404C4.12497 32.4092 4.32184 32.6904 4.63122 33.2529C5.00622 33.9467 5.48434 34.5654 6.03747 35.0904L3.91872 40.1248L7.49059 39.5904C8.07184 39.5061 8.64372 39.7592 8.96247 40.2561L10.9593 43.3123L13.3968 37.5186C13.5656 37.6029 13.7812 37.7248 14.0437 37.8842C14.7 38.2873 15.4031 38.5779 16.125 38.7561L12.6281 47.0717C12.4125 47.5873 11.9343 47.9342 11.3812 47.9811C10.8281 48.0279 10.2937 47.7748 9.99372 47.3061L6.97497 42.7029L1.71559 43.4811C1.18122 43.5561 0.646841 43.3404 0.309341 42.9186C-0.0281587 42.4967 -0.0937837 41.9154 0.112466 41.4186H0.121841ZM23.3718 47.0811L19.875 38.7654C20.5968 38.5779 21.3 38.2873 21.9562 37.8936C22.2187 37.7342 22.4343 37.6123 22.6031 37.5279L25.0406 43.3217L27.0375 40.2654C27.3562 39.7779 27.9375 39.5154 28.5093 39.5998L32.0812 40.1342L29.9625 35.0998C30.5156 34.5748 30.9937 33.9561 31.3687 33.2623C31.6781 32.6998 31.875 32.4186 32.0156 32.2498L35.8781 41.4279C36.0843 41.9248 36.0093 42.4967 35.6812 42.9279C35.3531 43.3592 34.8093 43.5748 34.275 43.4904L29.0156 42.7123L25.9968 47.3248C25.6968 47.7936 25.1625 48.0467 24.6093 47.9998C24.0562 47.9529 23.5781 47.5967 23.3625 47.0904L23.3718 47.0811Z" fill="#4F3422"/>
</g>
<defs>
<clipPath id="clip0_698_6283">
<rect width="36" height="48" fill="white"/>
</clipPath>
</defs>
</svg>
