<svg width="54" height="48" viewBox="0 0 54 48" fill="none" xmlns="http://www.w3.org/2000/svg">
<path d="M13.5 6C12.675 6 12 6.675 12 7.5V36H42V7.5C42 6.675 41.325 6 40.5 6H13.5ZM45 7.5V36H46.5C47.325 36 48 36.675 48 37.5C48 38.325 47.325 39 46.5 39H45H42H12H9H7.5C6.675 39 6 38.325 6 37.5C6 36.675 6.675 36 7.5 36H9V7.5C9 5.01562 11.0156 3 13.5 3H40.5C42.9844 3 45 5.01562 45 7.5ZM4.5 30H6V33H4.5C3.675 33 3 33.675 3 34.5V40.5C3 41.325 3.675 42 4.5 42H49.5C50.325 42 51 41.325 51 40.5V34.5C51 33.675 50.325 33 49.5 33H48V30H49.5C51.9844 30 54 32.0156 54 34.5V40.5C54 42.9844 51.9844 45 49.5 45H4.5C2.01562 45 0 42.9844 0 40.5V34.5C0 32.0156 2.01562 30 4.5 30ZM35.5594 16.3125L25.5563 26.3063C24.975 26.8875 24.0187 26.8875 23.4375 26.3063L18.4406 21.3094C17.8594 20.7281 17.8594 19.7719 18.4406 19.1906C19.0219 18.6094 19.9781 18.6094 20.5594 19.1906L24.4969 23.1281L33.4406 14.1844C34.0219 13.6031 34.9781 13.6031 35.5594 14.1844C36.1406 14.7656 36.1406 15.7219 35.5594 16.3031V16.3125Z" fill="#4F3422"/>
</svg>
