<svg width="60" height="48" viewBox="0 0 60 48" fill="none" xmlns="http://www.w3.org/2000/svg">
<g clip-path="url(#clip0_697_6073)">
<path d="M12 12C12 13.1819 12.2328 14.3522 12.6851 15.4442C13.1374 16.5361 13.8003 17.5282 14.636 18.364C15.4718 19.1997 16.4639 19.8626 17.5558 20.3149C18.6478 20.7672 19.8181 21 21 21C22.1819 21 23.3522 20.7672 24.4442 20.3149C25.5361 19.8626 26.5282 19.1997 27.364 18.364C28.1997 17.5282 28.8626 16.5361 29.3149 15.4442C29.7672 14.3522 30 13.1819 30 12C30 10.8181 29.7672 9.64778 29.3149 8.55585C28.8626 7.46392 28.1997 6.47177 27.364 5.63604C26.5282 4.80031 25.5361 4.13738 24.4442 3.68508C23.3522 3.23279 22.1819 3 21 3C19.8181 3 18.6478 3.23279 17.5558 3.68508C16.4639 4.13738 15.4718 4.80031 14.636 5.63604C13.8003 6.47177 13.1374 7.46392 12.6851 8.55585C12.2328 9.64778 12 10.8181 12 12ZM21 24C17.8174 24 14.7652 22.7357 12.5147 20.4853C10.2643 18.2348 9 15.1826 9 12C9 8.8174 10.2643 5.76516 12.5147 3.51472C14.7652 1.26428 17.8174 0 21 0C24.1826 0 27.2348 1.26428 29.4853 3.51472C31.7357 5.76516 33 8.8174 33 12C33 15.1826 31.7357 18.2348 29.4853 20.4853C27.2348 22.7357 24.1826 24 21 24ZM15 40.5C15.3978 40.5 15.7794 40.342 16.0607 40.0607C16.342 39.7794 16.5 39.3978 16.5 39C16.5 38.6022 16.342 38.2206 16.0607 37.9393C15.7794 37.658 15.3978 37.5 15 37.5C14.6022 37.5 14.2206 37.658 13.9393 37.9393C13.658 38.2206 13.5 38.6022 13.5 39C13.5 39.3978 13.658 39.7794 13.9393 40.0607C14.2206 40.342 14.6022 40.5 15 40.5ZM16.5 31.5V34.7531C18.2438 35.3719 19.5 37.0406 19.5 39C19.5 41.4844 17.4844 43.5 15 43.5C12.5156 43.5 10.5 41.4844 10.5 39C10.5 37.0406 11.7562 35.3719 13.5 34.7531V31.8562C7.51875 33.2531 3.05625 38.6063 3 45H39C38.9531 39.15 35.2125 34.1813 30 32.2969V34.7156C32.1656 35.3625 33.75 37.3688 33.75 39.75V42C33.75 42.825 33.075 43.5 32.25 43.5H30.75C29.925 43.5 29.25 42.825 29.25 42C29.25 41.175 29.925 40.5 30.75 40.5V39.75C30.75 38.5031 29.7469 37.5 28.5 37.5C27.2531 37.5 26.25 38.5031 26.25 39.75V40.5C27.075 40.5 27.75 41.175 27.75 42C27.75 42.825 27.075 43.5 26.25 43.5H24.75C23.925 43.5 23.25 42.825 23.25 42V39.75C23.25 37.3688 24.8344 35.3625 27 34.7156V31.5938C26.475 31.5281 25.9312 31.5 25.3875 31.5H16.6125H16.5ZM0 45.1125C0 35.9344 7.43437 28.5 16.6125 28.5H25.3875C34.5656 28.5 42 35.9344 42 45.1125C42 46.7063 40.7063 48 39.1125 48H2.8875C1.29375 48 0 46.7063 0 45.1125ZM51 18H55.5C56.325 18 57 17.325 57 16.5V4.5C57 3.675 56.325 3 55.5 3H40.5C39.675 3 39 3.675 39 4.5V16.5C39 17.325 39.675 18 40.5 18H42C43.6594 18 45 19.3406 45 21V21.75L49.2 18.6C49.7156 18.2062 50.3531 18 51 18ZM44.8969 25.575L43.9969 26.25L43.2 26.85C42.975 27.0187 42.6656 27.0469 42.4125 26.925C42.1594 26.8031 42 26.5406 42 26.25V25.2469V24.1219V24V21H40.5C38.0156 21 36 18.9844 36 16.5V4.5C36 2.01562 38.0156 0 40.5 0H55.5C57.9844 0 60 2.01562 60 4.5V16.5C60 18.9844 57.9844 21 55.5 21H51L45 25.5L44.8969 25.575Z" fill="#4F3422"/>
</g>
<defs>
<clipPath id="clip0_697_6073">
<rect width="60" height="48" fill="white"/>
</clipPath>
</defs>
</svg>
