<svg width="42" height="48" viewBox="0 0 42 48" fill="none" xmlns="http://www.w3.org/2000/svg">
<g clip-path="url(#clip0_697_6079)">
<path d="M21 3C22.1819 3 23.3522 3.23279 24.4442 3.68508C25.5361 4.13738 26.5282 4.80031 27.364 5.63604C28.1997 6.47177 28.8626 7.46392 29.3149 8.55585C29.7672 9.64778 30 10.8181 30 12C30 13.1819 29.7672 14.3522 29.3149 15.4442C28.8626 16.5361 28.1997 17.5282 27.364 18.364C26.5282 19.1997 25.5361 19.8626 24.4442 20.3149C23.3522 20.7672 22.1819 21 21 21C19.8181 21 18.6478 20.7672 17.5558 20.3149C16.4639 19.8626 15.4718 19.1997 14.636 18.364C13.8003 17.5282 13.1374 16.5361 12.6851 15.4442C12.2328 14.3522 12 13.1819 12 12C12 10.8181 12.2328 9.64778 12.6851 8.55585C13.1374 7.46392 13.8003 6.47177 14.636 5.63604C15.4718 4.80031 16.4639 4.13738 17.5558 3.68508C18.6478 3.23279 19.8181 3 21 3ZM9 12C9 15.1826 10.2643 18.2348 12.5147 20.4853C14.7652 22.7357 17.8174 24 21 24C24.1826 24 27.2348 22.7357 29.4853 20.4853C31.7357 18.2348 33 15.1826 33 12C33 8.8174 31.7357 5.76516 29.4853 3.51472C27.2348 1.26428 24.1826 0 21 0C17.8174 0 14.7652 1.26428 12.5147 3.51472C10.2643 5.76516 9 8.8174 9 12ZM13.5 39C13.5 38.6022 13.658 38.2206 13.9393 37.9393C14.2206 37.658 14.6022 37.5 15 37.5C15.3978 37.5 15.7794 37.658 16.0607 37.9393C16.342 38.2206 16.5 38.6022 16.5 39C16.5 39.3978 16.342 39.7794 16.0607 40.0607C15.7794 40.342 15.3978 40.5 15 40.5C14.6022 40.5 14.2206 40.342 13.9393 40.0607C13.658 39.7794 13.5 39.3978 13.5 39ZM16.5 34.7531V31.5H16.6125H25.3875C25.9312 31.5 26.4656 31.5281 27 31.5938V34.7156C24.8344 35.3625 23.25 37.3688 23.25 39.75V42C23.25 42.825 23.925 43.5 24.75 43.5H26.25C27.075 43.5 27.75 42.825 27.75 42C27.75 41.175 27.075 40.5 26.25 40.5V39.75C26.25 38.5031 27.2531 37.5 28.5 37.5C29.7469 37.5 30.75 38.5031 30.75 39.75V40.5C29.925 40.5 29.25 41.175 29.25 42C29.25 42.825 29.925 43.5 30.75 43.5H32.25C33.075 43.5 33.75 42.825 33.75 42V39.75C33.75 37.3688 32.1656 35.3625 30 34.7156V32.2969C35.2125 34.1719 38.9531 39.1406 39 45H3C3.04688 38.6063 7.51875 33.2531 13.5 31.8562V34.7531C11.7562 35.3719 10.5 37.0406 10.5 39C10.5 41.4844 12.5156 43.5 15 43.5C17.4844 43.5 19.5 41.4844 19.5 39C19.5 37.0406 18.2438 35.3719 16.5 34.7531ZM16.6125 28.5C7.43437 28.5 0 35.9344 0 45.1125C0 46.7063 1.29375 48 2.8875 48H39.1125C40.7063 48 42 46.7063 42 45.1125C42 35.9344 34.5656 28.5 25.3875 28.5H16.6125Z" fill="#4F3422"/>
</g>
<defs>
<clipPath id="clip0_697_6079">
<rect width="42" height="48" fill="white"/>
</clipPath>
</defs>
</svg>
