<svg width="42" height="48" viewBox="0 0 42 48" fill="none" xmlns="http://www.w3.org/2000/svg">
<path d="M12.375 6C13.7531 6 15.0938 6.45 16.2 7.275L20.1 10.2L22.0969 11.7C22.7625 12.1969 23.7 12.0656 24.1969 11.4C24.6938 10.7344 24.5625 9.79687 23.8969 9.3L23.3906 8.925L24.9187 7.62188C26.1375 6.58125 27.6844 6.00937 29.2875 6.00937C32.9906 6.00937 36 9.01875 36 12.7219V13.0031C36 14.0906 35.7469 15.1594 35.2594 16.1344L33.1875 20.2781C32.6063 21.4313 32.2031 22.6687 31.9688 23.9437L28.8187 41.5875L26.1844 31.05C25.5844 28.6688 23.4469 27 21 27C18.5531 27 16.4156 28.6688 15.8156 31.05L13.1813 41.5875L10.0312 23.9437C9.80625 22.6687 9.39375 21.4406 8.8125 20.2781L6.74063 16.125C6.25313 15.15 6 14.0813 6 12.9938V12.375C6 8.85 8.85 6 12.375 6ZM20.9344 7.07812L18 4.875C16.3781 3.65625 14.4 3 12.375 3C7.2 3 3 7.2 3 12.375V12.9938C3 14.55 3.36562 16.0781 4.05937 17.4656L6.14062 21.6188C6.59063 22.5188 6.90937 23.475 7.0875 24.4688L10.3312 42.6188C10.575 43.9969 11.775 45 13.1813 45C14.5031 45 15.6656 44.1 15.9844 42.8063L18.7406 31.7719C19.0031 30.7312 19.9406 30 21.0094 30C22.0781 30 23.025 30.7312 23.2781 31.7719L26.0344 42.8063C26.3531 44.0906 27.5156 45 28.8375 45C30.2344 45 31.4344 43.9969 31.6875 42.6188L34.9219 24.4688C35.1 23.475 35.4188 22.5188 35.8688 21.6188L37.95 17.4656C38.6437 16.0781 39.0094 14.55 39.0094 12.9938V12.7125C39 7.35 34.65 3 29.2875 3C26.9719 3 24.7312 3.825 22.9688 5.33438L20.9344 7.07812Z" fill="#4F3422"/>
</svg>
