<svg width="54" height="48" viewBox="0 0 54 48" fill="none" xmlns="http://www.w3.org/2000/svg">
<path d="M27 3C15.4031 3 6 12.4031 6 24C6 35.5969 15.4031 45 27 45C35.9344 45 43.5656 39.4219 46.6031 31.5563C46.9031 30.7875 47.7656 30.3937 48.5437 30.6937C49.3219 30.9937 49.7063 31.8563 49.4062 32.6344C45.9375 41.625 37.2094 48 27 48C13.7438 48 3 37.2562 3 24C3 10.7438 13.7438 0 27 0C34.8563 0 41.8219 3.76875 46.2 9.6C46.6969 10.2656 46.5656 11.2031 45.9 11.7C45.2344 12.1969 44.2969 12.0656 43.8 11.4C39.9656 6.3 33.8719 3 27 3ZM37.7344 37.1344C37.1063 37.6781 36.1594 37.6125 35.6156 36.9844C33.9375 35.0437 31.0688 33 27 33C22.9312 33 20.0625 35.0437 18.3844 36.9844C17.8406 37.6125 16.8937 37.6781 16.2656 37.1344C15.6375 36.5906 15.5719 35.6437 16.1156 35.0156C18.1969 32.6062 21.8344 30 27 30C28.2656 30 29.4375 30.1594 30.5156 30.4313L44.7188 16.8187C46.5563 15.0562 49.4625 15.0938 51.2625 16.8844C53.1187 18.7406 53.0813 21.7688 51.1781 23.5781L38.25 35.8969C38.2781 36.3469 38.1094 36.8156 37.7344 37.1344ZM33.6188 31.6125C34.6781 32.1656 35.5969 32.8312 36.3938 33.5156L37.1813 32.7656L36.7031 32.2875C36.2625 31.8469 36.2625 31.1344 36.7031 30.6937C37.1437 30.2531 37.8563 30.2531 38.2969 30.6937L38.8125 31.2188L40.2562 29.8406L39.7125 29.2969C39.2719 28.8563 39.2719 28.1437 39.7125 27.7031C40.1531 27.2625 40.8656 27.2625 41.3063 27.7031L41.8969 28.2937L43.3406 26.9156L42.7219 26.2969C42.2813 25.8563 42.2813 25.1437 42.7219 24.7031C43.1625 24.2625 43.875 24.2625 44.3156 24.7031L44.9719 25.3594L46.4156 23.9813L45.7219 23.2875C45.2813 22.8469 45.2813 22.1344 45.7219 21.6937C46.1625 21.2531 46.875 21.2531 47.3156 21.6937L48.0469 22.425L49.125 21.3937C49.8094 20.7469 49.8187 19.6594 49.1531 18.9938C48.5062 18.3469 47.4656 18.3375 46.8094 18.9656L33.6094 31.6125H33.6188ZM19.5375 17.25C20.1342 17.25 20.7065 17.4871 21.1285 17.909C21.5504 18.331 21.7875 18.9033 21.7875 19.5C21.7875 20.0967 21.5504 20.669 21.1285 21.091C20.7065 21.5129 20.1342 21.75 19.5375 21.75C18.9408 21.75 18.3685 21.5129 17.9465 21.091C17.5246 20.669 17.2875 20.0967 17.2875 19.5C17.2875 18.9033 17.5246 18.331 17.9465 17.909C18.3685 17.4871 18.9408 17.25 19.5375 17.25ZM32.2875 19.5C32.2875 18.9033 32.5246 18.331 32.9465 17.909C33.3685 17.4871 33.9408 17.25 34.5375 17.25C35.1342 17.25 35.7065 17.4871 36.1285 17.909C36.5504 18.331 36.7875 18.9033 36.7875 19.5C36.7875 20.0967 36.5504 20.669 36.1285 21.091C35.7065 21.5129 35.1342 21.75 34.5375 21.75C33.9408 21.75 33.3685 21.5129 32.9465 21.091C32.5246 20.669 32.2875 20.0967 32.2875 19.5Z" fill="#4F3422"/>
</svg>
