<svg width="54" height="48" viewBox="0 0 54 48" fill="none" xmlns="http://www.w3.org/2000/svg">
<g clip-path="url(#clip0_697_6046)">
<path d="M27 3C27.225 3 27.4594 3 27.6844 3.00937C24.9375 3.91875 22.2844 5.01562 19.7344 6.29062C18.1312 6.42187 16.5375 6.59062 14.9531 6.79688C18.3562 4.40625 22.5188 3 27 3ZM34.5094 1.2C32.1469 0.421875 29.625 0 27 0C20.025 0 13.7438 2.98125 9.35625 7.725C8.18438 7.95938 7.0125 8.2125 5.85938 8.49375C5.09063 8.68125 4.425 9.15938 4.0125 9.83438C2.52187 12.2438 1.40625 14.8969 0.73125 17.7188C0.50625 18.675 0.759375 19.6781 1.40625 20.4094C1.17188 20.6719 0.946875 20.9344 0.721875 21.2062C0.28125 21.7219 0.0375 22.3688 0.009375 23.0438C0.009375 23.3625 0 23.6812 0 24C0 26.9437 0.46875 29.7844 1.35 32.4469C1.70625 33.5344 2.65313 34.3219 3.7875 34.4812C4.92188 34.6406 6.04688 34.1344 6.68438 33.1875C9.61875 28.8469 13.2375 25.0125 17.3812 21.8438C17.3156 22.05 17.2781 22.275 17.2781 22.5094C17.2781 23.7563 18.2813 24.7594 19.5281 24.7594C20.775 24.7594 21.7781 23.7563 21.7781 22.5094C21.7781 21.2813 20.7938 20.2875 19.575 20.2594C20.7 19.4906 21.8625 18.7781 23.0625 18.1031C24.3656 18.0375 25.6781 18.0094 26.9906 18.0094C34.8094 18.0094 42.3563 19.1625 49.4719 21.3C50.5031 21.6094 51.6094 21.3469 52.3969 20.6063C53.1844 19.8656 53.5031 18.7688 53.2594 17.7281C52.5844 14.9063 51.4688 12.2531 49.9875 9.84375C49.6781 9.34687 49.2375 8.95313 48.7219 8.70938C48.6656 8.14688 48.45 7.59375 48.075 7.13437C46.0875 4.65 43.6688 2.53125 40.9313 0.871875C40.3594 0.525 39.675 0.384375 39.0094 0.459375C37.4906 0.646875 35.9906 0.890625 34.5 1.2H34.5094ZM47.4656 11.4562C48.15 12.5719 48.75 13.7437 49.2469 14.9719C49.6969 16.0781 50.0625 17.2312 50.3438 18.4125C49.2281 18.075 48.1031 17.7656 46.9688 17.475C41.4 16.0594 35.6063 15.225 29.6438 15.0375C29.6156 15.0375 29.5969 15.0375 29.5687 15.0375C28.7156 15.0094 27.8531 15 26.9906 15C25.3875 15 23.7937 15.0469 22.2094 15.1406C17.6906 15.4031 13.2656 16.0406 8.97187 17.0156C8.31562 17.1656 7.66875 17.325 7.0125 17.4844C5.87813 17.775 4.75312 18.0844 3.6375 18.4219C3.68437 18.2344 3.73125 18.0469 3.77812 17.8594C4.04062 16.875 4.35938 15.9094 4.73438 14.9813C5.24063 13.7344 5.84063 12.5438 6.54375 11.4188C8.71875 10.8938 10.9313 10.4531 13.1719 10.0969C13.2469 10.0875 13.3219 10.0688 13.4062 10.0594C15.75 9.69375 18.1313 9.4125 20.5406 9.24375C22.6781 9.075 24.8344 9 27 9C30.75 9 34.4344 9.23438 38.0625 9.69375C38.2688 9.72188 38.475 9.75 38.6813 9.77813C41.6531 10.1813 44.5781 10.725 47.4469 11.4188C47.4563 11.4375 47.4656 11.4469 47.475 11.4656L47.4656 11.4562ZM16.5938 18.6844C12.7875 21.4406 9.375 24.7219 6.46875 28.4062C5.67188 29.4094 4.92187 30.4406 4.2 31.5094C3.7875 30.2625 3.47813 28.9687 3.27188 27.6375C3.09375 26.4469 3 25.2375 3 24C3 23.7188 3.00938 23.4281 3.01875 23.1469C3.57188 22.4906 4.14375 21.8531 4.725 21.225C8.56875 20.0812 12.5344 19.2281 16.5938 18.6844ZM28.1813 6.00937C31.7719 4.79062 35.5219 3.92813 39.3844 3.44063C40.6688 4.21875 41.8781 5.11875 42.9938 6.1125C43.5656 6.62812 44.1094 7.1625 44.6344 7.725C39.3094 6.66563 33.8063 6.08437 28.1813 6.00937ZM50.9438 25.6031C51 24.7781 50.3719 24.0656 49.5469 24.0094C48.7219 23.9531 48.0094 24.5812 47.9531 25.4062C47.2313 36.3469 38.1281 45 27 45C20.1281 45 14.0344 41.7 10.2 36.6C9.70313 35.9344 8.76563 35.8031 8.1 36.3C7.43438 36.7969 7.30312 37.7344 7.8 38.4C12.1781 44.2313 19.1437 48 27 48C39.7219 48 50.1281 38.1094 50.9438 25.6031ZM34.9875 37.2656C35.5969 37.8188 36.5531 37.7812 37.1062 37.1625C37.6594 36.5437 37.6219 35.5969 37.0031 35.0437C34.9875 33.2156 31.8938 31.5 27.75 31.5C26.2125 31.5 24.8062 31.7344 23.55 32.1375C22.7625 32.3906 22.3219 33.225 22.5656 34.0219C22.8094 34.8187 23.6531 35.25 24.45 35.0062C25.425 34.6969 26.5219 34.5094 27.75 34.5094C31.0125 34.5094 33.4125 35.8406 34.9875 37.275V37.2656ZM36.7875 22.5C36.7875 21.9033 36.5504 21.331 36.1285 20.909C35.7065 20.4871 35.1342 20.25 34.5375 20.25C33.9408 20.25 33.3685 20.4871 32.9465 20.909C32.5246 21.331 32.2875 21.9033 32.2875 22.5C32.2875 23.0967 32.5246 23.669 32.9465 24.091C33.3685 24.5129 33.9408 24.75 34.5375 24.75C35.1342 24.75 35.7065 24.5129 36.1285 24.091C36.5504 23.669 36.7875 23.0967 36.7875 22.5Z" fill="#4F3422"/>
</g>
<defs>
<clipPath id="clip0_697_6046">
<rect width="54" height="48" fill="white"/>
</clipPath>
</defs>
</svg>
