<svg width="48" height="48" viewBox="0 0 48 48" fill="none" xmlns="http://www.w3.org/2000/svg">
<g clip-path="url(#clip0_697_6049)">
<path d="M10.5 16.5C10.5 12.9196 11.9223 9.4858 14.4541 6.95406C16.9858 4.42232 20.4196 3 24 3C27.5804 3 31.0142 4.42232 33.5459 6.95406C36.0777 9.4858 37.5 12.9196 37.5 16.5C37.5 20.0804 36.0777 23.5142 33.5459 26.0459C31.0142 28.5777 27.5804 30 24 30C20.4196 30 16.9858 28.5777 14.4541 26.0459C11.9223 23.5142 10.5 20.0804 10.5 16.5ZM40.5 16.5C40.5 13.8 39.8531 11.25 38.7 9H42C43.6594 9 45 10.3406 45 12V42C45 43.6594 43.6594 45 42 45H6C4.34062 45 3 43.6594 3 42V12C3 10.3406 4.34062 9 6 9H9.3C8.14687 11.25 7.5 13.8 7.5 16.5C7.5 25.6125 14.8875 33 24 33C33.1125 33 40.5 25.6125 40.5 16.5ZM36.7312 6C33.7031 2.33438 29.1281 0 24 0C18.8719 0 14.2969 2.33438 11.2687 6H6C2.69063 6 0 8.69063 0 12V42C0 45.3094 2.69063 48 6 48H42C45.3094 48 48 45.3094 48 42V12C48 8.69063 45.3094 6 42 6H36.7312ZM30 21C30 19.0687 29.0906 17.3438 27.6656 16.2469L29.8781 11.0906C30.2063 10.3313 29.85 9.45 29.0906 9.12188C28.3312 8.79375 27.45 9.15 27.1219 9.90937L24.9094 15.0656C24.6094 15.0187 24.3094 15 24 15C20.6906 15 18 17.6906 18 21C18 24.3094 20.6906 27 24 27C27.3094 27 30 24.3094 30 21ZM24 18C24.7956 18 25.5587 18.3161 26.1213 18.8787C26.6839 19.4413 27 20.2044 27 21C27 21.7956 26.6839 22.5587 26.1213 23.1213C25.5587 23.6839 24.7956 24 24 24C23.2044 24 22.4413 23.6839 21.8787 23.1213C21.3161 22.5587 21 21.7956 21 21C21 20.2044 21.3161 19.4413 21.8787 18.8787C22.4413 18.3161 23.2044 18 24 18Z" fill="#4F3422"/>
</g>
<defs>
<clipPath id="clip0_697_6049">
<rect width="48" height="48" fill="white"/>
</clipPath>
</defs>
</svg>
