<svg width="36" height="48" viewBox="0 0 36 48" fill="none" xmlns="http://www.w3.org/2000/svg">
<g clip-path="url(#clip0_697_6058)">
<path d="M18 45C9.7125 45 3 38.2875 3 30C3 28.4812 3.57187 26.325 4.71562 23.6719C5.83125 21.0844 7.3875 18.2812 9.08438 15.5344C12.45 10.0969 16.2469 5.1375 17.9437 3H18.0656C19.7625 5.14687 23.5594 10.0969 26.925 15.5344C28.6219 18.2719 30.1687 21.075 31.2937 23.6719C32.4281 26.325 33 28.4812 33 30C33 38.2875 26.2875 45 18 45ZM0 30C0 39.9375 8.0625 48 18 48C27.9375 48 36 39.9375 36 30C36 21.45 23.7937 5.40937 20.3812 1.09687C19.8187 0.39375 18.9844 0 18.0844 0H17.9156C17.0156 0 16.1813 0.39375 15.6188 1.09687C12.2063 5.40937 0 21.45 0 30ZM10.5 30C10.5 29.175 9.825 28.5 9 28.5C8.175 28.5 7.5 29.175 7.5 30C7.5 35.8031 12.1969 40.5 18 40.5C18.825 40.5 19.5 39.825 19.5 39C19.5 38.175 18.825 37.5 18 37.5C13.8562 37.5 10.5 34.1438 10.5 30Z" fill="#4F3422"/>
</g>
<defs>
<clipPath id="clip0_697_6058">
<rect width="36" height="48" fill="white"/>
</clipPath>
</defs>
</svg>
