<svg width="60" height="48" viewBox="0 0 60 48" fill="none" xmlns="http://www.w3.org/2000/svg">
<g clip-path="url(#clip0_697_6055)">
<path d="M30 45C21.7125 45 15 38.2875 15 30C15 28.4812 15.5718 26.325 16.7156 23.6719C16.9781 23.0719 17.2593 22.4531 17.5687 21.825L15.1593 19.9219C13.2937 23.6344 12 27.2156 12 30C12 39.9375 20.0625 48 30 48C35.2593 48 40.0031 45.7406 43.2937 42.1406L40.9312 40.275C38.1937 43.1813 34.3125 45 30 45ZM43.2843 23.6719C43.9968 25.3219 44.4843 26.775 44.7562 28.0031L47.9906 30.5625C48 30.375 48 30.1875 48 30C48 21.45 35.7937 5.40937 32.3812 1.09687C31.8187 0.39375 30.9843 0 30.0843 0H29.9156C29.0156 0 28.1812 0.39375 27.6187 1.09687C26.3718 2.67187 23.9625 5.80313 21.3937 9.5625L23.7562 11.4281C26.2875 7.70625 28.6875 4.58437 29.9437 3H30.0656C31.7625 5.14687 35.5593 10.0969 38.925 15.5344C40.6218 18.2719 42.1687 21.075 43.2937 23.6719H43.2843ZM22.5 30C22.5 29.175 21.825 28.5 21 28.5C20.175 28.5 19.5 29.175 19.5 30C19.5 35.8031 24.1968 40.5 30 40.5C30.825 40.5 31.5 39.825 31.5 39C31.5 38.175 30.825 37.5 30 37.5C25.8562 37.5 22.5 34.1438 22.5 30ZM2.42808 0.31875C1.7812 -0.1875 0.834329 -0.075 0.318704 0.571875C-0.196921 1.21875 -0.0750457 2.16563 0.571829 2.68125L57.5718 47.6813C58.2187 48.1969 59.1656 48.0844 59.6812 47.4375C60.1968 46.7906 60.0843 45.8438 59.4375 45.3281L2.42808 0.31875Z" fill="#4F3422"/>
</g>
<defs>
<clipPath id="clip0_697_6055">
<rect width="60" height="48" fill="white"/>
</clipPath>
</defs>
</svg>
