<svg width="36" height="48" viewBox="0 0 36 48" fill="none" xmlns="http://www.w3.org/2000/svg">
<path d="M18 7.5C18.2955 7.5 18.5881 7.4418 18.8611 7.32873C19.1341 7.21566 19.3821 7.04992 19.591 6.84099C19.8 6.63206 19.9657 6.38402 20.0788 6.11104C20.1918 5.83806 20.25 5.54547 20.25 5.25C20.25 4.95453 20.1918 4.66194 20.0788 4.38896C19.9657 4.11598 19.8 3.86794 19.591 3.65901C19.3821 3.45008 19.1341 3.28434 18.8611 3.17127C18.5881 3.0582 18.2955 3 18 3C17.7046 3 17.412 3.0582 17.139 3.17127C16.866 3.28434 16.618 3.45008 16.409 3.65901C16.2001 3.86794 16.0344 4.11598 15.9213 4.38896C15.8082 4.66194 15.75 4.95453 15.75 5.25C15.75 5.54547 15.8082 5.83806 15.9213 6.11104C16.0344 6.38402 16.2001 6.63206 16.409 6.84099C16.618 7.04992 16.866 7.21566 17.139 7.32873C17.412 7.4418 17.7046 7.5 18 7.5ZM18 0C19.3924 0 20.7278 0.553123 21.7123 1.53769C22.6969 2.52226 23.25 3.85761 23.25 5.25C23.25 6.64239 22.6969 7.97774 21.7123 8.96231C20.7278 9.94688 19.3924 10.5 18 10.5C16.6076 10.5 15.2723 9.94688 14.2877 8.96231C13.3032 7.97774 12.75 6.64239 12.75 5.25C12.75 3.85761 13.3032 2.52226 14.2877 1.53769C15.2723 0.553123 16.6076 0 18 0ZM18 33H22.5H28.5H30V30C30 27.0844 27.9094 24.6469 25.1532 24.1125C23.9438 23.8781 22.9969 22.9312 22.7719 21.7219L22.2 18.675C21.7969 16.5469 19.9407 15 17.775 15H16.5C14.0157 15 12 17.0156 12 19.5V33H13.5H18ZM18.1782 12.0094C21.6094 12.1969 24.5063 14.7 25.1438 18.1125L25.7157 21.1594C29.8688 21.9656 33 25.6125 33 30V33C33 34.6594 31.6594 36 30 36H28.5H24V46.5C24 47.325 23.325 48 22.5 48C21.675 48 21 47.325 21 46.5V36H18H15V46.5C15 47.325 14.325 48 13.5 48C12.675 48 12 47.325 12 46.5V36C10.3407 36 9.00003 34.6594 9.00003 33V21.7594L5.82191 27.7031C5.42816 28.4344 4.51878 28.7063 3.78753 28.3219C3.05628 27.9375 2.78441 27.0187 3.16878 26.2875L8.26878 16.7625C9.83441 13.8281 12.8813 12 16.2094 12H16.5H17.775H18C18.0657 12 18.1219 12 18.1782 12.0094Z" fill="#4F3422"/>
</svg>
