<svg width="48" height="48" viewBox="0 0 48 48" fill="none" xmlns="http://www.w3.org/2000/svg">
<g clip-path="url(#clip0_697_6064)">
<path d="M3 21C3 11.0625 11.0625 3 21 3H22.5C28.6969 3 34.4156 6.75 36.9187 12.0844C37.2187 12.7312 37.5281 13.4156 37.8469 14.1188C38.4281 15.4219 39.0375 16.7906 39.7031 18.0563C40.7438 20.0531 42.0281 22.0219 43.8281 23.625L44.1281 23.8875C44.6906 24.3844 45.0188 25.1062 45.0188 25.8656C45.0188 27.3281 43.8375 28.5094 42.375 28.5094H40.5C39.675 28.5094 39 29.1844 39 30.0094V36.0094C39 37.6688 37.6594 39.0094 36 39.0094H28.5C27.675 39.0094 27 39.6844 27 40.5094V46.5094C27 47.3344 27.675 48.0094 28.5 48.0094C29.325 48.0094 30 47.3344 30 46.5094V42H36C39.3094 42 42 39.3094 42 36V31.5H42.3562C45.4687 31.5 48 28.9781 48 25.8562C48 24.2437 47.3062 22.7063 46.1062 21.6375L45.8063 21.375C44.3906 20.1094 43.3125 18.5062 42.3469 16.6594C41.7188 15.4687 41.1938 14.2687 40.6406 13.0312C40.3125 12.3 39.9844 11.5594 39.6281 10.8C36.6375 4.43437 29.8687 0 22.5 0H21C9.40313 0 0 9.40313 0 21C0 25.9594 1.725 30.525 4.60312 34.125C5.48437 35.2125 6 36.4312 6 37.6312V46.5C6 47.325 6.675 48 7.5 48C8.325 48 9 47.325 9 46.5V37.6312C9 35.5594 8.10937 33.7031 6.94687 32.25C4.47187 29.1656 3 25.2563 3 21ZM21 9C19.3406 9 18 10.3406 18 12V15H15C13.3406 15 12 16.3406 12 18V21C12 22.6594 13.3406 24 15 24H18V27C18 28.6594 19.3406 30 21 30H24C25.6594 30 27 28.6594 27 27V24H30C31.6594 24 33 22.6594 33 21V18C33 16.3406 31.6594 15 30 15H27V12C27 10.3406 25.6594 9 24 9H21ZM21 16.5V12H24V16.5C24 17.325 24.675 18 25.5 18H30V21H25.5C24.675 21 24 21.675 24 22.5V27H21V22.5C21 21.675 20.325 21 19.5 21H15V18H19.5C19.8937 18 20.2781 17.8406 20.5594 17.5594C20.8406 17.2781 21 16.8937 21 16.5Z" fill="#4F3422"/>
</g>
<defs>
<clipPath id="clip0_697_6064">
<rect width="48" height="48" fill="white"/>
</clipPath>
</defs>
</svg>
