<svg width="54" height="48" viewBox="0 0 54 48" fill="none" xmlns="http://www.w3.org/2000/svg">
<g clip-path="url(#clip0_697_6070)">
<path d="M41.3812 3C40.3125 3 39.3 3.46875 38.6156 4.28438L21.975 24H31.1812C31.6219 24 32.0437 23.8031 32.325 23.4656L44.0625 9.5625C44.6719 8.84063 45 7.93125 45 6.98438V6.60938C45 4.62187 43.3781 3 41.3812 3ZM36.3187 2.35313C37.575 0.8625 39.4312 0 41.3812 0C45.0375 0 48 2.9625 48 6.61875V6.99375C48 8.64375 47.4187 10.2375 46.35 11.5031L34.6219 25.4062C33.7687 26.4188 32.5125 27 31.1812 27H18.75C18.1687 27 17.6344 26.6625 17.3906 26.1281C17.1469 25.5938 17.2312 24.975 17.6062 24.525L36.3187 2.35313ZM15.8812 30H20.1281L5.59687 44.5219C8.33437 44.0531 12 43.2 15.5531 41.7375C21.3094 39.3656 26.175 35.6719 26.9062 30H29.925C29.175 37.5562 22.8 42 16.6969 44.5125C10.1344 47.2125 3.1875 48 1.5 48C0.890624 48 0.346874 47.6344 0.112499 47.0719C-0.121876 46.5094 0.00937359 45.8625 0.440624 45.4406L15.8812 30ZM28.5 45C29.325 45 30 45.675 30 46.5C30 47.325 29.325 48 28.5 48H22.5C21.675 48 21 47.325 21 46.5C21 45.675 21.675 45 22.5 45H28.5ZM34.5 45H40.5C41.325 45 42 45.675 42 46.5C42 47.325 41.325 48 40.5 48H34.5C33.675 48 33 47.325 33 46.5C33 45.675 33.675 45 34.5 45ZM46.5 45H52.5C53.325 45 54 45.675 54 46.5C54 47.325 53.325 48 52.5 48H46.5C45.675 48 45 47.325 45 46.5C45 45.675 45.675 45 46.5 45Z" fill="#4F3422"/>
</g>
<defs>
<clipPath id="clip0_697_6070">
<rect width="54" height="48" fill="white"/>
</clipPath>
</defs>
</svg>
