<svg width="60" height="48" viewBox="0 0 60 48" fill="none" xmlns="http://www.w3.org/2000/svg">
<g clip-path="url(#clip0_697_6067)">
<path d="M43.5 0C42.675 0 42 0.675 42 1.5V4.03125C42 8.40938 43.7344 12.6 46.8281 15.7031L48.7969 17.6719C50.2031 19.0781 50.9906 20.9906 50.9906 22.9781V25.5094C50.9906 26.3344 51.6656 27.0094 52.4906 27.0094C53.3156 27.0094 53.9906 26.3344 53.9906 25.5094V22.9688C53.9906 20.1844 52.8844 17.5125 50.9156 15.5438L48.9469 13.575C46.425 11.0438 45 7.6125 45 4.03125V1.5C45 0.675 44.325 0 43.5 0ZM58.5 27C59.325 27 60 26.325 60 25.5V22.9688C60 18.5906 58.2656 14.4 55.1719 11.2969L53.2031 9.32812C51.7875 7.92188 51 6.01875 51 4.03125V1.5C51 0.675 50.325 0 49.5 0C48.675 0 48 0.675 48 1.5V4.03125C48 6.81563 49.1062 9.4875 51.075 11.4562L53.0437 13.425C55.575 15.9562 57 19.3875 57 22.9688V25.5C57 26.325 57.675 27 58.5 27ZM6 36H18V45H6C4.34062 45 3 43.6594 3 42V39C3 37.3406 4.34062 36 6 36ZM21 36H45V45H21V36ZM6 48H19.5H46.5C47.325 48 48 47.325 48 46.5V34.5C48 33.675 47.325 33 46.5 33H19.5H6C2.69063 33 0 35.6906 0 39V42C0 45.3094 2.69063 48 6 48ZM52.5 33C51.675 33 51 33.675 51 34.5V46.5C51 47.325 51.675 48 52.5 48C53.325 48 54 47.325 54 46.5V34.5C54 33.675 53.325 33 52.5 33ZM58.5 33C57.675 33 57 33.675 57 34.5V46.5C57 47.325 57.675 48 58.5 48C59.325 48 60 47.325 60 46.5V34.5C60 33.675 59.325 33 58.5 33Z" fill="#4F3422"/>
</g>
<defs>
<clipPath id="clip0_697_6067">
<rect width="60" height="48" fill="white"/>
</clipPath>
</defs>
</svg>
