<svg width="48" height="48" viewBox="0 0 48 48" fill="none" xmlns="http://www.w3.org/2000/svg">
<g clip-path="url(#clip0_698_6391)">
<path d="M22.5 36V44.9437C12.6 44.25 4.60312 36.6938 3.21562 27H13.1625C13.3687 27.3937 13.6406 27.7594 13.9688 28.0875L20.8219 34.9406C21.3094 35.4281 21.8906 35.7844 22.5 36ZM25.5 36C26.1187 35.7844 26.6906 35.4281 27.1781 34.9406L34.0312 28.0875C34.3594 27.7594 34.6219 27.3937 34.8375 27H44.7844C43.3969 36.6938 35.4 44.25 25.5 44.9437V36ZM35.2594 24C35.1844 23.625 35.0531 23.25 34.875 22.8937L33.675 20.4844C32.9063 18.9656 31.35 18 29.6438 18H18.3563C16.65 18 15.0937 18.9656 14.3344 20.4844L13.125 22.8937C12.9469 23.25 12.8156 23.625 12.7406 24H3C3 12.4031 12.4031 3 24 3C35.5969 3 45 12.4031 45 24H35.2594ZM24 48C30.3652 48 36.4697 45.4714 40.9706 40.9706C45.4714 36.4697 48 30.3652 48 24C48 17.6348 45.4714 11.5303 40.9706 7.02944C36.4697 2.52856 30.3652 0 24 0C17.6348 0 11.5303 2.52856 7.02944 7.02944C2.52856 11.5303 0 17.6348 0 24C0 30.3652 2.52856 36.4697 7.02944 40.9706C11.5303 45.4714 17.6348 48 24 48ZM17.0156 21.825C17.2688 21.3188 17.7938 21 18.3563 21H29.6438C30.2156 21 30.7312 21.3188 30.9844 21.825L32.1844 24.2344C32.475 24.8156 32.3625 25.5094 31.9031 25.9688L25.05 32.8219C24.4688 33.4031 23.5125 33.4031 22.9313 32.8219L16.0875 25.9688C15.6281 25.5094 15.5156 24.8156 15.8063 24.2344L17.0062 21.825H17.0156Z" fill="#4F3422"/>
</g>
<defs>
<clipPath id="clip0_698_6391">
<rect width="48" height="48" fill="white"/>
</clipPath>
</defs>
</svg>
