<svg width="60" height="48" viewBox="0 0 60 48" fill="none" xmlns="http://www.w3.org/2000/svg">
<g clip-path="url(#clip0_698_6394)">
<path d="M23.7469 3C24.2906 3 24.7875 3.29063 25.05 3.76875L36.4219 23.9719C36.6187 24.3187 36.9469 24.5719 37.3313 24.6844L45.9094 27.0656C47.4 27.4781 48.7875 28.2187 49.9594 29.2406L52.4625 31.4062C53.5406 32.3344 53.0906 34.0969 51.7031 34.4062C49.1625 34.9688 46.5188 34.8844 44.0156 34.1719L15.9844 26.2031C15.8156 26.1562 15.6562 26.0813 15.5156 25.9781L6.64688 19.5656C6.25313 19.2844 6.02813 18.8344 6.02813 18.3563L6 9.375L9.20625 10.0875C9.74062 10.2094 10.1625 10.6031 10.3219 11.1187L12.0656 16.9313C12.2156 17.4281 12.6 17.8031 13.0969 17.9437L22.6406 20.5969C23.1656 20.7469 23.7281 20.5969 24.1031 20.2125C24.4781 19.8281 24.6281 19.2656 24.4781 18.7406L19.9875 3H23.7469ZM27.6656 2.29688C26.8688 0.88125 25.3688 0 23.7469 0H19.9875C18 0 16.5562 1.90312 17.1 3.825L20.8594 16.9875L14.6906 15.2719L13.1813 10.2469C12.7125 8.69063 11.4375 7.5 9.84375 7.14375L6.65625 6.44062C4.78125 6.02812 3 7.45312 3 9.375L3.01875 18.3563C3.01875 19.8 3.7125 21.15 4.88437 21.9938L13.7625 28.4062C14.1844 28.7156 14.6625 28.9406 15.1688 29.0906L43.1813 37.05C46.1625 37.8938 49.3125 37.9875 52.3406 37.3219C56.1469 36.4875 57.3656 31.6688 54.4125 29.1188L51.9094 26.9531C50.4 25.65 48.6188 24.6938 46.6969 24.1594L38.7188 21.9375L27.6656 2.29688ZM1.5 45C0.675 45 0 45.675 0 46.5C0 47.325 0.675 48 1.5 48H58.5C59.325 48 60 47.325 60 46.5C60 45.675 59.325 45 58.5 45H1.5ZM16.5 34.5C16.5 33.9033 16.2629 33.331 15.841 32.909C15.419 32.4871 14.8467 32.25 14.25 32.25C13.6533 32.25 13.081 32.4871 12.659 32.909C12.2371 33.331 12 33.9033 12 34.5C12 35.0967 12.2371 35.669 12.659 36.091C13.081 36.5129 13.6533 36.75 14.25 36.75C14.8467 36.75 15.419 36.5129 15.841 36.091C16.2629 35.669 16.5 35.0967 16.5 34.5ZM23.25 39.75C23.5455 39.75 23.8381 39.6918 24.111 39.5787C24.384 39.4657 24.6321 39.2999 24.841 39.091C25.0499 38.8821 25.2157 38.634 25.3287 38.361C25.4418 38.0881 25.5 37.7955 25.5 37.5C25.5 37.2045 25.4418 36.9119 25.3287 36.639C25.2157 36.366 25.0499 36.1179 24.841 35.909C24.6321 35.7001 24.384 35.5343 24.111 35.4213C23.8381 35.3082 23.5455 35.25 23.25 35.25C22.9545 35.25 22.6619 35.3082 22.389 35.4213C22.116 35.5343 21.8679 35.7001 21.659 35.909C21.4501 36.1179 21.2843 36.366 21.1713 36.639C21.0582 36.9119 21 37.2045 21 37.5C21 37.7955 21.0582 38.0881 21.1713 38.361C21.2843 38.634 21.4501 38.8821 21.659 39.091C21.8679 39.2999 22.116 39.4657 22.389 39.5787C22.6619 39.6918 22.9545 39.75 23.25 39.75Z" fill="#4F3422"/>
</g>
<defs>
<clipPath id="clip0_698_6394">
<rect width="60" height="48" fill="white"/>
</clipPath>
</defs>
</svg>
