<svg width="60" height="48" viewBox="0 0 60 48" fill="none" xmlns="http://www.w3.org/2000/svg">
<path d="M14.8781 9.88119C15.9562 9.39369 17.175 9.34681 18.2906 9.74994L35.1562 15.9374C35.55 16.0781 35.9812 16.0593 36.3562 15.8624L44.6062 11.6437C46.0875 10.8843 47.7281 10.4906 49.3875 10.4906H55.1062C56.2969 10.4906 57.0844 11.7187 56.5875 12.7968C55.1437 15.9281 52.6781 18.4687 49.5938 20.0156L23.9625 32.8406C23.7563 32.9437 23.5219 32.9999 23.2875 32.9999H10.2469C9.85313 32.9999 9.46875 32.8406 9.1875 32.5593L3.19687 26.5781L5.41875 25.3031C5.83125 25.0687 6.3375 25.0406 6.76875 25.2374L12.1312 27.6187C12.5437 27.8062 13.0219 27.7874 13.425 27.5812L24.2063 22.0687C24.6844 21.8249 25.0031 21.3374 25.0219 20.7937C25.0406 20.2499 24.7781 19.7437 24.3187 19.4531L11.4281 11.4562L14.8875 9.88119H14.8781ZM19.3219 6.93744C17.475 6.26244 15.4313 6.33744 13.6406 7.15307L10.1812 8.72806C7.99687 9.72181 7.8 12.7406 9.84375 14.0062L20.4844 20.6156L12.7031 24.5906L7.99688 22.4999C6.68438 21.9187 5.18438 21.9937 3.9375 22.7062L1.70625 23.9718C-0.00937486 24.9562 -0.328125 27.2999 1.06875 28.6968L7.05 34.6781C7.89375 35.5218 9.0375 35.9999 10.2281 35.9999H23.2875C23.9906 35.9999 24.675 35.8406 25.3031 35.5218L50.9344 22.7062C54.6281 20.8593 57.5812 17.8124 59.3062 14.0624C60.7219 10.9968 58.4812 7.49994 55.1062 7.49994H49.3875C47.25 7.49994 45.15 8.00619 43.2469 8.98119L35.5781 12.8999L19.3219 6.93744ZM1.5 44.9999C0.675 44.9999 0 45.6749 0 46.4999C0 47.3249 0.675 47.9999 1.5 47.9999H58.5C59.325 47.9999 60 47.3249 60 46.4999C60 45.6749 59.325 44.9999 58.5 44.9999H1.5Z" fill="#4F3422"/>
</svg>
