<svg width="36" height="48" viewBox="0 0 36 48" fill="none" xmlns="http://www.w3.org/2000/svg">
<g clip-path="url(#clip0_698_6388)">
<path d="M33 18C33 9.7125 26.2875 3 18 3C9.7125 3 3 9.7125 3 18C3 19.4625 3.50625 21.4687 4.55625 23.9437C5.57812 26.3719 7.0125 29.0062 8.64375 31.6406C11.8406 36.825 15.6188 41.7844 18.0094 44.7656C20.3906 41.7844 24.1781 36.825 27.375 31.6406C28.9969 29.0062 30.4406 26.3625 31.4625 23.9437C32.4938 21.4687 33 19.4625 33 18ZM36 18C36 26.1938 25.0312 40.7813 20.2219 46.8C19.0687 48.2344 16.9313 48.2344 15.7781 46.8C10.9688 40.7813 0 26.1938 0 18C0 8.0625 8.0625 0 18 0C27.9375 0 36 8.0625 36 18ZM13.5 18C13.5 19.1935 13.9741 20.3381 14.818 21.182C15.6619 22.0259 16.8065 22.5 18 22.5C19.1935 22.5 20.3381 22.0259 21.182 21.182C22.0259 20.3381 22.5 19.1935 22.5 18C22.5 16.8065 22.0259 15.6619 21.182 14.818C20.3381 13.9741 19.1935 13.5 18 13.5C16.8065 13.5 15.6619 13.9741 14.818 14.818C13.9741 15.6619 13.5 16.8065 13.5 18ZM18 25.5C16.0109 25.5 14.1032 24.7098 12.6967 23.3033C11.2902 21.8968 10.5 19.9891 10.5 18C10.5 16.0109 11.2902 14.1032 12.6967 12.6967C14.1032 11.2902 16.0109 10.5 18 10.5C19.9891 10.5 21.8968 11.2902 23.3033 12.6967C24.7098 14.1032 25.5 16.0109 25.5 18C25.5 19.9891 24.7098 21.8968 23.3033 23.3033C21.8968 24.7098 19.9891 25.5 18 25.5Z" fill="#4F3422"/>
</g>
<defs>
<clipPath id="clip0_698_6388">
<rect width="36" height="48" fill="white"/>
</clipPath>
</defs>
</svg>
