<svg width="48" height="48" viewBox="0 0 48 48" fill="none" xmlns="http://www.w3.org/2000/svg">
<path d="M12 42V33V25.5H36V33V42H12ZM36 22.5H12V15V6H36V15V22.5ZM9 42H6C4.34062 42 3 40.6594 3 39V34.5H9V42ZM3 25.5H9V31.5H3V25.5ZM9 16.5V22.5H3V16.5H9ZM9 6V13.5H3V9C3 7.34062 4.34062 6 6 6H9ZM39 31.5V25.5H45V31.5H39ZM39 42V34.5H45V39C45 40.6594 43.6594 42 42 42H39ZM39 16.5H45V22.5H39V16.5ZM45 9V13.5H39V6H42C43.6594 6 45 7.34062 45 9ZM42 3H6C2.69063 3 0 5.69063 0 9V39C0 42.3094 2.69063 45 6 45H42C45.3094 45 48 42.3094 48 39V9C48 5.69063 45.3094 3 42 3Z" fill="#4F3422"/>
</svg>
