<svg width="48" height="48" viewBox="0 0 48 48" fill="none" xmlns="http://www.w3.org/2000/svg">
<g clip-path="url(#clip0_697_5929)">
<path d="M46.8844 2.95318C47.6813 2.73755 48.1594 1.92193 47.9437 1.11568C47.7281 0.309428 46.9125 -0.159322 46.1062 0.0563032L5.56875 10.8657C2.63438 11.6532 0.496875 14.1094 0.075 17.0532C0.028125 17.3626 0 17.6719 0 18.0001V18.1126V22.5001V42.0001C0 45.3094 2.69063 48.0001 6 48.0001H42C45.3094 48.0001 48 45.3094 48 42.0001V18.0001C48 14.6907 45.3094 12.0001 42 12.0001H12.9469L46.8844 2.95318ZM3 18.1126C3 17.9063 3.00938 17.7094 3.0375 17.5126C3.27188 16.0876 4.50938 15.0001 6 15.0001H42C43.6594 15.0001 45 16.3407 45 18.0001V21.0001H3V18.1126ZM3 42.0001V24.0001H45V42.0001C45 43.6594 43.6594 45.0001 42 45.0001H6C4.34062 45.0001 3 43.6594 3 42.0001ZM7.5 30.0001C6.675 30.0001 6 30.6751 6 31.5001C6 32.3251 6.675 33.0001 7.5 33.0001H19.5C20.325 33.0001 21 32.3251 21 31.5001C21 30.6751 20.325 30.0001 19.5 30.0001H7.5ZM9 36.0001C8.175 36.0001 7.5 36.6751 7.5 37.5001C7.5 38.3251 8.175 39.0001 9 39.0001H18C18.825 39.0001 19.5 38.3251 19.5 37.5001C19.5 36.6751 18.825 36.0001 18 36.0001H9ZM34.5 39.0001C33.3065 39.0001 32.1619 38.5259 31.318 37.682C30.4741 36.8381 30 35.6935 30 34.5001C30 33.3066 30.4741 32.162 31.318 31.3181C32.1619 30.4742 33.3065 30.0001 34.5 30.0001C35.6935 30.0001 36.8381 30.4742 37.682 31.3181C38.5259 32.162 39 33.3066 39 34.5001C39 35.6935 38.5259 36.8381 37.682 37.682C36.8381 38.5259 35.6935 39.0001 34.5 39.0001ZM27 34.5001C27 36.4892 27.7902 38.3968 29.1967 39.8034C30.6032 41.2099 32.5109 42.0001 34.5 42.0001C36.4891 42.0001 38.3968 41.2099 39.8033 39.8034C41.2098 38.3968 42 36.4892 42 34.5001C42 32.5109 41.2098 30.6033 39.8033 29.1968C38.3968 27.7902 36.4891 27.0001 34.5 27.0001C32.5109 27.0001 30.6032 27.7902 29.1967 29.1968C27.7902 30.6033 27 32.5109 27 34.5001Z" fill="#4F3422"/>
</g>
<defs>
<clipPath id="clip0_697_5929">
<rect width="48" height="48" fill="white"/>
</clipPath>
</defs>
</svg>
