<svg width="60" height="48" viewBox="0 0 60 48" fill="none" xmlns="http://www.w3.org/2000/svg">
<g clip-path="url(#clip0_697_5923)">
<path d="M54 3C55.6594 3 57 4.34062 57 6V36C57 37.6594 55.6594 39 54 39H6C4.34062 39 3 37.6594 3 36V6C3 4.34062 4.34062 3 6 3H54ZM6 0C2.69063 0 0 2.69063 0 6V36C0 39.3094 2.69063 42 6 42H54C57.3094 42 60 39.3094 60 36V6C60 2.69063 57.3094 0 54 0H6ZM9 46.5C9 47.325 9.675 48 10.5 48H49.5C50.325 48 51 47.325 51 46.5C51 45.675 50.325 45 49.5 45H10.5C9.675 45 9 45.675 9 46.5ZM38.3531 9.2625C37.95 8.98125 37.4344 8.91563 36.975 9.09375L24.975 13.5938C24.3937 13.8094 24 14.3719 24 15V23.4844C23.5312 23.3344 23.025 23.25 22.5 23.25C20.0156 23.25 18 25.0969 18 27.375C18 29.6531 20.0156 31.5 22.5 31.5C24.9844 31.5 27 29.6531 27 27.375C27 27.3 27 27.225 26.9906 27.1406C26.9906 27.0938 27 27.0469 27 27V16.0406L36 12.6656V20.4844C35.5312 20.3344 35.025 20.25 34.5 20.25C32.0156 20.25 30 22.0969 30 24.375C30 26.6531 32.0156 28.5 34.5 28.5C36.9844 28.5 39 26.6531 39 24.375C39 24.3 39 24.225 38.9906 24.1406C38.9906 24.0938 39 24.0469 39 24V10.5C39 10.0125 38.7563 9.54375 38.3531 9.2625ZM36 24.375C36 24.7594 35.5781 25.5 34.5 25.5C33.4219 25.5 33 24.7594 33 24.375C33 23.9906 33.4219 23.25 34.5 23.25C35.5781 23.25 36 23.9906 36 24.375ZM24 27.375C24 27.7594 23.5781 28.5 22.5 28.5C21.4219 28.5 21 27.7594 21 27.375C21 26.9906 21.4219 26.25 22.5 26.25C23.5781 26.25 24 26.9906 24 27.375Z" fill="#4F3422"/>
</g>
<defs>
<clipPath id="clip0_697_5923">
<rect width="60" height="48" fill="white"/>
</clipPath>
</defs>
</svg>
