<svg width="48" height="48" viewBox="0 0 48 48" fill="none" xmlns="http://www.w3.org/2000/svg">
<g clip-path="url(#clip0_697_5926)">
<path d="M14.475 0.365714C13.8469 -0.178036 12.9 -0.103035 12.3563 0.52509C11.8125 1.15321 11.8875 2.10009 12.5156 2.64384L19.9406 9.00009H7.5C3.35625 9.00009 0 12.3563 0 16.5001V40.5001C0 44.6438 3.35625 48.0001 7.5 48.0001H40.5C44.6438 48.0001 48 44.6438 48 40.5001V16.5001C48 12.3563 44.6438 9.00009 40.5 9.00009H28.0594L35.4844 2.63446C36.1125 2.09071 36.1875 1.14384 35.6438 0.515715C35.1 -0.11241 34.1625 -0.187411 33.525 0.356339L24 8.52196L14.475 0.365714ZM24 12.0001H40.5C42.9844 12.0001 45 14.0157 45 16.5001V40.5001C45 42.9845 42.9844 45.0001 40.5 45.0001H7.5C5.01562 45.0001 3 42.9845 3 40.5001V16.5001C3 14.0157 5.01562 12.0001 7.5 12.0001H24ZM31.5 18.0001C32.325 18.0001 33 18.6751 33 19.5001V37.5001C33 38.3251 32.325 39.0001 31.5 39.0001H10.5C9.675 39.0001 9 38.3251 9 37.5001V19.5001C9 18.6751 9.675 18.0001 10.5 18.0001H31.5ZM10.5 15.0001C8.01562 15.0001 6 17.0157 6 19.5001V37.5001C6 39.9845 8.01562 42.0001 10.5 42.0001H31.5C33.9844 42.0001 36 39.9845 36 37.5001V19.5001C36 17.0157 33.9844 15.0001 31.5 15.0001H10.5ZM40.5 21.7501C41.0967 21.7501 41.669 21.513 42.091 21.0911C42.5129 20.6691 42.75 20.0968 42.75 19.5001C42.75 18.9034 42.5129 18.3311 42.091 17.9091C41.669 17.4871 41.0967 17.2501 40.5 17.2501C39.9033 17.2501 39.331 17.4871 38.909 17.9091C38.4871 18.3311 38.25 18.9034 38.25 19.5001C38.25 20.0968 38.4871 20.6691 38.909 21.0911C39.331 21.513 39.9033 21.7501 40.5 21.7501ZM42.75 25.5001C42.75 24.9034 42.5129 24.3311 42.091 23.9091C41.669 23.4871 41.0967 23.2501 40.5 23.2501C39.9033 23.2501 39.331 23.4871 38.909 23.9091C38.4871 24.3311 38.25 24.9034 38.25 25.5001C38.25 26.0968 38.4871 26.6691 38.909 27.0911C39.331 27.513 39.9033 27.7501 40.5 27.7501C41.0967 27.7501 41.669 27.513 42.091 27.0911C42.5129 26.6691 42.75 26.0968 42.75 25.5001Z" fill="#4F3422"/>
</g>
<defs>
<clipPath id="clip0_697_5926">
<rect width="48" height="48" fill="white"/>
</clipPath>
</defs>
</svg>
