<svg width="48" height="48" viewBox="0 0 48 48" fill="none" xmlns="http://www.w3.org/2000/svg">
<g clip-path="url(#clip0_698_6262)">
<path d="M16.5 3.5625V9.43125C17.4469 9.15 18.4594 9 19.5 9C20.5406 9 21.5531 9.15 22.5 9.43125V3H21C19.4437 3 17.9344 3.19687 16.5 3.5625ZM13.5 4.63125C7.30313 7.47188 3 13.7344 3 21C3 25.2563 4.47187 29.1656 6.94687 32.25C8.10937 33.7031 9 35.5594 9 37.6312V46.5C9 47.325 8.325 48 7.5 48C6.675 48 6 47.325 6 46.5V37.6312C6 36.4312 5.48437 35.2219 4.60312 34.125C1.725 30.525 0 25.9594 0 21C0 9.40313 9.40313 0 21 0H22.5C29.8687 0 36.6375 4.43438 39.6281 10.8094C39.9844 11.5688 40.3125 12.3094 40.6406 13.0406C41.1938 14.2781 41.7281 15.4781 42.3469 16.6688C43.3125 18.5063 44.3813 20.1188 45.8063 21.3844L46.1062 21.6469C47.3062 22.7156 48 24.2531 48 25.8656C48 28.9781 45.4781 31.5094 42.3562 31.5094H42V36.0094C42 39.3188 39.3094 42.0094 36 42.0094H30V46.5094C30 47.3344 29.325 48.0094 28.5 48.0094C27.675 48.0094 27 47.3344 27 46.5094V40.5C27 39.675 27.675 39 28.5 39H36C37.6594 39 39 37.6594 39 36V30C39 29.175 39.675 28.5 40.5 28.5H42.3562C43.8187 28.5 45 27.3187 45 25.8562C45 25.1062 44.6812 24.3844 44.1094 23.8781L43.8094 23.6156C42.0094 22.0125 40.7344 20.0437 39.6844 18.0469C39.0281 16.7812 38.4188 15.4219 37.8281 14.1094C37.5094 13.4062 37.2094 12.7125 36.9 12.075C34.8281 7.63125 30.4875 4.275 25.5 3.29062V10.8844C28.2188 12.7781 30 15.9375 30 19.5C30 25.3031 25.3031 30 19.5 30C13.6969 30 9 25.3031 9 19.5C9 15.9281 10.7812 12.7781 13.5 10.8844V4.63125ZM27 19.5C27 17.5109 26.2098 15.6032 24.8033 14.1967C23.3968 12.7902 21.4891 12 19.5 12C17.5109 12 15.6032 12.7902 14.1967 14.1967C12.7902 15.6032 12 17.5109 12 19.5C12 21.4891 12.7902 23.3968 14.1967 24.8033C15.6032 26.2098 17.5109 27 19.5 27C21.4891 27 23.3968 26.2098 24.8033 24.8033C26.2098 23.3968 27 21.4891 27 19.5ZM19.5 21C19.8978 21 20.2794 20.842 20.5607 20.5607C20.842 20.2794 21 19.8978 21 19.5C21 19.1022 20.842 18.7206 20.5607 18.4393C20.2794 18.158 19.8978 18 19.5 18C19.1022 18 18.7206 18.158 18.4393 18.4393C18.158 18.7206 18 19.1022 18 19.5C18 19.8978 18.158 20.2794 18.4393 20.5607C18.7206 20.842 19.1022 21 19.5 21ZM19.5 15C20.6935 15 21.8381 15.4741 22.682 16.318C23.5259 17.1619 24 18.3065 24 19.5C24 20.6935 23.5259 21.8381 22.682 22.682C21.8381 23.5259 20.6935 24 19.5 24C18.3065 24 17.1619 23.5259 16.318 22.682C15.4741 21.8381 15 20.6935 15 19.5C15 18.3065 15.4741 17.1619 16.318 16.318C17.1619 15.4741 18.3065 15 19.5 15Z" fill="#4F3422"/>
</g>
<defs>
<clipPath id="clip0_698_6262">
<rect width="48" height="48" fill="white"/>
</clipPath>
</defs>
</svg>
