<svg width="54" height="48" viewBox="0 0 54 48" fill="none" xmlns="http://www.w3.org/2000/svg">
<g clip-path="url(#clip0_698_6250)">
<path d="M15.3656 2.70936C17.9719 0.0656088 22.1062 -0.0750163 24.8719 2.27811C25.4156 2.73748 25.9031 3.25311 26.4 3.76873C26.5969 3.97498 26.7937 4.19061 27 4.38748C27.1969 4.18123 27.4031 3.97498 27.6 3.76873C28.0875 3.25311 28.5844 2.73748 29.1281 2.27811C31.8938 -0.0750163 36.0281 0.0656088 38.6344 2.70936C41.3906 5.50311 41.3906 10.0406 38.6344 12.8344L29.1094 22.5094C28.5281 23.1 27.7687 23.3906 27 23.3906C26.2313 23.3906 25.4719 23.1 24.8906 22.5094L15.3656 12.8344C12.6094 10.0406 12.6094 5.50311 15.3656 2.70936ZM23.2031 4.81873C21.6281 3.21561 19.0781 3.21561 17.5031 4.81873C15.9 6.44998 15.9 9.10311 17.5031 10.7344L27 20.3719L36.4969 10.725C38.1 9.09373 38.1 6.44061 36.4969 4.80936C34.9219 3.20623 32.3719 3.20623 30.7969 4.80936L28.0687 7.58436C27.4781 8.18436 26.5219 8.18436 25.9313 7.58436L23.2031 4.81873ZM14.1562 29.7562C15.3844 28.9312 16.8375 28.5 18.3187 28.5H32.25C35.1469 28.5 37.5 30.8531 37.5 33.75C37.5 34.5562 37.3219 35.3156 36.9938 36H37.5188L46.3969 30.7125C47.175 30.2531 48.0656 30 48.975 30H49.0969C51.8063 30 54 32.1937 54 34.9031C54 36.5625 53.1563 38.1094 51.7688 39.0094L40.5563 46.3031C38.85 47.4094 36.8625 48 34.8375 48H1.5C0.675 48 0 47.325 0 46.5C0 45.675 0.675 45 1.5 45H34.8281C36.2812 45 37.6969 44.5781 38.9156 43.7906L50.1281 36.4969C50.6719 36.15 50.9906 35.5406 50.9906 34.9031C50.9906 33.8531 50.1375 33 49.0875 33H48.9656C48.6 33 48.2438 33.1031 47.925 33.2812L38.6906 38.7844C38.4563 38.925 38.1938 39 37.9219 39H32.25H30H24C23.175 39 22.5 38.325 22.5 37.5C22.5 36.675 23.175 36 24 36H30H32.25C33.4969 36 34.5 34.9969 34.5 33.75C34.5 32.5031 33.4969 31.5 32.25 31.5H18.3187C17.4281 31.5 16.5656 31.7625 15.825 32.2594L8.33438 37.2469C8.09063 37.4156 7.8 37.5 7.5 37.5H1.5C0.675 37.5 0 36.825 0 36C0 35.175 0.675 34.5 1.5 34.5H7.05L14.1562 29.7562Z" fill="#4F3422"/>
</g>
<defs>
<clipPath id="clip0_698_6250">
<rect width="54" height="48" fill="white"/>
</clipPath>
</defs>
</svg>
