<svg width="42" height="48" viewBox="0 0 42 48" fill="none" xmlns="http://www.w3.org/2000/svg">
<g clip-path="url(#clip0_698_6253)">
<path d="M0 6C0 2.69063 2.69063 0 6 0H37.5C39.9844 0 42 2.01562 42 4.5V34.5C42 36.4594 40.7438 38.1281 39 38.7469V45H40.5C41.325 45 42 45.675 42 46.5C42 47.325 41.325 48 40.5 48H6C2.69063 48 0 45.3094 0 42V6ZM6 39C4.34062 39 3 40.3406 3 42C3 43.6594 4.34062 45 6 45H36V39H6ZM3 36.8063C3.88125 36.3 4.90313 36 6 36H9V3H6C4.34062 3 3 4.34062 3 6V36.8063ZM12 3V36H37.5C38.325 36 39 35.325 39 34.5V4.5C39 3.675 38.325 3 37.5 3H12Z" fill="#4F3422"/>
</g>
<defs>
<clipPath id="clip0_698_6253">
<rect width="42" height="48" fill="white"/>
</clipPath>
</defs>
</svg>
