<svg width="54" height="48" viewBox="0 0 54 48" fill="none" xmlns="http://www.w3.org/2000/svg">
<g clip-path="url(#clip0_698_6256)">
<path d="M1.5 48C0.675 48 0 47.325 0 46.5C0 45.675 0.675 45 1.5 45H3V41.1C3 36.4687 5.1375 32.1 8.79375 29.2594L15.5531 24L8.79375 18.7406C5.1375 15.9 3 11.5219 3 6.9V3H1.5C0.675 3 0 2.325 0 1.5C0 0.675 0.675 0 1.5 0H4.5H31.5H34.5C35.325 0 36 0.675 36 1.5C36 2.325 35.325 3 34.5 3H33V6.9C33 11.5312 30.8625 15.9 27.2063 18.7406L20.4469 24L25.3969 27.8531C24.975 28.8188 24.6375 29.8312 24.4031 30.8812L18 25.9031L10.6313 31.6312C7.70625 33.9 6 37.3969 6 41.1V45H27.7688C28.7063 46.1344 29.8031 47.1469 31.0125 48H4.5H1.5ZM18 22.0969L25.3688 16.3688C28.2938 14.0906 30 10.6031 30 6.9V3H6V6.9C6 10.6031 7.70625 14.1 10.6313 16.3688L18 22.0969ZM40.5 45C43.2848 45 45.9555 43.8938 47.9246 41.9246C49.8938 39.9555 51 37.2848 51 34.5C51 31.7152 49.8938 29.0445 47.9246 27.0754C45.9555 25.1062 43.2848 24 40.5 24C37.7152 24 35.0445 25.1062 33.0754 27.0754C31.1062 29.0445 30 31.7152 30 34.5C30 37.2848 31.1062 39.9555 33.0754 41.9246C35.0445 43.8938 37.7152 45 40.5 45ZM40.5 21C44.0804 21 47.5142 22.4223 50.0459 24.9541C52.5777 27.4858 54 30.9196 54 34.5C54 38.0804 52.5777 41.5142 50.0459 44.0459C47.5142 46.5777 44.0804 48 40.5 48C36.9196 48 33.4858 46.5777 30.9541 44.0459C28.4223 41.5142 27 38.0804 27 34.5C27 30.9196 28.4223 27.4858 30.9541 24.9541C33.4858 22.4223 36.9196 21 40.5 21ZM40.5 27C41.325 27 42 27.675 42 28.5V33H45C45.825 33 46.5 33.675 46.5 34.5C46.5 35.325 45.825 36 45 36H40.5C39.675 36 39 35.325 39 34.5V28.5C39 27.675 39.675 27 40.5 27Z" fill="#4F3422"/>
</g>
<defs>
<clipPath id="clip0_698_6256">
<rect width="54" height="48" fill="white"/>
</clipPath>
</defs>
</svg>
