<svg width="60" height="48" viewBox="0 0 60 48" fill="none" xmlns="http://www.w3.org/2000/svg">
<g clip-path="url(#clip0_698_6259)">
<path d="M5.175 0.159163C4.43438 -0.215837 3.53438 0.0935375 3.15938 0.834163C2.78438 1.57479 3.09375 2.47479 3.83438 2.84979L9.83438 5.84979C10.575 6.22479 11.475 5.91541 11.85 5.17479C12.225 4.43416 11.9156 3.53416 11.175 3.15916L5.175 0.159163ZM56.175 2.84041C56.9156 2.46541 57.2156 1.56541 56.85 0.824788C56.4844 0.0841626 55.575 -0.215837 54.8344 0.149788L48.8344 3.14979C48.0938 3.52479 47.7938 4.42479 48.1594 5.16541C48.525 5.90604 49.4344 6.20604 50.175 5.84041L56.175 2.84041ZM1.5 14.9998C0.675 14.9998 0 15.6748 0 16.4998C0 17.3248 0.675 17.9998 1.5 17.9998H7.5C8.325 17.9998 9 17.3248 9 16.4998C9 15.6748 8.325 14.9998 7.5 14.9998H1.5ZM52.5 14.9998C51.675 14.9998 51 15.6748 51 16.4998C51 17.3248 51.675 17.9998 52.5 17.9998H58.5C59.325 17.9998 60 17.3248 60 16.4998C60 15.6748 59.325 14.9998 58.5 14.9998H52.5ZM11.175 29.8404C11.9156 29.4654 12.2156 28.5654 11.85 27.8248C11.4844 27.0842 10.575 26.7842 9.83438 27.1498L3.83438 30.1498C3.09375 30.5248 2.79375 31.4248 3.15938 32.1654C3.525 32.906 4.43438 33.206 5.175 32.8404L11.175 29.8404ZM50.175 27.1592C49.4344 26.7842 48.5344 27.0935 48.1594 27.8342C47.7844 28.5748 48.0938 29.4748 48.8344 29.8498L54.8344 32.8498C55.575 33.2248 56.475 32.9154 56.85 32.1748C57.225 31.4342 56.9156 30.5342 56.175 30.1592L50.175 27.1592ZM43.5 16.4998C43.5 19.3685 42.6094 22.0123 41.0906 24.1967C40.7062 24.7498 40.275 25.3498 39.8156 25.9779C38.625 27.6185 37.275 29.4654 36.2531 31.331C35.4188 32.8498 34.9688 34.4529 34.7344 36.0092H37.7812C37.9875 34.8842 38.3344 33.7873 38.8875 32.7748C39.8156 31.0873 40.9687 29.5029 42.1219 27.9185C42.6094 27.2529 43.0969 26.5873 43.5656 25.9123C45.4219 23.2404 46.5094 20.006 46.5094 16.5092C46.5 7.38729 39.1125 -0.00021242 30 -0.00021242C20.8875 -0.00021242 13.5 7.38729 13.5 16.4998C13.5 19.9967 14.5875 23.2404 16.4437 25.9029C16.9125 26.5779 17.4 27.2435 17.8875 27.9092C19.0406 29.4842 20.1938 31.0685 21.1219 32.7654C21.675 33.7779 22.0219 34.8748 22.2281 35.9998H25.2656C25.0312 34.4435 24.5813 32.8404 23.7469 31.3217C22.725 29.4467 21.375 27.5998 20.1844 25.9685C19.725 25.3404 19.2937 24.7498 18.9094 24.1873C17.3906 22.0123 16.5 19.3685 16.5 16.4998C16.5 9.04666 22.5469 2.99979 30 2.99979C37.4531 2.99979 43.5 9.04666 43.5 16.4998ZM22.5 16.4998C22.5 12.356 25.8562 8.99979 30 8.99979C30.825 8.99979 31.5 8.32479 31.5 7.49979C31.5 6.67479 30.825 5.99979 30 5.99979C24.1969 5.99979 19.5 10.6967 19.5 16.4998C19.5 17.3248 20.175 17.9998 21 17.9998C21.825 17.9998 22.5 17.3248 22.5 16.4998ZM30 44.9998C28.0406 44.9998 26.3719 43.7435 25.7531 41.9998H34.2375C33.6188 43.7435 31.95 44.9998 29.9906 44.9998H30ZM22.5 40.0029V40.4998C22.5 44.6435 25.8562 47.9998 30 47.9998C34.1438 47.9998 37.5 44.6435 37.5 40.4998V40.0029C37.5 39.4498 37.05 38.9998 36.4969 38.9998H23.5031C22.95 38.9998 22.5 39.4498 22.5 40.0029Z" fill="#4F3422"/>
</g>
<defs>
<clipPath id="clip0_698_6259">
<rect width="60" height="48" fill="white"/>
</clipPath>
</defs>
</svg>
