<svg width="48" height="48" viewBox="0 0 48 48" fill="none" xmlns="http://www.w3.org/2000/svg">
<g clip-path="url(#clip0_698_6268)">
<path d="M3 24C3 12.4031 12.4031 3 24 3C35.5969 3 45 12.4031 45 24C45 34.1625 37.7906 42.6375 28.2 44.5781C27.3844 44.7469 26.8594 45.5344 27.0281 46.35C27.1969 47.1656 27.9844 47.6906 28.8 47.5219C39.75 45.3 48 35.6156 48 24C48 10.7438 37.2562 0 24 0C10.7438 0 0 10.7438 0 24C0 26.2125 0.3 28.3594 0.8625 30.4031C1.0875 31.2 1.9125 31.6687 2.70937 31.4531C3.50625 31.2375 3.975 30.4031 3.75937 29.6062C3.27187 27.825 3 25.95 3 24.0094V24ZM18.4781 24.075C17.6906 23.8125 16.8469 24.2344 16.5844 25.0219C16.3219 25.8094 16.7438 26.6531 17.5312 26.9156L24.1406 29.1188L15 32.7V30C15 27.5156 12.9844 25.5 10.5 25.5C8.01562 25.5 6 27.5156 6 30V41.25C6 44.9812 9.01875 48 12.75 48H17.2313C19.9875 48 22.4719 46.3219 23.5031 43.7531L25.7438 38.1656L30.15 36.4406C32.1094 35.6719 33.225 33.6844 32.9719 31.6875C32.7563 29.9344 31.5562 28.4344 29.85 27.8625L18.4781 24.075ZM30 32.1281C30 32.1656 30 32.2125 30 32.25C30 32.85 29.6344 33.4125 29.0437 33.6469L24.0281 35.6062C23.625 35.7656 23.3063 36.0937 23.1656 36.4969C23.1563 36.5156 23.1562 36.5344 23.1469 36.5531L20.7094 42.6375C20.1375 44.0625 18.7594 45 17.2313 45H12.75C10.6781 45 9 43.3219 9 41.25V30C9 29.175 9.675 28.5 10.5 28.5C11.325 28.5 12 29.175 12 30V34.8938C12 35.3906 12.2437 35.85 12.6562 36.1312C13.0688 36.4125 13.5844 36.4688 14.0531 36.2906L27.9563 30.8531C28.725 30.5531 29.5969 30.9281 29.8969 31.7063C29.9531 31.8469 29.9812 31.9875 30 32.1281ZM18.7875 18C18.7875 17.4033 18.5504 16.831 18.1285 16.409C17.7065 15.9871 17.1342 15.75 16.5375 15.75C15.9408 15.75 15.3685 15.9871 14.9465 16.409C14.5246 16.831 14.2875 17.4033 14.2875 18C14.2875 18.5967 14.5246 19.169 14.9465 19.591C15.3685 20.0129 15.9408 20.25 16.5375 20.25C17.1342 20.25 17.7065 20.0129 18.1285 19.591C18.5504 19.169 18.7875 18.5967 18.7875 18ZM31.5375 21.75C32.1342 21.75 32.7065 21.5129 33.1285 21.091C33.5504 20.669 33.7875 20.0967 33.7875 19.5C33.7875 18.9033 33.5504 18.331 33.1285 17.909C32.7065 17.4871 32.1342 17.25 31.5375 17.25C30.9408 17.25 30.3685 17.4871 29.9465 17.909C29.5246 18.331 29.2875 18.9033 29.2875 19.5C29.2875 20.0967 29.5246 20.669 29.9465 21.091C30.3685 21.5129 30.9408 21.75 31.5375 21.75ZM20.2875 13.575L21.525 14.6344C22.1531 15.1781 23.1 15.1031 23.6437 14.475C24.1875 13.8469 24.1125 12.9 23.4844 12.3563L22.2469 11.2969C19.35 8.82188 15.2156 8.4375 11.9156 10.3219L11.25 10.6969C10.5281 11.1094 10.2844 12.0281 10.6875 12.7406C11.0906 13.4531 12.0188 13.7062 12.7313 13.3031L13.3969 12.9281C15.6 11.6719 18.3563 11.9344 20.2781 13.5844L20.2875 13.575Z" fill="#4F3422"/>
</g>
<defs>
<clipPath id="clip0_698_6268">
<rect width="48" height="48" fill="white"/>
</clipPath>
</defs>
</svg>
