<svg width="42" height="48" viewBox="0 0 42 48" fill="none" xmlns="http://www.w3.org/2000/svg">
<g clip-path="url(#clip0_698_6244)">
<path d="M39 21C39 27.6844 35.3625 33.5156 29.9531 36.6188C29.8219 37.6969 29.6531 38.8125 29.4844 39.8812L29.4281 40.2375C36.825 37.0031 42 29.6063 42 21C42 9.40313 32.5969 0 21 0C9.40313 0 0 9.40313 0 21C0 29.6063 5.175 36.9937 12.5812 40.2469L12.525 39.9C12.3469 38.8219 12.1781 37.6969 12.0469 36.6188C6.6375 33.5156 3 27.6844 3 21C3 11.0625 11.0625 3 21 3C30.9375 3 39 11.0625 39 21ZM34.5 21C34.5 13.5469 28.4531 7.5 21 7.5C13.5469 7.5 7.5 13.5469 7.5 21C7.5 24.975 9.21562 28.5469 11.9531 31.0219C12.1031 30.3562 12.3563 29.7188 12.7125 29.1188C12.9094 28.7906 13.1344 28.4906 13.3688 28.2094C11.5875 26.325 10.5 23.7937 10.5 21C10.5 15.1969 15.1969 10.5 21 10.5C26.8031 10.5 31.5 15.1969 31.5 21C31.5 23.7937 30.4125 26.325 28.6312 28.2094C28.8656 28.4812 29.0906 28.7813 29.2875 29.1188C29.6437 29.7094 29.8875 30.3469 30.0469 31.0219C32.7844 28.5469 34.5 24.975 34.5 21ZM21 18C21.7956 18 22.5587 18.3161 23.1213 18.8787C23.6839 19.4413 24 20.2044 24 21C24 21.7956 23.6839 22.5587 23.1213 23.1213C22.5587 23.6839 21.7956 24 21 24C20.2044 24 19.4413 23.6839 18.8787 23.1213C18.3161 22.5587 18 21.7956 18 21C18 20.2044 18.3161 19.4413 18.8787 18.8787C19.4413 18.3161 20.2044 18 21 18ZM21 27C22.5913 27 24.1174 26.3679 25.2426 25.2426C26.3679 24.1174 27 22.5913 27 21C27 19.4087 26.3679 17.8826 25.2426 16.7574C24.1174 15.6321 22.5913 15 21 15C19.4087 15 17.8826 15.6321 16.7574 16.7574C15.6321 17.8826 15 19.4087 15 21C15 22.5913 15.6321 24.1174 16.7574 25.2426C17.8826 26.3679 19.4087 27 21 27ZM19.6406 44.8313C19.3031 43.5563 18.8344 41.2969 18.45 38.925C18.0469 36.45 17.7656 34.1156 17.7656 32.7656C17.7656 32.3625 17.85 32.2219 17.8688 32.1937C17.8875 32.1656 17.9344 32.0813 18.1312 31.9781C18.6187 31.7063 19.5656 31.5 21.0094 31.5C22.4531 31.5 23.4 31.7063 23.8875 31.9781C24.0844 32.0813 24.1313 32.1656 24.15 32.1937C24.1688 32.2219 24.2531 32.3625 24.2531 32.7656C24.2531 34.1063 23.9812 36.4406 23.5687 38.9156C23.1844 41.2781 22.7156 43.5469 22.3688 44.8313C22.275 44.8688 22.1344 44.9062 21.9094 44.9437C21.6562 44.9812 21.3562 45 21 45C20.6438 45 20.3438 44.9812 20.0906 44.9437C19.875 44.9062 19.725 44.8688 19.6312 44.8313H19.6406ZM16.7719 45.7219C17.2687 47.5781 19.1625 48 21 48C22.8375 48 24.7313 47.5688 25.2281 45.7219C25.9875 42.9188 27.2438 35.9812 27.2438 32.7656C27.2438 29.3438 24.2063 28.5 21 28.5C17.7937 28.5 14.7562 29.3438 14.7562 32.7656C14.7562 35.9906 16.0125 42.9375 16.7719 45.7219Z" fill="#4F3422"/>
</g>
<defs>
<clipPath id="clip0_698_6244">
<rect width="42" height="48" fill="white"/>
</clipPath>
</defs>
</svg>
