<svg width="60" height="48" viewBox="0 0 60 48" fill="none" xmlns="http://www.w3.org/2000/svg">
<g clip-path="url(#clip0_698_6238)">
<path d="M15.7502 5.25C15.7502 4.65326 15.9872 4.08097 16.4092 3.65901C16.8311 3.23705 17.4034 3 18.0002 3C18.5969 3 19.1692 3.23705 19.5912 3.65901C20.0131 4.08097 20.2502 4.65326 20.2502 5.25C20.2502 5.84674 20.0131 6.41903 19.5912 6.84099C19.1692 7.26295 18.5969 7.5 18.0002 7.5C17.4034 7.5 16.8311 7.26295 16.4092 6.84099C15.9872 6.41903 15.7502 5.84674 15.7502 5.25ZM23.2502 5.25C23.2502 4.56056 23.1144 3.87787 22.8505 3.24091C22.5867 2.60395 22.2 2.0252 21.7125 1.53769C21.225 1.05018 20.6462 0.66347 20.0093 0.399632C19.3723 0.135795 18.6896 0 18.0002 0C17.3107 0 16.628 0.135795 15.9911 0.399632C15.3541 0.66347 14.7754 1.05018 14.2879 1.53769C13.8004 2.0252 13.4136 2.60395 13.1498 3.24091C12.886 3.87787 12.7502 4.56056 12.7502 5.25C12.7502 5.93944 12.886 6.62213 13.1498 7.25909C13.4136 7.89605 13.8004 8.4748 14.2879 8.96231C14.7754 9.44982 15.3541 9.83653 15.9911 10.1004C16.628 10.3642 17.3107 10.5 18.0002 10.5C18.6896 10.5 19.3723 10.3642 20.0093 10.1004C20.6462 9.83653 21.225 9.44982 21.7125 8.96231C22.2 8.4748 22.5867 7.89605 22.8505 7.25909C23.1144 6.62213 23.2502 5.93944 23.2502 5.25ZM16.8095 15H21.0002V30H15.0002V15.375C15.5627 15.1313 16.172 15 16.8095 15ZM15.0002 46.5V33H21.0002V46.5C21.0002 47.325 21.6752 48 22.5002 48C23.3252 48 24.0002 47.325 24.0002 46.5V15H37.5002C38.3252 15 39.0002 14.325 39.0002 13.5C39.0002 12.675 38.3252 12 37.5002 12H33.0002V4.5C33.0002 3.675 33.6752 3 34.5002 3H55.5002C56.3252 3 57.0002 3.675 57.0002 4.5V25.5C57.0002 26.325 56.3252 27 55.5002 27H34.5002C33.6752 27 33.0002 26.325 33.0002 25.5V18H30.0002V25.5C30.0002 27.9844 32.0158 30 34.5002 30H55.5002C57.9846 30 60.0002 27.9844 60.0002 25.5V4.5C60.0002 2.01562 57.9846 1.10635e-07 55.5002 1.10635e-07H34.5002C32.0158 1.10635e-07 30.0002 2.01562 30.0002 4.5V12H22.7908H16.8095C14.0439 12 11.4939 13.5281 10.1908 15.9656L4.6783 26.2969C4.28455 27.0281 4.5658 27.9375 5.29705 28.3313C6.0283 28.725 6.93767 28.4438 7.33142 27.7125L12.0002 18.9562V46.5C12.0002 47.325 12.6752 48 13.5002 48C14.3252 48 15.0002 47.325 15.0002 46.5Z" fill="#4F3422"/>
</g>
<defs>
<clipPath id="clip0_698_6238">
<rect width="60" height="48" fill="white"/>
</clipPath>
</defs>
</svg>
