<svg width="54" height="48" viewBox="0 0 54 48" fill="none" xmlns="http://www.w3.org/2000/svg">
<path d="M14.625 3C18.8062 3 23.0344 3.80625 27 5.11875C30.9656 3.80625 35.1938 3 39.375 3C44.5688 3 49.425 4.36875 51.4594 5.025C53.0344 5.53125 54 6.98437 54 8.54062V37.7344C54 40.2562 51.6469 41.9344 49.4062 41.5406C47.6719 41.2406 44.5969 40.8656 40.125 40.8656C34.6031 40.8656 30.9562 43.1437 29.7 44.0625C28.9969 44.5781 28.0875 44.9625 27.0563 44.9906C27.0375 44.9906 27.0094 44.9906 26.9906 44.9906C26.9812 44.9906 26.9813 44.9906 26.9719 44.9906C26.9625 44.9906 26.9531 44.9906 26.9437 44.9906C25.9875 44.9906 25.1062 44.6719 24.4125 44.2031C23.0156 43.2656 18.9375 40.875 13.875 40.875C9.6375 40.875 6.36562 41.2875 4.5 41.5969C2.25 41.9719 0 40.275 0 37.8281V8.54062C0 6.98437 0.965625 5.53125 2.54063 5.025C4.575 4.36875 9.43125 3 14.625 3ZM28.5 41.25C30.4031 39.9844 34.4156 37.875 40.125 37.875C44.7656 37.875 48.0094 38.2688 49.9125 38.5875C50.1469 38.625 50.4469 38.5594 50.6812 38.3719C50.8875 38.2031 51 37.9969 51 37.7344V8.54062C51 8.2125 50.8031 7.96875 50.5406 7.88437C48.6187 7.26562 44.1094 6 39.375 6C35.7563 6 32.0531 6.66563 28.5 7.78125V41.25ZM25.5 7.78125C21.9469 6.65625 18.2437 6 14.625 6C9.89062 6 5.38125 7.26562 3.45938 7.875C3.19688 7.95937 3 8.2125 3 8.53125V37.8281C3 38.0813 3.10312 38.2875 3.29062 38.4375C3.49687 38.6062 3.76875 38.6719 4.00313 38.6344C6 38.2969 9.44063 37.8656 13.875 37.8656C19.2 37.8656 23.5125 40.0875 25.5 41.325V7.78125Z" fill="#4F3422"/>
</svg>
