<svg width="42" height="48" viewBox="0 0 42 48" fill="none" xmlns="http://www.w3.org/2000/svg">
<g clip-path="url(#clip0_698_6247)">
<path d="M0 6C0 2.69063 2.69063 0 6 0H37.5C39.9844 0 42 2.01562 42 4.5V34.5C42 36.4594 40.7438 38.1281 39 38.7469V45H40.5C41.325 45 42 45.675 42 46.5C42 47.325 41.325 48 40.5 48H6C2.69063 48 0 45.3094 0 42V6ZM6 39C4.34062 39 3 40.3406 3 42C3 43.6594 4.34062 45 6 45H36V39H6ZM3 36.8063C3.88125 36.3 4.90313 36 6 36H37.5C38.325 36 39 35.325 39 34.5V4.5C39 3.675 38.325 3 37.5 3H6C4.34062 3 3 4.34062 3 6V36.8063ZM23.8406 9.825L29.8313 21.7969C29.8406 21.8156 29.85 21.8344 29.8594 21.8531L32.8406 27.825C33.2156 28.5656 32.9063 29.4656 32.1656 29.8406C31.425 30.2156 30.525 29.9063 30.15 29.1656L27.5719 24H17.4281L14.8406 29.175C14.4656 29.9156 13.5656 30.2156 12.825 29.85C12.0844 29.4844 11.7844 28.575 12.15 27.8344L15.1312 21.8625C15.1406 21.8437 15.15 21.825 15.1594 21.8063L21.15 9.83438C21.4031 9.32813 21.9281 9.00937 22.4906 9.00937C23.0531 9.00937 23.5781 9.32813 23.8312 9.83438L23.8406 9.825ZM26.0719 21L22.5 13.8563L18.9281 21H26.0719Z" fill="#4F3422"/>
</g>
<defs>
<clipPath id="clip0_698_6247">
<rect width="42" height="48" fill="white"/>
</clipPath>
</defs>
</svg>
