<svg width="48" height="48" viewBox="0 0 48 48" fill="none" xmlns="http://www.w3.org/2000/svg">
<g clip-path="url(#clip0_698_6241)">
<path d="M35.3812 4.24678L29.1187 10.4999L37.4999 18.8812L43.753 12.628C44.9249 11.4562 44.9249 9.55303 43.753 8.38115L39.6187 4.24678C38.4468 3.0749 36.5437 3.0749 35.3718 4.24678H35.3812ZM26.2218 9.15928L33.2624 2.11865C35.6062 -0.225098 39.403 -0.225098 41.7468 2.11865L45.8812 6.25303C48.2249 8.59678 48.2249 12.3937 45.8812 14.7374L38.8405 21.778L35.3249 34.6874C34.6405 37.1812 32.728 39.1499 30.2437 39.8999L4.44366 47.6343C3.29053 47.9812 2.03428 47.6624 1.19053 46.8093C0.34678 45.9562 0.0186549 44.7093 0.36553 43.5562L8.10928 17.7562C8.8499 15.2812 10.8187 13.3593 13.3218 12.6749L26.2218 9.15928ZM26.5593 12.178L14.1093 15.5718C12.6093 15.9843 11.428 17.128 10.9874 18.6187L4.00303 41.878L14.3343 31.5468C13.8093 30.6562 13.4999 29.6155 13.4999 28.4999C13.4999 25.1905 16.1905 22.4999 19.4999 22.4999C22.8093 22.4999 25.4999 25.1905 25.4999 28.4999C25.4999 31.8093 22.8093 34.4999 19.4999 34.4999C18.3843 34.4999 17.3437 34.1999 16.453 33.6655L6.12178 43.9968L29.3812 37.0218C30.8718 36.5718 32.0249 35.3905 32.428 33.8999L35.8218 21.4499L26.5499 12.178H26.5593ZM19.4999 25.4999C18.7043 25.4999 17.9412 25.816 17.3786 26.3786C16.816 26.9412 16.4999 27.7043 16.4999 28.4999C16.4999 29.2956 16.816 30.0586 17.3786 30.6212C17.9412 31.1838 18.7043 31.4999 19.4999 31.4999C20.2956 31.4999 21.0586 31.1838 21.6212 30.6212C22.1838 30.0586 22.4999 29.2956 22.4999 28.4999C22.4999 27.7043 22.1838 26.9412 21.6212 26.3786C21.0586 25.816 20.2956 25.4999 19.4999 25.4999Z" fill="#4F3422"/>
</g>
<defs>
<clipPath id="clip0_698_6241">
<rect width="48" height="48" fill="white"/>
</clipPath>
</defs>
</svg>
