<svg width="60" height="48" viewBox="0 0 60 48" fill="none" xmlns="http://www.w3.org/2000/svg">
<path d="M1.5 1.5C0.675 1.5 0 2.175 0 3V16.5C0 18.9844 2.01562 21 4.5 21H6V45C6 45.825 6.675 46.5 7.5 46.5C8.325 46.5 9 45.825 9 45V21H10.5C12.9844 21 15 18.9844 15 16.5V3C15 2.175 14.325 1.5 13.5 1.5C12.675 1.5 12 2.175 12 3V16.5C12 17.325 11.325 18 10.5 18H9V3C9 2.175 8.325 1.5 7.5 1.5C6.675 1.5 6 2.175 6 3V18H4.5C3.675 18 3 17.325 3 16.5V3C3 2.175 2.325 1.5 1.5 1.5ZM46.6875 7.39688C42.6844 3.73125 37.35 1.5 31.5 1.5C26.4375 1.5 21.7594 3.17812 18 6V9.92813C21.5063 6.5625 26.2594 4.5 31.5 4.5C37.0219 4.5 42 6.79688 45.5531 10.4813C45.8437 9.35625 46.2281 8.33438 46.6875 7.39688ZM48.9844 32.6531C45.7969 39.0844 39.1594 43.5 31.5 43.5C24.5812 43.5 18.5063 39.9 15.0469 34.4625C14.25 35.0719 13.3312 35.5219 12.3281 35.775C16.2844 42.2063 23.3906 46.5 31.5 46.5C40.725 46.5 48.6562 40.95 52.125 33H51C50.2875 33 49.6125 32.8781 48.9844 32.6531ZM45 24C45 22.2272 44.6508 20.4717 43.9724 18.8338C43.2939 17.1959 42.2995 15.7076 41.0459 14.4541C39.7923 13.2005 38.3041 12.2061 36.6662 11.5276C35.0283 10.8492 33.2728 10.5 31.5 10.5C29.7272 10.5 27.9717 10.8492 26.3338 11.5276C24.6959 12.2061 23.2076 13.2005 21.9541 14.4541C20.7005 15.7076 19.7061 17.1959 19.0276 18.8338C18.3492 20.4717 18 22.2272 18 24C18 25.7728 18.3492 27.5283 19.0276 29.1662C19.7061 30.8041 20.7005 32.2923 21.9541 33.5459C23.2076 34.7995 24.6959 35.7939 26.3338 36.4724C27.9717 37.1508 29.7272 37.5 31.5 37.5C33.2728 37.5 35.0283 37.1508 36.6662 36.4724C38.3041 35.7939 39.7923 34.7995 41.0459 33.5459C42.2995 32.2923 43.2939 30.8041 43.9724 29.1662C44.6508 27.5283 45 25.7728 45 24ZM21 24C21 21.2152 22.1062 18.5445 24.0754 16.5754C26.0445 14.6062 28.7152 13.5 31.5 13.5C34.2848 13.5 36.9555 14.6062 38.9246 16.5754C40.8938 18.5445 42 21.2152 42 24C42 26.7848 40.8938 29.4555 38.9246 31.4246C36.9555 33.3938 34.2848 34.5 31.5 34.5C28.7152 34.5 26.0445 33.3938 24.0754 31.4246C22.1062 29.4555 21 26.7848 21 24ZM57 5.1V27H51V15C51 9.25313 54.6937 6.35625 57 5.1ZM60 27V3.45938C60 2.38125 59.1281 1.5 58.0406 1.5C57.8437 1.5 57.6562 1.52813 57.4688 1.59375C55.8938 2.175 48 5.55 48 15V27C48 28.6594 49.3406 30 51 30H57V45C57 45.825 57.675 46.5 58.5 46.5C59.325 46.5 60 45.825 60 45V30V28.5V27Z" fill="#4F3422"/>
</svg>
