<svg width="42" height="48" viewBox="0 0 42 48" fill="none" xmlns="http://www.w3.org/2000/svg">
<g clip-path="url(#clip0_697_6019)">
<path d="M8.24063 4.02188L6.58125 9H35.4187L33.7594 4.02188C33.5531 3.4125 32.9812 3 32.3344 3H9.66562C9.01875 3 8.44688 3.4125 8.24063 4.02188ZM4.4625 12H1.5C0.675 12 0 11.325 0 10.5C0 9.675 0.675 9 1.5 9H3.42188L5.39062 3.075C6.00937 1.2375 7.725 0 9.66562 0H32.3344C34.275 0 35.9906 1.2375 36.6 3.075L38.5781 9H40.5C41.325 9 42 9.675 42 10.5C42 11.325 41.325 12 40.5 12H37.5375C37.5187 12 37.4906 12 37.4719 12H4.5375C4.51875 12 4.49063 12 4.47188 12H4.4625ZM6.99375 42.5531L4.44375 15H7.45312L8.00625 21H33.9844L34.5375 15H37.5469L35.0062 42.5531C34.725 45.6375 32.1281 48 29.0344 48H12.9656C9.8625 48 7.275 45.6375 6.99375 42.5531ZM33.7125 24H8.2875L9.40313 36H32.5969L33.7125 24ZM32.325 39H9.675L9.975 42.2812C10.1156 43.8281 11.4094 45 12.9656 45H29.0344C30.5813 45 31.875 43.8187 32.025 42.2812L32.325 39Z" fill="#4F3422"/>
</g>
<defs>
<clipPath id="clip0_697_6019">
<rect width="42" height="48" fill="white"/>
</clipPath>
</defs>
</svg>
