<svg width="36" height="48" viewBox="0 0 36 48" fill="none" xmlns="http://www.w3.org/2000/svg">
<g clip-path="url(#clip0_697_6031)">
<path d="M3.00914 3.81563C2.97164 3.375 3.31851 3 3.75914 3H32.231C32.6716 3 33.0185 3.375 32.981 3.81563L31.4998 21.3844V21H4.49976V21.4781L3.00914 3.81563ZM4.71539 24H31.2748L29.7373 42.2531C29.606 43.8094 28.3123 45 26.756 45H9.24351C7.68726 45 6.38414 43.8094 6.25289 42.2531L4.71539 24ZM3.75914 0C1.56539 0 -0.159611 1.875 0.0185143 4.06875L3.26226 42.5062C3.52476 45.6094 6.12164 48 9.24351 48H26.756C29.8779 48 32.4748 45.6094 32.7373 42.5062L35.981 4.06875C36.1498 1.875 34.4248 0 32.231 0H3.75914Z" fill="#4F3422"/>
</g>
<defs>
<clipPath id="clip0_697_6031">
<rect width="36" height="48" fill="white"/>
</clipPath>
</defs>
</svg>
