<svg width="54" height="48" viewBox="0 0 54 48" fill="none" xmlns="http://www.w3.org/2000/svg">
<g clip-path="url(#clip0_697_6034)">
<path d="M40.5 24C38.4656 24 36.5625 23.4188 34.95 22.4156L32.7844 24.5813C34.9688 26.1094 37.6312 27 40.5 27C47.9531 27 54 20.9531 54 13.5C54 6.04688 47.9531 0 40.5 0C34.6219 0 29.625 3.75937 27.7688 9H31.0125C32.7 5.45625 36.3094 3 40.5 3C46.3031 3 51 7.69687 51 13.5C51 19.3031 46.3031 24 40.5 24ZM1.5 12C0.890624 12 0.346874 12.3656 0.112499 12.9281C-0.121876 13.4906 0.00937359 14.1375 0.440624 14.5594L18 32.1188V45H10.5C9.675 45 9 45.675 9 46.5C9 47.325 9.675 48 10.5 48H19.5H28.5C29.325 48 30 47.325 30 46.5C30 45.675 29.325 45 28.5 45H21V32.1188L38.5594 14.5594C38.9906 14.1281 39.1125 13.4812 38.8875 12.9281C38.6625 12.375 38.1094 12 37.5 12H1.5ZM33.8812 15L19.5 29.3812L5.11875 15H33.8812Z" fill="#4F3422"/>
</g>
<defs>
<clipPath id="clip0_697_6034">
<rect width="54" height="48" fill="white"/>
</clipPath>
</defs>
</svg>
