<svg width="48" height="48" viewBox="0 0 48 48" fill="none" xmlns="http://www.w3.org/2000/svg">
<g clip-path="url(#clip0_697_6025)">
<path d="M7.5 0C6.675 0 6 0.675 6 1.5C6 3.81563 6.91875 6.04688 8.55938 7.67813L10.3125 9.43125C11.3906 10.5187 12 11.9812 12 13.5C12 14.325 12.675 15 13.5 15C14.325 15 15 14.325 15 13.5C15 11.1844 14.0812 8.95312 12.4406 7.32187L10.6781 5.55937C9.60938 4.48125 9 3.01875 9 1.5C9 0.675 8.325 0 7.5 0ZM3 21H31.5H33V39C33 42.3094 30.3094 45 27 45H9C5.69063 45 3 42.3094 3 39V21ZM36 21H37.5C41.6438 21 45 24.3562 45 28.5C45 32.6438 41.6438 36 37.5 36H36V21ZM36 39H37.5C43.3031 39 48 34.3031 48 28.5C48 22.6969 43.3031 18 37.5 18H33H31.5H3C1.34062 18 0 19.3406 0 21V39C0 43.9688 4.03125 48 9 48H27C31.9688 48 36 43.9688 36 39ZM21 1.5C21 0.675 20.325 0 19.5 0C18.675 0 18 0.675 18 1.5C18 3.81563 18.9188 6.04688 20.5594 7.67813L22.3125 9.43125C23.3906 10.5187 24 11.9812 24 13.5C24 14.325 24.675 15 25.5 15C26.325 15 27 14.325 27 13.5C27 11.1844 26.0813 8.95312 24.4406 7.32187L22.6781 5.55937C21.6094 4.48125 21 3.01875 21 1.5Z" fill="#4F3422"/>
</g>
<defs>
<clipPath id="clip0_697_6025">
<rect width="48" height="48" fill="white"/>
</clipPath>
</defs>
</svg>
