<svg width="60" height="48" viewBox="0 0 60 48" fill="none" xmlns="http://www.w3.org/2000/svg">
<g clip-path="url(#clip0_697_5956)">
<path d="M51 3H9C7.34062 3 6 4.34062 6 6V21.5156C4.88438 21.9094 3.8625 22.5187 3 23.2969V6C3 2.69063 5.69063 0 9 0H51C54.3094 0 57 2.69063 57 6V23.2875C56.1375 22.5094 55.1156 21.9 54 21.5062V6C54 4.34062 52.6594 3 51 3ZM9 33C9.79565 33 10.5587 32.6839 11.1213 32.1213C11.6839 31.5587 12 30.7956 12 30C12 29.2044 11.6839 28.4413 11.1213 27.8787C10.5587 27.3161 9.79565 27 9 27C8.20435 27 7.44129 27.3161 6.87868 27.8787C6.31607 28.4413 6 29.2044 6 30C6 30.7956 6.31607 31.5587 6.87868 32.1213C7.44129 32.6839 8.20435 33 9 33ZM9 24C10.5913 24 12.1174 24.6321 13.2426 25.7574C14.3679 26.8826 15 28.4087 15 30C15 31.5913 14.3679 33.1174 13.2426 34.2426C12.1174 35.3679 10.5913 36 9 36C7.4087 36 5.88258 35.3679 4.75736 34.2426C3.63214 33.1174 3 31.5913 3 30C3 28.4087 3.63214 26.8826 4.75736 25.7574C5.88258 24.6321 7.4087 24 9 24ZM30 33C30.7956 33 31.5587 32.6839 32.1213 32.1213C32.6839 31.5587 33 30.7956 33 30C33 29.2044 32.6839 28.4413 32.1213 27.8787C31.5587 27.3161 30.7956 27 30 27C29.2044 27 28.4413 27.3161 27.8787 27.8787C27.3161 28.4413 27 29.2044 27 30C27 30.7956 27.3161 31.5587 27.8787 32.1213C28.4413 32.6839 29.2044 33 30 33ZM30 24C31.5913 24 33.1174 24.6321 34.2426 25.7574C35.3679 26.8826 36 28.4087 36 30C36 31.5913 35.3679 33.1174 34.2426 34.2426C33.1174 35.3679 31.5913 36 30 36C28.4087 36 26.8826 35.3679 25.7574 34.2426C24.6321 33.1174 24 31.5913 24 30C24 28.4087 24.6321 26.8826 25.7574 25.7574C26.8826 24.6321 28.4087 24 30 24ZM54 30C54 29.2044 53.6839 28.4413 53.1213 27.8787C52.5587 27.3161 51.7956 27 51 27C50.2044 27 49.4413 27.3161 48.8787 27.8787C48.3161 28.4413 48 29.2044 48 30C48 30.7956 48.3161 31.5587 48.8787 32.1213C49.4413 32.6839 50.2044 33 51 33C51.7956 33 52.5587 32.6839 53.1213 32.1213C53.6839 31.5587 54 30.7956 54 30ZM45 30C45 28.4087 45.6321 26.8826 46.7574 25.7574C47.8826 24.6321 49.4087 24 51 24C52.5913 24 54.1174 24.6321 55.2426 25.7574C56.3679 26.8826 57 28.4087 57 30C57 31.5913 56.3679 33.1174 55.2426 34.2426C54.1174 35.3679 52.5913 36 51 36C49.4087 36 47.8826 35.3679 46.7574 34.2426C45.6321 33.1174 45 31.5913 45 30ZM3 45V46.5C3 47.325 2.325 48 1.5 48C0.675 48 0 47.325 0 46.5V45C0 41.6906 2.69063 39 6 39H12C15.3094 39 18 41.6906 18 45V46.5C18 47.325 17.325 48 16.5 48C15.675 48 15 47.325 15 46.5V45C15 43.3406 13.6594 42 12 42H6C4.34062 42 3 43.3406 3 45ZM27 42C25.3406 42 24 43.3406 24 45V46.5C24 47.325 23.325 48 22.5 48C21.675 48 21 47.325 21 46.5V45C21 41.6906 23.6906 39 27 39H33C36.3094 39 39 41.6906 39 45V46.5C39 47.325 38.325 48 37.5 48C36.675 48 36 47.325 36 46.5V45C36 43.3406 34.6594 42 33 42H27ZM45 45V46.5C45 47.325 44.325 48 43.5 48C42.675 48 42 47.325 42 46.5V45C42 41.6906 44.6906 39 48 39H54C57.3094 39 60 41.6906 60 45V46.5C60 47.325 59.325 48 58.5 48C57.675 48 57 47.325 57 46.5V45C57 43.3406 55.6594 42 54 42H48C46.3406 42 45 43.3406 45 45Z" fill="#4F3422"/>
</g>
<defs>
<clipPath id="clip0_697_5956">
<rect width="60" height="48" fill="white"/>
</clipPath>
</defs>
</svg>
