<svg width="60" height="48" viewBox="0 0 60 48" fill="none" xmlns="http://www.w3.org/2000/svg">
<g clip-path="url(#clip0_697_5959)">
<path d="M30.8344 0.253125C30.3281 -0.084375 29.6719 -0.084375 29.1656 0.253125L16.05 9H6C2.69063 9 0 11.6906 0 15V42C0 45.3094 2.69063 48 6 48H24H27H33H36H54C57.3094 48 60 45.3094 60 42V15C60 11.6906 57.3094 9 54 9H43.95L30.8344 0.253125ZM36 36C36 32.6906 33.3094 30 30 30C26.6906 30 24 32.6906 24 36V45H6C4.34062 45 3 43.6594 3 42V15C3 13.3406 4.34062 12 6 12H16.5C16.8 12 17.0812 11.9156 17.3344 11.7469L30 3.3L42.6656 11.7469C42.9094 11.9156 43.2 12 43.5 12H54C55.6594 12 57 13.3406 57 15V42C57 43.6594 55.6594 45 54 45H36V36ZM33 45H27V36C27 34.3406 28.3406 33 30 33C31.6594 33 33 34.3406 33 36V45ZM9 18V24C9 25.6594 10.3406 27 12 27H15C16.6594 27 18 25.6594 18 24V18C18 16.3406 16.6594 15 15 15H12C10.3406 15 9 16.3406 9 18ZM15 18V24H12V18H15ZM45 15C43.3406 15 42 16.3406 42 18V24C42 25.6594 43.3406 27 45 27H48C49.6594 27 51 25.6594 51 24V18C51 16.3406 49.6594 15 48 15H45ZM45 18H48V24H45V18ZM9 33V39C9 40.6594 10.3406 42 12 42H15C16.6594 42 18 40.6594 18 39V33C18 31.3406 16.6594 30 15 30H12C10.3406 30 9 31.3406 9 33ZM15 33V39H12V33H15ZM45 30C43.3406 30 42 31.3406 42 33V39C42 40.6594 43.3406 42 45 42H48C49.6594 42 51 40.6594 51 39V33C51 31.3406 49.6594 30 48 30H45ZM45 33H48V39H45V33ZM30 12C31.5913 12 33.1174 12.6321 34.2426 13.7574C35.3679 14.8826 36 16.4087 36 18C36 19.5913 35.3679 21.1174 34.2426 22.2426C33.1174 23.3679 31.5913 24 30 24C28.4087 24 26.8826 23.3679 25.7574 22.2426C24.6321 21.1174 24 19.5913 24 18C24 16.4087 24.6321 14.8826 25.7574 13.7574C26.8826 12.6321 28.4087 12 30 12ZM30 27C32.3869 27 34.6761 26.0518 36.364 24.364C38.0518 22.6761 39 20.3869 39 18C39 15.6131 38.0518 13.3239 36.364 11.636C34.6761 9.94821 32.3869 9 30 9C27.6131 9 25.3239 9.94821 23.636 11.636C21.9482 13.3239 21 15.6131 21 18C21 20.3869 21.9482 22.6761 23.636 24.364C25.3239 26.0518 27.6131 27 30 27ZM31.5 15C31.5 14.175 30.825 13.5 30 13.5C29.175 13.5 28.5 14.175 28.5 15V18C28.5 18.825 29.175 19.5 30 19.5H32.25C33.075 19.5 33.75 18.825 33.75 18C33.75 17.175 33.075 16.5 32.25 16.5H31.5V15Z" fill="#4F3422"/>
</g>
<defs>
<clipPath id="clip0_697_5959">
<rect width="60" height="48" fill="white"/>
</clipPath>
</defs>
</svg>
