<svg width="48" height="48" viewBox="0 0 48 48" fill="none" xmlns="http://www.w3.org/2000/svg">
<g clip-path="url(#clip0_697_5938)">
<path d="M3 21C3 11.0625 11.0625 3 21 3H22.5C28.6969 3 34.4156 6.75 36.9187 12.0844C37.2187 12.7312 37.5281 13.4156 37.8469 14.1188C38.4281 15.4219 39.0375 16.7906 39.7031 18.0563C40.7438 20.0531 42.0281 22.0219 43.8281 23.625L44.1281 23.8875C44.6906 24.3844 45.0188 25.1062 45.0188 25.8656C45.0188 27.3281 43.8375 28.5094 42.375 28.5094H40.5C39.675 28.5094 39 29.1844 39 30.0094V36.0094C39 37.6688 37.6594 39.0094 36 39.0094H28.5C27.675 39.0094 27 39.6844 27 40.5094V46.5094C27 47.3344 27.675 48.0094 28.5 48.0094C29.325 48.0094 30 47.3344 30 46.5094V42H36C39.3094 42 42 39.3094 42 36V31.5H42.3562C45.4687 31.5 48 28.9781 48 25.8562C48 24.2437 47.3062 22.7063 46.1062 21.6375L45.8063 21.375C44.3906 20.1094 43.3125 18.5062 42.3469 16.6594C41.7188 15.4687 41.1938 14.2687 40.6406 13.0312C40.3125 12.3 39.9844 11.5594 39.6281 10.8C36.6375 4.43437 29.8687 0 22.5 0H21C9.40313 0 0 9.40313 0 21C0 25.9594 1.725 30.525 4.60312 34.125C5.48437 35.2125 6 36.4312 6 37.6312V46.5C6 47.325 6.675 48 7.5 48C8.325 48 9 47.325 9 46.5V37.6312C9 35.5594 8.10937 33.7031 6.94687 32.25C4.47187 29.1656 3 25.2563 3 21ZM16.5 12V12.0656C16.5 12.1594 16.425 12.3844 16.1156 12.5625C15.8156 12.7312 15.6 12.6938 15.5062 12.6375L15.45 12.6094C14.0156 11.7844 12.1781 12.2719 11.3531 13.7062L9.85312 16.3031C9.02812 17.7375 9.51563 19.575 10.95 20.4L11.0063 20.4281C11.0906 20.475 11.25 20.6531 11.25 21C11.25 21.3469 11.1 21.525 11.0063 21.5719L10.95 21.6C9.51563 22.425 9.02812 24.2625 9.85312 25.6969L11.3531 28.2937C12.1781 29.7281 14.0156 30.225 15.45 29.3906L15.5062 29.3625C15.5906 29.3156 15.8156 29.2688 16.1156 29.4375C16.425 29.6156 16.5 29.8406 16.5 29.9344V30C16.5 31.6594 17.8406 33 19.5 33H22.5C24.1594 33 25.5 31.6594 25.5 30V29.9344C25.5 29.8406 25.575 29.6156 25.8844 29.4375C26.1844 29.2688 26.4 29.3063 26.4938 29.3625L26.55 29.3906C27.9844 30.2156 29.8219 29.7281 30.6469 28.2937L32.1469 25.6969C32.9719 24.2625 32.4844 22.425 31.05 21.6L30.9938 21.5719C30.9094 21.525 30.75 21.3469 30.75 21C30.75 20.6531 30.9 20.475 30.9938 20.4281L31.05 20.4C32.4844 19.575 32.9812 17.7375 32.1469 16.3031L30.6469 13.7062C29.8219 12.2719 27.9844 11.7844 26.55 12.6094L26.4938 12.6375C26.4094 12.6844 26.1844 12.7312 25.8844 12.5625C25.575 12.3844 25.5 12.1594 25.5 12.0656V12C25.5 10.3406 24.1594 9 22.5 9H19.5C17.8406 9 16.5 10.3406 16.5 12ZM22.5 12V12.0656C22.5 13.4812 23.3812 14.5781 24.375 15.1594C25.3781 15.7406 26.7656 15.9375 27.9844 15.2344L28.0406 15.2062L29.5406 17.8031L29.4844 17.8312C28.2656 18.5344 27.75 19.8375 27.75 21C27.75 22.1625 28.2656 23.4656 29.4844 24.1687L29.5406 24.1969L28.0406 26.7937L27.9844 26.7656C26.7656 26.0625 25.3781 26.2594 24.375 26.8406C23.3812 27.4219 22.5 28.5187 22.5 29.9344V30H19.5V29.9344C19.5 28.5187 18.6188 27.4219 17.625 26.8406C16.6219 26.2594 15.2344 26.0625 14.0156 26.7656L13.9594 26.7937L12.4594 24.1969L12.5156 24.1687C13.7344 23.4656 14.2594 22.1625 14.2594 21C14.2594 19.8375 13.7438 18.5344 12.5156 17.8312L12.4594 17.8031L13.9594 15.2062L14.0156 15.2344C15.2344 15.9375 16.6219 15.7406 17.625 15.1594C18.6188 14.5781 19.5 13.4812 19.5 12.0656V12H22.5ZM23.25 21C23.25 20.4033 23.0129 19.831 22.591 19.409C22.169 18.9871 21.5967 18.75 21 18.75C20.4033 18.75 19.831 18.9871 19.409 19.409C18.9871 19.831 18.75 20.4033 18.75 21C18.75 21.5967 18.9871 22.169 19.409 22.591C19.831 23.0129 20.4033 23.25 21 23.25C21.5967 23.25 22.169 23.0129 22.591 22.591C23.0129 22.169 23.25 21.5967 23.25 21Z" fill="#4F3422"/>
</g>
<defs>
<clipPath id="clip0_697_5938">
<rect width="48" height="48" fill="white"/>
</clipPath>
</defs>
</svg>
