<svg width="60" height="48" viewBox="0 0 60 48" fill="none" xmlns="http://www.w3.org/2000/svg">
<g clip-path="url(#clip0_697_5947)">
<path d="M15.75 5.25C15.75 4.65326 15.987 4.08097 16.409 3.65901C16.831 3.23705 17.4033 3 18 3C18.5967 3 19.169 3.23705 19.591 3.65901C20.0129 4.08097 20.25 4.65326 20.25 5.25C20.25 5.84674 20.0129 6.41903 19.591 6.84099C19.169 7.26295 18.5967 7.5 18 7.5C17.4033 7.5 16.831 7.26295 16.409 6.84099C15.987 6.41903 15.75 5.84674 15.75 5.25ZM23.25 5.25C23.25 4.56056 23.1142 3.87787 22.8504 3.24091C22.5865 2.60395 22.1998 2.0252 21.7123 1.53769C21.2248 1.05018 20.646 0.66347 20.0091 0.399632C19.3721 0.135795 18.6894 0 18 0C17.3106 0 16.6279 0.135795 15.9909 0.399632C15.3539 0.66347 14.7752 1.05018 14.2877 1.53769C13.8002 2.0252 13.4135 2.60395 13.1496 3.24091C12.8858 3.87787 12.75 4.56056 12.75 5.25C12.75 5.93944 12.8858 6.62213 13.1496 7.25909C13.4135 7.89605 13.8002 8.4748 14.2877 8.96231C14.7752 9.44982 15.3539 9.83653 15.9909 10.1004C16.6279 10.3642 17.3106 10.5 18 10.5C18.6894 10.5 19.3721 10.3642 20.0091 10.1004C20.646 9.83653 21.2248 9.44982 21.7123 8.96231C22.1998 8.4748 22.5865 7.89605 22.8504 7.25909C23.1142 6.62213 23.25 5.93944 23.25 5.25ZM16.8094 15H21V30H15V15.375C15.5625 15.1313 16.1719 15 16.8094 15ZM15 46.5V33H21V46.5C21 47.325 21.675 48 22.5 48C23.325 48 24 47.325 24 46.5V15H37.5C38.325 15 39 14.325 39 13.5C39 12.675 38.325 12 37.5 12H33V4.5C33 3.675 33.675 3 34.5 3H55.5C56.325 3 57 3.675 57 4.5V25.5C57 26.325 56.325 27 55.5 27H34.5C33.675 27 33 26.325 33 25.5V18H30V25.5C30 27.9844 32.0156 30 34.5 30H55.5C57.9844 30 60 27.9844 60 25.5V4.5C60 2.01562 57.9844 1.10635e-07 55.5 1.10635e-07H34.5C32.0156 1.10635e-07 30 2.01562 30 4.5V12H22.7906H16.8094C14.0437 12 11.4937 13.5281 10.1906 15.9656L4.67812 26.2969C4.28437 27.0281 4.56562 27.9375 5.29687 28.3313C6.02812 28.725 6.93749 28.4438 7.33124 27.7125L12 18.9562V46.5C12 47.325 12.675 48 13.5 48C14.325 48 15 47.325 15 46.5Z" fill="#4F3422"/>
</g>
<defs>
<clipPath id="clip0_697_5947">
<rect width="60" height="48" fill="white"/>
</clipPath>
</defs>
</svg>
