<svg width="60" height="48" viewBox="0 0 60 48" fill="none" xmlns="http://www.w3.org/2000/svg">
<g clip-path="url(#clip0_697_5944)">
<path d="M29.1656 0.253125C29.6719 -0.084375 30.3281 -0.084375 30.8344 0.253125L43.95 9H54C57.3094 9 60 11.6906 60 15V25.0125C59.1469 23.8031 58.1344 22.7156 57 21.7687V15C57 13.3406 55.6594 12 54 12H43.5C43.2 12 42.9188 11.9156 42.6656 11.7469L30 3.3L17.3344 11.7469C17.0906 11.9156 16.8 12 16.5 12H6C4.34062 12 3 13.3406 3 15V42C3 43.6594 4.34062 45 6 45H24V36C24 32.6906 26.6906 30 30 30C30.2063 30 30.4125 30.0094 30.6094 30.0281C30.3375 30.9844 30.1594 31.9781 30.0656 33H30C28.3406 33 27 34.3406 27 36V45H30H33H33.7688C34.7063 46.1344 35.8031 47.1469 37.0125 48H36H33H27H24H6C2.69063 48 0 45.3094 0 42V15C0 11.6906 2.69063 9 6 9H16.05L29.175 0.253125H29.1656ZM39 18C39 18.6562 38.9344 19.2938 38.7937 19.9031C35.8594 21.45 33.45 23.8594 31.9031 26.7937C31.2937 26.925 30.6562 27 30 27C25.0312 27 21 22.9688 21 18C21 13.0312 25.0312 9 30 9C34.9688 9 39 13.0312 39 18ZM12 15H15C16.6594 15 18 16.3406 18 18V24C18 25.6594 16.6594 27 15 27H12C10.3406 27 9 25.6594 9 24V18C9 16.3406 10.3406 15 12 15ZM12 18V24H15V18H12ZM9 33C9 31.3406 10.3406 30 12 30H15C16.6594 30 18 31.3406 18 33V39C18 40.6594 16.6594 42 15 42H12C10.3406 42 9 40.6594 9 39V33ZM15 33H12V39H15V33ZM30 24C31.5913 24 33.1174 23.3679 34.2426 22.2426C35.3679 21.1174 36 19.5913 36 18C36 16.4087 35.3679 14.8826 34.2426 13.7574C33.1174 12.6321 31.5913 12 30 12C28.4087 12 26.8826 12.6321 25.7574 13.7574C24.6321 14.8826 24 16.4087 24 18C24 19.5913 24.6321 21.1174 25.7574 22.2426C26.8826 23.3679 28.4087 24 30 24ZM31.5 15V16.5H32.25C33.075 16.5 33.75 17.175 33.75 18C33.75 18.825 33.075 19.5 32.25 19.5H30C29.175 19.5 28.5 18.825 28.5 18V15C28.5 14.175 29.175 13.5 30 13.5C30.825 13.5 31.5 14.175 31.5 15ZM46.5 45C49.2848 45 51.9555 43.8938 53.9246 41.9246C55.8938 39.9555 57 37.2848 57 34.5C57 31.7152 55.8938 29.0445 53.9246 27.0754C51.9555 25.1062 49.2848 24 46.5 24C43.7152 24 41.0445 25.1062 39.0754 27.0754C37.1062 29.0445 36 31.7152 36 34.5C36 37.2848 37.1062 39.9555 39.0754 41.9246C41.0445 43.8938 43.7152 45 46.5 45ZM46.5 21C50.0804 21 53.5142 22.4223 56.0459 24.9541C58.5777 27.4858 60 30.9196 60 34.5C60 38.0804 58.5777 41.5142 56.0459 44.0459C53.5142 46.5777 50.0804 48 46.5 48C42.9196 48 39.4858 46.5777 36.9541 44.0459C34.4223 41.5142 33 38.0804 33 34.5C33 30.9196 34.4223 27.4858 36.9541 24.9541C39.4858 22.4223 42.9196 21 46.5 21ZM52.8094 30.4406C53.3906 31.0219 53.3906 31.9781 52.8094 32.5594L46.0594 39.3094C45.4781 39.8906 44.5219 39.8906 43.9406 39.3094L40.1906 35.5594C39.6094 34.9781 39.6094 34.0219 40.1906 33.4406C40.7719 32.8594 41.7281 32.8594 42.3094 33.4406L45 36.1312L50.6906 30.4406C51.2719 29.8594 52.2281 29.8594 52.8094 30.4406Z" fill="#4F3422"/>
</g>
<defs>
<clipPath id="clip0_697_5944">
<rect width="60" height="48" fill="white"/>
</clipPath>
</defs>
</svg>
