<svg width="42" height="48" viewBox="0 0 42 48" fill="none" xmlns="http://www.w3.org/2000/svg">
<g clip-path="url(#clip0_697_5935)">
<path d="M21.4406 0.0652344C21.15 -0.0191406 20.85 -0.0191406 20.5594 0.0652344L1.05935 6.06523C0.431227 6.26211 -2.30943e-05 6.84336 -2.30943e-05 7.49961C-2.30943e-05 8.15586 0.431227 8.73711 1.05935 8.93398L2.99998 9.53398V16.2559L0.0749769 25.0215C-0.0750231 25.4809 -2.30893e-05 25.9871 0.281227 26.3809C0.562477 26.7746 1.01248 26.9996 1.49998 26.9996H7.49998C7.9781 26.9996 8.43748 26.7652 8.71873 26.3809C8.99998 25.9965 9.07498 25.4902 8.92498 25.0309L5.99998 16.2559V10.4527L20.5594 14.934C20.85 15.0184 21.15 15.0184 21.4406 14.934L40.9406 8.93398C41.5687 8.73711 42 8.15586 42 7.49961C42 6.84336 41.5687 6.26211 40.9406 6.06523L21.4406 0.0652344ZM21 11.934L6.59998 7.49961L21 3.06523L35.4 7.49961L21 11.934ZM17.6344 41.2309C19.425 43.2465 22.575 43.2465 24.3656 41.2309L31.0312 33.7309C35.6437 35.4184 38.9437 39.8246 39 44.9996H2.99998C3.04685 39.8246 6.34685 35.409 10.9687 33.7309L17.6344 41.2309ZM10.275 30.7871C4.3031 32.8121 -2.30943e-05 38.4652 -2.30943e-05 45.1215C-2.30943e-05 46.7152 1.29373 47.9996 2.8781 47.9996H39.1219C40.7156 47.9996 42 46.7059 42 45.1215C42 38.4652 37.6969 32.8121 31.725 30.7965C30.7031 30.4496 29.5969 30.834 28.8844 31.6402L22.125 39.234C21.525 39.909 20.475 39.909 19.8844 39.234L13.125 31.6309C12.4125 30.8246 11.3062 30.4402 10.2844 30.7871H10.275ZM4.49998 21.2434L5.41873 23.9996H3.58123L4.49998 21.2434ZM8.99998 14.5121V16.4996C8.99998 23.1277 14.3719 28.4996 21 28.4996C27.6281 28.4996 33 23.1277 33 16.4996V14.5121L30 15.4309V16.4996C30 21.4684 25.9687 25.4996 21 25.4996C16.0312 25.4996 12 21.4684 12 16.4996V15.4402L8.99998 14.5215V14.5121Z" fill="#4F3422"/>
</g>
<defs>
<clipPath id="clip0_697_5935">
<rect width="42" height="48" fill="white"/>
</clipPath>
</defs>
</svg>
