<svg width="48" height="48" viewBox="0 0 48 48" fill="none" xmlns="http://www.w3.org/2000/svg">
<g clip-path="url(#clip0_697_5950)">
<path d="M12 38.9998V43.4998C12 44.3248 11.325 44.9998 10.5 44.9998H4.5C3.675 44.9998 3 44.3248 3 43.4998V38.9998H12ZM10.5 47.9998C11.6531 47.9998 12.7031 47.5685 13.5 46.856C14.2969 47.5685 15.3469 47.9998 16.5 47.9998H22.5C24.9844 47.9998 27 45.9842 27 43.4998V38.9998V37.4998V35.9998V18.1685L31.8187 36.7404L32.1937 38.1935L33.8812 44.681C34.5 47.0717 36.8813 48.4873 39.1969 47.8498L44.7844 46.3029C47.1 45.6654 48.4687 43.2092 47.85 40.8185L46.5469 35.7842L46.1719 34.331L40.1813 11.2685L39.8063 9.81542L38.1188 3.32792C37.5 0.927918 35.1187 -0.487707 32.8031 0.149793L27.2156 1.69667C26.8875 1.79042 26.5781 1.91229 26.2875 2.07167C25.4906 0.824793 24.0938 -0.000207453 22.5 -0.000207453H16.5C15.3469 -0.000207453 14.2969 0.431043 13.5 1.14354C12.7031 0.431043 11.6531 -0.000207453 10.5 -0.000207453H4.5C2.01562 -0.000207453 0 2.01542 0 4.49979V8.99979V10.4998V11.9998V35.9998V37.4998V38.9998V43.4998C0 45.9842 2.01562 47.9998 4.5 47.9998H10.5ZM27 6.07479V5.95292C27.0281 5.27792 27.4781 4.73417 28.0125 4.58417L33.6 3.03729C34.2187 2.86854 34.9875 3.22479 35.2125 4.06854L36.5344 9.14979L28.35 11.4185L27.0563 6.43104C27.0281 6.30917 27.0094 6.18729 27 6.07479ZM24 6.01854V8.99979H15V4.49979C15 3.67479 15.675 2.99979 16.5 2.99979H22.5C23.325 2.99979 24 3.67479 24 4.49979V6.01854ZM16.5 44.9998C15.675 44.9998 15 44.3248 15 43.4998V38.9998H24V43.4998C24 44.3248 23.325 44.9998 22.5 44.9998H16.5ZM12 11.9998V35.9998H3V11.9998H12ZM12 4.49979V8.99979H3V4.49979C3 3.67479 3.675 2.99979 4.5 2.99979H10.5C11.325 2.99979 12 3.67479 12 4.49979ZM24 35.9998H15V11.9998H24V35.9998ZM37.2844 12.0654L42.8906 33.6748L34.7063 35.9435L29.1 14.3248L37.2844 12.056V12.0654ZM43.65 36.581L44.9437 41.5685C45.1687 42.4498 44.6438 43.2279 43.9781 43.406L38.3906 44.9529C37.7719 45.1217 37.0031 44.7654 36.7781 43.9217L35.4563 38.8404L43.6406 36.5717L43.65 36.581Z" fill="#4F3422"/>
</g>
<defs>
<clipPath id="clip0_697_5950">
<rect width="48" height="48" fill="white"/>
</clipPath>
</defs>
</svg>
