<svg width="60" height="48" viewBox="0 0 60 48" fill="none" xmlns="http://www.w3.org/2000/svg">
<g clip-path="url(#clip0_697_5953)">
<path d="M54 3H21C19.3406 3 18 4.34062 18 6V9.375C17.0438 9.13125 16.0312 9 15 9V6C15 2.69063 17.6906 0 21 0H54C57.3094 0 60 2.69063 60 6V33C60 36.3094 57.3094 39 54 39H52.5H37.5H36H31.575C31.0781 37.9313 30.4687 36.9188 29.7469 36H36V31.5C36 29.0156 38.0156 27 40.5 27H49.5C51.9844 27 54 29.0156 54 31.5V36C55.6594 36 57 34.6594 57 33V6C57 4.34062 55.6594 3 54 3ZM51 36V31.5C51 30.675 50.325 30 49.5 30H40.5C39.675 30 39 30.675 39 31.5V36H51ZM21 21C21 19.4087 20.3679 17.8826 19.2426 16.7574C18.1174 15.6321 16.5913 15 15 15C13.4087 15 11.8826 15.6321 10.7574 16.7574C9.63214 17.8826 9 19.4087 9 21C9 22.5913 9.63214 24.1174 10.7574 25.2426C11.8826 26.3679 13.4087 27 15 27C16.5913 27 18.1174 26.3679 19.2426 25.2426C20.3679 24.1174 21 22.5913 21 21ZM6 21C6 18.6131 6.94821 16.3239 8.63604 14.636C10.3239 12.9482 12.6131 12 15 12C17.3869 12 19.6761 12.9482 21.364 14.636C23.0518 16.3239 24 18.6131 24 21C24 23.3869 23.0518 25.6761 21.364 27.364C19.6761 29.0518 17.3869 30 15 30C12.6131 30 10.3239 29.0518 8.63604 27.364C6.94821 25.6761 6 23.3869 6 21ZM3.00937 45H26.9906C26.7281 39.9844 22.5844 36 17.5031 36H12.4969C7.41563 36 3.27187 39.9844 3.00937 45ZM0 45.4969C0 38.5969 5.59688 33 12.4969 33H17.4938C24.4031 33 30 38.5969 30 45.4969C30 46.875 28.8844 48 27.4969 48H2.50313C1.11563 48 0 46.8844 0 45.4969Z" fill="#4F3422"/>
</g>
<defs>
<clipPath id="clip0_697_5953">
<rect width="60" height="48" fill="white"/>
</clipPath>
</defs>
</svg>
