<svg width="48" height="48" viewBox="0 0 48 48" fill="none" xmlns="http://www.w3.org/2000/svg">
<g clip-path="url(#clip0_697_6152)">
<path d="M24 3C29.5695 3 34.911 5.21249 38.8492 9.15076C42.7875 13.089 45 18.4305 45 24C45 29.5695 42.7875 34.911 38.8492 38.8492C34.911 42.7875 29.5695 45 24 45C18.4305 45 13.089 42.7875 9.15076 38.8492C5.21249 34.911 3 29.5695 3 24C3 18.4305 5.21249 13.089 9.15076 9.15076C13.089 5.21249 18.4305 3 24 3ZM24 48C30.3652 48 36.4697 45.4714 40.9706 40.9706C45.4714 36.4697 48 30.3652 48 24C48 17.6348 45.4714 11.5303 40.9706 7.02944C36.4697 2.52856 30.3652 0 24 0C17.6348 0 11.5303 2.52856 7.02944 7.02944C2.52856 11.5303 0 17.6348 0 24C0 30.3652 2.52856 36.4697 7.02944 40.9706C11.5303 45.4714 17.6348 48 24 48ZM32.4375 32.4187C30.3187 34.6312 27.3281 36.0094 24.0094 36.0094C20.6906 36.0094 17.7 34.6312 15.5812 32.4187C18.2531 32.925 21.0844 33.1969 24.0094 33.1969C26.9344 33.1969 29.7656 32.925 32.4375 32.4187ZM35.6062 28.5656C32.1094 29.6063 28.1719 30.1969 24 30.1969C19.8281 30.1969 15.9 29.6063 12.3937 28.5656C11.2406 28.2188 10.125 29.2219 10.6031 30.3187C12.8625 35.4375 18.0094 39.0094 23.9906 39.0094C29.9719 39.0094 35.1188 35.4375 37.3781 30.3187C37.8656 29.2219 36.7406 28.2188 35.5875 28.5656H35.6062ZM15 9.75C14.4188 9.75 13.8938 10.0781 13.65 10.6031L11.8406 14.3906L7.67813 14.9437C7.10625 15.0187 6.62813 15.4219 6.45 15.9656C6.27188 16.5094 6.42188 17.1188 6.84375 17.5125L9.89062 20.4094L9.12188 24.5437C9.01875 25.1156 9.24375 25.6875 9.7125 26.0344C10.1812 26.3813 10.8 26.4187 11.3062 26.1375L15 24.1312L18.6937 26.1375C19.2 26.4094 19.8187 26.3719 20.2875 26.0344C20.7562 25.6969 20.9906 25.1156 20.8781 24.5437L20.1094 20.4094L23.1562 17.5125C23.5781 17.1188 23.7281 16.5094 23.55 15.9656C23.3719 15.4219 22.8938 15.0187 22.3219 14.9437L18.1594 14.3906L16.35 10.6031C16.0969 10.0781 15.5719 9.75 15 9.75ZM15 14.7375L15.8063 16.425C16.0219 16.8844 16.4625 17.2031 16.9594 17.2687L18.8156 17.5125L17.4562 18.7969C17.0906 19.1438 16.9219 19.6594 17.0156 20.1562L17.3531 21.9938L15.7031 21.1031C15.2531 20.8594 14.7187 20.8594 14.2687 21.1031L12.6188 21.9938L12.9562 20.1562C13.05 19.6594 12.8813 19.1438 12.5156 18.7969L11.1562 17.5125L13.0125 17.2687C13.5188 17.2031 13.95 16.8844 14.1656 16.425L14.9719 14.7375H15ZM33 9.75C32.4188 9.75 31.8938 10.0781 31.65 10.6031L29.8406 14.3906L25.6781 14.9437C25.1062 15.0187 24.6281 15.4219 24.45 15.9656C24.2719 16.5094 24.4219 17.1188 24.8438 17.5125L27.8906 20.4094L27.1219 24.5437C27.0187 25.1156 27.2438 25.6875 27.7125 26.0344C28.1813 26.3813 28.8 26.4187 29.3063 26.1375L33 24.1312L36.6937 26.1375C37.2 26.4094 37.8187 26.3719 38.2875 26.0344C38.7562 25.6969 38.9813 25.1156 38.8781 24.5437L38.1094 20.4094L41.1562 17.5125C41.5781 17.1188 41.7281 16.5094 41.55 15.9656C41.3719 15.4219 40.8938 15.0187 40.3219 14.9437L36.1594 14.3906L34.35 10.6031C34.0969 10.0781 33.5719 9.75 33 9.75ZM33 14.7375L33.8063 16.425C34.0219 16.8844 34.4625 17.2031 34.9594 17.2687L36.8156 17.5125L35.4563 18.7969C35.0906 19.1438 34.9219 19.6594 35.0156 20.1562L35.3531 21.9938L33.7031 21.1031C33.2531 20.8594 32.7188 20.8594 32.2688 21.1031L30.6188 21.9938L30.9563 20.1562C31.05 19.6594 30.8813 19.1438 30.5156 18.7969L29.1562 17.5125L31.0125 17.2687C31.5187 17.2031 31.95 16.8844 32.1656 16.425L32.9719 14.7375H33Z" fill="#4F3422"/>
</g>
<defs>
<clipPath id="clip0_697_6152">
<rect width="48" height="48" fill="white"/>
</clipPath>
</defs>
</svg>
