<svg width="48" height="48" viewBox="0 0 48 48" fill="none" xmlns="http://www.w3.org/2000/svg">
<g clip-path="url(#clip0_697_6140)">
<path d="M45 24C45 18.4305 42.7875 13.089 38.8492 9.15076C34.911 5.21249 29.5695 3 24 3C18.4305 3 13.089 5.21249 9.15076 9.15076C5.21249 13.089 3 18.4305 3 24C3 29.5695 5.21249 34.911 9.15076 38.8492C13.089 42.7875 18.4305 45 24 45C29.5695 45 34.911 42.7875 38.8492 38.8492C42.7875 34.911 45 29.5695 45 24ZM0 24C0 17.6348 2.52856 11.5303 7.02944 7.02944C11.5303 2.52856 17.6348 0 24 0C30.3652 0 36.4697 2.52856 40.9706 7.02944C45.4714 11.5303 48 17.6348 48 24C48 30.3652 45.4714 36.4697 40.9706 40.9706C36.4697 45.4714 30.3652 48 24 48C17.6348 48 11.5303 45.4714 7.02944 40.9706C2.52856 36.4697 0 30.3652 0 24ZM15.3844 30.5156C17.0625 32.4563 19.9312 34.5 24 34.5C28.0688 34.5 30.9375 32.4563 32.6156 30.5156C33.1594 29.8875 34.1063 29.8219 34.7344 30.3656C35.3625 30.9094 35.4281 31.8563 34.8844 32.4844C32.7938 34.8844 29.1656 37.5 24 37.5C18.8344 37.5 15.2062 34.8844 13.1156 32.4844C12.5719 31.8563 12.6375 30.9094 13.2656 30.3656C13.8937 29.8219 14.8406 29.8875 15.3844 30.5156ZM19.8 21.9C18.15 19.6969 14.85 19.6969 13.2 21.9C12.7031 22.5656 11.7656 22.6969 11.1 22.2C10.4344 21.7031 10.3031 20.7656 10.8 20.1C13.65 16.3031 19.35 16.3031 22.2 20.1C22.6969 20.7656 22.5656 21.7031 21.9 22.2C21.2344 22.6969 20.2969 22.5656 19.8 21.9ZM28.2 21.9C27.7031 22.5656 26.7656 22.6969 26.1 22.2C25.4344 21.7031 25.3031 20.7656 25.8 20.1C28.65 16.3031 34.35 16.3031 37.2 20.1C37.6969 20.7656 37.5656 21.7031 36.9 22.2C36.2344 22.6969 35.2969 22.5656 34.8 21.9C33.15 19.6969 29.85 19.6969 28.2 21.9Z" fill="#4F3422"/>
</g>
<defs>
<clipPath id="clip0_697_6140">
<rect width="48" height="48" fill="white"/>
</clipPath>
</defs>
</svg>
