<svg width="48" height="48" viewBox="0 0 48 48" fill="none" xmlns="http://www.w3.org/2000/svg">
<g clip-path="url(#clip0_697_6164)">
<path d="M45 24C45 18.4305 42.7875 13.089 38.8492 9.15076C34.911 5.21249 29.5695 3 24 3C18.4305 3 13.089 5.21249 9.15076 9.15076C5.21249 13.089 3 18.4305 3 24C3 29.5695 5.21249 34.911 9.15076 38.8492C13.089 42.7875 18.4305 45 24 45C29.5695 45 34.911 42.7875 38.8492 38.8492C42.7875 34.911 45 29.5695 45 24ZM0 24C0 17.6348 2.52856 11.5303 7.02944 7.02944C11.5303 2.52856 17.6348 0 24 0C30.3652 0 36.4697 2.52856 40.9706 7.02944C45.4714 11.5303 48 17.6348 48 24C48 30.3652 45.4714 36.4697 40.9706 40.9706C36.4697 45.4714 30.3652 48 24 48C17.6348 48 11.5303 45.4714 7.02944 40.9706C2.52856 36.4697 0 30.3652 0 24ZM17.5594 32.6906C18.7781 33.9094 20.9156 35.25 24 35.25C27.0844 35.25 29.2125 33.9094 30.4406 32.6906C31.0219 32.1094 31.9781 32.1094 32.5594 32.6906C33.1406 33.2719 33.1406 34.2281 32.5594 34.8094C30.8812 36.4875 28.0219 38.25 24 38.25C19.9781 38.25 17.1187 36.4875 15.4406 34.8094C14.8594 34.2281 14.8594 33.2719 15.4406 32.6906C16.0219 32.1094 16.9781 32.1094 17.5594 32.6906ZM36.3 22.35C36.7969 21.6844 37.7344 21.5531 38.4 22.05C39.0656 22.5469 39.1969 23.4844 38.7 24.15C35.85 27.9469 30.15 27.9469 27.3 24.15C26.8031 23.4844 26.9344 22.5469 27.6 22.05C28.2656 21.5531 29.2031 21.6844 29.7 22.35C31.35 24.5531 34.65 24.5531 36.3 22.35ZM11.7 22.35C13.35 24.5531 16.65 24.5531 18.3 22.35C18.7969 21.6844 19.7344 21.5531 20.4 22.05C21.0656 22.5469 21.1969 23.4844 20.7 24.15C17.85 27.9469 12.15 27.9469 9.3 24.15C8.80312 23.4844 8.93438 22.5469 9.6 22.05C10.2656 21.5531 11.2031 21.6844 11.7 22.35ZM19.425 10.0219C19.6875 10.8094 19.2656 11.6531 18.4781 11.9156L17.8875 12.1125C15.675 12.8531 13.7625 14.3063 12.4688 16.2469L11.7563 17.325C11.2969 18.0188 10.3687 18.1969 9.675 17.7375C8.98125 17.2781 8.80313 16.35 9.2625 15.6562L9.975 14.5781C11.6438 12.0844 14.0906 10.2094 16.9406 9.2625L17.5312 9.06562C18.3187 8.80312 19.1625 9.225 19.425 10.0125V10.0219ZM29.5312 11.9156C28.7438 11.6531 28.3219 10.8 28.5844 10.0219C28.8469 9.24375 29.7 8.8125 30.4781 9.075L31.0687 9.27188C33.9187 10.2188 36.3656 12.0938 38.0344 14.5875L38.7469 15.6656C39.2062 16.3594 39.0187 17.2875 38.3344 17.7469C37.65 18.2063 36.7125 18.0187 36.2531 17.3344L35.5312 16.2562C34.2375 14.3156 32.3344 12.8531 30.1125 12.1219L29.5219 11.925L29.5312 11.9156Z" fill="#4F3422"/>
</g>
<defs>
<clipPath id="clip0_697_6164">
<rect width="48" height="48" fill="white"/>
</clipPath>
</defs>
</svg>
