<svg width="48" height="48" viewBox="0 0 48 48" fill="none" xmlns="http://www.w3.org/2000/svg">
<g clip-path="url(#clip0_697_6155)">
<path d="M3 24C3 12.4031 12.4031 3 24 3C35.5969 3 45 12.4031 45 24C45 29.3813 42.975 34.2844 39.6562 37.9969C39.1031 38.6156 39.1594 39.5625 39.7781 40.1156C40.3969 40.6687 41.3437 40.6125 41.8969 39.9938C45.6844 35.7563 48 30.15 48 24C48 10.7438 37.2562 0 24 0C10.7438 0 0 10.7438 0 24C0 29.4 1.79063 34.3875 4.8 38.4C5.29688 39.0656 6.23437 39.1969 6.9 38.7C7.56562 38.2031 7.69688 37.2656 7.2 36.6C4.56563 33.0937 3 28.7344 3 24ZM16.5375 18.75C16.833 18.75 17.1256 18.6918 17.3985 18.5787C17.6715 18.4657 17.9196 18.2999 18.1285 18.091C18.3374 17.8821 18.5032 17.634 18.6162 17.361C18.7293 17.0881 18.7875 16.7955 18.7875 16.5C18.7875 16.2045 18.7293 15.9119 18.6162 15.639C18.5032 15.366 18.3374 15.1179 18.1285 14.909C17.9196 14.7001 17.6715 14.5343 17.3985 14.4213C17.1256 14.3082 16.833 14.25 16.5375 14.25C16.242 14.25 15.9494 14.3082 15.6765 14.4213C15.4035 14.5343 15.1554 14.7001 14.9465 14.909C14.7376 15.1179 14.5718 15.366 14.4588 15.639C14.3457 15.9119 14.2875 16.2045 14.2875 16.5C14.2875 16.7955 14.3457 17.0881 14.4588 17.361C14.5718 17.634 14.7376 17.8821 14.9465 18.091C15.1554 18.2999 15.4035 18.4657 15.6765 18.5787C15.9494 18.6918 16.242 18.75 16.5375 18.75ZM33.7875 16.5C33.7875 15.9033 33.5504 15.331 33.1285 14.909C32.7065 14.4871 32.1342 14.25 31.5375 14.25C30.9408 14.25 30.3685 14.4871 29.9465 14.909C29.5246 15.331 29.2875 15.9033 29.2875 16.5C29.2875 17.0967 29.5246 17.669 29.9465 18.091C30.3685 18.5129 30.9408 18.75 31.5375 18.75C32.1342 18.75 32.7065 18.5129 33.1285 18.091C33.5504 17.669 33.7875 17.0967 33.7875 16.5ZM24.8812 28.2469L23.25 29.8688C23.0063 30.1125 23.0063 30.5063 23.25 30.75C23.4937 30.9937 23.8875 30.9937 24.1312 30.75L25.7531 29.1281L28.9406 25.9406L30.4406 24.4406C30.7313 24.15 31.1156 24 31.5 24C31.8844 24 32.2687 24.15 32.5594 24.4406C32.85 24.7313 33 25.1156 33 25.5C33 25.8844 32.85 26.2687 32.5594 26.5594L31.0594 28.0594L27.8719 31.2469L26.25 32.8688C26.0063 33.1125 26.0063 33.5063 26.25 33.75C26.4937 33.9937 26.8875 33.9937 27.1312 33.75L28.7531 32.1281L31.9406 28.9406C32.5219 28.3594 33.4781 28.3594 34.0594 28.9406C34.125 29.0063 34.1813 29.0719 34.2281 29.1375C34.6406 29.7187 34.5844 30.5344 34.0594 31.0594L33.5813 31.5375L31.0594 34.0594L30.8719 34.2469L29.25 35.8688C29.0063 36.1125 29.0063 36.5063 29.25 36.75C29.4937 36.9937 29.8875 36.9937 30.1312 36.75L31.7531 35.1281L31.9406 34.9406C32.5219 34.3594 33.4781 34.3594 34.0594 34.9406C34.125 35.0063 34.1813 35.0719 34.2281 35.1375C34.6406 35.7187 34.5844 36.5344 34.0594 37.0594L32.25 38.8688L28.7344 42.3844C27.0656 44.0625 24.7875 45 22.425 45C17.4937 45 13.5 41.0062 13.5 36.075V33V27.975C13.5 26.9437 14.3438 26.1 15.375 26.1C16.2281 26.1 16.95 26.6719 17.175 27.4594C17.1937 27.5344 17.2125 27.6187 17.2313 27.6937C17.2406 27.7875 17.25 27.8812 17.25 27.975V29.0719V29.8219C17.25 30.4875 18.0562 30.825 18.5344 30.3562L19.0687 29.8219L20.0438 28.8469L20.2594 28.6312L21.1406 27.75L25.95 22.9406C26.475 22.4156 27.2906 22.3594 27.8719 22.7719C27.9375 22.8187 28.0031 22.875 28.0687 22.9406C28.65 23.5219 28.65 24.4781 28.0687 25.0594L24.8812 28.2469ZM23.8219 20.8219L19.4062 25.2281C18.525 23.9438 17.0531 23.1 15.375 23.1C12.6844 23.1 10.5 25.2844 10.5 27.975V33V36.075C10.5 42.6656 15.8344 48 22.425 48C25.5844 48 28.6219 46.7438 30.8531 44.5031L36.1781 39.1781C37.875 37.4812 37.9313 34.7625 36.3469 33C37.9313 31.2375 37.875 28.5188 36.1781 26.8219C36.0844 26.7281 35.9813 26.6344 35.8781 26.5406C36.225 25.0688 35.8312 23.4656 34.6781 22.3219C33.525 21.1781 31.9219 20.775 30.4594 21.1219C30.375 21.0188 30.2812 20.9156 30.1781 20.8219C28.425 19.0688 25.575 19.0688 23.8125 20.8219H23.8219Z" fill="#4F3422"/>
</g>
<defs>
<clipPath id="clip0_697_6155">
<rect width="48" height="48" fill="white"/>
</clipPath>
</defs>
</svg>
