<svg width="48" height="48" viewBox="0 0 48 48" fill="none" xmlns="http://www.w3.org/2000/svg">
<g clip-path="url(#clip0_697_6121)">
<path d="M45 24C45 18.4305 42.7875 13.089 38.8492 9.15076C34.911 5.21249 29.5695 3 24 3C18.4305 3 13.089 5.21249 9.15076 9.15076C5.21249 13.089 3 18.4305 3 24C3 29.5695 5.21249 34.911 9.15076 38.8492C13.089 42.7875 18.4305 45 24 45C29.5695 45 34.911 42.7875 38.8492 38.8492C42.7875 34.911 45 29.5695 45 24ZM0 24C0 17.6348 2.52856 11.5303 7.02944 7.02944C11.5303 2.52856 17.6348 0 24 0C30.3652 0 36.4697 2.52856 40.9706 7.02944C45.4714 11.5303 48 17.6348 48 24C48 30.3652 45.4714 36.4697 40.9706 40.9706C36.4697 45.4714 30.3652 48 24 48C17.6348 48 11.5303 45.4714 7.02944 40.9706C2.52856 36.4697 0 30.3652 0 24ZM28.9594 40.2937C27.4406 39.7219 25.7719 39.4125 24 39.4125C22.2375 39.4125 20.5594 39.7312 19.0406 40.2937C17.9906 40.6875 16.8281 40.5094 16.0031 39.8719C15.5812 39.5437 15.2156 39.0656 15.0656 38.4563C14.9156 37.8281 15.0187 37.1906 15.3187 36.6281C16.9594 33.5625 20.2406 31.5 24 31.5C27.7594 31.5 31.05 33.5719 32.6719 36.6281C32.9719 37.1906 33.075 37.8281 32.925 38.4563C32.775 39.0656 32.4094 39.5437 31.9875 39.8719C31.1625 40.5094 30 40.6875 28.95 40.2937H28.9594ZM24 34.5C21.6656 34.5 19.6219 35.6344 18.4125 37.3313C20.1469 36.7313 22.0312 36.4125 24 36.4125C25.9688 36.4125 27.8531 36.7406 29.5875 37.3406C28.3781 35.625 26.3344 34.5 24 34.5ZM14.2875 25.5C14.2875 24.9033 14.5246 24.331 14.9465 23.909C15.3685 23.4871 15.9408 23.25 16.5375 23.25C17.1342 23.25 17.7065 23.4871 18.1285 23.909C18.5504 24.331 18.7875 24.9033 18.7875 25.5C18.7875 26.0967 18.5504 26.669 18.1285 27.091C17.7065 27.5129 17.1342 27.75 16.5375 27.75C15.9408 27.75 15.3685 27.5129 14.9465 27.091C14.5246 26.669 14.2875 26.0967 14.2875 25.5ZM31.5375 23.25C32.1342 23.25 32.7065 23.4871 33.1285 23.909C33.5504 24.331 33.7875 24.9033 33.7875 25.5C33.7875 26.0967 33.5504 26.669 33.1285 27.091C32.7065 27.5129 32.1342 27.75 31.5375 27.75C30.9408 27.75 30.3685 27.5129 29.9465 27.091C29.5246 26.669 29.2875 26.0967 29.2875 25.5C29.2875 24.9033 29.5246 24.331 29.9465 23.909C30.3685 23.4871 30.9408 23.25 31.5375 23.25ZM18 15C17.5875 15 17.175 15.0281 16.7812 15.0844C14.7937 15.3469 12.975 16.2469 11.5219 17.5969C10.9125 18.1594 9.96563 18.1312 9.40313 17.5219C8.84063 16.9125 8.86875 15.9656 9.47812 15.4031C11.3625 13.65 13.7438 12.45 16.3875 12.1031C16.9125 12.0375 17.4562 12 18 12C18.825 12 19.5 12.675 19.5 13.5C19.5 14.325 18.825 15 18 15ZM31.2188 15.0844C30.8156 15.0281 30.4125 15 30 15C29.175 15 28.5 14.325 28.5 13.5C28.5 12.675 29.175 12 30 12C30.5438 12 31.0875 12.0375 31.6125 12.1031C34.2563 12.45 36.6469 13.6406 38.5219 15.4031C39.1312 15.9656 39.1594 16.9219 38.5969 17.5219C38.0344 18.1219 37.0781 18.1594 36.4781 17.5969C35.025 16.2375 33.2156 15.3469 31.2188 15.0844Z" fill="#4F3422"/>
</g>
<defs>
<clipPath id="clip0_697_6121">
<rect width="48" height="48" fill="white"/>
</clipPath>
</defs>
</svg>
