<svg width="48" height="48" viewBox="0 0 48 48" fill="none" xmlns="http://www.w3.org/2000/svg">
<g clip-path="url(#clip0_697_6130)">
<path d="M24 3C29.5695 3 34.911 5.21249 38.8492 9.15076C42.7875 13.089 45 18.4305 45 24C45 29.5695 42.7875 34.911 38.8492 38.8492C34.911 42.7875 29.5695 45 24 45C18.4305 45 13.089 42.7875 9.15076 38.8492C5.21249 34.911 3 29.5695 3 24C3 18.4305 5.21249 13.089 9.15076 9.15076C13.089 5.21249 18.4305 3 24 3ZM24 48C30.3652 48 36.4697 45.4714 40.9706 40.9706C45.4714 36.4697 48 30.3652 48 24C48 17.6348 45.4714 11.5303 40.9706 7.02944C36.4697 2.52856 30.3652 0 24 0C17.6348 0 11.5303 2.52856 7.02944 7.02944C2.52856 11.5303 0 17.6348 0 24C0 30.3652 2.52856 36.4697 7.02944 40.9706C11.5303 45.4714 17.6348 48 24 48ZM17.25 19.5H9.75V18C9.75 15.9281 11.4281 14.25 13.5 14.25C13.5469 14.25 13.5844 14.25 13.6312 14.25C13.5469 14.4844 13.5 14.7375 13.5 15C13.5 16.2469 14.5031 17.25 15.75 17.25C16.2375 17.25 16.6969 17.0906 17.0625 16.8281C17.1844 17.1938 17.25 17.5875 17.25 18V19.5ZM13.5 11.25C9.76875 11.25 6.75 14.2688 6.75 18V19.5C6.75 21.1594 8.09062 22.5 9.75 22.5H17.25C18.9094 22.5 20.25 21.1594 20.25 19.5V18C20.25 14.2688 17.2312 11.25 13.5 11.25ZM35.6344 16.2281C35.8688 16.7719 36 17.3719 36 18V19.5H27V18C27 15.5156 29.0156 13.5 31.5 13.5C31.6875 13.5 31.8656 13.5094 32.0437 13.5281C31.7062 13.9219 31.5 14.4375 31.5 15C31.5 16.2469 32.5031 17.25 33.75 17.25C34.5375 17.25 35.2313 16.8469 35.6344 16.2281ZM24 18V19.6781C24 21.2344 25.2656 22.5 26.8219 22.5H36.1781C37.7344 22.5 39 21.2344 39 19.6781V18C39 13.8562 35.6438 10.5 31.5 10.5C27.3562 10.5 24 13.8562 24 18ZM24.4406 39H23.25C23.0625 39 22.875 39 22.6969 38.9906C23.3719 36.4125 25.7156 34.5 28.5 34.5C29.9906 34.5 31.3594 35.0438 32.4094 35.9531C32.1469 36.2063 31.875 36.4406 31.5938 36.6656C29.5781 38.1375 27.1031 39 24.4406 39ZM19.6969 38.6062C14.8688 37.3969 11.0813 33.4875 10.1063 28.5H36.45C36.1875 30.4313 35.4844 32.2125 34.4344 33.7406C32.85 32.3437 30.7781 31.5 28.5 31.5C24.1781 31.5 20.5688 34.5469 19.6969 38.6062ZM33.4031 39.0563C36.7781 36.5719 39.0937 32.7094 39.4969 28.2469C39.6281 26.775 38.4656 25.5 36.9844 25.5H8.7C7.65 25.5 6.83438 26.4 6.92813 27.4406C7.67813 35.6906 14.5875 42 22.875 42H23.25H24.4406H24.8812C28.0875 42 31.05 40.9031 33.4031 39.0563Z" fill="#4F3422"/>
</g>
<defs>
<clipPath id="clip0_697_6130">
<rect width="48" height="48" fill="white"/>
</clipPath>
</defs>
</svg>
