<svg width="48" height="48" viewBox="0 0 48 48" fill="none" xmlns="http://www.w3.org/2000/svg">
<g clip-path="url(#clip0_697_6136)">
<path d="M45 24C45 18.4305 42.7875 13.089 38.8492 9.15076C34.911 5.21249 29.5695 3 24 3C18.4305 3 13.089 5.21249 9.15076 9.15076C5.21249 13.089 3 18.4305 3 24C3 29.5695 5.21249 34.911 9.15076 38.8492C13.089 42.7875 18.4305 45 24 45C29.5695 45 34.911 42.7875 38.8492 38.8492C42.7875 34.911 45 29.5695 45 24ZM0 24C0 17.6348 2.52856 11.5303 7.02944 7.02944C11.5303 2.52856 17.6348 0 24 0C30.3652 0 36.4697 2.52856 40.9706 7.02944C45.4714 11.5303 48 17.6348 48 24C48 30.3652 45.4714 36.4697 40.9706 40.9706C36.4697 45.4714 30.3652 48 24 48C17.6348 48 11.5303 45.4714 7.02944 40.9706C2.52856 36.4697 0 30.3652 0 24ZM24 32.8125C26.2688 32.8125 28.5187 33.1313 30.6937 33.75C30.3656 33.2719 29.9719 32.7844 29.5125 32.325C28.0594 30.8719 26.1188 29.8125 24.0094 29.8125C21.9 29.8125 19.9594 30.8719 18.5062 32.325C18.0469 32.7844 17.6438 33.2719 17.325 33.75C19.5 33.1219 21.75 32.8125 24.0188 32.8125H24ZM24 26.8125C27.1406 26.8125 29.7937 28.3781 31.6219 30.2063C32.5406 31.125 33.2906 32.1563 33.8156 33.1594C34.3313 34.1344 34.6875 35.2031 34.6875 36.1969C34.6875 36.6844 34.4531 37.1438 34.05 37.425C33.6469 37.7063 33.1406 37.7719 32.6813 37.6125L31.1344 37.0594C28.8469 36.225 26.4375 35.8125 24 35.8125C21.5625 35.8125 19.1438 36.2344 16.8563 37.05L15.3094 37.5938C14.85 37.7625 14.3437 37.6875 13.9406 37.4062C13.5375 37.125 13.3031 36.6656 13.3031 36.1781C13.3031 35.1844 13.6594 34.125 14.175 33.1406C14.7 32.1375 15.45 31.1156 16.3688 30.1875C18.1969 28.3594 20.8594 26.7937 23.9906 26.7937L24 26.8125ZM12.1219 15.825C12.4969 15.0844 13.3969 14.7844 14.1375 15.15L20.1375 18.15C20.6438 18.4031 20.9625 18.9281 20.9625 19.4906C20.9625 20.0531 20.6438 20.5781 20.1375 20.8312L14.1375 23.8312C13.3969 24.2062 12.4969 23.8969 12.1219 23.1562C11.7469 22.4156 12.0562 21.5156 12.7969 21.1406L16.1156 19.5L12.7969 17.8406C12.0562 17.4656 11.7563 16.5656 12.1219 15.825ZM35.2031 17.8406L31.8938 19.5L35.2125 21.1594C35.9531 21.5344 36.2531 22.4344 35.8875 23.175C35.5219 23.9156 34.6125 24.2156 33.8719 23.85L27.8719 20.85C27.3656 20.5969 27.0469 20.0719 27.0469 19.5094C27.0469 18.9469 27.3656 18.4219 27.8719 18.1688L33.8719 15.1688C34.6125 14.7938 35.5125 15.1031 35.8875 15.8438C36.2625 16.5844 35.9531 17.4844 35.2125 17.8594L35.2031 17.8406Z" fill="#4F3422"/>
</g>
<defs>
<clipPath id="clip0_697_6136">
<rect width="48" height="48" fill="white"/>
</clipPath>
</defs>
</svg>
