<svg width="48" height="48" viewBox="0 0 48 48" fill="none" xmlns="http://www.w3.org/2000/svg">
<g clip-path="url(#clip0_697_6161)">
<path d="M45.0281 7.32187C45.0281 7.31939 45.0271 7.317 45.0254 7.31525C45.0236 7.31349 45.0212 7.3125 45.0188 7.3125C45.0163 7.3125 45.0139 7.31349 45.0121 7.31525C45.0104 7.317 45.0094 7.31939 45.0094 7.32187C45.0094 7.32436 45.0104 7.32675 45.0121 7.3285C45.0139 7.33026 45.0163 7.33125 45.0188 7.33125C45.0212 7.33125 45.0236 7.33026 45.0254 7.3285C45.0271 7.32675 45.0281 7.32436 45.0281 7.32187ZM44.3344 6.99375C44.6344 7.21875 44.8031 7.3875 44.9062 7.5C44.8031 7.6125 44.6344 7.78125 44.3344 8.00625C43.4906 8.625 42.0844 9.30938 40.0781 9.9375C36.0938 11.1844 30.4125 12 24 12C17.5875 12 11.9062 11.1844 7.92188 9.9375C5.91563 9.30938 4.50937 8.625 3.66562 8.00625C3.36562 7.78125 3.19688 7.6125 3.09375 7.5C3.19688 7.3875 3.36562 7.21875 3.66562 6.99375C4.50937 6.375 5.91563 5.69062 7.92188 5.0625C11.9062 3.81562 17.5875 3 24 3C30.4125 3 36.0938 3.81562 40.0781 5.0625C42.0844 5.69062 43.4906 6.375 44.3344 6.99375ZM2.97188 7.32187C2.97188 7.32436 2.97286 7.32675 2.97462 7.3285C2.97638 7.33026 2.97876 7.33125 2.98125 7.33125C2.98374 7.33125 2.98612 7.33026 2.98788 7.3285C2.98964 7.32675 2.99062 7.32436 2.99062 7.32187C2.99062 7.31939 2.98964 7.317 2.98788 7.31525C2.98612 7.31349 2.98374 7.3125 2.98125 7.3125C2.97876 7.3125 2.97638 7.31349 2.97462 7.31525C2.97286 7.317 2.97188 7.31939 2.97188 7.32187ZM2.97188 7.67813C2.97188 7.68061 2.97286 7.683 2.97462 7.68475C2.97638 7.68651 2.97876 7.6875 2.98125 7.6875C2.98374 7.6875 2.98612 7.68651 2.98788 7.68475C2.98964 7.683 2.99062 7.68061 2.99062 7.67813C2.99062 7.67564 2.98964 7.67325 2.98788 7.6715C2.98612 7.66974 2.98374 7.66875 2.98125 7.66875C2.97876 7.66875 2.97638 7.66974 2.97462 7.6715C2.97286 7.67325 2.97188 7.67564 2.97188 7.67813ZM45.0188 7.66875C45.0168 7.66584 45.0141 7.66353 45.0109 7.66209C45.0077 7.66065 45.0041 7.66013 45.0007 7.6606C44.9972 7.66107 44.9939 7.6625 44.9912 7.66474C44.9885 7.66698 44.9865 7.66993 44.9854 7.67325C44.9843 7.67658 44.9841 7.68015 44.9849 7.68356C44.9858 7.68697 44.9875 7.69008 44.99 7.69254C44.9925 7.695 44.9957 7.69671 44.9991 7.69748C45.0025 7.69825 45.0061 7.69804 45.0094 7.69687C45.0113 7.69979 45.0141 7.7021 45.0173 7.70354C45.0204 7.70498 45.024 7.70549 45.0275 7.70503C45.0309 7.70456 45.0342 7.70312 45.0369 7.70089C45.0396 7.69865 45.0416 7.6957 45.0427 7.69237C45.0439 7.68905 45.044 7.68547 45.0432 7.68206C45.0424 7.67865 45.0406 7.67554 45.0381 7.67308C45.0356 7.67062 45.0325 7.66891 45.0291 7.66815C45.0256 7.66738 45.0221 7.66759 45.0188 7.66875ZM48 7.5C48 3.35625 37.2562 0 24 0C10.7438 0 0 3.35625 0 7.5C0 11.6438 10.7438 15 24 15C37.2562 15 48 11.6438 48 7.5ZM4.275 14.6719C2.50312 17.8781 1.5 21.5719 1.5 25.5C1.5 37.9219 11.5781 48 24 48C36.4219 48 46.5 37.9219 46.5 25.5C46.5 21.5719 45.4969 17.8781 43.725 14.6719C42.8344 15.0375 41.8781 15.3844 40.8656 15.7031C42.5437 18.5813 43.5 21.9281 43.5 25.5C43.5 36.2719 34.7719 45 24 45C13.2281 45 4.5 36.2719 4.5 25.5C4.5 21.9281 5.45625 18.5813 7.13437 15.7031C6.1125 15.3844 5.15625 15.0375 4.275 14.6719ZM14.6719 23.4844C15.2531 22.8188 15.8719 22.5 16.5 22.5C17.1281 22.5 17.7563 22.8188 18.3281 23.4844C18.9094 24.1594 19.3406 25.0594 19.5375 25.8656C19.7344 26.6719 20.55 27.1594 21.3563 26.9531C22.1625 26.7469 22.65 25.9406 22.4437 25.1344C22.1437 23.9438 21.525 22.5938 20.5781 21.5156C19.65 20.4281 18.2625 19.5 16.5 19.5C14.7375 19.5 13.35 20.4281 12.4031 21.5156C11.4656 22.5938 10.8375 23.9438 10.5375 25.1344C10.3406 25.9406 10.8281 26.7563 11.625 26.9531C12.4219 27.15 13.2469 26.6625 13.4437 25.8656C13.6406 25.0594 14.0719 24.1594 14.6531 23.4844H14.6719ZM13.275 31.8656C12.6469 32.4094 12.5812 33.3563 13.125 33.9844C15.2063 36.3938 18.8438 39 24.0094 39C29.175 39 32.8031 36.3844 34.8938 33.9844C35.4375 33.3563 35.3719 32.4094 34.7438 31.8656C34.1156 31.3219 33.1688 31.3875 32.625 32.0156C30.9375 33.9563 28.0688 36 24 36C19.9312 36 17.0625 33.9563 15.3844 32.0156C14.8406 31.3875 13.8937 31.3219 13.2656 31.8656H13.275ZM28.4625 25.8656C28.6594 25.0594 29.0906 24.1594 29.6719 23.4844C30.2531 22.8188 30.8719 22.5 31.5 22.5C32.1281 22.5 32.7563 22.8188 33.3281 23.4844C33.9094 24.1594 34.3406 25.0594 34.5375 25.8656C34.7344 26.6719 35.55 27.1594 36.3562 26.9531C37.1625 26.7469 37.65 25.9406 37.4437 25.1344C37.1437 23.9438 36.525 22.5938 35.5781 21.5156C34.65 20.4281 33.2625 19.5 31.5 19.5C29.7375 19.5 28.35 20.4281 27.4031 21.5156C26.4656 22.5938 25.8375 23.9438 25.5375 25.1344C25.3406 25.9406 25.8281 26.7563 26.625 26.9531C27.4219 27.15 28.2469 26.6625 28.4437 25.8656H28.4625Z" fill="#4F3422"/>
</g>
<defs>
<clipPath id="clip0_697_6161">
<rect width="48" height="48" fill="white"/>
</clipPath>
</defs>
</svg>
