<svg width="48" height="48" viewBox="0 0 48 48" fill="none" xmlns="http://www.w3.org/2000/svg">
<g clip-path="url(#clip0_697_6124)">
<path d="M45 24C45 18.4305 42.7875 13.089 38.8492 9.15076C34.911 5.21249 29.5695 3 24 3C18.4305 3 13.089 5.21249 9.15076 9.15076C5.21249 13.089 3 18.4305 3 24C3 29.5695 5.21249 34.911 9.15076 38.8492C13.089 42.7875 18.4305 45 24 45C29.5695 45 34.911 42.7875 38.8492 38.8492C42.7875 34.911 45 29.5695 45 24ZM0 24C0 17.6348 2.52856 11.5303 7.02944 7.02944C11.5303 2.52856 17.6348 0 24 0C30.3652 0 36.4697 2.52856 40.9706 7.02944C45.4714 11.5303 48 17.6348 48 24C48 30.3652 45.4714 36.4697 40.9706 40.9706C36.4697 45.4714 30.3652 48 24 48C17.6348 48 11.5303 45.4714 7.02944 40.9706C2.52856 36.4697 0 30.3652 0 24ZM23.6063 28.5H24.3938C29.1469 28.5 33 32.3531 33 37.1062C33 38.1562 32.1562 39 31.1062 39H16.8937C15.8437 39 15 38.1562 15 37.1062C15 32.3531 18.8531 28.5 23.6063 28.5ZM24.3938 31.5H23.6063C20.8875 31.5 18.6187 33.4313 18.1125 36H29.8875C29.3719 33.4313 27.1125 31.5 24.3938 31.5ZM14.2875 21C14.2875 20.4033 14.5246 19.831 14.9465 19.409C15.3685 18.9871 15.9408 18.75 16.5375 18.75C17.1342 18.75 17.7065 18.9871 18.1285 19.409C18.5504 19.831 18.7875 20.4033 18.7875 21C18.7875 21.5967 18.5504 22.169 18.1285 22.591C17.7065 23.0129 17.1342 23.25 16.5375 23.25C15.9408 23.25 15.3685 23.0129 14.9465 22.591C14.5246 22.169 14.2875 21.5967 14.2875 21ZM31.5375 18.75C32.1342 18.75 32.7065 18.9871 33.1285 19.409C33.5504 19.831 33.7875 20.4033 33.7875 21C33.7875 21.5967 33.5504 22.169 33.1285 22.591C32.7065 23.0129 32.1342 23.25 31.5375 23.25C30.9408 23.25 30.3685 23.0129 29.9465 22.591C29.5246 22.169 29.2875 21.5967 29.2875 21C29.2875 20.4033 29.5246 19.831 29.9465 19.409C30.3685 18.9871 30.9408 18.75 31.5375 18.75ZM18 12C17.5875 12 17.175 12.0281 16.7812 12.0844C14.7937 12.3469 12.975 13.2469 11.5219 14.5969C10.9125 15.1594 9.96563 15.1312 9.40313 14.5219C8.84063 13.9125 8.86875 12.9656 9.47812 12.4031C11.3625 10.65 13.7438 9.45 16.3875 9.10312C16.9125 9.0375 17.4562 9 18 9C18.825 9 19.5 9.675 19.5 10.5C19.5 11.325 18.825 12 18 12ZM31.2188 12.0844C30.8156 12.0281 30.4125 12 30 12C29.175 12 28.5 11.325 28.5 10.5C28.5 9.675 29.175 9 30 9C30.5438 9 31.0875 9.0375 31.6125 9.10312C34.2563 9.45 36.6469 10.6406 38.5219 12.4031C39.1312 12.9656 39.1594 13.9219 38.5969 14.5219C38.0344 15.1219 37.0781 15.1594 36.4781 14.5969C35.025 13.2375 33.2156 12.3469 31.2188 12.0844Z" fill="#4F3422"/>
</g>
<defs>
<clipPath id="clip0_697_6124">
<rect width="48" height="48" fill="white"/>
</clipPath>
</defs>
</svg>
