<svg width="48" height="48" viewBox="0 0 48 48" fill="none" xmlns="http://www.w3.org/2000/svg">
<g clip-path="url(#clip0_697_6158)">
<path d="M45 24C45 18.4305 42.7875 13.089 38.8492 9.15076C34.911 5.21249 29.5695 3 24 3C18.4305 3 13.089 5.21249 9.15076 9.15076C5.21249 13.089 3 18.4305 3 24C3 29.5695 5.21249 34.911 9.15076 38.8492C13.089 42.7875 18.4305 45 24 45C29.5695 45 34.911 42.7875 38.8492 38.8492C42.7875 34.911 45 29.5695 45 24ZM0 24C0 17.6348 2.52856 11.5303 7.02944 7.02944C11.5303 2.52856 17.6348 0 24 0C30.3652 0 36.4697 2.52856 40.9706 7.02944C45.4714 11.5303 48 17.6348 48 24C48 30.3652 45.4714 36.4697 40.9706 40.9706C36.4697 45.4714 30.3652 48 24 48C17.6348 48 11.5303 45.4714 7.02944 40.9706C2.52856 36.4697 0 30.3652 0 24ZM15.3844 30.5156C17.0625 32.4563 19.9312 34.5 24 34.5C28.0688 34.5 30.9375 32.4563 32.6156 30.5156C33.1594 29.8875 34.1063 29.8219 34.7344 30.3656C35.3625 30.9094 35.4281 31.8563 34.8844 32.4844C32.7938 34.8844 29.1656 37.5 24 37.5C18.8344 37.5 15.2062 34.8844 13.1156 32.4844C12.5719 31.8563 12.6375 30.9094 13.2656 30.3656C13.8937 29.8219 14.8406 29.8875 15.3844 30.5156ZM14.6719 18.2344C14.0906 18.9094 13.6594 19.8094 13.4625 20.6156C13.2656 21.4219 12.45 21.9094 11.6437 21.7031C10.8375 21.4969 10.35 20.6906 10.5562 19.8844C10.8562 18.6938 11.475 17.3438 12.4219 16.2656C13.35 15.1781 14.7375 14.25 16.5 14.25C18.2625 14.25 19.65 15.1781 20.5969 16.2656C21.5344 17.3438 22.1625 18.6938 22.4625 19.8844C22.6594 20.6906 22.1719 21.5063 21.375 21.7031C20.5781 21.9 19.7531 21.4125 19.5563 20.6156C19.3594 19.8094 18.9281 18.9094 18.3469 18.2344C17.7656 17.5688 17.1469 17.25 16.5187 17.25C15.8906 17.25 15.2625 17.5688 14.6906 18.2344H14.6719ZM28.4625 20.6156C28.2656 21.4219 27.45 21.9094 26.6438 21.7031C25.8375 21.4969 25.35 20.6906 25.5563 19.8844C25.8563 18.6938 26.475 17.3438 27.4219 16.2656C28.35 15.1781 29.7375 14.25 31.5 14.25C33.2625 14.25 34.65 15.1781 35.5969 16.2656C36.5344 17.3438 37.1625 18.6938 37.4625 19.8844C37.6594 20.6906 37.1719 21.5063 36.375 21.7031C35.5781 21.9 34.7531 21.4125 34.5563 20.6156C34.3594 19.8094 33.9281 18.9094 33.3469 18.2344C32.7656 17.5688 32.1469 17.25 31.5188 17.25C30.8906 17.25 30.2625 17.5688 29.6906 18.2344C29.1094 18.9094 28.6781 19.8094 28.4812 20.6156H28.4625Z" fill="#4F3422"/>
</g>
<defs>
<clipPath id="clip0_697_6158">
<rect width="48" height="48" fill="white"/>
</clipPath>
</defs>
</svg>
