<svg width="60" height="48" viewBox="0 0 60 48" fill="none" xmlns="http://www.w3.org/2000/svg">
<g clip-path="url(#clip0_697_6146)">
<path d="M51 24C51 26.0156 50.7187 27.9656 50.1844 29.8125C49.575 31.9406 49.9875 34.1625 51.075 35.8688C51.1312 35.9531 51.1875 36.0469 51.2531 36.1312C48.5344 36.7031 46.5 39.1125 46.5 42C46.5 43.0969 46.7906 44.1188 47.3063 45H30H9.49688C10.1813 44.1188 10.7063 43.1625 11.0625 42.2906C12.1406 39.6938 12.5813 36.1406 11.1844 33.3469C9.77813 30.5344 8.99063 27.3656 8.99063 23.9906C9 12.4031 18.4031 3 30 3C41.5969 3 51 12.4031 51 24ZM1.5 48H3.88125H30H52.5C53.325 48 54 47.325 54 46.5C54 45.675 53.325 45 52.5 45C50.8406 45 49.5 43.6594 49.5 42C49.5 40.3406 50.8406 39 52.5 39H56.6344H58.5C59.325 39 60 38.325 60 37.5C60 36.675 59.325 36 58.5 36H56.6344C54.0375 36 52.3594 33.1312 53.0719 30.6375C53.6812 28.5281 54 26.3063 54 24C54 10.7438 43.2562 0 30 0C16.7438 0 6 10.7438 6 24C6 27.8438 6.9 31.4719 8.50312 34.6875C10.2281 38.1562 7.75313 45 3.88125 45H1.5C0.675 45 0 45.675 0 46.5C0 47.325 0.675 48 1.5 48ZM23.3719 19.8937C23.6575 19.9701 23.9554 19.9894 24.2485 19.9506C24.5416 19.9118 24.8241 19.8157 25.0801 19.6677C25.336 19.5197 25.5603 19.3228 25.7401 19.0881C25.92 18.8534 26.0518 18.5856 26.1281 18.3C26.2045 18.0144 26.2238 17.7165 26.185 17.4234C26.1462 17.1303 26.0501 16.8477 25.9021 16.5918C25.7541 16.3359 25.5571 16.1116 25.3225 15.9317C25.0878 15.7519 24.82 15.6201 24.5344 15.5438C23.9575 15.3896 23.3431 15.4709 22.8262 15.7698C22.3093 16.0687 21.9323 16.5607 21.7781 17.1375C21.624 17.7143 21.7053 18.3288 22.0042 18.8457C22.303 19.3626 22.795 19.7396 23.3719 19.8937ZM40.6125 22.1813C40.6888 21.8956 40.7082 21.5978 40.6694 21.3047C40.6306 21.0116 40.5345 20.729 40.3865 20.473C40.2385 20.2171 40.0415 19.9928 39.8068 19.813C39.5722 19.6332 39.3044 19.5013 39.0188 19.425C38.7331 19.3487 38.4353 19.3293 38.1422 19.3681C37.8491 19.4069 37.5665 19.503 37.3105 19.651C37.0546 19.799 36.8303 19.996 36.6505 20.2307C36.4707 20.4653 36.3388 20.7331 36.2625 21.0187C36.1862 21.3044 36.1668 21.6022 36.2056 21.8953C36.2444 22.1884 36.3405 22.471 36.4885 22.727C36.6365 22.9829 36.8335 23.2072 37.0682 23.387C37.3028 23.5668 37.5706 23.6987 37.8562 23.775C38.1419 23.8513 38.4397 23.8707 38.7328 23.8319C39.0259 23.7931 39.3085 23.697 39.5645 23.549C39.8204 23.401 40.0447 23.204 40.2245 22.9693C40.4043 22.7347 40.5362 22.4669 40.6125 22.1813ZM19.9875 26.5594C19.6219 25.8187 18.7313 25.5 17.9813 25.8656C17.2313 26.2312 16.9219 27.1219 17.2875 27.8719C18.675 30.7312 21.5156 34.2 26.5031 35.5312C31.4906 36.8625 35.6813 35.2875 38.3156 33.4969C39 33.0281 39.1781 32.1 38.7188 31.4156C38.2594 30.7313 37.3219 30.5531 36.6375 31.0125C34.5094 32.4562 31.2094 33.6844 27.2812 32.625C23.3531 31.5656 21.1125 28.8563 19.9875 26.55V26.5594Z" fill="#4F3422"/>
</g>
<defs>
<clipPath id="clip0_697_6146">
<rect width="60" height="48" fill="white"/>
</clipPath>
</defs>
</svg>
