<svg width="48" height="48" viewBox="0 0 48 48" fill="none" xmlns="http://www.w3.org/2000/svg">
<g clip-path="url(#clip0_697_6133)">
<path d="M24 3C29.5695 3 34.911 5.21249 38.8492 9.15076C42.7875 13.089 45 18.4305 45 24C45 29.5695 42.7875 34.911 38.8492 38.8492C34.911 42.7875 29.5695 45 24 45C18.4305 45 13.089 42.7875 9.15076 38.8492C5.21249 34.911 3 29.5695 3 24C3 18.4305 5.21249 13.089 9.15076 9.15076C13.089 5.21249 18.4305 3 24 3ZM24 48C30.3652 48 36.4697 45.4714 40.9706 40.9706C45.4714 36.4697 48 30.3652 48 24C48 17.6348 45.4714 11.5303 40.9706 7.02944C36.4697 2.52856 30.3652 0 24 0C17.6348 0 11.5303 2.52856 7.02944 7.02944C2.52856 11.5303 0 17.6348 0 24C0 30.3652 2.52856 36.4697 7.02944 40.9706C11.5303 45.4714 17.6348 48 24 48ZM31.9969 38.3719C32.4187 38.0437 32.7844 37.5656 32.9344 36.9563C33.0844 36.3281 32.9813 35.6906 32.6813 35.1281C31.05 32.0625 27.7594 30 24 30C20.2406 30 16.9594 32.0625 15.3281 35.1281C15.0281 35.6906 14.925 36.3281 15.075 36.9563C15.225 37.5656 15.5813 38.0437 16.0125 38.3719C16.8375 39.0094 18 39.1875 19.05 38.7937C20.5687 38.2219 22.2375 37.9125 24.0094 37.9125C25.7813 37.9125 27.45 38.2312 28.9688 38.7937C30.0187 39.1875 31.1812 39.0187 32.0062 38.3719H31.9969ZM29.5875 35.8313C27.8531 35.2313 25.9688 34.9031 24 34.9031C22.0406 34.9031 20.1562 35.2313 18.4125 35.8219C19.6312 34.125 21.6656 33 24 33C26.3344 33 28.3781 34.1344 29.5875 35.8313ZM16.5375 24.75C17.7844 24.75 18.7875 23.7469 18.7875 22.5C18.7875 22.2563 18.75 22.0219 18.675 21.8063L20.5219 22.425C21.3094 22.6875 22.1531 22.2656 22.4156 21.4781C22.6781 20.6906 22.2562 19.8469 21.4688 19.5844L12.4688 16.5844C11.6813 16.3219 10.8375 16.7438 10.575 17.5312C10.3125 18.3187 10.7344 19.1625 11.5219 19.425L15.2344 20.6625C14.6531 21.0656 14.2781 21.7406 14.2781 22.5C14.2781 23.7469 15.2813 24.75 16.5281 24.75H16.5375ZM33.7875 22.5C33.7875 21.7313 33.4031 21.0469 32.8125 20.6437L36.4781 19.425C37.2656 19.1625 37.6875 18.3094 37.425 17.5312C37.1625 16.7531 36.3094 16.3219 35.5312 16.5844L26.5312 19.5844C25.7438 19.8469 25.3219 20.7 25.5844 21.4781C25.8469 22.2563 26.7 22.6875 27.4781 22.425L29.4094 21.7781C29.3344 22.0031 29.2875 22.2469 29.2875 22.5C29.2875 23.7469 30.2906 24.75 31.5375 24.75C32.7844 24.75 33.7875 23.7469 33.7875 22.5Z" fill="#4F3422"/>
</g>
<defs>
<clipPath id="clip0_697_6133">
<rect width="48" height="48" fill="white"/>
</clipPath>
</defs>
</svg>
