<svg width="48" height="48" viewBox="0 0 48 48" fill="none" xmlns="http://www.w3.org/2000/svg">
<g clip-path="url(#clip0_697_6115)">
<path d="M45 24C45 18.4305 42.7875 13.089 38.8492 9.15076C34.911 5.21249 29.5695 3 24 3C18.4305 3 13.089 5.21249 9.15076 9.15076C5.21249 13.089 3 18.4305 3 24C3 29.5695 5.21249 34.911 9.15076 38.8492C13.089 42.7875 18.4305 45 24 45C29.5695 45 34.911 42.7875 38.8492 38.8492C42.7875 34.911 45 29.5695 45 24ZM0 24C0 17.6348 2.52856 11.5303 7.02944 7.02944C11.5303 2.52856 17.6348 0 24 0C30.3652 0 36.4697 2.52856 40.9706 7.02944C45.4714 11.5303 48 17.6348 48 24C48 30.3652 45.4714 36.4697 40.9706 40.9706C36.4697 45.4714 30.3652 48 24 48C17.6348 48 11.5303 45.4714 7.02944 40.9706C2.52856 36.4697 0 30.3652 0 24ZM24 33.1969C21.075 33.1969 18.2438 32.925 15.5719 32.4187C17.6906 34.6312 20.6812 36.0094 24 36.0094C27.3188 36.0094 30.3094 34.6312 32.4281 32.4187C29.7562 32.925 26.925 33.1969 24 33.1969ZM37.3875 30.3187C35.1281 35.4375 29.9812 39.0094 24 39.0094C18.0188 39.0094 12.8719 35.4375 10.6125 30.3187C10.125 29.2219 11.25 28.2188 12.4031 28.5656C15.9 29.6063 19.8375 30.1969 24.0094 30.1969C28.1813 30.1969 32.1094 29.6063 35.6156 28.5656C36.7687 28.2188 37.8844 29.2219 37.4062 30.3187H37.3875ZM14.2875 19.5C14.2875 18.9033 14.5246 18.331 14.9465 17.909C15.3685 17.4871 15.9408 17.25 16.5375 17.25C17.1342 17.25 17.7065 17.4871 18.1285 17.909C18.5504 18.331 18.7875 18.9033 18.7875 19.5C18.7875 20.0967 18.5504 20.669 18.1285 21.091C17.7065 21.5129 17.1342 21.75 16.5375 21.75C15.9408 21.75 15.3685 21.5129 14.9465 21.091C14.5246 20.669 14.2875 20.0967 14.2875 19.5ZM28.2 21.9C27.7031 22.5656 26.7656 22.6969 26.1 22.2C25.4344 21.7031 25.3031 20.7656 25.8 20.1C28.65 16.3031 34.35 16.3031 37.2 20.1C37.6969 20.7656 37.5656 21.7031 36.9 22.2C36.2344 22.6969 35.2969 22.5656 34.8 21.9C33.15 19.6969 29.85 19.6969 28.2 21.9Z" fill="#4F3422"/>
</g>
<defs>
<clipPath id="clip0_697_6115">
<rect width="48" height="48" fill="white"/>
</clipPath>
</defs>
</svg>
