<svg width="48" height="48" viewBox="0 0 48 48" fill="none" xmlns="http://www.w3.org/2000/svg">
<g clip-path="url(#clip0_697_6143)">
<path d="M45 24C45 18.4305 42.7875 13.089 38.8492 9.15076C34.911 5.21249 29.5695 3 24 3C18.4305 3 13.089 5.21249 9.15076 9.15076C5.21249 13.089 3 18.4305 3 24C3 29.5695 5.21249 34.911 9.15076 38.8492C13.089 42.7875 18.4305 45 24 45C29.5695 45 34.911 42.7875 38.8492 38.8492C42.7875 34.911 45 29.5695 45 24ZM0 24C0 17.6348 2.52856 11.5303 7.02944 7.02944C11.5303 2.52856 17.6348 0 24 0C30.3652 0 36.4697 2.52856 40.9706 7.02944C45.4714 11.5303 48 17.6348 48 24C48 30.3652 45.4714 36.4697 40.9706 40.9706C36.4697 45.4714 30.3652 48 24 48C17.6348 48 11.5303 45.4714 7.02944 40.9706C2.52856 36.4697 0 30.3652 0 24ZM32.6156 36.9844C30.9375 35.0437 28.0688 33 24 33C19.9312 33 17.0625 35.0437 15.3844 36.9844C14.8406 37.6125 13.8937 37.6781 13.2656 37.1344C12.6375 36.5906 12.5719 35.6437 13.1156 35.0156C15.1969 32.6062 18.8344 30 24 30C29.1656 30 32.7938 32.6156 34.8844 35.0156C35.4281 35.6437 35.3625 36.5906 34.7344 37.1344C34.1063 37.6781 33.1594 37.6125 32.6156 36.9844ZM14.2875 19.5C14.2875 18.9033 14.5246 18.331 14.9465 17.909C15.3685 17.4871 15.9408 17.25 16.5375 17.25C17.1342 17.25 17.7065 17.4871 18.1285 17.909C18.5504 18.331 18.7875 18.9033 18.7875 19.5C18.7875 20.0967 18.5504 20.669 18.1285 21.091C17.7065 21.5129 17.1342 21.75 16.5375 21.75C15.9408 21.75 15.3685 21.5129 14.9465 21.091C14.5246 20.669 14.2875 20.0967 14.2875 19.5ZM31.5375 17.25C32.1342 17.25 32.7065 17.4871 33.1285 17.909C33.5504 18.331 33.7875 18.9033 33.7875 19.5C33.7875 20.0967 33.5504 20.669 33.1285 21.091C32.7065 21.5129 32.1342 21.75 31.5375 21.75C30.9408 21.75 30.3685 21.5129 29.9465 21.091C29.5246 20.669 29.2875 20.0967 29.2875 19.5C29.2875 18.9033 29.5246 18.331 29.9465 17.909C30.3685 17.4871 30.9408 17.25 31.5375 17.25Z" fill="#4F3422"/>
</g>
<defs>
<clipPath id="clip0_697_6143">
<rect width="48" height="48" fill="white"/>
</clipPath>
</defs>
</svg>
