<svg width="48" height="48" viewBox="0 0 48 48" fill="none" xmlns="http://www.w3.org/2000/svg">
<g clip-path="url(#clip0_697_6127)">
<path d="M24 3C29.5695 3 34.911 5.21249 38.8492 9.15076C42.7875 13.089 45 18.4305 45 24C45 29.5695 42.7875 34.911 38.8492 38.8492C34.911 42.7875 29.5695 45 24 45C18.4305 45 13.089 42.7875 9.15076 38.8492C5.21249 34.911 3 29.5695 3 24C3 18.4305 5.21249 13.089 9.15076 9.15076C13.089 5.21249 18.4305 3 24 3ZM24 48C30.3652 48 36.4697 45.4714 40.9706 40.9706C45.4714 36.4697 48 30.3652 48 24C48 17.6348 45.4714 11.5303 40.9706 7.02944C36.4697 2.52856 30.3652 0 24 0C17.6348 0 11.5303 2.52856 7.02944 7.02944C2.52856 11.5303 0 17.6348 0 24C0 30.3652 2.52856 36.4697 7.02944 40.9706C11.5303 45.4714 17.6348 48 24 48ZM18.7875 22.5C18.7875 21.9033 18.5504 21.331 18.1285 20.909C17.7065 20.4871 17.1342 20.25 16.5375 20.25C15.9408 20.25 15.3685 20.4871 14.9465 20.909C14.5246 21.331 14.2875 21.9033 14.2875 22.5C14.2875 23.0967 14.5246 23.669 14.9465 24.091C15.3685 24.5129 15.9408 24.75 16.5375 24.75C17.1342 24.75 17.7065 24.5129 18.1285 24.091C18.5504 23.669 18.7875 23.0967 18.7875 22.5ZM31.5375 24.75C32.1342 24.75 32.7065 24.5129 33.1285 24.091C33.5504 23.669 33.7875 23.0967 33.7875 22.5C33.7875 21.9033 33.5504 21.331 33.1285 20.909C32.7065 20.4871 32.1342 20.25 31.5375 20.25C30.9408 20.25 30.3685 20.4871 29.9465 20.909C29.5246 21.331 29.2875 21.9033 29.2875 22.5C29.2875 23.0967 29.5246 23.669 29.9465 24.091C30.3685 24.5129 30.9408 24.75 31.5375 24.75ZM34.2937 13.6406L34.7531 14.3344C35.2125 15.0281 36.1406 15.2063 36.8344 14.7469C37.5281 14.2875 37.7062 13.3594 37.2469 12.6656L36.7875 11.9719C34.95 9.21562 31.05 8.83125 28.7063 11.175L25.9406 13.9406C25.3594 14.5219 25.3594 15.4781 25.9406 16.0594C26.5219 16.6406 27.4781 16.6406 28.0594 16.0594L30.825 13.2938C31.8281 12.2906 33.4969 12.4594 34.2844 13.6406H34.2937ZM10.5 15C10.5 15.825 11.175 16.5 12 16.5H18C18.825 16.5 19.5 15.825 19.5 15C19.5 14.175 18.825 13.5 18 13.5H12C11.175 13.5 10.5 14.175 10.5 15ZM16.5 31.5C15.675 31.5 15 32.175 15 33C15 33.825 15.675 34.5 16.5 34.5H31.5C32.325 34.5 33 33.825 33 33C33 32.175 32.325 31.5 31.5 31.5H16.5Z" fill="#4F3422"/>
</g>
<defs>
<clipPath id="clip0_697_6127">
<rect width="48" height="48" fill="white"/>
</clipPath>
</defs>
</svg>
