<svg width="54" height="48" viewBox="0 0 54 48" fill="none" xmlns="http://www.w3.org/2000/svg">
<g clip-path="url(#clip0_697_6118)">
<path d="M24 3C12.4031 3 3 12.4031 3 24C3 35.5969 12.4031 45 24 45C27.825 45 31.3969 43.9781 34.4812 42.1969C35.2031 41.7844 36.1125 42.0281 36.5344 42.75C36.9563 43.4719 36.7031 44.3812 35.9812 44.8031C32.4562 46.8375 28.3594 48 24 48C10.7438 48 0 37.2562 0 24C0 10.7438 10.7438 0 24 0C36.7219 0 47.1281 9.89062 47.9437 22.3969C48 23.2219 47.3719 23.9344 46.5469 23.9906C45.7219 24.0469 45.0094 23.4188 44.9531 22.5938C44.2313 11.6531 35.1281 3 24 3ZM24.0094 38.2594C24.6061 38.2594 25.1784 38.0223 25.6004 37.6004C26.0223 37.1784 26.2594 36.6061 26.2594 36.0094C26.2594 35.4126 26.0223 34.8403 25.6004 34.4184C25.1784 33.9964 24.6061 33.7594 24.0094 33.7594C23.4126 33.7594 22.8403 33.9964 22.4184 34.4184C21.9964 34.8403 21.7594 35.4126 21.7594 36.0094C21.7594 36.6061 21.9964 37.1784 22.4184 37.6004C22.8403 38.0223 23.4126 38.2594 24.0094 38.2594ZM24.0094 30.7594C25.4018 30.7594 26.7371 31.3125 27.7217 32.2971C28.7063 33.2816 29.2594 34.617 29.2594 36.0094C29.2594 37.4018 28.7063 38.7371 27.7217 39.7217C26.7371 40.7063 25.4018 41.2594 24.0094 41.2594C22.617 41.2594 21.2816 40.7063 20.2971 39.7217C19.3125 38.7371 18.7594 37.4018 18.7594 36.0094C18.7594 34.617 19.3125 33.2816 20.2971 32.2971C21.2816 31.3125 22.617 30.7594 24.0094 30.7594ZM29.7094 22.3594C31.3594 24.5625 34.6594 24.5625 36.3094 22.3594C36.8062 21.6938 37.7438 21.5625 38.4094 22.0594C39.075 22.5563 39.2062 23.4938 38.7094 24.1594C35.8594 27.9563 30.1594 27.9563 27.3094 24.1594C26.8125 23.4938 26.9438 22.5563 27.6094 22.0594C28.275 21.5625 29.2125 21.6938 29.7094 22.3594ZM18.3094 22.3594C18.8063 21.6938 19.7437 21.5625 20.4094 22.0594C21.075 22.5563 21.2062 23.4938 20.7094 24.1594C17.8594 27.9563 12.1594 27.9563 9.30938 24.1594C8.8125 23.4938 8.94375 22.5563 9.60938 22.0594C10.275 21.5625 11.2125 21.6938 11.7094 22.3594C13.3594 24.5625 16.6594 24.5625 18.3094 22.3594ZM46.3969 27.0094C48.8437 27.0094 50.8406 28.8094 51.2063 31.1438C52.8844 32.1094 54.0094 33.9281 54.0094 36.0094C54.0094 38.0906 52.8844 39.9094 51.2063 40.8656C50.8406 43.2 48.8344 45.0094 46.3969 45.0094C45.0656 45.0094 43.8656 44.475 42.9844 43.6031C42.7781 43.6313 42.5719 43.6406 42.3656 43.6406C39.8062 43.6406 37.7344 41.6625 37.5188 39.1687L31.8281 37.4437C31.2 37.2562 30.7594 36.6656 30.7594 36.0094C30.7594 35.3531 31.1906 34.7625 31.8281 34.575L37.6406 32.8125C38.1562 30.6656 40.0687 29.0531 42.375 29.0531H42.4406C43.3219 27.8156 44.7562 27.0094 46.3969 27.0094ZM44.6531 31.2188C44.3719 31.9406 43.6031 32.325 42.8531 32.1188C42.7031 32.0719 42.5344 32.0531 42.3656 32.0531C41.3531 32.0531 40.5 32.8875 40.5 33.9656C40.5 34.6219 40.0688 35.2125 39.4313 35.4L37.425 36.0094L39.4969 36.6375C40.2281 36.8625 40.6781 37.6031 40.5375 38.3625C40.5187 38.4844 40.5 38.6063 40.5 38.7375C40.5 39.8063 41.3531 40.65 42.3656 40.65C42.6 40.65 42.8156 40.6125 43.0125 40.5281C43.6781 40.275 44.4281 40.5281 44.8125 41.1281C45.15 41.6625 45.7312 42.0094 46.3875 42.0094C47.4 42.0094 48.2531 41.175 48.2531 40.0969C48.2531 40.0594 48.2531 40.0125 48.2531 39.975C48.2156 39.3 48.6281 38.6812 49.2656 38.4656C50.2687 38.1281 51 37.1531 51 36.0094C51 34.8656 50.2687 33.8906 49.2656 33.5531C48.6281 33.3375 48.2156 32.7187 48.2531 32.0437C48.2531 32.0062 48.2531 31.9594 48.2531 31.9219C48.2531 30.8531 47.4 30.0094 46.3875 30.0094C45.6094 30.0094 44.925 30.4969 44.6438 31.2188H44.6531Z" fill="#4F3422"/>
</g>
<defs>
<clipPath id="clip0_697_6118">
<rect width="54" height="48" fill="white"/>
</clipPath>
</defs>
</svg>
