<svg width="60" height="48" viewBox="0 0 60 48" fill="none" xmlns="http://www.w3.org/2000/svg">
<g clip-path="url(#clip0_697_5971)">
<path d="M23.653 5.34365C22.1905 3.88115 19.8187 3.88115 18.3468 5.34365L5.34365 18.3468C3.88115 19.8093 3.88115 22.1812 5.34365 23.653L18.3468 36.6562C19.8093 38.1187 22.1812 38.1187 23.653 36.6562L36.6562 23.653C38.1187 22.1905 38.1187 19.8187 36.6562 18.3468L23.653 5.34365ZM16.228 3.21553C18.8624 0.581152 23.1374 0.581152 25.7718 3.21553L38.7843 16.228C41.4187 18.8624 41.4187 23.1374 38.7843 25.7718L25.7718 38.7843C23.1374 41.4187 18.8624 41.4187 16.228 38.7843L3.21553 25.7718C0.581152 23.1374 0.581152 18.8624 3.21553 16.228L16.228 3.21553ZM29.9999 41.9999V38.7937L32.9999 35.7937V41.9999C32.9999 43.6593 34.3405 44.9999 35.9999 44.9999H53.9999C55.6593 44.9999 56.9999 43.6593 56.9999 41.9999V23.9999C56.9999 22.3405 55.6593 20.9999 53.9999 20.9999H43.753C43.753 19.9874 43.5937 18.9749 43.2843 17.9999H53.9999C57.3093 17.9999 59.9999 20.6905 59.9999 23.9999V41.9999C59.9999 45.3093 57.3093 47.9999 53.9999 47.9999H35.9999C32.6905 47.9999 29.9999 45.3093 29.9999 41.9999ZM44.9999 30.7499C45.5966 30.7499 46.1689 30.987 46.5909 31.4089C47.0128 31.8309 47.2499 32.4032 47.2499 32.9999C47.2499 33.5966 47.0128 34.1689 46.5909 34.5909C46.1689 35.0128 45.5966 35.2499 44.9999 35.2499C44.4032 35.2499 43.8309 35.0128 43.4089 34.5909C42.987 34.1689 42.7499 33.5966 42.7499 32.9999C42.7499 32.4032 42.987 31.8309 43.4089 31.4089C43.8309 30.987 44.4032 30.7499 44.9999 30.7499ZM20.9999 13.4999C20.4032 13.4999 19.8309 13.2628 19.4089 12.8409C18.987 12.4189 18.7499 11.8466 18.7499 11.2499C18.7499 10.6532 18.987 10.0809 19.4089 9.65891C19.8309 9.23696 20.4032 8.9999 20.9999 8.9999C21.5966 8.9999 22.1689 9.23696 22.5909 9.65891C23.0128 10.0809 23.2499 10.6532 23.2499 11.2499C23.2499 11.8466 23.0128 12.4189 22.5909 12.8409C22.1689 13.2628 21.5966 13.4999 20.9999 13.4999ZM11.2499 18.7499C11.8466 18.7499 12.4189 18.987 12.8409 19.4089C13.2628 19.8309 13.4999 20.4032 13.4999 20.9999C13.4999 21.5966 13.2628 22.1689 12.8409 22.5909C12.4189 23.0128 11.8466 23.2499 11.2499 23.2499C10.6532 23.2499 10.0809 23.0128 9.65891 22.5909C9.23696 22.1689 8.9999 21.5966 8.9999 20.9999C8.9999 20.4032 9.23696 19.8309 9.65891 19.4089C10.0809 18.987 10.6532 18.7499 11.2499 18.7499ZM20.9999 18.7499C21.5966 18.7499 22.1689 18.987 22.5909 19.4089C23.0128 19.8309 23.2499 20.4032 23.2499 20.9999C23.2499 21.5966 23.0128 22.1689 22.5909 22.5909C22.1689 23.0128 21.5966 23.2499 20.9999 23.2499C20.4032 23.2499 19.8309 23.0128 19.4089 22.5909C18.987 22.1689 18.7499 21.5966 18.7499 20.9999C18.7499 20.4032 18.987 19.8309 19.4089 19.4089C19.8309 18.987 20.4032 18.7499 20.9999 18.7499ZM20.9999 32.9999C20.4032 32.9999 19.8309 32.7628 19.4089 32.3409C18.987 31.9189 18.7499 31.3466 18.7499 30.7499C18.7499 30.1532 18.987 29.5809 19.4089 29.1589C19.8309 28.737 20.4032 28.4999 20.9999 28.4999C21.5966 28.4999 22.1689 28.737 22.5909 29.1589C23.0128 29.5809 23.2499 30.1532 23.2499 30.7499C23.2499 31.3466 23.0128 31.9189 22.5909 32.3409C22.1689 32.7628 21.5966 32.9999 20.9999 32.9999ZM30.7499 18.7499C31.3466 18.7499 31.9189 18.987 32.3409 19.4089C32.7628 19.8309 32.9999 20.4032 32.9999 20.9999C32.9999 21.5966 32.7628 22.1689 32.3409 22.5909C31.9189 23.0128 31.3466 23.2499 30.7499 23.2499C30.1532 23.2499 29.5809 23.0128 29.1589 22.5909C28.737 22.1689 28.4999 21.5966 28.4999 20.9999C28.4999 20.4032 28.737 19.8309 29.1589 19.4089C29.5809 18.987 30.1532 18.7499 30.7499 18.7499Z" fill="#4F3422"/>
</g>
<defs>
<clipPath id="clip0_697_5971">
<rect width="60" height="48" fill="white"/>
</clipPath>
</defs>
</svg>
