<svg width="60" height="48" viewBox="0 0 60 48" fill="none" xmlns="http://www.w3.org/2000/svg">
<g clip-path="url(#clip0_697_5974)">
<path d="M9.19671 17.4562C6.86233 21.8905 8.97171 27.3749 13.6873 29.0905C18.403 30.8062 23.5405 27.9655 24.6092 23.0624L25.6311 18.3655L11.4373 13.1999L9.19671 17.4562ZM26.2686 15.403L28.0686 7.09678L16.8092 2.9999L12.8436 10.5187L26.2686 15.403ZM6.54358 16.0593L14.1467 1.60303C14.8498 0.271779 16.4155 -0.328221 17.8311 0.178029L29.0998 4.28428C29.4373 4.40615 29.7373 4.58428 29.9998 4.80928C30.2623 4.58428 30.5623 4.40615 30.8998 4.28428L42.1686 0.178029C43.5748 -0.337596 45.1498 0.271779 45.853 1.60303L53.4655 16.0593C56.4092 21.6562 54.1592 28.4624 48.7217 31.303L52.6592 42.1218L57.9936 40.1812C58.7717 39.8999 59.6342 40.303 59.9155 41.0812C60.1967 41.8593 59.7936 42.7218 59.0155 43.003L52.2748 45.4593L45.5248 47.9062C44.7467 48.1874 43.8842 47.7843 43.603 47.0062C43.3217 46.228 43.7248 45.3655 44.503 45.0843L49.8373 43.1437L45.8998 32.3249C39.9092 33.6468 33.8061 29.878 32.4655 23.6999L29.9998 12.3562L27.5436 23.6999C26.203 29.878 20.0998 33.6562 14.1092 32.3249L10.1717 43.1437L15.5061 45.0937C16.2842 45.3749 16.6873 46.2374 16.4061 47.0155C16.1248 47.7937 15.2623 48.1968 14.4842 47.9155L7.73421 45.4593L0.984206 43.003C0.206081 42.7218 -0.197044 41.8593 0.0842061 41.0812C0.365456 40.303 1.22796 39.8999 2.00608 40.1812L7.34046 42.1218L11.278 31.303C5.84046 28.4624 3.59046 21.6562 6.53421 16.0593H6.54358ZM50.803 17.4562L48.5623 13.1999L34.3686 18.3655L35.3905 23.0624C36.4498 27.9655 41.5967 30.7968 46.3123 29.0905C51.028 27.3843 53.1373 21.8999 50.803 17.4562ZM33.7311 15.403L47.1561 10.5187L43.1905 2.9999L31.9311 7.09678L33.7311 15.403Z" fill="#4F3422"/>
</g>
<defs>
<clipPath id="clip0_697_5974">
<rect width="60" height="48" fill="white"/>
</clipPath>
</defs>
</svg>
