<svg width="60" height="48" viewBox="0 0 60 48" fill="none" xmlns="http://www.w3.org/2000/svg">
<g clip-path="url(#clip0_697_5977)">
<path d="M30.7969 0.23457L59.2969 18.2346C60.0001 18.6752 60.2063 19.6033 59.7657 20.3064C59.3251 21.0096 58.3969 21.2158 57.6938 20.7752L30.0001 3.27207L2.29694 20.7658C1.59381 21.2064 0.665687 21.0002 0.225062 20.2971C-0.215563 19.5939 -0.00931337 18.6658 0.693812 18.2252L29.1938 0.225195C29.6813 -0.0841797 30.3094 -0.0841797 30.7969 0.225195V0.23457ZM31.5001 18.0002C31.5001 17.6024 31.342 17.2208 31.0607 16.9395C30.7794 16.6582 30.3979 16.5002 30.0001 16.5002C29.6022 16.5002 29.2207 16.6582 28.9394 16.9395C28.6581 17.2208 28.5001 17.6024 28.5001 18.0002C28.5001 18.398 28.6581 18.7796 28.9394 19.0609C29.2207 19.3422 29.6022 19.5002 30.0001 19.5002C30.3979 19.5002 30.7794 19.3422 31.0607 19.0609C31.342 18.7796 31.5001 18.398 31.5001 18.0002ZM25.5001 18.0002C25.5001 16.8067 25.9742 15.6621 26.8181 14.8182C27.662 13.9743 28.8066 13.5002 30.0001 13.5002C31.1935 13.5002 32.3381 13.9743 33.182 14.8182C34.026 15.6621 34.5001 16.8067 34.5001 18.0002C34.5001 19.1937 34.026 20.3383 33.182 21.1822C32.3381 22.0261 31.1935 22.5002 30.0001 22.5002C28.8066 22.5002 27.662 22.0261 26.8181 21.1822C25.9742 20.3383 25.5001 19.1937 25.5001 18.0002ZM27.7501 37.5002H32.2501V27.1408C31.8938 27.0471 31.5282 27.0002 31.1438 27.0002H28.8563C28.4813 27.0002 28.1063 27.0471 27.7501 27.1408V37.5002ZM39.2251 36.0377L35.2501 29.5783V37.5002C35.2501 39.1596 33.9094 40.5002 32.2501 40.5002H27.7501C26.0907 40.5002 24.7501 39.1596 24.7501 37.5002V29.5783L20.7751 36.0377C20.7563 36.0658 20.7469 36.0846 20.7282 36.1127C20.8313 36.2627 20.9344 36.4127 21.0376 36.5721L25.2844 43.4627C25.7157 44.1658 25.5001 45.0939 24.7969 45.5252C24.0938 45.9564 23.1657 45.7408 22.7344 45.0377L18.7501 38.5783V45.0002C18.7501 46.6596 17.4094 48.0002 15.7501 48.0002H11.2501C9.59069 48.0002 8.25006 46.6596 8.25006 45.0002V38.5783L4.27506 45.0377C3.84381 45.7408 2.91569 45.9658 2.21256 45.5252C1.50944 45.0846 1.28444 44.1658 1.72506 43.4627L5.97194 36.5721C7.33131 34.3502 9.75006 33.0002 12.3563 33.0002H14.6532C16.0219 33.0002 17.3438 33.3752 18.4782 34.0502L22.4626 27.5721C23.8313 25.3502 26.2501 24.0002 28.8563 24.0002H31.1532C33.7594 24.0002 36.1782 25.3502 37.5376 27.5721L41.5313 34.0502C42.6751 33.3752 43.9876 33.0002 45.3563 33.0002H47.6532C50.2594 33.0002 52.6782 34.3502 54.0376 36.5721L58.2844 43.4627C58.7157 44.1658 58.5001 45.0939 57.7969 45.5252C57.0938 45.9564 56.1657 45.7408 55.7344 45.0377L51.7501 38.5783V45.0002C51.7501 46.6596 50.4094 48.0002 48.7501 48.0002H44.2501C42.5907 48.0002 41.2501 46.6596 41.2501 45.0002V38.5783L37.2751 45.0377C36.8438 45.7408 35.9157 45.9658 35.2126 45.5252C34.5094 45.0846 34.2844 44.1658 34.7251 43.4627L38.9719 36.5721C39.0657 36.4127 39.1688 36.2627 39.2813 36.1127C39.2626 36.0846 39.2438 36.0658 39.2344 36.0377H39.2251ZM13.5001 28.5002C13.8979 28.5002 14.2794 28.3422 14.5607 28.0609C14.842 27.7796 15.0001 27.398 15.0001 27.0002C15.0001 26.6024 14.842 26.2208 14.5607 25.9395C14.2794 25.6582 13.8979 25.5002 13.5001 25.5002C13.1022 25.5002 12.7207 25.6582 12.4394 25.9395C12.1581 26.2208 12.0001 26.6024 12.0001 27.0002C12.0001 27.398 12.1581 27.7796 12.4394 28.0609C12.7207 28.3422 13.1022 28.5002 13.5001 28.5002ZM13.5001 22.5002C14.6935 22.5002 15.8381 22.9743 16.682 23.8182C17.526 24.6621 18.0001 25.8067 18.0001 27.0002C18.0001 28.1937 17.526 29.3383 16.682 30.1822C15.8381 31.0261 14.6935 31.5002 13.5001 31.5002C12.3066 31.5002 11.162 31.0261 10.3181 30.1822C9.47417 29.3383 9.00006 28.1937 9.00006 27.0002C9.00006 25.8067 9.47417 24.6621 10.3181 23.8182C11.162 22.9743 12.3066 22.5002 13.5001 22.5002ZM11.2501 36.1408V45.0002H15.7501V36.1408C15.3938 36.0471 15.0282 36.0002 14.6438 36.0002H12.3563C11.9813 36.0002 11.6063 36.0471 11.2501 36.1408ZM48.0001 27.0002C48.0001 26.6024 47.842 26.2208 47.5607 25.9395C47.2794 25.6582 46.8979 25.5002 46.5001 25.5002C46.1022 25.5002 45.7207 25.6582 45.4394 25.9395C45.1581 26.2208 45.0001 26.6024 45.0001 27.0002C45.0001 27.398 45.1581 27.7796 45.4394 28.0609C45.7207 28.3422 46.1022 28.5002 46.5001 28.5002C46.8979 28.5002 47.2794 28.3422 47.5607 28.0609C47.842 27.7796 48.0001 27.398 48.0001 27.0002ZM42.0001 27.0002C42.0001 25.8067 42.4742 24.6621 43.3181 23.8182C44.162 22.9743 45.3066 22.5002 46.5001 22.5002C47.6935 22.5002 48.8381 22.9743 49.682 23.8182C50.526 24.6621 51.0001 25.8067 51.0001 27.0002C51.0001 28.1937 50.526 29.3383 49.682 30.1822C48.8381 31.0261 47.6935 31.5002 46.5001 31.5002C45.3066 31.5002 44.162 31.0261 43.3181 30.1822C42.4742 29.3383 42.0001 28.1937 42.0001 27.0002ZM44.2501 45.0002H48.7501V36.1408C48.3938 36.0471 48.0282 36.0002 47.6438 36.0002H45.3563C44.9813 36.0002 44.6063 36.0471 44.2501 36.1408V45.0002Z" fill="#4F3422"/>
</g>
<defs>
<clipPath id="clip0_697_5977">
<rect width="60" height="48" fill="white"/>
</clipPath>
</defs>
</svg>
