<svg width="60" height="48" viewBox="0 0 60 48" fill="none" xmlns="http://www.w3.org/2000/svg">
<path d="M12 6C12.2955 6 12.5881 6.0582 12.861 6.17127C13.134 6.28434 13.3821 6.45008 13.591 6.65901C13.7999 6.86794 13.9657 7.11598 14.0787 7.38896C14.1918 7.66194 14.25 7.95453 14.25 8.25C14.25 8.54547 14.1918 8.83806 14.0787 9.11104C13.9657 9.38402 13.7999 9.63206 13.591 9.84099C13.3821 10.0499 13.134 10.2157 12.861 10.3287C12.5881 10.4418 12.2955 10.5 12 10.5C11.7045 10.5 11.4119 10.4418 11.139 10.3287C10.866 10.2157 10.6179 10.0499 10.409 9.84099C10.2001 9.63206 10.0343 9.38402 9.92127 9.11104C9.8082 8.83806 9.75 8.54547 9.75 8.25C9.75 7.95453 9.8082 7.66194 9.92127 7.38896C10.0343 7.11598 10.2001 6.86794 10.409 6.65901C10.6179 6.45008 10.866 6.28434 11.139 6.17127C11.4119 6.0582 11.7045 6 12 6ZM12 13.5C12.6894 13.5 13.3721 13.3642 14.0091 13.1004C14.646 12.8365 15.2248 12.4498 15.7123 11.9623C16.1998 11.4748 16.5865 10.896 16.8504 10.2591C17.1142 9.62213 17.25 8.93944 17.25 8.25C17.25 7.56056 17.1142 6.87787 16.8504 6.24091C16.5865 5.60395 16.1998 5.0252 15.7123 4.53769C15.2248 4.05018 14.646 3.66347 14.0091 3.39963C13.3721 3.1358 12.6894 3 12 3C11.3106 3 10.6279 3.1358 9.99091 3.39963C9.35395 3.66347 8.7752 4.05018 8.28769 4.53769C7.80018 5.0252 7.41347 5.60395 7.14963 6.24091C6.8858 6.87787 6.75 7.56056 6.75 8.25C6.75 8.93944 6.8858 9.62213 7.14963 10.2591C7.41347 10.896 7.80018 11.4748 8.28769 11.9623C8.7752 12.4498 9.35395 12.8365 9.99091 13.1004C10.6279 13.3642 11.3106 13.5 12 13.5ZM0 26.25C0 30.3094 2.475 33.7875 6 35.25V39.75C6 40.9969 7.00312 42 8.25 42H15.75C16.9969 42 18 40.9969 18 39.75V36C18 35.175 17.325 34.5 16.5 34.5C15.675 34.5 15 35.175 15 36V39H9V19.5375C9.24375 19.5094 9.49687 19.5 9.75 19.5H14.25C15.1219 19.5 15.9469 19.6594 16.7062 19.9594C17.475 20.2594 18.3469 19.875 18.6469 19.1063C18.9469 18.3375 18.5625 17.4656 17.7938 17.1656C16.6969 16.7344 15.4969 16.5 14.25 16.5H9.75C4.36875 16.5 0 20.8687 0 26.25ZM6 31.8656C4.19063 30.6562 3 28.5844 3 26.25C3 23.9062 4.19063 21.8438 6 20.6344V31.8656ZM48 6C48.2955 6 48.5881 6.0582 48.861 6.17127C49.134 6.28434 49.3821 6.45008 49.591 6.65901C49.7999 6.86794 49.9657 7.11598 50.0787 7.38896C50.1918 7.66194 50.25 7.95453 50.25 8.25C50.25 8.54547 50.1918 8.83806 50.0787 9.11104C49.9657 9.38402 49.7999 9.63206 49.591 9.84099C49.3821 10.0499 49.134 10.2157 48.861 10.3287C48.5881 10.4418 48.2955 10.5 48 10.5C47.7045 10.5 47.4119 10.4418 47.139 10.3287C46.866 10.2157 46.6179 10.0499 46.409 9.84099C46.2001 9.63206 46.0343 9.38402 45.9213 9.11104C45.8082 8.83806 45.75 8.54547 45.75 8.25C45.75 7.95453 45.8082 7.66194 45.9213 7.38896C46.0343 7.11598 46.2001 6.86794 46.409 6.65901C46.6179 6.45008 46.866 6.28434 47.139 6.17127C47.4119 6.0582 47.7045 6 48 6ZM48 13.5C48.6894 13.5 49.3721 13.3642 50.0091 13.1004C50.646 12.8365 51.2248 12.4498 51.7123 11.9623C52.1998 11.4748 52.5865 10.896 52.8504 10.2591C53.1142 9.62213 53.25 8.93944 53.25 8.25C53.25 7.56056 53.1142 6.87787 52.8504 6.24091C52.5865 5.60395 52.1998 5.0252 51.7123 4.53769C51.2248 4.05018 50.646 3.66347 50.0091 3.39963C49.3721 3.1358 48.6894 3 48 3C47.3106 3 46.6279 3.1358 45.9909 3.39963C45.354 3.66347 44.7752 4.05018 44.2877 4.53769C43.8002 5.0252 43.4135 5.60395 43.1496 6.24091C42.8858 6.87787 42.75 7.56056 42.75 8.25C42.75 8.93944 42.8858 9.62213 43.1496 10.2591C43.4135 10.896 43.8002 11.4748 44.2877 11.9623C44.7752 12.4498 45.354 12.8365 45.9909 13.1004C46.6279 13.3642 47.3106 13.5 48 13.5ZM60 26.25C60 20.8687 55.6313 16.5 50.25 16.5H45.75C44.5031 16.5 43.3031 16.7344 42.2063 17.1656C41.4375 17.4656 41.0531 18.3375 41.3531 19.1063C41.6531 19.875 42.525 20.2594 43.2937 19.9594C44.0531 19.6594 44.8781 19.5 45.75 19.5H50.25C50.5031 19.5 50.7563 19.5094 51 19.5375V39H45V36C45 35.175 44.325 34.5 43.5 34.5C42.675 34.5 42 35.175 42 36V39.75C42 40.9969 43.0031 42 44.25 42H51.75C52.9969 42 54 40.9969 54 39.75V35.25C57.525 33.7781 60 30.3094 60 26.25ZM54 31.8656V20.6344C55.8094 21.8438 57 23.9062 57 26.25C57 28.5844 55.8094 30.6562 54 31.8656ZM27 9C27 8.20435 27.3161 7.44129 27.8787 6.87868C28.4413 6.31607 29.2044 6 30 6C30.7956 6 31.5587 6.31607 32.1213 6.87868C32.6839 7.44129 33 8.20435 33 9C33 9.79565 32.6839 10.5587 32.1213 11.1213C31.5587 11.6839 30.7956 12 30 12C29.2044 12 28.4413 11.6839 27.8787 11.1213C27.3161 10.5587 27 9.79565 27 9ZM36 9C36 7.4087 35.3679 5.88258 34.2426 4.75736C33.1174 3.63214 31.5913 3 30 3C28.4087 3 26.8826 3.63214 25.7574 4.75736C24.6321 5.88258 24 7.4087 24 9C24 10.5913 24.6321 12.1174 25.7574 13.2426C26.8826 14.3679 28.4087 15 30 15C31.5913 15 33.1174 14.3679 34.2426 13.2426C35.3679 12.1174 36 10.5913 36 9ZM28.5 18C23.1187 18 18.75 22.3687 18.75 27.75C18.75 31.5094 20.8781 34.7719 24 36.4031V42.75C24 43.9969 25.0031 45 26.25 45H33.75C34.9969 45 36 43.9969 36 42.75V36.4031C39.1219 34.7812 41.25 31.5188 41.25 27.75C41.25 22.3687 36.8813 18 31.5 18H28.5ZM24 22.7156V32.7844C22.6219 31.5469 21.75 29.7469 21.75 27.75C21.75 25.7531 22.6219 23.9531 24 22.7156ZM27 42V21.1688C27.4781 21.0563 27.9844 21 28.5 21H31.5C32.0156 21 32.5219 21.0563 33 21.1688V42H27ZM36 32.7844V22.7156C37.3781 23.9531 38.25 25.7438 38.25 27.75C38.25 29.7469 37.3781 31.5469 36 32.7844Z" fill="#4F3422"/>
</svg>
