<svg width="54" height="48" viewBox="0 0 54 48" fill="none" xmlns="http://www.w3.org/2000/svg">
<g clip-path="url(#clip0_697_5983)">
<path d="M27 45H9V8.08125C9 7.37812 9.47813 6.77812 10.1625 6.61875L25.725 3.02812C25.8 3.00937 25.8844 3 25.9594 3C26.5312 3 27 3.46875 27 4.04062V45ZM30 45V4.04062C30 1.80937 28.1906 0 25.9594 0C25.65 0 25.35 0.0375 25.05 0.103125L9.4875 3.69375C7.44375 4.1625 6 5.98125 6 8.08125V45H1.5C0.675 45 0 45.675 0 46.5C0 47.325 0.675 48 1.5 48H6H7.5H9H27H30V45ZM21.75 27C22.9875 27 24 25.65 24 24C24 22.35 22.9875 21 21.75 21C20.5125 21 19.5 22.35 19.5 24C19.5 25.65 20.5031 27 21.75 27ZM43.5 6H33V9H43.5C44.325 9 45 9.675 45 10.5V46.5C45 47.325 45.675 48 46.5 48H52.5C53.325 48 54 47.325 54 46.5C54 45.675 53.325 45 52.5 45H48V10.5C48 8.01562 45.9844 6 43.5 6Z" fill="#4F3422"/>
</g>
<defs>
<clipPath id="clip0_697_5983">
<rect width="54" height="48" fill="white"/>
</clipPath>
</defs>
</svg>
