<svg width="60" height="48" viewBox="0 0 60 48" fill="none" xmlns="http://www.w3.org/2000/svg">
<g clip-path="url(#clip0_697_5968)">
<path d="M34.8376 2.62517C34.997 2.73767 35.1376 2.85955 35.2595 3.00017C33.1033 3.03767 31.2564 3.2533 29.6814 3.5908C27.2064 2.96268 23.297 2.60643 17.3626 3.58143C7.20952 5.25955 3.92827 8.70017 3.05639 9.90955V9.91893C3.04702 9.99393 3.03764 10.1439 3.08452 10.3877L5.70014 25.7346C6.20639 28.6877 7.52827 31.247 9.61889 32.9439C11.5689 34.5189 14.0158 36.2533 16.5564 37.4627C18.1408 38.2221 19.6408 38.7189 21.0001 38.9158C21.6376 39.8908 22.3595 40.9221 23.1564 41.9627C17.7189 42.4221 11.597 38.4189 7.68764 35.2408C4.90327 32.9908 3.30014 29.7096 2.70014 26.2221L0.0751446 10.8845C-0.0842304 9.9658 -0.0186054 9.01892 0.51577 8.25955C1.92202 6.28142 5.96265 2.4283 16.8564 0.64705C27.7501 -1.1342 32.8595 1.20017 34.8376 2.62517ZM14.9064 26.897C15.7876 26.1845 16.9689 25.4158 18.4501 24.8533L18.2908 25.8095C18.1501 26.6533 18.0564 27.5158 18.0189 28.3877C17.5783 28.6502 17.1845 28.9314 16.8564 29.2033C16.322 29.6439 15.797 30.1314 15.3845 30.6939C14.9158 31.3689 13.9689 31.5471 13.2751 31.0877C12.5814 30.6283 12.3939 29.7002 12.8626 29.0158C13.4158 28.2096 14.1564 27.5158 14.9064 26.897ZM14.5408 15.4033C14.8314 14.6346 15.7126 14.2408 16.5001 14.5314C17.2876 14.8221 17.6908 15.6846 17.3908 16.4533C16.8376 17.8971 15.5345 19.0314 13.8658 19.3033C12.197 19.5752 10.5845 18.9283 9.58139 17.7377C9.04702 17.1002 9.14077 16.1627 9.78765 15.6377C10.4345 15.1127 11.4001 15.2064 11.9345 15.8345C12.6658 16.7064 14.1376 16.4627 14.5408 15.4033ZM36.1033 47.8689C30.4783 46.9502 25.7439 40.8752 22.9689 36.4314C21.0845 33.4127 20.6533 29.8033 21.2533 26.3158L23.8689 10.9689C24.0283 10.0502 24.3939 9.1783 25.1626 8.63455C27.1408 7.20017 32.2501 4.85642 43.1439 6.64705C54.0376 8.43767 58.0783 12.2814 59.4845 14.2596C60.0283 15.0189 60.0845 15.9658 59.9251 16.8846L57.3095 32.2314C56.7095 35.7189 55.1064 39.0002 52.322 41.2502C48.2251 44.5689 41.7189 48.7971 36.1033 47.8783V47.8689ZM30.6189 41.3533C32.6533 43.3502 34.697 44.6064 36.6001 44.9158C38.5033 45.2252 40.8564 44.6908 43.4439 43.4533C45.9845 42.2346 48.4314 40.5095 50.3814 38.9345C52.472 37.2377 53.7939 34.6783 54.3001 31.7252L56.9158 16.3783C56.9533 16.1439 56.9533 15.9846 56.9439 15.9096V15.9002C56.0626 14.6908 52.7908 11.2408 42.6376 9.57205C32.4845 7.9033 28.2376 10.1252 27.0095 10.9877V10.9971C26.972 11.0627 26.9158 11.2033 26.8783 11.447L24.2533 26.8033C23.747 29.7564 24.1501 32.6064 25.5658 34.8752C26.8876 36.9939 28.622 39.4033 30.6189 41.3627V41.3533ZM32.9345 22.3689C32.4001 23.0064 31.4345 23.0908 30.7876 22.5658C30.1408 22.0408 30.047 21.1033 30.5814 20.4658C31.5845 19.2752 33.1876 18.6283 34.8658 18.9002C36.5439 19.1721 37.8376 20.3064 38.3908 21.7502C38.6814 22.5189 38.2876 23.3814 37.5001 23.6721C36.7126 23.9627 35.8314 23.5689 35.5408 22.8002C35.3533 22.3127 34.922 21.9377 34.3689 21.8533C33.8158 21.7689 33.2814 21.9752 32.9439 22.3783L32.9345 22.3689ZM46.7908 30.4033L46.847 30.3846C47.1376 30.2908 47.4189 30.1971 47.7001 30.0939C48.047 29.9627 48.3845 29.8221 48.722 29.6721C49.3033 29.4096 49.9876 29.822 49.8845 30.4502C49.8189 30.8439 49.7251 31.2283 49.622 31.6033C49.5283 31.9314 49.4158 32.2596 49.2845 32.5783L49.2564 32.6439L49.2189 32.7283C47.372 37.1346 42.6001 39.8627 37.6033 39.0471C32.6064 38.2314 29.0064 34.1252 28.7158 29.3627C28.7158 29.3158 28.7064 29.2596 28.7064 29.2127C28.6876 28.8752 28.697 28.5283 28.7158 28.1814C28.7345 27.7971 28.7814 27.4033 28.847 27.0096C28.9501 26.3908 29.7376 26.2127 30.2064 26.6439C30.4689 26.8877 30.7501 27.1314 31.0314 27.3658C31.2658 27.5533 31.5001 27.7408 31.7439 27.9189L31.7908 27.9564C33.8533 29.4471 36.2908 30.5064 38.9908 30.9471C41.6908 31.3877 44.3439 31.1721 46.7908 30.4221V30.4033ZM44.8501 33.9096C42.797 34.2283 40.6501 34.2283 38.4939 33.872C36.3376 33.5158 34.3126 32.8314 32.4751 31.8752C33.497 34.0221 35.5501 35.6627 38.1189 36.0845C40.6876 36.5064 43.172 35.6158 44.8501 33.9096ZM44.9626 24.3471C44.4283 24.9846 43.4626 25.0689 42.8158 24.5439C42.1689 24.0189 42.0751 23.0814 42.6095 22.4439C43.6126 21.2533 45.2158 20.6064 46.8939 20.8783C48.572 21.1502 49.8658 22.2846 50.4189 23.7283C50.7095 24.4971 50.3158 25.3596 49.5283 25.6502C48.7408 25.9408 47.8595 25.547 47.5689 24.7783C47.3814 24.2908 46.9501 23.9158 46.3876 23.8314C45.8251 23.7471 45.3001 23.9533 44.9626 24.3564V24.3471Z" fill="#4F3422"/>
</g>
<defs>
<clipPath id="clip0_697_5968">
<rect width="60" height="48" fill="white"/>
</clipPath>
</defs>
</svg>
