<svg width="60" height="48" viewBox="0 0 60 48" fill="none" xmlns="http://www.w3.org/2000/svg">
<path d="M20.25 33H39.75C41.1281 33 42.3281 33.9375 42.6562 35.2688L42.9938 36.6094C43.7813 39.7781 46.6313 41.9906 49.8938 41.9906C53.8219 41.9906 57 38.8125 57 34.8844V34.6219C57 34.2 56.9625 33.7875 56.8969 33.375L53.8219 15.4969C53.1656 11.6813 50.8031 8.8125 47.5875 8.00625C43.5094 6.98438 37.6031 6 30 6C22.3969 6 16.4906 6.98438 12.4125 8.00625C9.1875 8.80313 6.825 11.6719 6.17813 15.4969L3.10312 33.3844C3.02812 33.7969 3 34.2094 3 34.6312V34.8938C3 38.8219 6.17813 42 10.1063 42C13.3688 42 16.2094 39.7781 17.0062 36.6188L17.3438 35.2781C17.6812 33.9469 18.8812 33.0094 20.25 33.0094V33ZM40.0875 37.3406L39.75 36H20.25L19.9125 37.3406C18.7875 41.8406 14.7469 45 10.1063 45C4.52813 45 0 40.4719 0 34.8938V34.6312C0 34.0406 0.046875 33.4594 0.15 32.8781L3.21562 14.9813C4.02187 10.275 7.05 6.24375 11.6812 5.09062C15.9844 4.02187 22.1437 3 30 3C37.8563 3 44.0156 4.02187 48.3094 5.09062C52.9406 6.24375 55.9687 10.275 56.775 14.9813L59.8406 32.8781C59.9437 33.4594 59.9906 34.0406 59.9906 34.6312V34.8938C60 40.4719 55.4719 45 49.8938 45C45.2531 45 41.2125 41.8406 40.0875 37.3406ZM19.5 15V19.5H24C24.825 19.5 25.5 20.175 25.5 21C25.5 21.825 24.825 22.5 24 22.5H19.5V27C19.5 27.825 18.825 28.5 18 28.5C17.175 28.5 16.5 27.825 16.5 27V22.5H12C11.175 22.5 10.5 21.825 10.5 21C10.5 20.175 11.175 19.5 12 19.5H16.5V15C16.5 14.175 17.175 13.5 18 13.5C18.825 13.5 19.5 14.175 19.5 15ZM38.25 25.5C38.25 24.9033 38.4871 24.331 38.909 23.909C39.331 23.4871 39.9033 23.25 40.5 23.25C41.0967 23.25 41.669 23.4871 42.091 23.909C42.5129 24.331 42.75 24.9033 42.75 25.5C42.75 26.0967 42.5129 26.669 42.091 27.091C41.669 27.5129 41.0967 27.75 40.5 27.75C39.9033 27.75 39.331 27.5129 38.909 27.091C38.4871 26.669 38.25 26.0967 38.25 25.5ZM46.5 14.25C46.7955 14.25 47.0881 14.3082 47.361 14.4213C47.634 14.5343 47.8821 14.7001 48.091 14.909C48.2999 15.1179 48.4657 15.366 48.5787 15.639C48.6918 15.9119 48.75 16.2045 48.75 16.5C48.75 16.7955 48.6918 17.0881 48.5787 17.361C48.4657 17.634 48.2999 17.8821 48.091 18.091C47.8821 18.2999 47.634 18.4657 47.361 18.5787C47.0881 18.6918 46.7955 18.75 46.5 18.75C46.2045 18.75 45.9119 18.6918 45.639 18.5787C45.366 18.4657 45.1179 18.2999 44.909 18.091C44.7001 17.8821 44.5343 17.634 44.4213 17.361C44.3082 17.0881 44.25 16.7955 44.25 16.5C44.25 16.2045 44.3082 15.9119 44.4213 15.639C44.5343 15.366 44.7001 15.1179 44.909 14.909C45.1179 14.7001 45.366 14.5343 45.639 14.4213C45.9119 14.3082 46.2045 14.25 46.5 14.25Z" fill="#4F3422"/>
</svg>
