<svg width="48" height="48" viewBox="0 0 48 48" fill="none" xmlns="http://www.w3.org/2000/svg">
<path d="M25.5002 2.25C25.5002 1.425 24.8252 0.75 24.0002 0.75C23.1752 0.75 22.5002 1.425 22.5002 2.25V9.75C22.5002 10.575 23.1752 11.25 24.0002 11.25C24.8252 11.25 25.5002 10.575 25.5002 9.75V2.25ZM17.6439 19.5H30.3564C31.6971 19.5 32.8689 20.3906 33.2439 21.675L34.7627 27C34.6783 27 34.5846 27 34.5002 27H13.5002C13.4158 27 13.3221 27 13.2377 27L14.7564 21.675C15.1221 20.3906 16.3033 19.5 17.6439 19.5ZM11.8783 20.85L9.84395 27.9469C7.55645 29.2313 6.0002 31.6875 6.0002 34.5V39V40.5V43.5V46.5C6.0002 47.325 6.6752 48 7.5002 48C8.3252 48 9.0002 47.325 9.0002 46.5V43.5H39.0002V46.5C39.0002 47.325 39.6752 48 40.5002 48C41.3252 48 42.0002 47.325 42.0002 46.5V43.5V40.5V39V34.5C42.0002 31.6875 40.4439 29.2313 38.1564 27.9469L36.1314 20.85C35.4002 18.2719 33.0377 16.5 30.3658 16.5H17.6439C14.9627 16.5 12.6096 18.2719 11.8783 20.85ZM39.0002 39V40.5H9.0002V39V34.5C9.0002 32.0156 11.0158 30 13.5002 30H34.5002C36.9846 30 39.0002 32.0156 39.0002 34.5V39ZM13.5002 37.5C13.7957 37.5 14.0883 37.4418 14.3612 37.3287C14.6342 37.2157 14.8823 37.0499 15.0912 36.841C15.3001 36.6321 15.4659 36.384 15.5789 36.111C15.692 35.8381 15.7502 35.5455 15.7502 35.25C15.7502 34.9545 15.692 34.6619 15.5789 34.389C15.4659 34.116 15.3001 33.8679 15.0912 33.659C14.8823 33.4501 14.6342 33.2843 14.3612 33.1713C14.0883 33.0582 13.7957 33 13.5002 33C13.2047 33 12.9121 33.0582 12.6392 33.1713C12.3662 33.2843 12.1181 33.4501 11.9092 33.659C11.7003 33.8679 11.5345 34.116 11.4215 34.389C11.3084 34.6619 11.2502 34.9545 11.2502 35.25C11.2502 35.5455 11.3084 35.8381 11.4215 36.111C11.5345 36.384 11.7003 36.6321 11.9092 36.841C12.1181 37.0499 12.3662 37.2157 12.6392 37.3287C12.9121 37.4418 13.2047 37.5 13.5002 37.5ZM36.7502 35.25C36.7502 34.6533 36.5131 34.081 36.0912 33.659C35.6692 33.2371 35.0969 33 34.5002 33C33.9035 33 33.3312 33.2371 32.9092 33.659C32.4873 34.081 32.2502 34.6533 32.2502 35.25C32.2502 35.8467 32.4873 36.419 32.9092 36.841C33.3312 37.2629 33.9035 37.5 34.5002 37.5C35.0969 37.5 35.6692 37.2629 36.0912 36.841C36.5131 36.419 36.7502 35.8467 36.7502 35.25ZM4.19082 4.19063C3.60957 4.77188 3.60957 5.72813 4.19082 6.30938L8.69082 10.8094C9.27207 11.3906 10.2283 11.3906 10.8096 10.8094C11.3908 10.2281 11.3908 9.27187 10.8096 8.69062L6.30957 4.19063C5.72832 3.60938 4.77207 3.60938 4.19082 4.19063ZM41.6908 4.19063L37.1908 8.69062C36.6096 9.27187 36.6096 10.2281 37.1908 10.8094C37.7721 11.3906 38.7283 11.3906 39.3096 10.8094L43.8096 6.30938C44.3908 5.72813 44.3908 4.77188 43.8096 4.19063C43.2283 3.60938 42.2721 3.60938 41.6908 4.19063Z" fill="#4F3422"/>
</svg>
