<svg width="36" height="48" viewBox="0 0 36 48" fill="none" xmlns="http://www.w3.org/2000/svg">
<g clip-path="url(#clip0_697_6097)">
<path d="M30 45H6C4.34062 45 3 43.6594 3 42V6C3 4.34062 4.34062 3 6 3H18V13.5C18 15.9844 20.0156 18 22.5 18H33V42C33 43.6594 31.6594 45 30 45ZM22.5 15C21.675 15 21 14.325 21 13.5V3.04688C21.2625 3.1125 21.5062 3.24375 21.6937 3.44063L32.5594 14.3063C32.7562 14.5031 32.8875 14.7375 32.9531 15H22.5ZM6 0C2.69063 0 0 2.69063 0 6V42C0 45.3094 2.69063 48 6 48H30C33.3094 48 36 45.3094 36 42V15.3656C36 14.175 35.5219 13.0312 34.6781 12.1875L23.8219 1.32188C22.9781 0.478125 21.8344 0 20.6437 0H6ZM18 21C17.175 21 16.5 21.675 16.5 22.5V33C16.5 33.825 17.175 34.5 18 34.5C18.825 34.5 19.5 33.825 19.5 33V22.5C19.5 21.675 18.825 21 18 21ZM20.25 39C20.25 38.4033 20.0129 37.831 19.591 37.409C19.169 36.9871 18.5967 36.75 18 36.75C17.4033 36.75 16.831 36.9871 16.409 37.409C15.9871 37.831 15.75 38.4033 15.75 39C15.75 39.5967 15.9871 40.169 16.409 40.591C16.831 41.0129 17.4033 41.25 18 41.25C18.5967 41.25 19.169 41.0129 19.591 40.591C20.0129 40.169 20.25 39.5967 20.25 39Z" fill="#4F3422"/>
</g>
<defs>
<clipPath id="clip0_697_6097">
<rect width="36" height="48" fill="white"/>
</clipPath>
</defs>
</svg>
