<svg width="54" height="48" viewBox="0 0 54 48" fill="none" xmlns="http://www.w3.org/2000/svg">
<g clip-path="url(#clip0_697_6103)">
<path d="M25.5 24C28.2848 24 30.9555 22.8938 32.9246 20.9246C34.8938 18.9555 36 16.2848 36 13.5C36 10.7152 34.8938 8.04451 32.9246 6.07538C30.9555 4.10625 28.2848 3 25.5 3C22.7152 3 20.0445 4.10625 18.0754 6.07538C16.1062 8.04451 15 10.7152 15 13.5C15 16.2848 16.1062 18.9555 18.0754 20.9246C20.0445 22.8938 22.7152 24 25.5 24ZM25.5 0C29.0804 0 32.5142 1.42232 35.0459 3.95406C37.5777 6.4858 39 9.91958 39 13.5C39 17.0804 37.5777 20.5142 35.0459 23.0459C32.5142 25.5777 29.0804 27 25.5 27C21.9196 27 18.4858 25.5777 15.9541 23.0459C13.4223 20.5142 12 17.0804 12 13.5C12 9.91958 13.4223 6.4858 15.9541 3.95406C18.4858 1.42232 21.9196 0 25.5 0ZM23.325 10.4438C23.2875 10.5094 23.2406 10.5938 23.25 10.7812V10.7906C23.25 10.8281 23.25 10.9687 23.7 11.2125C24.225 11.4937 24.9656 11.7 25.9406 11.9813H25.9594C26.8312 12.225 27.9375 12.5438 28.8187 13.0594C29.775 13.6219 30.6937 14.5688 30.7406 16.0875C30.7875 17.7938 29.8313 18.9375 28.7063 19.5469C28.1625 19.8375 27.5719 20.025 26.9906 20.1281V21.1406C26.9906 21.9656 26.3156 22.6406 25.4906 22.6406C24.6656 22.6406 23.9906 21.9656 23.9906 21.1406V20.0719C23.1844 19.9125 22.425 19.6687 21.7687 19.4531C21.6094 19.3969 21.45 19.35 21.3 19.3031C20.5125 19.0594 20.0719 18.2156 20.3156 17.4281C20.5594 16.6406 21.4031 16.2 22.1906 16.4437C22.3781 16.5 22.5563 16.5562 22.7344 16.6125C23.8125 16.95 24.6469 17.2219 25.5375 17.25C26.1656 17.2688 26.8312 17.1469 27.2719 16.9125C27.4781 16.8 27.5906 16.6875 27.6469 16.6031C27.6937 16.5281 27.75 16.4063 27.7406 16.1813C27.7406 16.05 27.7219 15.9 27.3 15.6562C26.8031 15.3656 26.0906 15.15 25.125 14.8781L24.9563 14.8312C24.1219 14.5969 23.1 14.3062 22.275 13.8656C21.3469 13.3687 20.3438 12.4875 20.25 10.9875C20.1375 9.225 21.1875 8.09063 22.2938 7.5C22.8281 7.20938 23.4188 7.02187 23.9813 6.90937V6C23.9813 5.175 24.6562 4.5 25.4812 4.5C26.3062 4.5 26.9812 5.175 26.9812 6V6.88125C27.5719 6.96563 28.1344 7.09687 28.6594 7.22812C29.4656 7.425 29.9531 8.24062 29.7562 9.04688C29.5594 9.85313 28.7438 10.3406 27.9375 10.1437C27.0656 9.92812 26.2313 9.76875 25.4625 9.75937C24.8813 9.75 24.1875 9.88125 23.7094 10.1344C23.4844 10.2562 23.3719 10.3688 23.3156 10.4531L23.325 10.4438ZM14.1562 29.7562C15.3844 28.9312 16.8375 28.5 18.3187 28.5H32.25C35.1469 28.5 37.5 30.8531 37.5 33.75C37.5 34.5563 37.3219 35.3156 36.9938 36H37.5188L46.3969 30.7125C47.175 30.2531 48.0656 30 48.975 30H49.0969C51.8063 30 54 32.1937 54 34.9031C54 36.5625 53.1563 38.1094 51.7688 39.0094L40.5563 46.3031C38.85 47.4094 36.8625 48 34.8375 48H1.5C0.675 48 0 47.325 0 46.5C0 45.675 0.675 45 1.5 45H34.8281C36.2812 45 37.6969 44.5781 38.9156 43.7906L50.1281 36.4969C50.6719 36.15 50.9906 35.5406 50.9906 34.9031C50.9906 33.8531 50.1375 33 49.0875 33H48.9656C48.6 33 48.2438 33.1031 47.925 33.2812L38.6906 38.7844C38.4563 38.925 38.1938 39 37.9219 39H32.25H30H24C23.175 39 22.5 38.325 22.5 37.5C22.5 36.675 23.175 36 24 36H30H32.25C33.4969 36 34.5 34.9969 34.5 33.75C34.5 32.5031 33.4969 31.5 32.25 31.5H18.3187C17.4281 31.5 16.5656 31.7625 15.825 32.2594L8.33438 37.2469C8.09063 37.4156 7.8 37.5 7.5 37.5H1.5C0.675 37.5 0 36.825 0 36C0 35.175 0.675 34.5 1.5 34.5H7.05L14.1562 29.7562Z" fill="#4F3422"/>
</g>
<defs>
<clipPath id="clip0_697_6103">
<rect width="54" height="48" fill="white"/>
</clipPath>
</defs>
</svg>
