<svg width="48" height="48" viewBox="0 0 48 48" fill="none" xmlns="http://www.w3.org/2000/svg">
<g clip-path="url(#clip0_697_6109)">
<path d="M25.5 3C26.325 3 27 3.675 27 4.5V7.5C27 8.325 26.325 9 25.5 9H7.5C6.675 9 6 8.325 6 7.5V4.5C6 3.675 6.675 3 7.5 3H25.5ZM7.5 0C5.01562 0 3 2.01562 3 4.5V7.5C3 9.98438 5.01562 12 7.5 12H15V15H8.20312C5.22188 15 2.68125 17.1937 2.25938 20.1469L0.05625 35.5781C0.01875 35.8594 0 36.1406 0 36.4219V42C0 45.3094 2.69063 48 6 48H42C45.3094 48 48 45.3094 48 42V36.4219C48 36.1406 47.9812 35.85 47.9437 35.5781L45.7312 20.1469C45.3094 17.1937 42.7781 15 39.7875 15H18V12H25.5C27.9844 12 30 9.98438 30 7.5V4.5C30 2.01562 27.9844 0 25.5 0H7.5ZM3 42V39H45V42C45 43.6594 43.6594 45 42 45H6C4.34062 45 3 43.6594 3 42ZM42.7688 20.5781L44.9719 36H3.02812L5.23125 20.5781C5.44687 19.0969 6.7125 18 8.20312 18H39.7969C41.2875 18 42.5531 19.0969 42.7688 20.5781ZM10.5 21.75C9.90326 21.75 9.33097 21.9871 8.90901 22.409C8.48705 22.831 8.25 23.4033 8.25 24C8.25 24.5967 8.48705 25.169 8.90901 25.591C9.33097 26.0129 9.90326 26.25 10.5 26.25C11.0967 26.25 11.669 26.0129 12.091 25.591C12.5129 25.169 12.75 24.5967 12.75 24C12.75 23.4033 12.5129 22.831 12.091 22.409C11.669 21.9871 11.0967 21.75 10.5 21.75ZM17.25 24C17.25 24.5967 17.4871 25.169 17.909 25.591C18.331 26.0129 18.9033 26.25 19.5 26.25C20.0967 26.25 20.669 26.0129 21.091 25.591C21.5129 25.169 21.75 24.5967 21.75 24C21.75 23.4033 21.5129 22.831 21.091 22.409C20.669 21.9871 20.0967 21.75 19.5 21.75C18.9033 21.75 18.331 21.9871 17.909 22.409C17.4871 22.831 17.25 23.4033 17.25 24ZM15 29.25C14.4033 29.25 13.831 29.4871 13.409 29.909C12.9871 30.331 12.75 30.9033 12.75 31.5C12.75 32.0967 12.9871 32.669 13.409 33.091C13.831 33.5129 14.4033 33.75 15 33.75C15.5967 33.75 16.169 33.5129 16.591 33.091C17.0129 32.669 17.25 32.0967 17.25 31.5C17.25 30.9033 17.0129 30.331 16.591 29.909C16.169 29.4871 15.5967 29.25 15 29.25ZM26.25 24C26.25 24.5967 26.4871 25.169 26.909 25.591C27.331 26.0129 27.9033 26.25 28.5 26.25C29.0967 26.25 29.669 26.0129 30.091 25.591C30.5129 25.169 30.75 24.5967 30.75 24C30.75 23.4033 30.5129 22.831 30.091 22.409C29.669 21.9871 29.0967 21.75 28.5 21.75C27.9033 21.75 27.331 21.9871 26.909 22.409C26.4871 22.831 26.25 23.4033 26.25 24ZM24 29.25C23.4033 29.25 22.831 29.4871 22.409 29.909C21.9871 30.331 21.75 30.9033 21.75 31.5C21.75 32.0967 21.9871 32.669 22.409 33.091C22.831 33.5129 23.4033 33.75 24 33.75C24.5967 33.75 25.169 33.5129 25.591 33.091C26.0129 32.669 26.25 32.0967 26.25 31.5C26.25 30.9033 26.0129 30.331 25.591 29.909C25.169 29.4871 24.5967 29.25 24 29.25ZM35.25 24C35.25 24.2955 35.3082 24.5881 35.4213 24.861C35.5343 25.134 35.7001 25.3821 35.909 25.591C36.1179 25.7999 36.366 25.9657 36.639 26.0787C36.9119 26.1918 37.2045 26.25 37.5 26.25C37.7955 26.25 38.0881 26.1918 38.361 26.0787C38.634 25.9657 38.8821 25.7999 39.091 25.591C39.2999 25.3821 39.4657 25.134 39.5787 24.861C39.6918 24.5881 39.75 24.2955 39.75 24C39.75 23.7045 39.6918 23.4119 39.5787 23.139C39.4657 22.866 39.2999 22.6179 39.091 22.409C38.8821 22.2001 38.634 22.0343 38.361 21.9213C38.0881 21.8082 37.7955 21.75 37.5 21.75C37.2045 21.75 36.9119 21.8082 36.639 21.9213C36.366 22.0343 36.1179 22.2001 35.909 22.409C35.7001 22.6179 35.5343 22.866 35.4213 23.139C35.3082 23.4119 35.25 23.7045 35.25 24ZM33 29.25C32.4033 29.25 31.831 29.4871 31.409 29.909C30.9871 30.331 30.75 30.9033 30.75 31.5C30.75 32.0967 30.9871 32.669 31.409 33.091C31.831 33.5129 32.4033 33.75 33 33.75C33.5967 33.75 34.169 33.5129 34.591 33.091C35.0129 32.669 35.25 32.0967 35.25 31.5C35.25 30.9033 35.0129 30.331 34.591 29.909C34.169 29.4871 33.5967 29.25 33 29.25Z" fill="#4F3422"/>
</g>
<defs>
<clipPath id="clip0_697_6109">
<rect width="48" height="48" fill="white"/>
</clipPath>
</defs>
</svg>
