<svg width="48" height="48" viewBox="0 0 48 48" fill="none" xmlns="http://www.w3.org/2000/svg">
<g clip-path="url(#clip0_697_6106)">
<path d="M17.8688 6.69375C19.0313 4.49063 21.3469 3 24 3C26.6531 3 28.9687 4.49063 30.1312 6.69375C30.4687 7.33125 31.2094 7.64062 31.8938 7.425C34.275 6.69375 36.9656 7.275 38.8406 9.15C40.7156 11.025 41.2969 13.7156 40.5656 16.0969C40.35 16.7812 40.6594 17.5219 41.2969 17.8594C43.5094 19.0312 45 21.3469 45 24C45 26.6531 43.5094 28.9687 41.3063 30.1312C40.6688 30.4687 40.3594 31.2094 40.575 31.8938C41.3062 34.275 40.725 36.9656 38.85 38.8406C36.975 40.7156 34.2844 41.2969 31.9031 40.5656C31.2187 40.35 30.4781 40.6594 30.1406 41.2969C28.9688 43.5094 26.6531 45 24 45C21.3469 45 19.0313 43.5094 17.8688 41.3063C17.5313 40.6688 16.7906 40.3594 16.1063 40.575C13.725 41.3062 11.0344 40.725 9.15937 38.85C7.28437 36.975 6.70313 34.2844 7.43438 31.9031C7.65 31.2187 7.34063 30.4781 6.70312 30.1406C4.49062 28.9688 3 26.6531 3 24C3 21.3469 4.49063 19.0313 6.69375 17.8688C7.33125 17.5313 7.64062 16.7906 7.425 16.1063C6.69375 13.725 7.275 11.0344 9.15 9.15937C11.025 7.28437 13.7156 6.70313 16.0969 7.43438C16.7812 7.65 17.5219 7.34063 17.8594 6.70312L17.8688 6.69375ZM24 0C20.6156 0 17.625 1.69687 15.8344 4.275C12.7406 3.7125 9.43125 4.63125 7.03125 7.03125C4.63125 9.43125 3.72187 12.7406 4.275 15.8344C1.69687 17.625 0 20.6156 0 24C0 27.3844 1.69687 30.375 4.275 32.1656C3.7125 35.2594 4.63125 38.5687 7.03125 40.9688C9.43125 43.3688 12.7406 44.2781 15.8344 43.725C17.625 46.3031 20.6156 48 24 48C27.3844 48 30.375 46.3031 32.1656 43.725C35.2594 44.2875 38.5687 43.3688 40.9688 40.9688C43.3688 38.5687 44.2781 35.2594 43.725 32.1656C46.3031 30.375 48 27.3844 48 24C48 20.6156 46.3031 17.625 43.725 15.8344C44.2875 12.7406 43.3688 9.43125 40.9688 7.03125C38.5687 4.63125 35.2594 3.72187 32.1656 4.275C30.375 1.69687 27.3844 0 24 0ZM32.5594 15.4406C31.9781 14.8594 31.0219 14.8594 30.4406 15.4406L15.4406 30.4406C14.8594 31.0219 14.8594 31.9781 15.4406 32.5594C16.0219 33.1406 16.9781 33.1406 17.5594 32.5594L32.5594 17.5594C33.1406 16.9781 33.1406 16.0219 32.5594 15.4406ZM18 20.25C18.5967 20.25 19.169 20.0129 19.591 19.591C20.0129 19.169 20.25 18.5967 20.25 18C20.25 17.4033 20.0129 16.831 19.591 16.409C19.169 15.9871 18.5967 15.75 18 15.75C17.4033 15.75 16.831 15.9871 16.409 16.409C15.9871 16.831 15.75 17.4033 15.75 18C15.75 18.5967 15.9871 19.169 16.409 19.591C16.831 20.0129 17.4033 20.25 18 20.25ZM30 32.25C30.5967 32.25 31.169 32.0129 31.591 31.591C32.0129 31.169 32.25 30.5967 32.25 30C32.25 29.4033 32.0129 28.831 31.591 28.409C31.169 27.9871 30.5967 27.75 30 27.75C29.4033 27.75 28.831 27.9871 28.409 28.409C27.9871 28.831 27.75 29.4033 27.75 30C27.75 30.5967 27.9871 31.169 28.409 31.591C28.831 32.0129 29.4033 32.25 30 32.25Z" fill="#4F3422"/>
</g>
<defs>
<clipPath id="clip0_697_6106">
<rect width="48" height="48" fill="white"/>
</clipPath>
</defs>
</svg>
