<svg width="54" height="48" viewBox="0 0 54 48" fill="none" xmlns="http://www.w3.org/2000/svg">
<g clip-path="url(#clip0_697_6088)">
<path d="M1.5 0C0.675 0 0 0.675 0 1.5C0 2.325 0.675 3 1.5 3H5.05313C5.76563 3 6.38437 3.49687 6.525 4.2L12.0469 31.2C12.6187 33.9937 15.075 36 17.925 36H46.5C47.325 36 48 35.325 48 34.5C48 33.675 47.325 33 46.5 33H17.925C16.5 33 15.2719 31.9969 14.9813 30.6L14.25 27H43.7344C46.4906 27 48.8906 25.125 49.5562 22.4531L53.4937 6.73125C53.9625 4.8375 52.5375 3 50.5875 3H9.29062C8.67187 1.21875 6.975 0 5.05313 0H1.5ZM9.94687 6H50.5781L46.65 21.7313C46.3125 23.0625 45.1125 24 43.7344 24H13.6312L9.94687 6ZM15.75 42.75C15.75 42.1533 15.9871 41.581 16.409 41.159C16.831 40.7371 17.4033 40.5 18 40.5C18.5967 40.5 19.169 40.7371 19.591 41.159C20.0129 41.581 20.25 42.1533 20.25 42.75C20.25 43.3467 20.0129 43.919 19.591 44.341C19.169 44.7629 18.5967 45 18 45C17.4033 45 16.831 44.7629 16.409 44.341C15.9871 43.919 15.75 43.3467 15.75 42.75ZM23.25 42.75C23.25 42.0606 23.1142 41.3779 22.8504 40.7409C22.5865 40.104 22.1998 39.5252 21.7123 39.0377C21.2248 38.5502 20.646 38.1635 20.0091 37.8996C19.3721 37.6358 18.6894 37.5 18 37.5C17.3106 37.5 16.6279 37.6358 15.9909 37.8996C15.354 38.1635 14.7752 38.5502 14.2877 39.0377C13.8002 39.5252 13.4135 40.104 13.1496 40.7409C12.8858 41.3779 12.75 42.0606 12.75 42.75C12.75 43.4394 12.8858 44.1221 13.1496 44.7591C13.4135 45.396 13.8002 45.9748 14.2877 46.4623C14.7752 46.9498 15.354 47.3365 15.9909 47.6004C16.6279 47.8642 17.3106 48 18 48C18.6894 48 19.3721 47.8642 20.0091 47.6004C20.646 47.3365 21.2248 46.9498 21.7123 46.4623C22.1998 45.9748 22.5865 45.396 22.8504 44.7591C23.1142 44.1221 23.25 43.4394 23.25 42.75ZM42 40.5C42.5967 40.5 43.169 40.7371 43.591 41.159C44.0129 41.581 44.25 42.1533 44.25 42.75C44.25 43.3467 44.0129 43.919 43.591 44.341C43.169 44.7629 42.5967 45 42 45C41.4033 45 40.831 44.7629 40.409 44.341C39.9871 43.919 39.75 43.3467 39.75 42.75C39.75 42.1533 39.9871 41.581 40.409 41.159C40.831 40.7371 41.4033 40.5 42 40.5ZM42 48C43.3924 48 44.7277 47.4469 45.7123 46.4623C46.6969 45.4777 47.25 44.1424 47.25 42.75C47.25 41.3576 46.6969 40.0223 45.7123 39.0377C44.7277 38.0531 43.3924 37.5 42 37.5C40.6076 37.5 39.2723 38.0531 38.2877 39.0377C37.3031 40.0223 36.75 41.3576 36.75 42.75C36.75 44.1424 37.3031 45.4777 38.2877 46.4623C39.2723 47.4469 40.6076 48 42 48Z" fill="#4F3422"/>
</g>
<defs>
<clipPath id="clip0_697_6088">
<rect width="54" height="48" fill="white"/>
</clipPath>
</defs>
</svg>
