<svg width="60" height="48" viewBox="0 0 60 48" fill="none" xmlns="http://www.w3.org/2000/svg">
<g clip-path="url(#clip0_697_6007)">
<path d="M9.00015 24C9.00015 12.4031 18.4033 3 30.0002 3C38.6064 3 46.0127 8.18437 49.2564 15.6C49.5845 16.3594 50.4752 16.7062 51.2345 16.3781C51.9939 16.05 52.3408 15.1594 52.0127 14.4C48.3002 5.925 39.8439 0 30.0002 0C24.6752 0 19.7533 1.73438 15.7689 4.67813L1.97828 0.075C1.42515 -0.103125 0.815778 0.046875 0.412653 0.459375C0.00952816 0.871875 -0.112347 1.5 0.103278 2.03438L6.56265 18.8344C6.19703 20.5031 6.00015 22.2281 6.00015 24C6.00015 37.2562 16.7439 48 30.0002 48C37.1064 48 43.5002 44.9063 47.8877 40.0031C48.4408 39.3844 48.3845 38.4375 47.7658 37.8844C47.4845 37.6313 47.1283 37.5 46.772 37.5H46.7627C46.3502 37.5 45.947 37.6687 45.647 37.9969C41.8033 42.3 36.2158 45 29.9908 45C18.4033 45 9.00015 35.5969 9.00015 24ZM13.1064 6.94687C10.9877 9.04687 9.25328 11.5406 8.03453 14.3063L6.92828 11.4281C6.97515 11.3625 7.02203 11.2969 7.05953 11.2313C8.0814 9.39375 9.3189 7.69687 10.7439 6.15937L13.1064 6.94687ZM7.65015 5.12813C6.90015 6.00938 6.2064 6.9375 5.5689 7.90313L4.04078 3.92813L7.65015 5.12813ZM25.8002 21.9C26.297 22.5656 27.2345 22.6969 27.9002 22.2C28.5658 21.7031 28.697 20.7656 28.2002 20.1C25.3502 16.3031 19.6502 16.3031 16.8002 20.1C16.3033 20.7656 16.4345 21.7031 17.1002 22.2C17.7658 22.6969 18.7033 22.5656 19.2002 21.9C20.8502 19.6969 24.1502 19.6969 25.8002 21.9ZM40.8002 21.9C41.297 22.5656 42.2345 22.6969 42.9002 22.2C43.5658 21.7031 43.697 20.7656 43.2002 20.1C40.3502 16.3031 34.6502 16.3031 31.8002 20.1C31.3033 20.7656 31.4345 21.7031 32.1002 22.2C32.7658 22.6969 33.7033 22.5656 34.2002 21.9C35.8502 19.6969 39.1502 19.6969 40.8002 21.9ZM35.7564 28.4156C36.272 28.6688 36.647 28.9313 36.872 29.1656C37.097 29.4 37.1252 29.55 37.1252 29.625C37.1252 29.7 37.097 29.85 36.872 30.0844C36.647 30.3281 36.272 30.5812 35.7564 30.8344C34.7345 31.3406 33.3658 31.7063 32.1189 31.8844C32.0345 31.8938 31.9502 31.9125 31.8658 31.9406C31.7064 31.9969 31.5658 32.0906 31.4533 32.2031C31.3408 32.3156 31.247 32.4562 31.1908 32.6156C31.1439 32.7375 31.1252 32.8688 31.1252 33C31.1252 33.1312 31.1439 33.2625 31.1908 33.3844C31.247 33.5438 31.3408 33.6844 31.4533 33.7969C31.5658 33.9094 31.7064 34.0031 31.8658 34.0594C31.9502 34.0875 32.0252 34.1062 32.1189 34.1156C33.3658 34.2937 34.7345 34.6594 35.7564 35.1656C36.272 35.4188 36.647 35.6813 36.872 35.9156C37.097 36.15 37.1252 36.3 37.1252 36.375C37.1252 36.45 37.097 36.6 36.872 36.8344C36.647 37.0781 36.272 37.3312 35.7564 37.5844C34.7252 38.0906 33.347 38.4563 32.0908 38.6344C31.472 38.7188 31.0502 39.2906 31.1345 39.9094C31.2189 40.5281 31.7908 40.95 32.4095 40.8656C33.8252 40.6687 35.447 40.2469 36.7502 39.6094C37.397 39.2906 38.0252 38.8875 38.5033 38.3906C38.9908 37.8844 39.3752 37.2094 39.3752 36.3844C39.3752 35.6344 39.047 34.9969 38.6252 34.5094H55.5002C57.9845 34.5094 60.0002 32.4938 60.0002 30.0094V24C60.0002 21.5156 57.9845 19.5 55.5002 19.5H52.5002C50.0158 19.5 48.0002 21.5156 48.0002 24C48.0002 26.4844 50.0158 28.5 52.5002 28.5H54.0002C54.8252 28.5 55.5002 27.825 55.5002 27C55.5002 26.175 54.8252 25.5 54.0002 25.5H52.5002C51.6752 25.5 51.0002 24.825 51.0002 24C51.0002 23.175 51.6752 22.5 52.5002 22.5H55.5002C56.3252 22.5 57.0002 23.175 57.0002 24V30C57.0002 30.825 56.3252 31.5 55.5002 31.5H38.6252C39.047 31.0125 39.3752 30.375 39.3752 29.625C39.3752 28.8 38.9908 28.125 38.5033 27.6188C38.0252 27.1125 37.397 26.7188 36.7502 26.4C35.447 25.7625 33.8252 25.3406 32.4095 25.1438C31.7908 25.0594 31.2283 25.4812 31.1345 26.1C31.0408 26.7187 31.4814 27.2812 32.0908 27.375C33.347 27.5531 34.7252 27.9188 35.7564 28.425V28.4156Z" fill="#4F3422"/>
</g>
<defs>
<clipPath id="clip0_697_6007">
<rect width="60" height="48" fill="white"/>
</clipPath>
</defs>
</svg>
