<svg width="42" height="48" viewBox="0 0 42 48" fill="none" xmlns="http://www.w3.org/2000/svg">
<g clip-path="url(#clip0_697_6010)">
<path d="M16.5002 7.5C16.5002 6.90905 16.6165 6.32389 16.8427 5.77792C17.0688 5.23196 17.4003 4.73588 17.8182 4.31802C18.236 3.90016 18.7321 3.56869 19.2781 3.34254C19.824 3.1164 20.4092 3 21.0002 3C21.5911 3 22.1763 3.1164 22.7222 3.34254C23.2682 3.56869 23.7643 3.90016 24.1821 4.31802C24.6 4.73588 24.9315 5.23196 25.1576 5.77792C25.3838 6.32389 25.5002 6.90905 25.5002 7.5C25.5002 8.09095 25.3838 8.67611 25.1576 9.22208C24.9315 9.76804 24.6 10.2641 24.1821 10.682C23.7643 11.0998 23.2682 11.4313 22.7222 11.6575C22.1763 11.8836 21.5911 12 21.0002 12C20.4092 12 19.824 11.8836 19.2781 11.6575C18.7321 11.4313 18.236 11.0998 17.8182 10.682C17.4003 10.2641 17.0688 9.76804 16.8427 9.22208C16.6165 8.67611 16.5002 8.09095 16.5002 7.5ZM28.5002 7.5C28.5002 5.51088 27.71 3.60322 26.3035 2.1967C24.8969 0.790176 22.9893 0 21.0002 0C19.011 0 17.1034 0.790176 15.6969 2.1967C14.2903 3.60322 13.5002 5.51088 13.5002 7.5C13.5002 9.48912 14.2903 11.3968 15.6969 12.8033C17.1034 14.2098 19.011 15 21.0002 15C22.9893 15 24.8969 14.2098 26.3035 12.8033C27.71 11.3968 28.5002 9.48912 28.5002 7.5ZM9.68453 25.6781C11.6345 22.7531 14.9064 21 18.422 21H24.8064C27.7033 21 30.4783 22.2 32.4564 24.3094L37.6595 29.85C39.0283 31.3125 39.0095 33.5906 37.622 35.025L30.422 42.45C29.8408 43.0406 29.8595 43.9969 30.4502 44.5687C31.0408 45.1406 31.997 45.1313 32.5689 44.5406L39.7689 37.1156C42.2814 34.5281 42.3095 30.4219 39.8439 27.7969L34.6408 22.2562C32.0908 19.5375 28.5283 18 24.797 18H18.422C13.9127 18 9.6939 20.2594 7.19078 24.0094L2.1564 31.5656C-0.140471 35.0063 1.1814 39.6937 4.94078 41.4375L18.872 47.8688C19.622 48.2156 20.5127 47.8875 20.8595 47.1375C21.2064 46.3875 20.8783 45.4969 20.1283 45.15L6.19703 38.7094C4.1064 37.7437 3.37515 35.1375 4.65015 33.225L9.68453 25.6781ZM18.0002 30C18.0002 29.175 17.3252 28.5 16.5002 28.5C15.6752 28.5 15.0002 29.175 15.0002 30V34.0687C15.0002 34.6312 15.1595 35.1844 15.4595 35.6625C17.9252 39.6094 22.247 42 26.897 42H27.0002C27.8252 42 28.5002 41.325 28.5002 40.5C28.5002 39.675 27.8252 39 27.0002 39H26.897C23.2783 39 19.922 37.1344 18.0002 34.0687V30ZM25.5002 30C25.898 30 26.2795 30.158 26.5608 30.4393C26.8421 30.7206 27.0002 31.1022 27.0002 31.5C27.0002 31.8978 26.8421 32.2794 26.5608 32.5607C26.2795 32.842 25.898 33 25.5002 33C25.1023 33 24.7208 32.842 24.4395 32.5607C24.1582 32.2794 24.0002 31.8978 24.0002 31.5C24.0002 31.1022 24.1582 30.7206 24.4395 30.4393C24.7208 30.158 25.1023 30 25.5002 30ZM25.5002 36C26.6936 36 27.8382 35.5259 28.6821 34.682C29.5261 33.8381 30.0002 32.6935 30.0002 31.5C30.0002 30.3065 29.5261 29.1619 28.6821 28.318C27.8382 27.4741 26.6936 27 25.5002 27C24.3067 27 23.1621 27.4741 22.3182 28.318C21.4743 29.1619 21.0002 30.3065 21.0002 31.5C21.0002 32.6935 21.4743 33.8381 22.3182 34.682C23.1621 35.5259 24.3067 36 25.5002 36Z" fill="#4F3422"/>
</g>
<defs>
<clipPath id="clip0_697_6010">
<rect width="42" height="48" fill="white"/>
</clipPath>
</defs>
</svg>
