<svg width="48" height="48" viewBox="0 0 48 48" fill="none" xmlns="http://www.w3.org/2000/svg">
<path d="M15.0002 6C15.0002 5.20435 14.6841 4.44129 14.1215 3.87868C13.5589 3.31607 12.7959 3 12.0002 3C11.2046 3 10.4415 3.31607 9.87888 3.87868C9.31627 4.44129 9.0002 5.20435 9.0002 6C9.0002 6.79565 9.31627 7.55871 9.87888 8.12132C10.4415 8.68393 11.2046 9 12.0002 9C12.7959 9 13.5589 8.68393 14.1215 8.12132C14.6841 7.55871 15.0002 6.79565 15.0002 6ZM6.0002 6C6.0002 4.4087 6.63234 2.88258 7.75756 1.75736C8.88278 0.632141 10.4089 0 12.0002 0C13.5915 0 15.1176 0.632141 16.2428 1.75736C17.3681 2.88258 18.0002 4.4087 18.0002 6C18.0002 7.5913 17.3681 9.11742 16.2428 10.2426C15.1176 11.3679 13.5915 12 12.0002 12C10.4089 12 8.88278 11.3679 7.75756 10.2426C6.63234 9.11742 6.0002 7.5913 6.0002 6ZM5.41895 22.125L5.03458 26.7469C4.88458 28.5 6.2627 30 8.0252 30H13.6127C13.5471 30.4875 13.5096 30.9937 13.5096 31.5V33H9.0002V46.5C9.0002 47.325 8.3252 48 7.5002 48C6.6752 48 6.0002 47.325 6.0002 46.5V32.6531C3.51583 31.7625 1.80958 29.2969 2.04395 26.5031L2.42833 21.8812C2.74708 17.9906 6.0002 15 9.9002 15H14.1002C14.7565 15 15.394 15.0844 15.994 15.2438C15.8346 15.8906 15.7502 16.5562 15.7502 17.25C15.7502 17.6156 15.7783 17.9813 15.8252 18.3375C15.2908 18.1125 14.7096 18 14.1002 18H9.9002C7.55645 18 5.60645 19.7906 5.41895 22.125ZM39.0002 33H34.5002V31.5C34.5002 30.9937 34.4627 30.4875 34.3971 30H39.9846C41.7377 30 43.1158 28.5 42.9752 26.7469L42.5815 22.125C42.3846 19.7906 40.4346 18 38.1002 18H33.9002C33.2908 18 32.7096 18.1219 32.1752 18.3375C32.2221 17.9813 32.2502 17.6156 32.2502 17.25C32.2502 16.5562 32.1658 15.8813 32.0065 15.2438C32.6158 15.0844 33.2533 15 33.9002 15H38.1002C42.0002 15 45.2533 17.9906 45.5721 21.8812L45.9565 26.5031C46.1908 29.2969 44.4846 31.7625 42.0002 32.6531V46.5C42.0002 47.325 41.3252 48 40.5002 48C39.6752 48 39.0002 47.325 39.0002 46.5V33ZM39.0002 6C39.0002 5.20435 38.6841 4.44129 38.1215 3.87868C37.5589 3.31607 36.7959 3 36.0002 3C35.2046 3 34.4415 3.31607 33.8789 3.87868C33.3163 4.44129 33.0002 5.20435 33.0002 6C33.0002 6.79565 33.3163 7.55871 33.8789 8.12132C34.4415 8.68393 35.2046 9 36.0002 9C36.7959 9 37.5589 8.68393 38.1215 8.12132C38.6841 7.55871 39.0002 6.79565 39.0002 6ZM30.0002 6C30.0002 4.4087 30.6323 2.88258 31.7576 1.75736C32.8828 0.632141 34.4089 0 36.0002 0C37.5915 0 39.1176 0.632141 40.2428 1.75736C41.3681 2.88258 42.0002 4.4087 42.0002 6C42.0002 7.5913 41.3681 9.11742 40.2428 10.2426C39.1176 11.3679 37.5915 12 36.0002 12C34.4089 12 32.8828 11.3679 31.7576 10.2426C30.6323 9.11742 30.0002 7.5913 30.0002 6ZM24.0002 19.5C24.5969 19.5 25.1692 19.2629 25.5912 18.841C26.0132 18.419 26.2502 17.8467 26.2502 17.25C26.2502 16.6533 26.0132 16.081 25.5912 15.659C25.1692 15.2371 24.5969 15 24.0002 15C23.4035 15 22.8312 15.2371 22.4092 15.659C21.9873 16.081 21.7502 16.6533 21.7502 17.25C21.7502 17.8467 21.9873 18.419 22.4092 18.841C22.8312 19.2629 23.4035 19.5 24.0002 19.5ZM24.0002 12C25.3926 12 26.7279 12.5531 27.7125 13.5377C28.6971 14.5223 29.2502 15.8576 29.2502 17.25C29.2502 18.6424 28.6971 19.9777 27.7125 20.9623C26.7279 21.9469 25.3926 22.5 24.0002 22.5C22.6078 22.5 21.2725 21.9469 20.2879 20.9623C19.3033 19.9777 18.7502 18.6424 18.7502 17.25C18.7502 15.8576 19.3033 14.5223 20.2879 13.5377C21.2725 12.5531 22.6078 12 24.0002 12ZM24.0002 27C21.5158 27 19.5002 29.0156 19.5002 31.5V34.5C19.5002 35.325 20.1752 36 21.0002 36H27.0002C27.8252 36 28.5002 35.325 28.5002 34.5V31.5C28.5002 29.0156 26.4846 27 24.0002 27ZM19.5002 38.7469C17.7565 38.1281 16.5002 36.4594 16.5002 34.5V31.5C16.5002 27.3562 19.8565 24 24.0002 24C28.144 24 31.5002 27.3562 31.5002 31.5V34.5C31.5002 36.4594 30.244 38.1281 28.5002 38.7469V46.5C28.5002 47.325 27.8252 48 27.0002 48C26.1752 48 25.5002 47.325 25.5002 46.5V39H22.5002V46.5C22.5002 47.325 21.8252 48 21.0002 48C20.1752 48 19.5002 47.325 19.5002 46.5V38.7469Z" fill="#4F3422"/>
</svg>
