<svg width="60" height="48" viewBox="0 0 60 48" fill="none" xmlns="http://www.w3.org/2000/svg">
<g clip-path="url(#clip0_697_5992)">
<path d="M31.5 4.5C31.5 4.10218 31.342 3.72064 31.0607 3.43934C30.7794 3.15804 30.3978 3 30 3C29.6022 3 29.2206 3.15804 28.9393 3.43934C28.658 3.72064 28.5 4.10218 28.5 4.5C28.5 4.89782 28.658 5.27936 28.9393 5.56066C29.2206 5.84196 29.6022 6 30 6C30.3978 6 30.7794 5.84196 31.0607 5.56066C31.342 5.27936 31.5 4.89782 31.5 4.5ZM25.5 4.5C25.5 3.30653 25.9741 2.16193 26.818 1.31802C27.6619 0.474106 28.8065 0 30 0C31.1935 0 32.3381 0.474106 33.182 1.31802C34.0259 2.16193 34.5 3.30653 34.5 4.5C34.5 5.69347 34.0259 6.83807 33.182 7.68198C32.3381 8.52589 31.1935 9 30 9C28.8065 9 27.6619 8.52589 26.818 7.68198C25.9741 6.83807 25.5 5.69347 25.5 4.5ZM30 13.5C29.7281 13.5 29.4656 13.5187 29.2031 13.5656L28.8562 19.5H31.1438L30.7969 13.5656C30.5344 13.5281 30.2719 13.5 30 13.5ZM28.5 25.5844C28.4531 26.4094 27.7406 27.0469 26.9156 26.9906C26.0906 26.9344 25.4531 26.2313 25.5094 25.4062L26.1094 15.2531L23.5594 17.8125C22.9781 18.4031 22.0219 18.4031 21.4406 17.8125C20.8594 17.2219 20.85 16.275 21.4406 15.6937L24.2156 12.9094C25.7437 11.3625 27.825 10.5 30 10.5C32.175 10.5 34.2563 11.3625 35.7844 12.9L38.5594 15.6844C39.1406 16.275 39.1406 17.2219 38.5594 17.8031C37.9781 18.3844 37.0219 18.3844 36.4406 17.8031L33.9 15.2531L34.5 25.4156C34.5469 26.2406 33.9188 26.9531 33.0938 27C32.2687 27.0469 31.5563 26.4188 31.5094 25.5938L31.3219 22.5H28.6781L28.5 25.5844ZM6 6C9.30937 6 12 8.69063 12 12V23.6531C12 24.0844 12.0375 24.5062 12.1219 24.9187C12.3188 24.6187 12.5531 24.3281 12.8156 24.0656C14.85 22.0313 18.15 22.0313 20.1844 24.0656L28.7438 32.625C29.2219 33.1031 29.6438 33.6188 30 34.1813C30.3562 33.6281 30.7781 33.1031 31.2562 32.625L39.8156 24.0656C41.85 22.0313 45.15 22.0313 47.1844 24.0656C47.4469 24.3281 47.6813 24.6187 47.8781 24.9187C47.9625 24.5062 48 24.0844 48 23.6531V12C48 8.69063 50.6906 6 54 6C57.3094 6 60 8.69063 60 12V32.2688C60 35.0531 58.8938 37.725 56.925 39.6937L49.0594 47.5594C48.4781 48.1406 47.5219 48.1406 46.9406 47.5594C46.3594 46.9781 46.3594 46.0219 46.9406 45.4406L54.8062 37.575C56.2125 36.1687 57 34.2563 57 32.2688V12C57 10.3406 55.6594 9 54 9C52.3406 9 51 10.3406 51 12V23.6531C51 26.1938 49.9875 28.6312 48.1969 30.4219L47.1844 31.4344L43.0594 35.5594L41.5594 37.0594C40.9781 37.6406 40.0219 37.6406 39.4406 37.0594C38.8594 36.4781 38.8594 35.5219 39.4406 34.9406L40.9406 33.4406L45.0656 29.3156C45.9281 28.4531 45.9281 27.0469 45.0656 26.1844C44.2031 25.3219 42.7969 25.3219 41.9344 26.1844L33.375 34.7438C32.175 35.9438 31.5 37.575 31.5 39.2719V46.5C31.5 47.325 30.825 48 30 48C29.175 48 28.5 47.325 28.5 46.5V39.2719C28.5 37.575 27.825 35.9438 26.625 34.7438L18.0656 26.1844C17.2031 25.3219 15.7969 25.3219 14.9344 26.1844C14.0719 27.0469 14.0719 28.4531 14.9344 29.3156L19.0594 33.4406L20.5594 34.9406C21.1406 35.5219 21.1406 36.4781 20.5594 37.0594C19.9781 37.6406 19.0219 37.6406 18.4406 37.0594L16.9406 35.5594L12.8156 31.4344L11.8125 30.4219C10.0125 28.6312 9 26.1938 9 23.6531V12C9 10.3406 7.65938 9 6 9C4.34062 9 3 10.3406 3 12V32.2688C3 34.2563 3.7875 36.1687 5.19375 37.575L13.0594 45.4406C13.6406 46.0219 13.6406 46.9781 13.0594 47.5594C12.4781 48.1406 11.5219 48.1406 10.9406 47.5594L3.075 39.6937C1.10625 37.725 0 35.0531 0 32.2688V12C0 8.69063 2.69063 6 6 6Z" fill="#4F3422"/>
</g>
<defs>
<clipPath id="clip0_697_5992">
<rect width="60" height="48" fill="white"/>
</clipPath>
</defs>
</svg>
