<svg width="60" height="48" viewBox="0 0 60 48" fill="none" xmlns="http://www.w3.org/2000/svg">
<g clip-path="url(#clip0_697_5995)">
<path d="M23.475 0.365625C22.9125 -0.1125 22.0875 -0.1125 21.525 0.365625L0.524992 18.3656C-0.103133 18.9094 -0.178133 19.8563 0.365617 20.4844C0.909367 21.1125 1.85624 21.1875 2.48437 20.6437L5.99999 17.6156V33C5.99999 36.3094 8.69062 39 12 39H32.6812L33.5344 36H33H30H12C10.3406 36 8.99999 34.6594 8.99999 33V15.0469L22.5 3.47812L34.4906 13.7531C35.0344 12.9 35.6719 12.1219 36.4031 11.4375L23.475 0.365625ZM18 18H24V24H18V18ZM17.25 15C16.0031 15 15 16.0031 15 17.25V24.75C15 25.9969 16.0031 27 17.25 27H24.75C25.9969 27 27 25.9969 27 24.75V17.25C27 16.0031 25.9969 15 24.75 15H17.25ZM43.5 5.25C43.5 5.84674 43.2629 6.41903 42.841 6.84099C42.419 7.26295 41.8467 7.5 41.25 7.5C40.6533 7.5 40.081 7.26295 39.659 6.84099C39.237 6.41903 39 5.84674 39 5.25C39 4.65326 39.237 4.08097 39.659 3.65901C40.081 3.23705 40.6533 3 41.25 3C41.8467 3 42.419 3.23705 42.841 3.65901C43.2629 4.08097 43.5 4.65326 43.5 5.25ZM36 5.25C36 5.93944 36.1358 6.62213 36.3996 7.25909C36.6635 7.89605 37.0502 8.4748 37.5377 8.96231C38.0252 9.44982 38.6039 9.83653 39.2409 10.1004C39.8779 10.3642 40.5606 10.5 41.25 10.5C41.9394 10.5 42.6221 10.3642 43.2591 10.1004C43.896 9.83653 44.4748 9.44982 44.9623 8.96231C45.4498 8.4748 45.8365 7.89605 46.1004 7.25909C46.3642 6.62213 46.5 5.93944 46.5 5.25C46.5 4.56056 46.3642 3.87787 46.1004 3.24091C45.8365 2.60395 45.4498 2.0252 44.9623 1.53769C44.4748 1.05018 43.896 0.66347 43.2591 0.399633C42.6221 0.135795 41.9394 0 41.25 0C40.5606 0 39.8779 0.135795 39.2409 0.399633C38.6039 0.66347 38.0252 1.05018 37.5377 1.53769C37.0502 2.0252 36.6635 2.60395 36.3996 3.24091C36.1358 3.87787 36 4.56056 36 5.25ZM48.975 16.1531L50.1656 16.8C52.7437 18.2062 54.6094 20.625 55.3219 23.475L55.5469 24.375C55.7437 25.1813 56.5594 25.6688 57.3656 25.4625C58.1719 25.2563 58.6594 24.45 58.4531 23.6437L58.2281 22.7531C57.3094 19.0969 54.9094 15.9844 51.6 14.175L50.4094 13.5281C48.5906 12.5344 46.5469 12.0094 44.4656 12.0094C41.0062 12.0094 37.9312 14.2219 36.8344 17.5125L35.2312 22.3312C34.9125 23.2781 34.2937 24.0938 33.4594 24.6562L30.675 26.5125C29.9812 26.9719 29.8031 27.9 30.2625 28.5938C30.7219 29.2875 31.65 29.4656 32.3437 29.0062L35.1281 27.15C36.5156 26.2219 37.5562 24.8625 38.0812 23.2781L38.9062 20.8031L42.4406 31.0312L38.3531 34.575C37.9125 34.9594 37.5937 35.4563 37.4344 36.0188L34.5562 46.0875C34.3312 46.8844 34.7906 47.7187 35.5875 47.9437C36.3844 48.1687 37.2187 47.7094 37.4437 46.9125L40.3219 36.8438L49.7531 28.6687C51.1031 27.4969 51.6375 25.6312 51.1031 23.925L48.6094 15.9562C48.7312 16.0125 48.8531 16.0781 48.975 16.1437V16.1531ZM48.2344 24.825C48.4125 25.3969 48.2344 26.0156 47.7844 26.4094L44.8875 28.9219L40.6687 16.7344C41.6062 15.6562 42.9844 15.0094 44.475 15.0094C44.7094 15.0094 44.9437 15.0187 45.1781 15.0375L48.2437 24.8344L48.2344 24.825ZM48.8344 33.1594C48.0937 33.5344 47.7937 34.4344 48.1594 35.175L51.0469 40.9594C51.1875 41.25 51.3844 41.5125 51.6094 41.7375L57.4406 47.5687C58.0219 48.15 58.9781 48.15 59.5594 47.5687C60.1406 46.9875 60.1406 46.0312 59.5594 45.45L53.7281 39.6188L50.8406 33.8344C50.4656 33.0937 49.5656 32.7938 48.825 33.1594H48.8344Z" fill="#4F3422"/>
</g>
<defs>
<clipPath id="clip0_697_5995">
<rect width="60" height="48" fill="white"/>
</clipPath>
</defs>
</svg>
