<svg width="54" height="48" viewBox="0 0 54 48" fill="none" xmlns="http://www.w3.org/2000/svg">
<g clip-path="url(#clip0_697_5998)">
<path d="M13.5 0C17.325 0 20.6625 2.04375 22.5 5.09062C24.3375 2.04375 27.675 0 31.5 0C37.3031 0 42 4.69687 42 10.5C42 16.3031 37.3031 21 31.5 21H13.5C7.69687 21 3 16.3031 3 10.5C3 4.69687 7.69687 0 13.5 0ZM6 10.5C6 14.6438 9.35625 18 13.5 18H31.5C35.6438 18 39 14.6438 39 10.5C39 6.35625 35.6438 3 31.5 3C27.7875 3 24.7031 5.7 24.1031 9.24375C23.9813 9.96562 23.3531 10.5 22.6219 10.5H22.3688C21.6375 10.5 21.0094 9.975 20.8875 9.24375C20.2969 5.7 17.2125 3 13.5 3C9.35625 3 6 6.35625 6 10.5ZM13.5 8.25C13.7955 8.25 14.0881 8.3082 14.361 8.42127C14.634 8.53434 14.8821 8.70008 15.091 8.90901C15.2999 9.11794 15.4657 9.36598 15.5787 9.63896C15.6918 9.91194 15.75 10.2045 15.75 10.5C15.75 10.7955 15.6918 11.0881 15.5787 11.361C15.4657 11.634 15.2999 11.8821 15.091 12.091C14.8821 12.2999 14.634 12.4657 14.361 12.5787C14.0881 12.6918 13.7955 12.75 13.5 12.75C13.2045 12.75 12.9119 12.6918 12.639 12.5787C12.366 12.4657 12.1179 12.2999 11.909 12.091C11.7001 11.8821 11.5343 11.634 11.4213 11.361C11.3082 11.0881 11.25 10.7955 11.25 10.5C11.25 10.2045 11.3082 9.91194 11.4213 9.63896C11.5343 9.36598 11.7001 9.11794 11.909 8.90901C12.1179 8.70008 12.366 8.53434 12.639 8.42127C12.9119 8.3082 13.2045 8.25 13.5 8.25ZM29.25 10.5C29.25 9.90326 29.4871 9.33097 29.909 8.90901C30.331 8.48705 30.9033 8.25 31.5 8.25C32.0967 8.25 32.669 8.48705 33.091 8.90901C33.5129 9.33097 33.75 9.90326 33.75 10.5C33.75 11.0967 33.5129 11.669 33.091 12.091C32.669 12.5129 32.0967 12.75 31.5 12.75C30.9033 12.75 30.331 12.5129 29.909 12.091C29.4871 11.669 29.25 11.0967 29.25 10.5ZM12.75 27H12C10.3406 27 9 28.3406 9 30V42C9 43.6594 10.3406 45 12 45H33C34.6594 45 36 43.6594 36 42V30C36 28.3406 34.6594 27 33 27H12.75ZM12.75 24H33C36.3094 24 39 26.6906 39 30V42C39 45.3094 36.3094 48 33 48H12C8.69063 48 6 45.3094 6 42V30C6 28.9031 6.29062 27.8812 6.80625 27H1.5C0.675 27 0 26.325 0 25.5C0 24.675 0.675 24 1.5 24H12H12.75ZM42 41.3344L50.0063 44.9344C50.1 44.9719 50.1937 45 50.2969 45C50.6906 45 51 44.6812 51 44.2969V27.3656C51 27.0656 50.7281 26.8406 50.4375 26.8875C50.4 26.8969 50.3531 26.9063 50.3156 26.925L42 30.6656V27.375L49.0875 24.1875C49.3594 24.0656 49.65 23.9812 49.9406 23.925C52.0594 23.5687 54 25.2094 54 27.3562V44.2969C54 46.3406 52.3406 48 50.2969 48C49.7719 48 49.2562 47.8875 48.7781 47.6719L42 44.625V41.3344Z" fill="#4F3422"/>
</g>
<defs>
<clipPath id="clip0_697_5998">
<rect width="54" height="48" fill="white"/>
</clipPath>
</defs>
</svg>
