<svg width="48" height="48" viewBox="0 0 48 48" fill="none" xmlns="http://www.w3.org/2000/svg">
<g clip-path="url(#clip0_697_6001)">
<path d="M3.75004 2.99992C3.75004 2.40318 3.98709 1.83088 4.40905 1.40893C4.83101 0.986971 5.4033 0.749918 6.00004 0.749918C6.59678 0.749918 7.16907 0.986971 7.59103 1.40893C8.01299 1.83088 8.25004 2.40318 8.25004 2.99992C8.25004 3.59666 8.01299 4.16895 7.59103 4.59091C7.16907 5.01287 6.59678 5.24992 6.00004 5.24992C5.4033 5.24992 4.83101 5.01287 4.40905 4.59091C3.98709 4.16895 3.75004 3.59666 3.75004 2.99992ZM42.75 14.9999C42.75 14.4032 42.9871 13.8309 43.4091 13.4089C43.831 12.987 44.4033 12.7499 45 12.7499C45.5968 12.7499 46.1691 12.987 46.591 13.4089C47.013 13.8309 47.25 14.4032 47.25 14.9999C47.25 15.5967 47.013 16.169 46.591 16.5909C46.1691 17.0129 45.5968 17.2499 45 17.2499C44.4033 17.2499 43.831 17.0129 43.4091 16.5909C42.9871 16.169 42.75 15.5967 42.75 14.9999ZM45 39.7499C45.5968 39.7499 46.1691 39.987 46.591 40.4089C47.013 40.8309 47.25 41.4032 47.25 41.9999C47.25 42.5967 47.013 43.1689 46.591 43.5909C46.1691 44.0129 45.5968 44.2499 45 44.2499C44.4033 44.2499 43.831 44.0129 43.4091 43.5909C42.9871 43.1689 42.75 42.5967 42.75 41.9999C42.75 41.4032 42.9871 40.8309 43.4091 40.4089C43.831 39.987 44.4033 39.7499 45 39.7499ZM16.1907 13.8093C15.6094 13.228 15.6094 12.2718 16.1907 11.6905L16.9688 10.9124C18.6563 9.22492 19.7157 7.01242 19.9782 4.64992L20.2594 2.08117C20.3532 1.25617 21.0938 0.665543 21.9188 0.759293C22.7438 0.853043 23.3344 1.59367 23.2407 2.41867L22.9594 4.98742C22.6219 8.03429 21.2532 10.8749 19.0875 13.0405L18.3094 13.8187C17.7282 14.3999 16.7719 14.3999 16.1907 13.8187V13.8093ZM34.1907 29.6905L34.9688 28.9124C37.1344 26.7468 39.975 25.378 43.0219 25.0405L45.5907 24.7593C46.4157 24.6655 47.1563 25.2655 47.25 26.0812C47.3438 26.8968 46.7438 27.6468 45.9282 27.7405L43.3594 28.0218C40.9875 28.2843 38.7844 29.3437 37.0969 31.0312L36.3282 31.7999C35.7469 32.3812 34.7907 32.3812 34.2094 31.7999C33.6282 31.2187 33.6282 30.2624 34.2094 29.6812L34.1907 29.6905ZM46.8938 1.28429C47.4282 1.91242 47.3532 2.85929 46.7157 3.39367L45.7782 4.19054C44.5313 5.24054 42.9469 5.80304 41.3157 5.75617C39.3469 5.69992 37.6969 7.21867 37.5844 9.17804L37.4157 11.9905C37.2094 15.5718 34.1907 18.3374 30.6094 18.2343C29.7188 18.2062 28.8469 18.5155 28.1625 19.0968L27.225 19.8937C26.5969 20.428 25.65 20.353 25.1157 19.7155C24.5813 19.078 24.6563 18.1405 25.2938 17.6062L26.2313 16.8093C27.4782 15.7593 29.0719 15.1968 30.7032 15.2437C32.6719 15.2999 34.3219 13.7812 34.4344 11.8218L34.6032 9.00929C34.8094 5.42804 37.8282 2.66242 41.4094 2.76554C42.3 2.79367 43.1719 2.48429 43.8563 1.90304L44.7938 1.10617C45.4219 0.571793 46.3688 0.646793 46.9125 1.28429H46.8938ZM3.00942 44.9624L3.01879 44.9718L3.02817 44.9812L10.1719 42.2999L5.69067 37.8187L3.00942 44.9624ZM18.9094 39.0374L8.96254 29.0905L6.84379 34.753C6.91879 34.8093 6.99379 34.8655 7.05942 34.9312L13.0594 40.9312C13.125 40.9968 13.1907 41.0718 13.2469 41.1562L18.9188 39.028L18.9094 39.0374ZM22.0032 37.8749L27 35.9999C27 35.9905 27 35.9905 27.0094 35.9812C27.0188 35.9718 27.0094 35.9718 27.0094 35.9624L12.0282 20.9999C12.0188 20.9999 12.0188 20.9999 12.0094 20.9999C12 20.9999 12 20.9999 11.9907 21.0093L10.1157 26.0062L22.0032 37.8749ZM9.19691 19.9312C9.94691 17.9249 12.6094 17.3437 14.1282 18.8624L29.1469 33.8718C30.6657 35.3905 30.0844 38.053 28.0782 38.803L4.05942 47.8124C1.68754 48.6937 -0.69371 46.3124 0.18754 43.9499L9.19691 19.9312Z" fill="#4F3422"/>
</g>
<defs>
<clipPath id="clip0_697_6001">
<rect width="48" height="48" fill="white"/>
</clipPath>
</defs>
</svg>
