<svg width="60" height="48" viewBox="0 0 60 48" fill="none" xmlns="http://www.w3.org/2000/svg">
<g clip-path="url(#clip0_697_6004)">
<path d="M21.75 38.9812C19.3875 35.5875 18 31.4531 18 27C18 17.7094 24.0281 9.83438 32.3906 7.05938C29.2875 4.51875 25.3219 3 21 3C11.0625 3 3 11.0625 3 21C3 30.9375 11.0625 39 21 39C21.2531 39 21.5063 38.9906 21.75 38.9812ZM25.1625 38.5125C33.0937 36.6375 39 29.5031 39 21C39 16.6219 37.4344 12.6094 34.8375 9.4875C26.9063 11.3625 21 18.4969 21 27C21 31.3781 22.5656 35.3906 25.1625 38.5125ZM24.075 41.775C23.0719 41.925 22.0406 42 21 42C9.40313 42 0 32.5969 0 21C0 9.40313 9.40313 0 21 0C26.8406 0 32.1188 2.38125 35.925 6.225C36.9281 6.075 37.95 6 39 6C50.5969 6 60 15.4031 60 27C60 38.5969 50.5969 48 39 48C33.1594 48 27.8812 45.6188 24.075 41.775ZM38.25 9.01875C40.6125 12.4219 42 16.5469 42 21C42 30.2906 35.9719 38.1656 27.6094 40.9406C30.7125 43.4813 34.6781 45 39 45C48.9375 45 57 36.9375 57 27C57 17.0625 48.9375 9 39 9C38.7469 9 38.4937 9.00937 38.25 9.01875Z" fill="#4F3422"/>
</g>
<defs>
<clipPath id="clip0_697_6004">
<rect width="60" height="48" fill="white"/>
</clipPath>
</defs>
</svg>
