<svg width="48" height="48" viewBox="0 0 48 48" fill="none" xmlns="http://www.w3.org/2000/svg">
<path d="M40.9592 4.91274L32.1279 13.7534C29.9061 11.1846 28.2842 8.07212 27.5154 4.64087C31.3779 4.14399 35.8311 4.19087 40.9686 4.91274H40.9592ZM24.5529 5.15649C25.4436 9.20649 27.3467 12.8815 29.9998 15.8815L23.9998 21.8815L12.9748 10.8565C15.0561 8.99087 17.5779 7.42524 20.6248 6.29087C21.8436 5.84087 23.1561 5.45649 24.5529 5.14712V5.15649ZM10.8842 13.0127L21.8811 24.0002L15.8811 30.0002C12.9186 27.3846 9.29981 25.4909 5.31543 24.5909C6.01856 21.5721 7.12481 18.6377 8.75606 15.9659C9.38418 14.9346 10.0967 13.9409 10.8936 13.0034L10.8842 13.0127ZM4.74356 27.544C8.12793 28.3315 11.2029 29.9252 13.7436 32.1284L4.89356 40.9877C4.24668 36.9752 4.05918 32.2502 4.75293 27.544H4.74356ZM7.03106 43.0877L15.8717 34.2471C18.0936 36.8159 19.7154 39.9284 20.4842 43.3596C16.6217 43.8565 12.1686 43.8096 7.03106 43.0877ZM23.4373 42.8534C22.5467 38.8034 20.6436 35.1284 17.9904 32.1284L23.9904 26.1284L35.0248 37.144C32.9436 39.0096 30.4217 40.5752 27.3748 41.7096C26.1561 42.1596 24.8436 42.544 23.4467 42.8534H23.4373ZM37.1061 34.9971L26.1186 24.0002L32.1186 18.0002C35.0811 20.6159 38.6998 22.5096 42.6936 23.4096C41.9904 26.4284 40.8842 29.3627 39.2529 32.0346C38.6248 33.0659 37.9123 34.0596 37.1154 34.9971H37.1061ZM43.2467 20.4659C39.8623 19.6784 36.7873 18.0752 34.2467 15.8815L43.1061 7.02212C43.7529 11.0346 43.9404 15.7596 43.2467 20.4659ZM43.2654 2.24087C33.5248 0.609619 25.7342 1.20962 19.5842 3.48774C13.3967 5.77524 9.06543 9.71274 6.18731 14.4002C0.543557 23.6065 0.646683 35.4659 2.28731 43.4159C2.54043 44.6252 3.50606 45.5627 4.73418 45.769C14.4748 47.4002 22.2654 46.8002 28.4154 44.5221C34.6029 42.2252 38.9342 38.2877 41.8123 33.6002C47.4561 24.394 47.3529 12.5346 45.7123 4.58462C45.4592 3.37524 44.4936 2.43774 43.2654 2.23149V2.24087Z" fill="#4F3422"/>
</svg>
