<svg width="60" height="48" viewBox="0 0 60 48" fill="none" xmlns="http://www.w3.org/2000/svg">
<g clip-path="url(#clip0_698_6352)">
<path d="M16.5002 5.25C16.5002 4.95453 16.5584 4.66194 16.6715 4.38896C16.7845 4.11598 16.9503 3.86794 17.1592 3.65901C17.3681 3.45008 17.6162 3.28434 17.8892 3.17127C18.1621 3.0582 18.4547 3 18.7502 3C19.0457 3 19.3383 3.0582 19.6112 3.17127C19.8842 3.28434 20.1323 3.45008 20.3412 3.65901C20.5501 3.86794 20.7159 4.11598 20.8289 4.38896C20.942 4.66194 21.0002 4.95453 21.0002 5.25C21.0002 5.54547 20.942 5.83806 20.8289 6.11104C20.7159 6.38402 20.5501 6.63206 20.3412 6.84099C20.1323 7.04992 19.8842 7.21566 19.6112 7.32873C19.3383 7.4418 19.0457 7.5 18.7502 7.5C18.4547 7.5 18.1621 7.4418 17.8892 7.32873C17.6162 7.21566 17.3681 7.04992 17.1592 6.84099C16.9503 6.63206 16.7845 6.38402 16.6715 6.11104C16.5584 5.83806 16.5002 5.54547 16.5002 5.25ZM24.0002 5.25C24.0002 3.85761 23.4471 2.52226 22.4625 1.53769C21.4779 0.553123 20.1426 0 18.7502 0C17.3578 0 16.0225 0.553123 15.0379 1.53769C14.0533 2.52226 13.5002 3.85761 13.5002 5.25C13.5002 6.64239 14.0533 7.97774 15.0379 8.96231C16.0225 9.94688 17.3578 10.5 18.7502 10.5C20.1426 10.5 21.4779 9.94688 22.4625 8.96231C23.4471 7.97774 24.0002 6.64239 24.0002 5.25ZM11.0252 16.1531C11.1471 16.0875 11.2689 16.0219 11.3908 15.9656L8.90645 23.925C8.37207 25.6312 8.90645 27.4969 10.2564 28.6687L19.6783 36.8438L22.5564 46.9125C22.7814 47.7094 23.6158 48.1687 24.4127 47.9437C25.2096 47.7187 25.6689 46.8844 25.4439 46.0875L22.5658 36.0188C22.4064 35.4563 22.0877 34.9594 21.6471 34.575L17.5596 31.0312L21.1033 20.7938L21.9283 23.2687C22.4533 24.8531 23.4939 26.2125 24.8814 27.1406L27.6658 28.9969C28.3596 29.4562 29.2877 29.2687 29.7471 28.5844C30.2064 27.9 30.0189 26.9625 29.3346 26.5031L26.5502 24.6469C25.7158 24.0937 25.0971 23.2781 24.7783 22.3219L23.1752 17.5031C22.0783 14.2219 19.0033 12 15.5439 12C13.4721 12 11.4283 12.525 9.6002 13.5187L8.40957 14.1656C5.10019 15.975 2.69082 19.0781 1.78145 22.7438L1.55645 23.6344C1.35957 24.4406 1.84707 25.2563 2.64395 25.4531C3.44082 25.65 4.26582 25.1625 4.4627 24.3656L4.6877 23.4656C5.4002 20.6156 7.26582 18.1969 9.84395 16.7906L11.0346 16.1437L11.0252 16.1531ZM11.7658 24.825L14.8314 15.0281C15.0658 15.0094 15.3002 15 15.5346 15C17.0252 15 18.3939 15.6562 19.3408 16.725L15.1221 28.9125L12.2252 26.4C11.7752 26.0063 11.5971 25.3875 11.7752 24.8156L11.7658 24.825ZM11.1658 33.1594C10.4252 32.7844 9.52519 33.0937 9.15019 33.8344L6.27207 39.6094L0.44082 45.4406C-0.14043 46.0219 -0.14043 46.9781 0.44082 47.5594C1.02207 48.1406 1.97832 48.1406 2.55957 47.5594L8.39082 41.7281C8.61582 41.5031 8.8127 41.2406 8.95332 40.95L11.8408 35.1656C12.2158 34.425 11.9064 33.525 11.1658 33.15V33.1594ZM39.0002 1.5C39.0002 0.675 38.3252 0 37.5002 0C36.6752 0 36.0002 0.675 36.0002 1.5V7.5C36.0002 8.325 36.6752 9 37.5002 9C38.3252 9 39.0002 8.325 39.0002 7.5V1.5ZM50.4564 15.3469C49.8189 14.8125 48.8721 14.9062 48.3471 15.5344C47.8221 16.1625 47.9064 17.1187 48.5346 17.6437L54.3564 22.5H36.0002C35.1752 22.5 34.5002 23.175 34.5002 24C34.5002 24.825 35.1752 25.5 36.0002 25.5H54.3564L48.5346 30.3469C47.8971 30.8813 47.8127 31.8188 48.3471 32.4563C48.8814 33.0938 49.8189 33.1781 50.4564 32.6438L59.4564 25.1438C59.7939 24.8625 60.0002 24.4406 60.0002 23.9906C60.0002 23.5406 59.8033 23.1188 59.4564 22.8375L50.4564 15.3375V15.3469ZM37.5002 12C36.6752 12 36.0002 12.675 36.0002 13.5V16.5C36.0002 17.325 36.6752 18 37.5002 18C38.3252 18 39.0002 17.325 39.0002 16.5V13.5C39.0002 12.675 38.3252 12 37.5002 12ZM39.0002 31.5C39.0002 30.675 38.3252 30 37.5002 30C36.6752 30 36.0002 30.675 36.0002 31.5V34.5C36.0002 35.325 36.6752 36 37.5002 36C38.3252 36 39.0002 35.325 39.0002 34.5V31.5ZM37.5002 39C36.6752 39 36.0002 39.675 36.0002 40.5V46.5C36.0002 47.325 36.6752 48 37.5002 48C38.3252 48 39.0002 47.325 39.0002 46.5V40.5C39.0002 39.675 38.3252 39 37.5002 39Z" fill="#4F3422"/>
</g>
<defs>
<clipPath id="clip0_698_6352">
<rect width="60" height="48" fill="white"/>
</clipPath>
</defs>
</svg>
