<svg width="48" height="48" viewBox="0 0 48 48" fill="none" xmlns="http://www.w3.org/2000/svg">
<g clip-path="url(#clip0_698_6334)">
<path d="M32.7189 3C36.047 3 39.1876 4.14375 41.522 6.47812C43.8564 8.8125 45.0001 11.9531 45.0001 15.2812C45.0001 19.5094 43.1626 24.0375 39.6001 27.6C33.2157 33.9844 23.7657 34.8094 18.4782 29.5219C16.1439 27.1875 15.0001 24.0469 15.0001 20.7188C15.0001 16.4906 16.8376 11.9625 20.4001 8.4C23.9626 4.8375 28.4907 3 32.7189 3ZM32.7189 0C27.6376 0 22.3595 2.19375 18.2813 6.27188C14.2032 10.35 12.0001 15.6281 12.0095 20.7094C12.0095 23.3531 12.6095 25.9594 13.8563 28.275C14.5876 29.625 14.5313 31.35 13.4438 32.4375L12.3188 33.5625L11.8782 33.1219C10.7063 31.95 8.80322 31.95 7.63135 33.1219L0.881348 39.8719C-0.290527 41.0437 -0.290527 42.9469 0.881348 44.1188L3.88135 47.1188C5.05322 48.2906 6.95635 48.2906 8.12822 47.1188L14.8782 40.3688C16.0501 39.1969 16.0501 37.2937 14.8782 36.1219L14.4376 35.6813L15.5532 34.5656C16.6407 33.4781 18.3657 33.4219 19.7157 34.1625C26.5126 37.8562 35.6439 35.8031 41.7189 29.7188C45.8064 25.6313 48.0001 20.3625 47.9907 15.2812C47.9907 11.2688 46.6032 7.32188 43.6314 4.35C40.6595 1.37813 36.7314 0 32.7189 0ZM9.7501 35.25L12.7501 38.25L6.0001 45L3.0001 42L9.7501 35.25Z" fill="#4F3422"/>
</g>
<defs>
<clipPath id="clip0_698_6334">
<rect width="48" height="48" fill="white"/>
</clipPath>
</defs>
</svg>
