<svg width="60" height="48" viewBox="0 0 60 48" fill="none" xmlns="http://www.w3.org/2000/svg">
<g clip-path="url(#clip0_698_6349)">
<path d="M16.5 0C16.4156 0 16.3313 0.009375 16.2469 0.01875C12.675 0.24375 9.45 2.27812 7.70625 5.4375L1.48125 16.7625C0.515625 18.5344 0 20.5219 0 22.5375V34.5C0 36.9844 2.01562 39 4.5 39H7.5C9.98438 39 12 36.9844 12 34.5V27V22.5375L15 17.0812V27H18V11.3625C18 10.7344 17.6063 10.1719 17.025 9.95625C16.4438 9.74062 15.7781 9.90937 15.3656 10.3781C15.1875 10.5844 15.0281 10.8094 14.8875 11.0625L9.375 21.0938C9.13125 21.5344 9 22.0312 9 22.5375V34.5C9 35.325 8.325 36 7.5 36H4.5C3.675 36 3 35.325 3 34.5V22.5375C3 21.0187 3.38438 19.5281 4.11563 18.1969L10.3406 6.88125C11.6063 4.59375 13.9687 3.12187 16.5656 3.00937C16.6031 3.00937 16.6313 3.00938 16.6688 3H21.5719L28.3219 16.5L23.0719 27H26.4281L31.3406 17.175L38.4281 3H43.3313C43.3688 3 43.3969 3.00937 43.4344 3.00937C46.0312 3.13125 48.4031 4.59375 49.6594 6.89062L55.8844 18.2062C56.6156 19.5375 57 21.0281 57 22.5469V34.5C57 35.325 56.325 36 55.5 36H52.5C51.675 36 51 35.325 51 34.5V22.5375C51 22.0312 50.8687 21.5344 50.625 21.0938L45.1125 11.0625C44.9813 10.8188 44.8219 10.5844 44.6438 10.3781C44.2313 9.9 43.575 9.73125 42.9844 9.95625C42.3937 10.1812 42.0094 10.7344 42.0094 11.3625V27H45.0094V17.0906L48.0094 22.5469V27V34.5C48.0094 36.9844 50.025 39 52.5094 39H55.5094C57.9937 39 60.0094 36.9844 60.0094 34.5V22.5375C60.0094 20.5125 59.5031 18.525 58.5281 16.7531L52.2937 5.4375C50.5594 2.27812 47.325 0.24375 43.7531 0.01875C43.6688 0.009375 43.5844 0 43.5 0H37.5H22.5L16.5 0ZM24.9281 3H35.0719L30 13.1437L24.9281 3ZM42 36V42.75C42 43.9969 40.9969 45 39.75 45H20.25C19.0031 45 18 43.9969 18 42.75V36H15V42.75C15 45.6469 17.3531 48 20.25 48H39.75C42.6469 48 45 45.6469 45 42.75V36H42ZM13.5 31.5C13.5 32.325 14.175 33 15 33H27.1969L22.7531 39.6656C22.2937 40.3594 22.4813 41.2875 23.1656 41.7469C23.85 42.2062 24.7875 42.0187 25.2469 41.3344L30 34.2094L34.7531 41.3344C35.2125 42.0281 36.1406 42.2062 36.8344 41.7469C37.5281 41.2875 37.7062 40.3594 37.2469 39.6656L32.8031 33H45C45.825 33 46.5 32.325 46.5 31.5C46.5 30.675 45.825 30 45 30H30H15C14.175 30 13.5 30.675 13.5 31.5Z" fill="#4F3422"/>
</g>
<defs>
<clipPath id="clip0_698_6349">
<rect width="60" height="48" fill="white"/>
</clipPath>
</defs>
</svg>
