<svg width="42" height="48" viewBox="0 0 42 48" fill="none" xmlns="http://www.w3.org/2000/svg">
<path d="M36 6C37.6594 6 39 7.34062 39 9V39C39 40.6594 37.6594 42 36 42H6C4.34062 42 3 40.6594 3 39V9C3 7.34062 4.34062 6 6 6H36ZM6 3C2.69063 3 0 5.69063 0 9V39C0 42.3094 2.69063 45 6 45H36C39.3094 45 42 42.3094 42 39V9C42 5.69063 39.3094 3 36 3H6ZM14.25 15C14.25 14.4033 14.0129 13.831 13.591 13.409C13.169 12.9871 12.5967 12.75 12 12.75C11.4033 12.75 10.831 12.9871 10.409 13.409C9.98705 13.831 9.75 14.4033 9.75 15C9.75 15.5967 9.98705 16.169 10.409 16.591C10.831 17.0129 11.4033 17.25 12 17.25C12.5967 17.25 13.169 17.0129 13.591 16.591C14.0129 16.169 14.25 15.5967 14.25 15ZM12 26.25C12.5967 26.25 13.169 26.0129 13.591 25.591C14.0129 25.169 14.25 24.5967 14.25 24C14.25 23.4033 14.0129 22.831 13.591 22.409C13.169 21.9871 12.5967 21.75 12 21.75C11.4033 21.75 10.831 21.9871 10.409 22.409C9.98705 22.831 9.75 23.4033 9.75 24C9.75 24.5967 9.98705 25.169 10.409 25.591C10.831 26.0129 11.4033 26.25 12 26.25ZM27.75 15C27.75 15.5967 27.9871 16.169 28.409 16.591C28.831 17.0129 29.4033 17.25 30 17.25C30.5967 17.25 31.169 17.0129 31.591 16.591C32.0129 16.169 32.25 15.5967 32.25 15C32.25 14.4033 32.0129 13.831 31.591 13.409C31.169 12.9871 30.5967 12.75 30 12.75C29.4033 12.75 28.831 12.9871 28.409 13.409C27.9871 13.831 27.75 14.4033 27.75 15ZM30 26.25C30.5967 26.25 31.169 26.0129 31.591 25.591C32.0129 25.169 32.25 24.5967 32.25 24C32.25 23.4033 32.0129 22.831 31.591 22.409C31.169 21.9871 30.5967 21.75 30 21.75C29.4033 21.75 28.831 21.9871 28.409 22.409C27.9871 22.831 27.75 23.4033 27.75 24C27.75 24.5967 27.9871 25.169 28.409 25.591C28.831 26.0129 29.4033 26.25 30 26.25ZM32.25 33C32.25 32.4033 32.0129 31.831 31.591 31.409C31.169 30.9871 30.5967 30.75 30 30.75C29.4033 30.75 28.831 30.9871 28.409 31.409C27.9871 31.831 27.75 32.4033 27.75 33C27.75 33.5967 27.9871 34.169 28.409 34.591C28.831 35.0129 29.4033 35.25 30 35.25C30.5967 35.25 31.169 35.0129 31.591 34.591C32.0129 34.169 32.25 33.5967 32.25 33ZM12 35.25C12.5967 35.25 13.169 35.0129 13.591 34.591C14.0129 34.169 14.25 33.5967 14.25 33C14.25 32.4033 14.0129 31.831 13.591 31.409C13.169 30.9871 12.5967 30.75 12 30.75C11.4033 30.75 10.831 30.9871 10.409 31.409C9.98705 31.831 9.75 32.4033 9.75 33C9.75 33.5967 9.98705 34.169 10.409 34.591C10.831 35.0129 11.4033 35.25 12 35.25Z" fill="#4F3422"/>
</svg>
