<svg width="60" height="48" viewBox="0 0 60 48" fill="none" xmlns="http://www.w3.org/2000/svg">
<g clip-path="url(#clip0_698_6328)">
<path d="M36.75 3C37.0455 3 37.3381 3.0582 37.611 3.17127C37.884 3.28434 38.1321 3.45008 38.341 3.65901C38.5499 3.86794 38.7157 4.11598 38.8287 4.38896C38.9418 4.66194 39 4.95453 39 5.25C39 5.54547 38.9418 5.83806 38.8287 6.11104C38.7157 6.38402 38.5499 6.63206 38.341 6.84099C38.1321 7.04992 37.884 7.21566 37.611 7.32873C37.3381 7.4418 37.0455 7.5 36.75 7.5C36.4545 7.5 36.1619 7.4418 35.889 7.32873C35.616 7.21566 35.3679 7.04992 35.159 6.84099C34.9501 6.63206 34.7843 6.38402 34.6713 6.11104C34.5582 5.83806 34.5 5.54547 34.5 5.25C34.5 4.95453 34.5582 4.66194 34.6713 4.38896C34.7843 4.11598 34.9501 3.86794 35.159 3.65901C35.3679 3.45008 35.616 3.28434 35.889 3.17127C36.1619 3.0582 36.4545 3 36.75 3ZM36.75 10.5C38.1424 10.5 39.4777 9.94688 40.4623 8.96231C41.4469 7.97774 42 6.64239 42 5.25C42 3.85761 41.4469 2.52226 40.4623 1.53769C39.4777 0.553123 38.1424 0 36.75 0C35.3576 0 34.0223 0.553123 33.0377 1.53769C32.0531 2.52226 31.5 3.85761 31.5 5.25C31.5 6.64239 32.0531 7.97774 33.0377 8.96231C34.0223 9.94688 35.3576 10.5 36.75 10.5ZM21 36C21 37.1819 20.7672 38.3522 20.3149 39.4442C19.8626 40.5361 19.1997 41.5282 18.364 42.364C17.5282 43.1997 16.5361 43.8626 15.4442 44.3149C14.3522 44.7672 13.1819 45 12 45C10.8181 45 9.64778 44.7672 8.55585 44.3149C7.46392 43.8626 6.47177 43.1997 5.63604 42.364C4.80031 41.5282 4.13738 40.5361 3.68508 39.4442C3.23279 38.3522 3 37.1819 3 36C3 34.8181 3.23279 33.6478 3.68508 32.5558C4.13738 31.4639 4.80031 30.4718 5.63604 29.636C6.47177 28.8003 7.46392 28.1374 8.55585 27.6851C9.64778 27.2328 10.8181 27 12 27C13.1819 27 14.3522 27.2328 15.4442 27.6851C16.5361 28.1374 17.5282 28.8003 18.364 29.636C19.1997 30.4718 19.8626 31.4639 20.3149 32.5558C20.7672 33.6478 21 34.8181 21 36ZM12 24C8.8174 24 5.76516 25.2643 3.51472 27.5147C1.26428 29.7652 0 32.8174 0 36C0 39.1826 1.26428 42.2348 3.51472 44.4853C5.76516 46.7357 8.8174 48 12 48C15.1826 48 18.2348 46.7357 20.4853 44.4853C22.7357 42.2348 24 39.1826 24 36C24 32.8174 22.7357 29.7652 20.4853 27.5147C18.2348 25.2643 15.1826 24 12 24ZM57 36C57 38.3869 56.0518 40.6761 54.364 42.364C52.6761 44.0518 50.3869 45 48 45C45.6131 45 43.3239 44.0518 41.636 42.364C39.9482 40.6761 39 38.3869 39 36C39 33.6131 39.9482 31.3239 41.636 29.636C43.3239 27.9482 45.6131 27 48 27C50.3869 27 52.6761 27.9482 54.364 29.636C56.0518 31.3239 57 33.6131 57 36ZM48 24C44.8174 24 41.7652 25.2643 39.5147 27.5147C37.2643 29.7652 36 32.8174 36 36C36 39.1826 37.2643 42.2348 39.5147 44.4853C41.7652 46.7357 44.8174 48 48 48C51.1826 48 54.2348 46.7357 56.4853 44.4853C58.7357 42.2348 60 39.1826 60 36C60 32.8174 58.7357 29.7652 56.4853 27.5147C54.2348 25.2643 51.1826 24 48 24ZM28.9781 15.6C29.55 15.1125 30.3938 15.1219 30.9563 15.6281L36.4969 20.6156C36.7687 20.8594 37.1344 21 37.5 21H45C45.825 21 46.5 20.325 46.5 19.5C46.5 18.675 45.825 18 45 18H38.0719L32.9625 13.3969C31.2844 11.8875 28.7437 11.85 27.0281 13.3219L21.4875 18.0656C19.2469 19.9875 19.4344 23.5125 21.8625 25.1906L30 30.7875V39C30 39.825 30.675 40.5 31.5 40.5C32.325 40.5 33 39.825 33 39V30C33 29.5031 32.7563 29.0437 32.3531 28.7625L23.5687 22.725C22.7531 22.1625 22.6969 20.9906 23.4469 20.3531L28.9875 15.6094L28.9781 15.6Z" fill="#4F3422"/>
</g>
<defs>
<clipPath id="clip0_698_6328">
<rect width="60" height="48" fill="white"/>
</clipPath>
</defs>
</svg>
