<svg width="48" height="48" viewBox="0 0 48 48" fill="none" xmlns="http://www.w3.org/2000/svg">
<g clip-path="url(#clip0_698_6364)">
<path d="M28.0594 44.6062C28.0687 44.5312 28.0781 44.4469 28.0969 44.3625L30.1312 36.3187C30.2719 35.7656 30.2625 35.1563 29.925 34.6969L29.5594 34.2C28.9406 33.3469 27.825 33.0563 26.7656 33.0563H21.225C20.1656 33.0563 19.0594 33.3469 18.4313 34.2L18.0656 34.6969C17.7281 35.1563 17.7188 35.7656 17.8594 36.3187L19.8937 44.3625C19.9125 44.4469 19.9313 44.5219 19.9313 44.6062C21.2438 44.8594 22.6031 45 23.9906 45C25.3781 45 26.7375 44.8687 28.05 44.6062H28.0594ZM31.3688 43.6687C34.9594 42.3281 38.0813 40.0313 40.425 37.0875L33.6281 36.6375C33.4969 36.6281 33.3656 36.6656 33.2531 36.75C33.1406 36.8344 33.0656 36.9469 33.0375 37.0687L31.3688 43.6781V43.6687ZM42.3469 34.2281C43.65 31.8938 44.5219 29.2875 44.85 26.5125C44.775 26.4844 44.7094 26.4469 44.6344 26.4L37.6125 21.9844C37.1344 21.6844 36.5531 21.5062 36.0094 21.675L35.4187 21.8625C34.4156 22.1906 33.7969 23.1563 33.4688 24.1594L31.7625 29.4375C31.4344 30.4406 31.3688 31.5844 31.9875 32.4375L32.3531 32.9344C32.6906 33.3937 33.2625 33.5906 33.8344 33.6281L42.1125 34.1813C42.1969 34.1906 42.2719 34.2 42.3562 34.2188L42.3469 34.2281ZM44.9812 23.0719C44.8125 19.1438 43.5656 15.5063 41.5219 12.4219L38.9906 18.75C38.9437 18.8719 38.9344 19.0031 38.9719 19.1344V19.1437V19.1531C39.0188 19.275 39.0938 19.3781 39.2063 19.4531L44.9719 23.0812L44.9812 23.0719ZM39.3938 9.7125C37.5469 7.725 35.325 6.09375 32.8313 4.94063C32.775 4.99688 32.7187 5.0625 32.6531 5.10938L26.2781 10.4156C25.8375 10.7812 25.4906 11.2781 25.4906 11.85V12.4688C25.4906 13.5187 26.2219 14.4094 27.075 15.0281L31.5656 18.2906C32.4188 18.9094 33.4875 19.3312 34.4906 19.0031L35.0813 18.8156C35.625 18.6375 35.9906 18.15 36.1969 17.625L39.2812 9.92813C39.3094 9.85313 39.3469 9.77812 39.3844 9.7125H39.3938ZM29.5969 3.75937C27.8156 3.2625 25.9313 3 24 3C22.0687 3 20.1844 3.2625 18.4031 3.75937L23.6344 8.11875C23.7375 8.20312 23.8688 8.25 24 8.25C24.1312 8.25 24.2625 8.20312 24.3656 8.11875L29.5969 3.75937ZM15.1594 4.95C12.6656 6.10312 10.4437 7.73437 8.59687 9.72187C8.63437 9.7875 8.67188 9.8625 8.7 9.9375L11.7938 17.625C12.0094 18.15 12.375 18.6375 12.9094 18.8156L13.5 19.0031C14.5031 19.3312 15.5719 18.9094 16.425 18.2906L20.9156 15.0281C21.7688 14.4094 22.5 13.5187 22.5 12.4688V11.85C22.5 11.2781 22.1531 10.7812 21.7125 10.4156L15.3375 5.10938C15.2719 5.05312 15.2156 4.99688 15.1594 4.94063V4.95ZM6.47812 12.4219C4.44375 15.4969 3.1875 19.1438 3.01875 23.0719L8.78437 19.4437C8.89687 19.3781 8.98125 19.2656 9.01875 19.1437V19.1344V19.125C9.05625 19.0031 9.05625 18.8625 9 18.7406L6.46875 12.4219H6.47812ZM3.15 26.5125C3.47812 29.2875 4.35 31.8938 5.65312 34.2281C5.72812 34.2094 5.8125 34.2 5.89688 34.1906L14.175 33.6375C14.7469 33.6 15.3188 33.4031 15.6562 32.9437L16.0219 32.4469C16.6406 31.5938 16.575 30.4406 16.2469 29.4469L14.5312 24.1687C14.2031 23.1656 13.5844 22.1906 12.5812 21.8719L11.9906 21.6844C11.4469 21.5063 10.8656 21.6844 10.3875 21.9938L3.36563 26.4C3.3 26.4469 3.225 26.4844 3.15 26.5125ZM7.575 37.0875C9.91875 40.0313 13.0406 42.3281 16.6312 43.6687L14.9625 37.0594C14.9344 36.9281 14.85 36.8156 14.7469 36.7406C14.6438 36.6656 14.5031 36.6281 14.3719 36.6281L7.575 37.0781V37.0875ZM0 24C0 17.6348 2.52856 11.5303 7.02944 7.02944C11.5303 2.52856 17.6348 0 24 0C30.3652 0 36.4697 2.52856 40.9706 7.02944C45.4714 11.5303 48 17.6348 48 24C48 30.3652 45.4714 36.4697 40.9706 40.9706C36.4697 45.4714 30.3652 48 24 48C17.6348 48 11.5303 45.4714 7.02944 40.9706C2.52856 36.4697 0 30.3652 0 24ZM22.6781 17.4562L18.1875 20.7188C17.4 21.2906 17.0719 22.3031 17.3719 23.2313L19.0875 28.5094C19.3875 29.4375 20.25 30.0656 21.225 30.0656H26.775C27.75 30.0656 28.6125 29.4375 28.9125 28.5094L30.6281 23.2313C30.9281 22.3031 30.6 21.2906 29.8125 20.7188L25.3219 17.4562C24.5344 16.8844 23.4656 16.8844 22.6781 17.4562Z" fill="#4F3422"/>
</g>
<defs>
<clipPath id="clip0_698_6364">
<rect width="48" height="48" fill="white"/>
</clipPath>
</defs>
</svg>
