<svg width="48" height="48" viewBox="0 0 48 48" fill="none" xmlns="http://www.w3.org/2000/svg">
<g clip-path="url(#clip0_698_6337)">
<path d="M0.44082 0.440625C-0.14043 1.02187 -0.14043 1.97812 0.44082 2.55937L9.44082 11.5594C10.0221 12.1406 10.9783 12.1406 11.5596 11.5594C12.1408 10.9781 12.1408 10.0219 11.5596 9.44062L2.55957 0.440625C1.97832 -0.140625 1.02207 -0.140625 0.44082 0.440625ZM47.5596 0.440625C46.9783 -0.140625 46.0221 -0.140625 45.4408 0.440625L36.4408 9.44062C35.8596 10.0219 35.8596 10.9781 36.4408 11.5594C37.0221 12.1406 37.9783 12.1406 38.5596 11.5594L47.5596 2.55937C48.1408 1.97812 48.1408 1.02187 47.5596 0.440625ZM2.55957 47.5594L11.5596 38.5594C12.1408 37.9781 12.1408 37.0219 11.5596 36.4406C10.9783 35.8594 10.0221 35.8594 9.44082 36.4406L0.44082 45.4406C-0.14043 46.0219 -0.14043 46.9781 0.44082 47.5594C1.02207 48.1406 1.97832 48.1406 2.55957 47.5594ZM47.5596 47.5594C48.1408 46.9781 48.1408 46.0219 47.5596 45.4406L38.5596 36.4406C37.9783 35.8594 37.0221 35.8594 36.4408 36.4406C35.8596 37.0219 35.8596 37.9781 36.4408 38.5594L45.4408 47.5594C46.0221 48.1406 46.9783 48.1406 47.5596 47.5594ZM21.7502 5.25C21.7502 4.65326 21.9872 4.08097 22.4092 3.65901C22.8312 3.23705 23.4035 3 24.0002 3C24.5969 3 25.1692 3.23705 25.5912 3.65901C26.0131 4.08097 26.2502 4.65326 26.2502 5.25C26.2502 5.84674 26.0131 6.41903 25.5912 6.84099C25.1692 7.26295 24.5969 7.5 24.0002 7.5C23.4035 7.5 22.8312 7.26295 22.4092 6.84099C21.9872 6.41903 21.7502 5.84674 21.7502 5.25ZM29.2502 5.25C29.2502 3.85761 28.6971 2.52226 27.7125 1.53769C26.7279 0.553123 25.3926 0 24.0002 0C22.6078 0 21.2725 0.553123 20.2879 1.53769C19.3033 2.52226 18.7502 3.85761 18.7502 5.25C18.7502 6.64239 19.3033 7.97774 20.2879 8.96231C21.2725 9.94688 22.6078 10.5 24.0002 10.5C25.3926 10.5 26.7279 9.94688 27.7125 8.96231C28.6971 7.97774 29.2502 6.64239 29.2502 5.25ZM22.8096 15H25.1908C25.8283 15 26.4377 15.1313 27.0002 15.375V30H21.0002V15.375C21.5627 15.1313 22.1721 15 22.8096 15ZM21.0002 46.5V33H27.0002V46.5C27.0002 47.325 27.6752 48 28.5002 48C29.3252 48 30.0002 47.325 30.0002 46.5V18.9562L34.6783 27.7125C35.0721 28.4438 35.9814 28.7156 36.7127 28.3313C37.4439 27.9469 37.7158 27.0281 37.3314 26.2969L31.8096 15.9656C30.5064 13.5281 27.9658 12 25.1908 12H22.8096C20.0439 12 17.4939 13.5281 16.1908 15.9656L10.6783 26.2969C10.2846 27.0281 10.5658 27.9375 11.2971 28.3313C12.0283 28.725 12.9377 28.4438 13.3314 27.7125L18.0002 18.9469V46.5C18.0002 47.325 18.6752 48 19.5002 48C20.3252 48 21.0002 47.325 21.0002 46.5Z" fill="#4F3422"/>
</g>
<defs>
<clipPath id="clip0_698_6337">
<rect width="48" height="48" fill="white"/>
</clipPath>
</defs>
</svg>
