<svg width="54" height="48" viewBox="0 0 54 48" fill="none" xmlns="http://www.w3.org/2000/svg">
<g clip-path="url(#clip0_698_6346)">
<path d="M31.5 13.5C31.5 7.69687 36.1969 3 42 3H44.25H45H45.5437C47.8594 3 49.8 4.7625 50.025 7.06875L50.7469 14.6437C50.85 15.7594 50.325 16.8375 49.3687 17.4281C48.0187 18.2719 46.2375 17.8875 45.3469 16.5656L44.7469 15.6656C44.4656 15.2438 43.9969 15 43.5 15H40.5C39.675 15 39 15.675 39 16.5V21.45C38.9719 21.5906 38.9625 21.7313 38.9719 21.8719C38.9906 22.0781 39 22.2844 39 22.5C39 24.75 38.025 26.7281 36.4969 28.0875C36.1781 28.3688 36 28.7812 36 29.2031V44.25C36 44.6625 35.6625 45 35.25 45H32.25C31.8375 45 31.5 44.6625 31.5 44.25V31.3781C31.5 30.6469 30.975 30.0187 30.2531 29.8969C30.1219 29.8781 29.9906 29.85 29.85 29.8219L24 28.5V23.8781C28.2563 23.1656 31.5 19.4625 31.5 15V13.5ZM22.5 21C19.1906 21 16.5 18.3094 16.5 15H18H21.75H28.5C28.5 18.3094 25.8094 21 22.5 21ZM21 23.8781V27.825L18.9562 27.3656C18.4687 27.2531 17.9625 27.3937 17.5969 27.7406C17.2312 28.0875 17.0625 28.5844 17.1469 29.0813C17.2219 29.5031 17.25 29.9344 17.25 30.3656C17.25 31.425 17.0344 32.4656 16.6219 33.4406L15.8625 35.2219C15.3937 36.3188 15.3094 37.5469 15.6281 38.6906L17.1188 44.0531C17.25 44.5312 16.8937 45 16.3969 45H13.275C12.9375 45 12.6469 44.775 12.5531 44.4469L11.2875 39.8906C10.6969 37.7531 10.8469 35.475 11.7188 33.4406L12.4781 31.6594C12.6563 31.2469 12.7406 30.8062 12.7406 30.3562C12.7406 29.925 12.6562 29.4844 12.4875 29.0906L9.36563 21.5812C9.12188 21 9 20.3812 9 19.7531C9 17.2125 10.9969 15.1406 13.5 15.0094C13.5 19.4625 16.7437 23.1656 21 23.8781ZM18 12H15H13.7531C10.6125 12 7.9125 13.8656 6.69375 16.5469C2.93438 16.95 0 20.1281 0 24V28.5C0 29.325 0.675 30 1.5 30C2.325 30 3 29.325 3 28.5V24C3 22.0406 4.25625 20.3719 6 19.7531C6 20.775 6.20625 21.7875 6.6 22.725L9.73125 30.2344C9.75 30.2719 9.75 30.3094 9.75 30.3469C9.75 30.3844 9.74062 30.4312 9.72187 30.4688L8.9625 32.25C7.81875 34.9125 7.62187 37.8938 8.4 40.6875L9.66562 45.2438C10.1156 46.8656 11.5969 47.9906 13.275 47.9906H16.3875C18.8719 47.9906 20.6625 45.6281 19.9969 43.2375L18.5062 37.875C18.3656 37.3781 18.4031 36.8531 18.6094 36.3844L19.3688 34.6031C19.8938 33.375 20.1938 32.0531 20.2313 30.7219L28.5 32.5875V44.25C28.5 46.3219 30.1781 48 32.25 48H35.25C37.3219 48 39 46.3219 39 44.25V29.85C40.8375 27.975 42 25.3969 42 22.5C42 22.3219 41.9906 22.1344 41.9906 21.9562C42 21.8906 42 21.825 42 21.75V18H42.6937L42.8531 18.2344C44.6344 20.9156 48.2344 21.6844 50.9625 19.9781C52.875 18.7875 53.9438 16.6125 53.7375 14.3625L53.0156 6.7875C52.875 5.33438 52.3313 4.00313 51.4875 2.91563C52.0781 2.71875 52.5 2.15625 52.5 1.5C52.5 0.675 51.825 0 51 0H45.5437H45H44.25H42C35.0531 0 29.325 5.25 28.5844 12H21.75H18ZM46.5 9C46.5 8.60218 46.342 8.22064 46.0607 7.93934C45.7794 7.65804 45.3978 7.5 45 7.5C44.6022 7.5 44.2206 7.65804 43.9393 7.93934C43.658 8.22064 43.5 8.60218 43.5 9C43.5 9.39782 43.658 9.77936 43.9393 10.0607C44.2206 10.342 44.6022 10.5 45 10.5C45.3978 10.5 45.7794 10.342 46.0607 10.0607C46.342 9.77936 46.5 9.39782 46.5 9Z" fill="#4F3422"/>
</g>
<defs>
<clipPath id="clip0_698_6346">
<rect width="54" height="48" fill="white"/>
</clipPath>
</defs>
</svg>
