<svg width="48" height="48" viewBox="0 0 48 48" fill="none" xmlns="http://www.w3.org/2000/svg">
<g clip-path="url(#clip0_698_6355)">
<path d="M39.731 8.26865C45.0466 13.5843 46.3404 21.3843 43.6216 27.9187C44.5591 28.3124 45.4404 28.8187 46.2373 29.428C49.6029 21.7405 48.1404 12.4405 41.8498 6.1499C33.6466 -2.05322 20.3529 -2.05322 12.1498 6.1499L6.51539 11.7843C4.26539 14.0343 2.99976 17.0905 2.99976 20.2687V20.5312C2.99976 23.7093 4.26539 26.7655 6.51539 29.0155L7.43414 29.9343C8.66226 31.1624 8.59664 33.178 7.27476 34.3218L1.03101 39.7312C0.402887 40.2749 0.0278872 41.0624 -0.00023779 41.8968C-0.0283628 42.7312 0.290387 43.5374 0.881012 44.128L3.88101 47.128C4.47164 47.7187 5.27789 48.0374 6.11226 48.0093C6.94664 47.9812 7.72476 47.6062 8.26851 46.978L13.6779 40.7343C14.8216 39.4218 16.8373 39.3468 18.0654 40.5749L18.9841 41.4937C21.2341 43.7437 24.2904 45.0093 27.4685 45.0093H27.7216C28.0123 45.0093 28.2935 44.9999 28.5841 44.9812C28.0591 44.0624 27.6466 43.0687 27.3748 42.0093C25.0216 41.9812 22.7716 41.0437 21.1029 39.3749L20.1841 38.4562C17.7185 35.9905 13.6873 36.1405 11.4091 38.7655L5.99976 44.9999L2.99976 41.9999L9.24351 36.5905C11.8779 34.3124 12.0185 30.2718 9.55289 27.8155L8.63414 26.8968C6.94664 25.2093 5.99976 22.9124 5.99976 20.5312V20.278C5.99976 18.5718 6.48726 16.9218 7.36851 15.4968L27.4873 35.6062C27.7966 34.5655 28.2373 33.5812 28.7998 32.6718L9.32789 13.2093L14.2685 8.26865C21.2998 1.2374 32.6904 1.2374 39.7216 8.26865H39.731ZM32.9998 38.9999C32.9998 37.4086 33.6319 35.8825 34.7571 34.7573C35.8823 33.632 37.4085 32.9999 38.9998 32.9999C40.5911 32.9999 42.1172 33.632 43.2424 34.7573C44.3676 35.8825 44.9998 37.4086 44.9998 38.9999C44.9998 40.5912 44.3676 42.1173 43.2424 43.2425C42.1172 44.3678 40.5911 44.9999 38.9998 44.9999C37.4085 44.9999 35.8823 44.3678 34.7571 43.2425C33.6319 42.1173 32.9998 40.5912 32.9998 38.9999ZM47.9998 38.9999C47.9998 36.613 47.0516 34.3238 45.3637 32.6359C43.6759 30.9481 41.3867 29.9999 38.9998 29.9999C36.6128 29.9999 34.3236 30.9481 32.6358 32.6359C30.948 34.3238 29.9998 36.613 29.9998 38.9999C29.9998 41.3869 30.948 43.676 32.6358 45.3639C34.3236 47.0517 36.6128 47.9999 38.9998 47.9999C41.3867 47.9999 43.6759 47.0517 45.3637 45.3639C47.0516 43.676 47.9998 41.3869 47.9998 38.9999Z" fill="#4F3422"/>
</g>
<defs>
<clipPath id="clip0_698_6355">
<rect width="48" height="48" fill="white"/>
</clipPath>
</defs>
</svg>
