<svg width="54" height="48" viewBox="0 0 54 48" fill="none" xmlns="http://www.w3.org/2000/svg">
<g clip-path="url(#clip0_698_6367)">
<path d="M30 5.25C30 4.65326 30.2371 4.08097 30.659 3.65901C31.081 3.23705 31.6533 3 32.25 3C32.8467 3 33.419 3.23705 33.841 3.65901C34.2629 4.08097 34.5 4.65326 34.5 5.25C34.5 5.84674 34.2629 6.41903 33.841 6.84099C33.419 7.26295 32.8467 7.5 32.25 7.5C31.6533 7.5 31.081 7.26295 30.659 6.84099C30.2371 6.41903 30 5.84674 30 5.25ZM37.5 5.25C37.5 3.85761 36.9469 2.52226 35.9623 1.53769C34.9777 0.553123 33.6424 0 32.25 0C30.8576 0 29.5223 0.553123 28.5377 1.53769C27.5531 2.52226 27 3.85761 27 5.25C27 6.64239 27.5531 7.97774 28.5377 8.96231C29.5223 9.94688 30.8576 10.5 32.25 10.5C33.6424 10.5 34.9777 9.94688 35.9623 8.96231C36.9469 7.97774 37.5 6.64239 37.5 5.25ZM22.8187 10.9125C21.6281 10.6125 20.3719 10.6125 19.1813 10.9125L19.0406 10.95C17.8875 11.2406 16.8188 11.7937 15.9188 12.5812L11.0156 16.875C10.3875 17.4188 10.3312 18.3656 10.875 18.9938C11.0156 19.1531 11.1844 19.2844 11.3719 19.3688L6.02813 44.6906C6.00938 44.7938 6 44.8969 6 45H1.5C0.675 45 0 45.675 0 46.5C0 47.325 0.675 48 1.5 48H13.4719C13.4906 48 13.5094 48 13.5281 48H28.4625C28.4813 48 28.5094 48 28.5281 48H48C51.3094 48 54 45.3094 54 42V40.5C54 39.675 53.325 39 52.5 39C51.675 39 51 39.675 51 40.5V42C51 43.6594 49.6594 45 48 45H40.5188L43.2844 27H43.5C44.325 27 45 26.325 45 25.5C45 24.675 44.325 24 43.5 24H42.0188H41.9719H38.2594C37.5938 24 37.0031 23.5594 36.8156 22.9125L34.9125 16.2562C34.4719 14.7094 33.2344 13.5187 31.6781 13.125L22.8187 10.9125ZM9.0375 45L14.8125 17.5312L17.8969 14.8312C18.4312 14.3625 19.0781 14.025 19.7719 13.8563L19.9125 13.8187C20.625 13.6406 21.375 13.6406 22.0969 13.8187L23.6813 14.2125L20.3625 24.1781C19.6781 26.2219 20.55 28.4625 22.425 29.5219L31.1719 34.4437L27.4406 45H15.675L20.6344 31.95C19.6781 31.35 18.8906 30.5531 18.3094 29.6344L12.4688 45H9.0375ZM37.5188 44.775C37.5094 44.85 37.5 44.925 37.5 45H30.6188L33.9938 35.4375C34.4813 34.0594 33.9094 32.5406 32.6344 31.8281L29.1188 29.85C29.1375 29.8125 29.1563 29.7656 29.1656 29.7281L32.6531 19.2656L33.9375 23.7375C34.4906 25.6687 36.2531 27 38.2688 27H40.2562L37.5188 44.775ZM30.6 15.9469L26.4656 28.35L23.8969 26.9062C23.2687 26.55 22.9781 25.8094 23.2125 25.125L26.6062 14.9437L30.6094 15.9469H30.6Z" fill="#4F3422"/>
</g>
<defs>
<clipPath id="clip0_698_6367">
<rect width="54" height="48" fill="white"/>
</clipPath>
</defs>
</svg>
