<svg width="48" height="48" viewBox="0 0 48 48" fill="none" xmlns="http://www.w3.org/2000/svg">
<g clip-path="url(#clip0_698_6382)">
<path d="M27.2531 44.7469C27.0844 43.8562 27 42.9375 27 42C27 38.4 28.2656 35.0906 30.3844 32.5031L37.7531 39.8719C34.8469 42.3937 31.2375 44.1281 27.2531 44.7469ZM24.2531 45C24.1688 45 24.0844 45 24 45C18.7406 45 13.9313 43.0687 10.2469 39.8719L24 26.1188L28.2562 30.375C25.6031 33.5156 24 37.5656 24 42C24 43.0219 24.0844 44.025 24.2531 45ZM30.375 28.2562L26.1188 24L39.8719 10.2469C43.0687 13.9313 45 18.7406 45 24C45 24.0844 45 24.1688 45 24.2531C44.025 24.0938 43.0219 24 42 24C37.5656 24 33.5156 25.6031 30.375 28.2562ZM32.5031 30.3844C35.0906 28.2656 38.4 27 42 27C42.9375 27 43.8562 27.0844 44.7469 27.2531C44.1281 31.2375 42.3937 34.8469 39.8719 37.7531L32.5031 30.3844ZM24 21.8812L19.7438 17.625C22.3969 14.4844 24 10.4344 24 6C24 4.97813 23.9156 3.975 23.7469 3C23.8313 3 23.9156 3 24 3C29.2594 3 34.0688 4.93125 37.7531 8.12812L24 21.8812ZM17.6156 15.4969L10.2469 8.12812C13.1531 5.60625 16.7625 3.87188 20.7469 3.25313C20.9156 4.14375 21 5.0625 21 6C21 9.6 19.7344 12.9094 17.6156 15.4969ZM15.4969 17.6156C12.9094 19.7344 9.6 21 6 21C5.0625 21 4.14375 20.9156 3.25313 20.7469C3.87188 16.7625 5.60625 13.1531 8.12812 10.2469L15.4969 17.6156ZM3 23.7469C3.975 23.9063 4.97813 24 6 24C10.4344 24 14.4844 22.3969 17.625 19.7438L21.8812 24L8.12812 37.7531C4.93125 34.0688 3 29.2594 3 24C3 23.9156 3 23.8313 3 23.7469ZM24 48C30.3652 48 36.4697 45.4714 40.9706 40.9706C45.4714 36.4697 48 30.3652 48 24C48 17.6348 45.4714 11.5303 40.9706 7.02944C36.4697 2.52856 30.3652 0 24 0C17.6348 0 11.5303 2.52856 7.02944 7.02944C2.52856 11.5303 0 17.6348 0 24C0 30.3652 2.52856 36.4697 7.02944 40.9706C11.5303 45.4714 17.6348 48 24 48Z" fill="#4F3422"/>
</g>
<defs>
<clipPath id="clip0_698_6382">
<rect width="48" height="48" fill="white"/>
</clipPath>
</defs>
</svg>
