<svg width="48" height="48" viewBox="0 0 48 48" fill="none" xmlns="http://www.w3.org/2000/svg">
<g clip-path="url(#clip0_698_6340)">
<path d="M24.0094 0H24.0001C8.11882 0 0.815691 10.725 0.065691 19.5C-0.00930899 20.325 0.675066 21 1.50007 21H4.60319L15.4688 32.5031C15.1688 33.1031 15.0001 33.7875 15.0001 34.5V43.5C15.0001 45.9844 17.0157 48 19.5001 48H28.5001C30.9844 48 33.0001 45.9844 33.0001 43.5V34.5C33.0001 33.7781 32.8313 33.1031 32.5313 32.5031L43.3969 21H46.5001C47.3251 21 48.0094 20.325 47.9344 19.5C47.1844 10.725 39.8907 0 24.0094 0ZM39.2719 21L30.3844 30.4125C29.8126 30.15 29.1751 30 28.5001 30H25.5001V21H34.4532H37.4532H39.2626H39.2719ZM22.5001 21V30H19.5001C18.8251 30 18.1876 30.15 17.6157 30.4125L8.72819 21H10.5376H13.5376H22.5001ZM22.5001 33H25.5001H28.5001C29.3251 33 30.0001 33.675 30.0001 34.5V43.5C30.0001 44.325 29.3251 45 28.5001 45H19.5001C18.6751 45 18.0001 44.325 18.0001 43.5V34.5C18.0001 33.675 18.6751 33 19.5001 33H22.5001ZM3.30007 18C4.35007 12.7219 8.13757 6.89062 15.5157 4.33125C12.7126 7.6125 10.8282 12.4875 10.5376 18H3.30007ZM16.9219 7.41562C18.9844 4.44375 21.5344 3 24.0001 3C26.4657 3 29.0157 4.44375 31.0782 7.41562C32.9157 10.0687 34.2094 13.7719 34.4532 18H13.5469C13.8001 13.7719 15.0844 10.0781 16.9219 7.41562ZM44.7001 18H37.4626C37.1719 12.4875 35.2969 7.6125 32.4844 4.33125C39.8626 6.89062 43.6501 12.7219 44.7001 18Z" fill="#4F3422"/>
</g>
<defs>
<clipPath id="clip0_698_6340">
<rect width="48" height="48" fill="white"/>
</clipPath>
</defs>
</svg>
