<svg width="42" height="48" viewBox="0 0 42 48" fill="none" xmlns="http://www.w3.org/2000/svg">
<g clip-path="url(#clip0_698_6331)">
<path d="M26.2875 3C25.9125 3 25.5469 3.05625 25.1906 3.16875L19.1437 5.025C12.225 7.15312 7.5 13.5469 7.5 20.7938V27H8.25C10.3219 27 12 28.6781 12 30.75V44.25C12 46.3219 10.3219 48 8.25 48H3.75C1.67812 48 0 46.3219 0 44.25V30.75C0 28.6781 1.67812 27 3.75 27H4.5V20.7938C4.5 12.2344 10.0875 4.67812 18.2625 2.15625L24.3094 0.3C24.9469 0.103125 25.6125 0 26.2875 0C29.9906 0 33 3.00937 33 6.7125V12.75C33 13.575 32.325 14.25 31.5 14.25C30.675 14.25 30 13.575 30 12.75V6.7125C30 4.65937 28.3406 3 26.2875 3ZM30.8344 16.6594C31.2562 16.4437 31.7531 16.4437 32.175 16.6594C33.8531 17.4937 36.2719 19.2 38.2875 21.6656C40.3125 24.1406 42 27.4594 42 31.5C42 34.6406 40.5844 39.0844 36.5437 42.3562L38.7469 45.6656C39.0562 46.125 39.0844 46.7156 38.8219 47.2031C38.5594 47.6906 38.0531 48 37.5 48H25.5C24.9469 48 24.4406 47.7 24.1781 47.2031C23.9156 46.7062 23.9438 46.125 24.2531 45.6656L26.4563 42.3562C22.4156 39.0844 21 34.6406 21 31.5C21 27.4594 22.6875 24.1406 24.7125 21.6656C26.7281 19.2 29.1562 17.5031 30.825 16.6594H30.8344ZM24 31.5C24 34.0594 25.3031 38.0625 29.3344 40.7531C30.0281 41.2125 30.2062 42.1406 29.7469 42.8344L28.3031 45H34.6969L33.2531 42.8344C32.7938 42.1406 32.9813 41.2125 33.6656 40.7531C37.6969 38.0625 39 34.0594 39 31.5C39 28.3406 37.6875 25.6594 35.9625 23.5594C34.5 21.7781 32.7938 20.4656 31.5 19.7062C30.2062 20.4656 28.5 21.7781 27.0375 23.5594C25.3125 25.6594 24 28.3406 24 31.5ZM8.25 30H3.75C3.3375 30 3 30.3375 3 30.75V44.25C3 44.6625 3.3375 45 3.75 45H8.25C8.6625 45 9 44.6625 9 44.25V30.75C9 30.3375 8.6625 30 8.25 30ZM33.75 27C34.3467 27 34.919 27.2371 35.341 27.659C35.7629 28.081 36 28.6533 36 29.25C36 29.8467 35.7629 30.419 35.341 30.841C34.919 31.2629 34.3467 31.5 33.75 31.5C33.1533 31.5 32.581 31.2629 32.159 30.841C31.7371 30.419 31.5 29.8467 31.5 29.25C31.5 28.6533 31.7371 28.081 32.159 27.659C32.581 27.2371 33.1533 27 33.75 27Z" fill="#4F3422"/>
</g>
<defs>
<clipPath id="clip0_698_6331">
<rect width="42" height="48" fill="white"/>
</clipPath>
</defs>
</svg>
