<svg width="48" height="48" viewBox="0 0 48 48" fill="none" xmlns="http://www.w3.org/2000/svg">
<g clip-path="url(#clip0_698_6322)">
<path d="M13.5 1.5C13.5 0.675 12.825 0 12 0C11.175 0 10.5 0.675 10.5 1.5V3H9C8.175 3 7.5 3.675 7.5 4.5C7.5 5.325 8.175 6 9 6H10.5V9H4.93125C3.8625 9 3 9.8625 3 10.9312C3 11.1375 3.0375 11.3437 3.10312 11.5406L6.25312 21H5.25C4.425 21 3.75 21.675 3.75 22.5C3.75 23.325 4.425 24 5.25 24H6.54375L5.31563 33H8.34375L9.57187 24H14.4281L15.6562 33H18.6844L17.4562 24H18.75C19.575 24 20.25 23.325 20.25 22.5C20.25 21.675 19.575 21 18.75 21H17.7469L20.8969 11.55C20.9625 11.3531 21 11.1469 21 10.9406C21 9.87187 20.1375 9.00937 19.0687 9.00937H13.5V6H15C15.825 6 16.5 5.325 16.5 4.5C16.5 3.675 15.825 3 15 3H13.5V1.5ZM14.5875 21H9.4125L6.4125 12H12H17.5875L14.5875 21ZM17.8312 36H6.16875C5.12813 36 4.1625 36.5344 3.61875 37.4156L0.553125 42.3562C0.196875 42.9375 0 43.6125 0 44.3063C0 46.3406 1.65938 48 3.69375 48H20.3063C22.35 48 24 46.3406 24 44.3063C24 43.6219 23.8031 42.9469 23.4469 42.3562L20.3812 37.4156C19.8375 36.5344 18.8719 36 17.8312 36ZM3.10312 43.9406L6.16875 39H17.8312L20.8969 43.9406C20.9625 44.0531 21 44.175 21 44.3063C21 44.6906 20.6906 45 20.3063 45H3.69375C3.30938 45 3 44.6906 3 44.3063C3 44.175 3.0375 44.0531 3.10312 43.9406ZM42.4219 39L44.9062 43.8C44.9625 43.9125 45 44.0438 45 44.175C45 44.625 44.6344 45 44.175 45H30.825C30.375 45 30 44.6344 30 44.175C30 44.0438 30.0281 43.9125 30.0938 43.8L32.5781 39H42.4219ZM32.5781 36C31.4531 36 30.4313 36.6281 29.9156 37.6219L27.4313 42.4219C27.15 42.9656 27 43.5656 27 44.175C27 46.2844 28.7062 48 30.825 48H44.175C46.2844 48 48 46.2938 48 44.175C48 43.5656 47.85 42.9656 47.5687 42.4219L45.0844 37.6219C44.5687 36.6281 43.5375 36 42.4219 36H32.5781ZM28.5 15C27.675 15 27 15.675 27 16.5V24C27 24.3469 27.1219 24.6938 27.3469 24.9563L30.75 29.0437V31.5V33H33.75V31.5V28.5C33.75 28.1531 33.6281 27.8062 33.4031 27.5437L30 23.4562V18H33V19.5C33 20.325 33.675 21 34.5 21C35.325 21 36 20.325 36 19.5V18H39V19.5C39 20.325 39.675 21 40.5 21C41.325 21 42 20.325 42 19.5V18H45V23.4562L41.5969 27.5344C41.3719 27.8063 41.25 28.1437 41.25 28.4906V31.4906V32.9906H44.25V31.5V29.0437L47.6531 24.9656C47.8781 24.6937 48 24.3563 48 24.0094V16.5C48 15.675 47.325 15 46.5 15H40.5H34.5H28.5Z" fill="#4F3422"/>
</g>
<defs>
<clipPath id="clip0_698_6322">
<rect width="48" height="48" fill="white"/>
</clipPath>
</defs>
</svg>
