<svg width="48" height="48" viewBox="0 0 48 48" fill="none" xmlns="http://www.w3.org/2000/svg">
<g clip-path="url(#clip0_698_6343)">
<path d="M39.0002 0C37.6408 0 36.3377 0.54375 35.3814 1.5L21.1971 15.675C20.2877 16.5844 19.4721 17.5781 18.7596 18.6469L11.7377 29.1844C11.1377 30.0844 10.4439 30.9281 9.6752 31.6969L3.0002 38.3812L2.55957 37.9406C1.97832 37.3594 1.02207 37.3594 0.44082 37.9406C-0.14043 38.5219 -0.14043 39.4781 0.44082 40.0594L0.881445 40.5L1.94082 41.5594L6.44082 46.0594L7.5002 47.1188L7.94082 47.5594C8.52207 48.1406 9.47832 48.1406 10.0596 47.5594C10.6408 46.9781 10.6408 46.0219 10.0596 45.4406L9.61895 45L16.2939 38.325C17.0627 37.5562 17.9064 36.8625 18.8064 36.2625L29.3439 29.2406C30.4127 28.5281 31.4065 27.7125 32.3158 26.8031L46.5002 12.6188C47.4565 11.6625 48.0002 10.3594 48.0002 9C48.0002 7.64062 47.4565 6.3375 46.5002 5.38125L42.619 1.5C41.6627 0.54375 40.3596 0 39.0002 0ZM7.5002 42.8812L5.11895 40.5L11.7939 33.825C11.8596 33.7594 11.9252 33.6938 11.9908 33.6281L14.3814 36C14.3158 36.0656 14.2502 36.1313 14.1846 36.1969L7.5002 42.8812ZM16.6971 34.0781L13.9221 31.3031C14.0252 31.1531 14.1283 31.0031 14.2314 30.8531L21.2533 20.3156C21.8533 19.4156 22.5471 18.5719 23.3158 17.8031L37.5002 3.61875C37.8939 3.225 38.4377 3 39.0002 3C39.5627 3 40.1064 3.225 40.5002 3.61875L44.3814 7.5C44.7752 7.89375 45.0002 8.4375 45.0002 9C45.0002 9.5625 44.7752 10.1063 44.3814 10.5L30.1971 24.675C29.4283 25.4438 28.5846 26.1375 27.6846 26.7375L17.1471 33.7594C16.9971 33.8625 16.8471 33.9656 16.6971 34.0687V34.0781ZM36.0002 40.5C36.0002 39.3065 36.4743 38.1619 37.3182 37.318C38.1621 36.4741 39.3067 36 40.5002 36C41.6937 36 42.8383 36.4741 43.6822 37.318C44.5261 38.1619 45.0002 39.3065 45.0002 40.5C45.0002 41.6935 44.5261 42.8381 43.6822 43.682C42.8383 44.5259 41.6937 45 40.5002 45C39.3067 45 38.1621 44.5259 37.3182 43.682C36.4743 42.8381 36.0002 41.6935 36.0002 40.5ZM48.0002 40.5C48.0002 38.5109 47.21 36.6032 45.8035 35.1967C44.397 33.7902 42.4893 33 40.5002 33C38.5111 33 36.6034 33.7902 35.1969 35.1967C33.7904 36.6032 33.0002 38.5109 33.0002 40.5C33.0002 42.4891 33.7904 44.3968 35.1969 45.8033C36.6034 47.2098 38.5111 48 40.5002 48C42.4893 48 44.397 47.2098 45.8035 45.8033C47.21 44.3968 48.0002 42.4891 48.0002 40.5Z" fill="#4F3422"/>
</g>
<defs>
<clipPath id="clip0_698_6343">
<rect width="48" height="48" fill="white"/>
</clipPath>
</defs>
</svg>
