<svg width="30" height="48" viewBox="0 0 30 48" fill="none" xmlns="http://www.w3.org/2000/svg">
<g clip-path="url(#clip0_698_6376)">
<path d="M18.7502 7.5C19.0457 7.5 19.3383 7.4418 19.6112 7.32873C19.8842 7.21566 20.1323 7.04992 20.3412 6.84099C20.5501 6.63206 20.7159 6.38402 20.8289 6.11104C20.942 5.83806 21.0002 5.54547 21.0002 5.25C21.0002 4.95453 20.942 4.66194 20.8289 4.38896C20.7159 4.11598 20.5501 3.86794 20.3412 3.65901C20.1323 3.45008 19.8842 3.28434 19.6112 3.17127C19.3383 3.0582 19.0457 3 18.7502 3C18.4547 3 18.1621 3.0582 17.8892 3.17127C17.6162 3.28434 17.3681 3.45008 17.1592 3.65901C16.9503 3.86794 16.7845 4.11598 16.6715 4.38896C16.5584 4.66194 16.5002 4.95453 16.5002 5.25C16.5002 5.54547 16.5584 5.83806 16.6715 6.11104C16.7845 6.38402 16.9503 6.63206 17.1592 6.84099C17.3681 7.04992 17.6162 7.21566 17.8892 7.32873C18.1621 7.4418 18.4547 7.5 18.7502 7.5ZM18.7502 0C20.1426 0 21.4779 0.553123 22.4625 1.53769C23.4471 2.52226 24.0002 3.85761 24.0002 5.25C24.0002 6.64239 23.4471 7.97774 22.4625 8.96231C21.4779 9.94688 20.1426 10.5 18.7502 10.5C17.3578 10.5 16.0225 9.94688 15.0379 8.96231C14.0533 7.97774 13.5002 6.64239 13.5002 5.25C13.5002 3.85761 14.0533 2.52226 15.0379 1.53769C16.0225 0.553123 17.3578 0 18.7502 0ZM11.3908 15.9562C11.2689 16.0125 11.1471 16.0781 11.0252 16.1437L9.83457 16.7906C7.25645 18.1969 5.39082 20.6156 4.67832 23.4656L4.45332 24.3656C4.25645 25.1719 3.44082 25.6594 2.63457 25.4531C1.82832 25.2469 1.34082 24.4406 1.54707 23.6344L1.77207 22.7438C2.69082 19.0875 5.09082 15.975 8.40019 14.1656L9.59082 13.5187C11.4096 12.525 13.4533 12 15.5346 12C18.9939 12 22.0689 14.2125 23.1658 17.5031L24.7689 22.3219C25.0877 23.2688 25.7064 24.0844 26.5408 24.6469L29.3252 26.5031C30.0189 26.9625 30.1971 27.8906 29.7377 28.5844C29.2783 29.2781 28.3502 29.4562 27.6564 28.9969L24.8721 27.1406C23.4846 26.2125 22.4439 24.8531 21.9189 23.2687L21.0939 20.7938L17.5596 31.0312L21.6471 34.575C22.0877 34.9594 22.4064 35.4563 22.5658 36.0188L25.4439 46.0875C25.6689 46.8844 25.2096 47.7187 24.4127 47.9437C23.6158 48.1687 22.7814 47.7094 22.5564 46.9125L19.6783 36.8438L10.2564 28.6687C8.89707 27.4969 8.37207 25.6312 8.90645 23.925L11.4002 15.9562H11.3908ZM14.8221 15.0281L11.7658 24.825C11.5877 25.3969 11.7658 26.0156 12.2158 26.4094L15.1127 28.9219L19.3314 16.7344C18.3939 15.6562 17.0158 15.0094 15.5252 15.0094C15.2908 15.0094 15.0564 15.0187 14.8221 15.0375V15.0281ZM11.8408 35.175L8.95332 40.95C8.8127 41.2406 8.61582 41.5031 8.39082 41.7281L2.55957 47.5594C1.97832 48.1406 1.02207 48.1406 0.44082 47.5594C-0.14043 46.9781 -0.14043 46.0219 0.44082 45.4406L6.27207 39.6094L9.15957 33.825C9.53457 33.0844 10.4346 32.7844 11.1752 33.15C11.9158 33.5156 12.2158 34.425 11.8502 35.1656L11.8408 35.175Z" fill="#4F3422"/>
</g>
<defs>
<clipPath id="clip0_698_6376">
<rect width="30" height="48" fill="white"/>
</clipPath>
</defs>
</svg>
