<svg width="48" height="48" viewBox="0 0 48 48" fill="none" xmlns="http://www.w3.org/2000/svg">
<g clip-path="url(#clip0_698_6361)">
<path d="M39.7499 7.5C40.0453 7.5 40.3379 7.4418 40.6109 7.32873C40.8839 7.21566 41.1319 7.04992 41.3408 6.84099C41.5498 6.63206 41.7155 6.38402 41.8286 6.11104C41.9417 5.83806 41.9999 5.54547 41.9999 5.25C41.9999 4.95453 41.9417 4.66194 41.8286 4.38896C41.7155 4.11598 41.5498 3.86794 41.3408 3.65901C41.1319 3.45008 40.8839 3.28434 40.6109 3.17127C40.3379 3.0582 40.0453 3 39.7499 3C39.4544 3 39.1618 3.0582 38.8888 3.17127C38.6158 3.28434 38.3678 3.45008 38.1589 3.65901C37.9499 3.86794 37.7842 4.11598 37.6711 4.38896C37.5581 4.66194 37.4999 4.95453 37.4999 5.25C37.4999 5.54547 37.5581 5.83806 37.6711 6.11104C37.7842 6.38402 37.9499 6.63206 38.1589 6.84099C38.3678 7.04992 38.6158 7.21566 38.8888 7.32873C39.1618 7.4418 39.4544 7.5 39.7499 7.5ZM39.7499 0C41.1422 0 42.4776 0.553123 43.4622 1.53769C44.4467 2.52226 44.9999 3.85761 44.9999 5.25C44.9999 6.64239 44.4467 7.97774 43.4622 8.96231C42.4776 9.94688 41.1422 10.5 39.7499 10.5C38.3575 10.5 37.0221 9.94688 36.0375 8.96231C35.053 7.97774 34.4999 6.64239 34.4999 5.25C34.4999 3.85761 35.053 2.52226 36.0375 1.53769C37.0221 0.553123 38.3575 0 39.7499 0ZM0.159235 26.325C0.534235 25.5844 1.43423 25.2844 2.17486 25.6594L22.1624 35.7094L28.7249 27.8438L19.8186 18.9375C19.0686 18.1875 18.6467 17.2594 18.5342 16.3031L24.0655 18.9375L30.8436 25.725C31.9405 26.8219 32.0249 28.575 31.0311 29.7656L24.928 37.0969L39.2905 44.3156C40.603 44.9719 42.1311 45.0563 43.4999 44.5406L45.9842 43.6031C46.7624 43.3125 47.6249 43.7062 47.9155 44.475C48.2061 45.2437 47.8124 46.1156 47.0436 46.4062L44.5592 47.3438C42.403 48.1594 40.003 48.0281 37.9405 46.9969L0.82486 28.3406C0.084235 27.9656 -0.215765 27.0656 0.159235 26.325ZM11.1467 6.15L12.8436 6.95625L13.6592 5.33438C14.0342 4.59375 14.9342 4.29375 15.6749 4.65938C16.4155 5.025 16.7155 5.93437 16.3499 6.675L15.553 8.25L21.8811 11.2687L28.1436 7.96875C30.7311 6.60938 33.9186 8.04375 34.6124 10.8844L36.3842 18.1594L42.6186 21.1406L42.6374 21.15C43.0967 21.3656 43.3874 21.7875 43.4717 22.2562C43.5186 22.5469 43.4811 22.8656 43.3499 23.1562C42.9936 23.9062 42.0936 24.2156 41.353 23.8594L41.3342 23.85L14.2124 10.9312L13.3405 12.675C12.9655 13.4156 12.0655 13.7156 11.3249 13.35C10.5842 12.9844 10.2842 12.075 10.6499 11.3344L11.4936 9.64688L9.84361 8.85938C9.09361 8.50313 8.77486 7.6125 9.13111 6.8625C9.48736 6.1125 10.378 5.79375 11.128 6.15H11.1467ZM25.2655 12.8719L32.8967 16.5094L31.6967 11.5969C31.4624 10.65 30.403 10.1719 29.5405 10.6219L25.2655 12.8719Z" fill="#4F3422"/>
</g>
<defs>
<clipPath id="clip0_698_6361">
<rect width="48" height="48" fill="white"/>
</clipPath>
</defs>
</svg>
