<svg width="54" height="48" viewBox="0 0 54 48" fill="none" xmlns="http://www.w3.org/2000/svg">
<path d="M9.75 12C10.7446 12 11.6984 12.3951 12.4017 13.0983C13.1049 13.8016 13.5 14.7554 13.5 15.75C13.5 16.7446 13.1049 17.6984 12.4017 18.4017C11.6984 19.1049 10.7446 19.5 9.75 19.5C8.75544 19.5 7.80161 19.1049 7.09835 18.4017C6.39509 17.6984 6 16.7446 6 15.75C6 14.7554 6.39509 13.8016 7.09835 13.0983C7.80161 12.3951 8.75544 12 9.75 12ZM9.75 22.5C10.6364 22.5 11.5142 22.3254 12.3331 21.9862C13.1521 21.647 13.8962 21.1498 14.523 20.523C15.1498 19.8962 15.647 19.1521 15.9862 18.3331C16.3254 17.5142 16.5 16.6364 16.5 15.75C16.5 14.8636 16.3254 13.9858 15.9862 13.1669C15.647 12.3479 15.1498 11.6038 14.523 10.977C13.8962 10.3502 13.1521 9.85303 12.3331 9.51381C11.5142 9.17459 10.6364 9 9.75 9C8.86358 9 7.98583 9.17459 7.16689 9.51381C6.34794 9.85303 5.60382 10.3502 4.97703 10.977C4.35023 11.6038 3.85303 12.3479 3.51381 13.1669C3.17459 13.9858 3 14.8636 3 15.75C3 16.6364 3.17459 17.5142 3.51381 18.3331C3.85303 19.1521 4.35023 19.8962 4.97703 20.523C5.60382 21.1498 6.34794 21.647 7.16689 21.9862C7.98583 22.3254 8.86358 22.5 9.75 22.5ZM12.5438 34.0125C11.6344 33.3937 10.8563 32.7 10.1156 31.9594C9.49688 31.35 8.50312 31.35 7.88437 31.9594C7.14375 32.7 6.375 33.3844 5.45625 34.0125C4.25625 34.8281 2.82187 35.5688 1.33125 35.8688C0.6 36.0094 0 36.6 0 37.3313C0 38.25 0.75 39.0094 1.65938 38.85C3.825 38.475 5.74687 37.4438 7.14375 36.4875C7.88437 35.9813 8.5125 35.475 9 35.0531C9.47812 35.475 10.1156 35.9813 10.8563 36.4875C12.6 37.6781 15.1594 39 18 39C20.8406 39 23.3906 37.6781 25.1438 36.4875C25.8844 35.9813 26.5125 35.475 27 35.0531C27.4781 35.475 28.1156 35.9813 28.8562 36.4875C30.6 37.6781 33.1594 39 36 39C38.8406 39 41.3906 37.6781 43.1438 36.4875C43.8844 35.9813 44.5125 35.475 45 35.0531C45.4781 35.475 46.1156 35.9813 46.8562 36.4875C48.2625 37.4438 50.175 38.475 52.3406 38.85C53.25 39.0094 54 38.25 54 37.3313C54 36.5906 53.4 36.0094 52.6781 35.8594C51.1781 35.5688 49.7437 34.8188 48.5437 34.0031C47.625 33.375 46.8562 32.6906 46.1062 31.95C45.4875 31.3406 44.4938 31.3406 43.8844 31.95C43.1438 32.6906 42.375 33.375 41.4563 34.0031C39.9 35.0625 37.9594 36 36 36C34.0406 36 32.0906 35.0719 30.5437 34.0125C29.625 33.3844 28.8562 32.7 28.1062 31.9594C27.4875 31.35 26.4938 31.35 25.8844 31.9594C25.1438 32.7 24.375 33.3844 23.4562 34.0125C21.9 35.0625 19.9594 36 18 36C16.0406 36 14.0906 35.0719 12.5438 34.0125ZM24.225 17.3438L38.6531 29.5781C39.6562 29.25 40.6594 28.7531 41.55 28.1344L41.5687 28.1156L26.2875 15.15C29.0156 13.1719 32.3719 12 36 12H43.5C44.325 12 45 11.325 45 10.5C45 9.675 44.325 9 43.5 9H36C25.2281 9 16.5 17.7281 16.5 28.5V29.8875C17.0156 29.9906 17.5219 30.0469 18 30.0469C18.5063 30.0469 19.0031 30 19.5 29.8969V28.5C19.5 24.1125 21.2156 20.1188 24.0094 17.1562L24.225 17.3438Z" fill="#4F3422"/>
</svg>
