<svg width="54" height="48" viewBox="0 0 54 48" fill="none" xmlns="http://www.w3.org/2000/svg">
<g clip-path="url(#clip0_698_6325)">
<path d="M24.4404 18C27.0935 18 29.606 19.0031 31.4998 20.7281V46.5188C31.4904 47.3344 30.8248 48 29.9998 48C29.1748 48 28.4998 47.325 28.4998 46.5V22.1906C27.3092 21.4219 25.9029 21 24.4404 21H20.5592C19.0873 21 17.681 21.4313 16.4998 22.2V46.5C16.4998 47.325 15.8248 48 14.9998 48C14.1748 48 13.4998 47.325 13.4998 46.5V25.8562L5.84041 41.175C5.46541 41.9156 4.56541 42.2156 3.82479 41.85C3.08416 41.4844 2.78416 40.575 3.14979 39.8344L11.1654 23.8125C12.9467 20.2594 16.5842 18.0094 20.5592 18.0094H24.431L24.4404 18ZM26.9998 7.5C26.9998 6.30653 26.5257 5.16193 25.6818 4.31802C24.8379 3.47411 23.6933 3 22.4998 3C21.3063 3 20.1617 3.47411 19.3178 4.31802C18.4739 5.16193 17.9998 6.30653 17.9998 7.5C17.9998 8.69347 18.4739 9.83807 19.3178 10.682C20.1617 11.5259 21.3063 12 22.4998 12C23.6933 12 24.8379 11.5259 25.6818 10.682C26.5257 9.83807 26.9998 8.69347 26.9998 7.5ZM14.9998 7.5C14.9998 5.51088 15.79 3.60322 17.1965 2.1967C18.603 0.790176 20.5107 0 22.4998 0C24.4889 0 26.3966 0.790176 27.8031 2.1967C29.2096 3.60322 29.9998 5.51088 29.9998 7.5C29.9998 9.48912 29.2096 11.3968 27.8031 12.8033C26.3966 14.2098 24.4889 15 22.4998 15C20.5107 15 18.603 14.2098 17.1965 12.8033C15.79 11.3968 14.9998 9.48912 14.9998 7.5ZM44.9998 31.5V32.8313L45.3654 34.5H46.031H49.4998C50.3248 34.5 50.9998 35.175 50.9998 36C50.9998 36.825 50.3248 37.5 49.4998 37.5H49.106H46.0404L46.706 40.5L47.5592 44.3531L47.9623 46.1813C48.0654 46.6219 47.9529 47.0906 47.6717 47.4469C47.3904 47.8031 46.9592 48.0094 46.4998 48.0094H44.6342H38.9998H37.4998C36.6748 48.0094 35.9998 47.3344 35.9998 46.5094V45V36.9281L35.7467 36.7969C34.9873 36.4125 34.4998 35.6344 34.4998 34.7812V34.3219V21.1781V20.7188C34.4998 19.8656 34.9779 19.0875 35.7467 18.7031L35.9998 18.5719V15C35.9998 13.3406 37.3404 12 38.9998 12V9V6V3C38.1748 3 37.4998 2.325 37.4998 1.5C37.4998 0.675 38.1748 0 38.9998 0H40.4998C41.3248 0 41.9998 0.675 41.9998 1.5V3V9V12C43.6592 12 44.9998 13.3406 44.9998 15V19.5V23.9062V24V26.25V27L47.9998 26.25V24V19.5C47.9998 18.675 48.6748 18 49.4998 18C50.3248 18 50.9998 18.675 50.9998 19.5V26.25V27.4219C50.9998 28.0688 50.5873 28.6406 49.9779 28.8469L49.8935 28.875L44.9998 30.4969V31.5ZM42.4404 35.1469L42.2998 34.5L42.0748 33.4875L42.0373 33.3281C42.0092 33.225 41.9998 33.1125 41.9998 33V32.8313V31.5V30.8438V30.4969V28.3406V27.75V27V24V19.5V18V15H38.9998V18V18.5719V19.5C38.9998 20.0625 38.681 20.5875 38.1748 20.8406L37.4998 21.1781V34.3219L38.1748 34.6594C38.681 34.9125 38.9998 35.4281 38.9998 36V36.9281V42V45H41.5592H41.9998H44.6342L43.9685 42L43.1154 38.1469L42.9748 37.5L42.4498 35.1469H42.4404Z" fill="#4F3422"/>
</g>
<defs>
<clipPath id="clip0_698_6325">
<rect width="54" height="48" fill="white"/>
</clipPath>
</defs>
</svg>
