<svg width="42" height="48" viewBox="0 0 42 48" fill="none" xmlns="http://www.w3.org/2000/svg">
<g clip-path="url(#clip0_698_6223)">
<path d="M15 5.25C15.2955 5.25 15.5881 5.1918 15.861 5.07873C16.134 4.96566 16.3821 4.79992 16.591 4.59099C16.7999 4.38206 16.9657 4.13402 17.0787 3.86104C17.1918 3.58806 17.25 3.29547 17.25 3C17.25 2.70453 17.1918 2.41194 17.0787 2.13896C16.9657 1.86598 16.7999 1.61794 16.591 1.40901C16.3821 1.20008 16.134 1.03434 15.861 0.921271C15.5881 0.808198 15.2955 0.75 15 0.75C14.7045 0.75 14.4119 0.808198 14.139 0.921271C13.866 1.03434 13.6179 1.20008 13.409 1.40901C13.2001 1.61794 13.0343 1.86598 12.9213 2.13896C12.8082 2.41194 12.75 2.70453 12.75 3C12.75 3.29547 12.8082 3.58806 12.9213 3.86104C13.0343 4.13402 13.2001 4.38206 13.409 4.59099C13.6179 4.79992 13.866 4.96566 14.139 5.07873C14.4119 5.1918 14.7045 5.25 15 5.25ZM24 7.5C24 7.10218 24.158 6.72064 24.4393 6.43934C24.7206 6.15804 25.1022 6 25.5 6C25.8978 6 26.2794 6.15804 26.5607 6.43934C26.842 6.72064 27 7.10218 27 7.5C27 7.89782 26.842 8.27936 26.5607 8.56066C26.2794 8.84196 25.8978 9 25.5 9C25.1022 9 24.7206 8.84196 24.4393 8.56066C24.158 8.27936 24 7.89782 24 7.5ZM30 7.5C30 6.30653 29.5259 5.16193 28.682 4.31802C27.8381 3.47411 26.6935 3 25.5 3C24.3065 3 23.1619 3.47411 22.318 4.31802C21.4741 5.16193 21 6.30653 21 7.5C21 8.69347 21.4741 9.83807 22.318 10.682C23.1619 11.5259 24.3065 12 25.5 12C26.6935 12 27.8381 11.5259 28.682 10.682C29.5259 9.83807 30 8.69347 30 7.5ZM5.63437 22.9594C6.75 20.9062 7.9875 19.1531 8.89688 18H21H33.1031C34.0125 19.1531 35.25 20.9062 36.3656 22.9594C37.9031 25.7812 39 28.7906 39 31.35C39 35.5781 36.9937 38.8875 33.7406 41.2406C30.4219 43.6406 25.8188 45 21 45C16.1812 45 11.5781 43.6406 8.25937 41.2406C5.00625 38.8875 3 35.5781 3 31.35C3 28.7906 4.09687 25.7812 5.63437 22.9594ZM5.175 18C2.83125 21.3844 0 26.6156 0 31.35C0 34.8562 1.11562 37.8562 3 40.3031V46.5C3 47.325 3.675 48 4.5 48C5.325 48 6 47.325 6 46.5V43.2937C9.96562 46.3687 15.4312 48 21 48C26.5688 48 32.0344 46.3687 36 43.2937V46.5C36 47.325 36.675 48 37.5 48C38.325 48 39 47.325 39 46.5V40.3031C40.8844 37.8562 42 34.8562 42 31.35C42 26.6156 39.1687 21.3844 36.825 18H40.5C41.325 18 42 17.325 42 16.5C42 15.675 41.325 15 40.5 15H34.5H21H7.5H1.5C0.675 15 0 15.675 0 16.5C0 17.325 0.675 18 1.5 18H5.175Z" fill="#4F3422"/>
</g>
<defs>
<clipPath id="clip0_698_6223">
<rect width="42" height="48" fill="white"/>
</clipPath>
</defs>
</svg>
