<svg width="60" height="48" viewBox="0 0 60 48" fill="none" xmlns="http://www.w3.org/2000/svg">
<g clip-path="url(#clip0_698_6220)">
<path d="M13.5 0C6.04688 0 0 6.04688 0 13.5V15.75C0 16.2375 0.24375 16.7062 0.646875 16.9875C1.05 17.2687 1.56563 17.3344 2.025 17.1562L6.89062 15.3281C7.63125 16.275 8.59688 17.0063 9.69375 17.4656L9.14062 42C9.06562 45.2906 11.7094 48 15 48C18.2906 48 20.9344 45.2906 20.8594 42L20.3063 17.7281C21.8344 17.2875 23.1844 16.3312 24.0938 15H30V16.5C30 17.325 30.675 18 31.5 18C32.325 18 33 17.325 33 16.5V1.5C33 0.675 32.325 0 31.5 0C30.675 0 30 0.675 30 1.5V3H24.1031C22.8188 1.13438 20.7 0 18.3937 0H13.5ZM30 6V12H23.25C22.6781 12 22.1625 12.3188 21.9094 12.825C21.2437 14.1563 19.8844 15 18.3937 15H12.3563C10.8656 15 9.50625 14.1563 8.84063 12.825C8.49375 12.1406 7.6875 11.8219 6.975 12.0938L3 13.5844V13.5C3 7.69687 7.69687 3 13.5 3H18.3937C19.8844 3 21.2437 3.84375 21.9094 5.175C22.1625 5.68125 22.6875 6 23.25 6H30ZM17.3156 18L17.8594 42.0656C17.8969 43.6688 16.6031 45 14.9906 45C13.3781 45 12.0938 43.6781 12.1219 42.0656L12.6844 18H17.3156ZM49.5 20.6531L50.5781 21.5531L55.9219 26.0062C56.25 26.2781 56.5125 26.625 56.7 27H36.3C36.4875 26.625 36.75 26.2781 37.0781 26.0062L42.4219 21.5531L43.5 20.6531V19.2469V6C43.5 4.34062 44.8406 3 46.5 3C48.1594 3 49.5 4.34062 49.5 6V19.2469V20.6531ZM36 30H57V43.5C57 44.325 56.325 45 55.5 45H45V39C45 38.175 44.325 37.5 43.5 37.5C42.675 37.5 42 38.175 42 39V45H37.5C36.675 45 36 44.325 36 43.5V30ZM52.5 19.2469V6C52.5 2.69063 49.8094 0 46.5 0C43.1906 0 40.5 2.69063 40.5 6V19.2469L35.1562 23.7C33.7875 24.8438 33 26.5312 33 28.3125V43.5C33 45.9844 35.0156 48 37.5 48H55.5C57.9844 48 60 45.9844 60 43.5V28.3125C60 26.5312 59.2125 24.8438 57.8438 23.7L52.5 19.2469ZM48 7.5C48 7.10218 47.842 6.72064 47.5607 6.43934C47.2794 6.15804 46.8978 6 46.5 6C46.1022 6 45.7206 6.15804 45.4393 6.43934C45.158 6.72064 45 7.10218 45 7.5C45 7.89782 45.158 8.27936 45.4393 8.56066C45.7206 8.84196 46.1022 9 46.5 9C46.8978 9 47.2794 8.84196 47.5607 8.56066C47.842 8.27936 48 7.89782 48 7.5Z" fill="#4F3422"/>
</g>
<defs>
<clipPath id="clip0_698_6220">
<rect width="60" height="48" fill="white"/>
</clipPath>
</defs>
</svg>
