<svg width="48" height="48" viewBox="0 0 48 48" fill="none" xmlns="http://www.w3.org/2000/svg">
<g clip-path="url(#clip0_696_5908)">
<path d="M14.6531 5.45648C15.1875 4.81898 15.0938 3.87211 14.4656 3.34711C13.8375 2.82211 12.8813 2.90648 12.3563 3.53461L5.89689 11.2784L2.55939 7.94086C1.97814 7.35961 1.02189 7.35961 0.440637 7.94086C-0.140613 8.52211 -0.140613 9.47836 0.440637 10.0596L4.94064 14.5596C5.24064 14.8596 5.64376 15.019 6.06564 15.0002C6.48751 14.9815 6.88126 14.7846 7.15314 14.4659L14.6531 5.46586V5.45648ZM14.6531 20.4565C15.1875 19.819 15.0938 18.8721 14.4656 18.3471C13.8375 17.8221 12.8813 17.9065 12.3563 18.5346L5.89689 26.2784L2.55939 22.9409C1.97814 22.3596 1.02189 22.3596 0.440637 22.9409C-0.140613 23.5221 -0.140613 24.4784 0.440637 25.0596L4.94064 29.5596C5.24064 29.8596 5.64376 30.019 6.06564 30.0002C6.48751 29.9815 6.88126 29.7846 7.15314 29.4659L14.6531 20.4659V20.4565ZM18 9.00023C18 9.82523 18.675 10.5002 19.5 10.5002H46.5C47.325 10.5002 48 9.82523 48 9.00023C48 8.17523 47.325 7.50023 46.5 7.50023H19.5C18.675 7.50023 18 8.17523 18 9.00023ZM18 24.0002C18 24.8252 18.675 25.5002 19.5 25.5002H46.5C47.325 25.5002 48 24.8252 48 24.0002C48 23.1752 47.325 22.5002 46.5 22.5002H19.5C18.675 22.5002 18 23.1752 18 24.0002ZM15 39.0002C15 39.8252 15.675 40.5002 16.5 40.5002H46.5C47.325 40.5002 48 39.8252 48 39.0002C48 38.1752 47.325 37.5002 46.5 37.5002H16.5C15.675 37.5002 15 38.1752 15 39.0002ZM9.00001 39.0002C9.00001 38.2046 8.68394 37.4415 8.12133 36.8789C7.55872 36.3163 6.79566 36.0002 6.00001 36.0002C5.20436 36.0002 4.4413 36.3163 3.87869 36.8789C3.31608 37.4415 3.00001 38.2046 3.00001 39.0002C3.00001 39.7959 3.31608 40.5589 3.87869 41.1216C4.4413 41.6842 5.20436 42.0002 6.00001 42.0002C6.79566 42.0002 7.55872 41.6842 8.12133 41.1216C8.68394 40.5589 9.00001 39.7959 9.00001 39.0002Z" fill="#4F3422"/>
</g>
<defs>
<clipPath id="clip0_696_5908">
<rect width="48" height="48" fill="white"/>
</clipPath>
</defs>
</svg>
