<svg width="60" height="48" viewBox="0 0 60 48" fill="none" xmlns="http://www.w3.org/2000/svg">
<g clip-path="url(#clip0_696_5911)">
<path d="M13.5187 7.06875C13.4625 7.69688 13.0125 8.23125 12.3937 8.38125C10.4437 8.87813 9 10.65 9 12.75C9 13.0406 9.02813 13.3312 9.08438 13.6125C9.225 14.325 8.83125 15.0375 8.14688 15.3C6.45 15.9375 5.25 17.5875 5.25 19.5C5.25 19.9875 5.325 20.4656 5.475 20.9062C5.6625 21.4781 5.49375 22.1063 5.04375 22.5C3.7875 23.5969 3 25.2094 3 27C3 29.1469 4.125 31.0312 5.83125 32.0906C6.45938 32.4844 6.70312 33.2719 6.42188 33.9469C6.15 34.575 6 35.2687 6 36C6 38.8969 8.35313 41.25 11.25 41.25C11.5594 41.25 11.8594 41.2219 12.1406 41.175C12.8438 41.0531 13.5375 41.4469 13.7906 42.1125C14.4375 43.8 16.0781 45 17.9906 45C20.475 45 22.4906 42.9844 22.4906 40.5V7.5C22.4906 5.01562 20.475 3 17.9906 3C15.6469 3 13.725 4.79063 13.5094 7.06875H13.5187ZM24 45C22.6312 46.8187 20.4563 48 18 48C15.225 48 12.7969 46.4906 11.5031 44.25C11.4187 44.25 11.3344 44.25 11.25 44.25C6.69375 44.25 3 40.5562 3 36C3 35.2875 3.09375 34.5938 3.2625 33.9375C1.275 32.2875 0 29.7937 0 27C0 24.6469 0.9 22.5 2.38125 20.9062C2.29687 20.4469 2.25 19.9781 2.25 19.5C2.25 16.725 3.75938 14.2969 6 13.0031C6 12.9187 6 12.8344 6 12.75C6 9.6 7.94062 6.9 10.6969 5.79375C11.4656 2.475 14.4469 0 18 0C20.4563 0 22.6312 1.18125 24 3C25.3688 1.18125 27.5437 0 30 0C33.5531 0 36.5344 2.475 37.3031 5.79375C40.0594 6.9 42 9.6 42 12.75C42 12.8344 42 12.9187 42 13.0031C43.9219 14.1094 45.3 16.05 45.6656 18.3187C44.2219 18.8437 43.0687 19.9406 42.4594 21.3469C42.4594 21.1969 42.4875 21.0469 42.5344 20.9062C42.675 20.4656 42.7594 19.9969 42.7594 19.5C42.7594 17.5875 41.5594 15.9375 39.8625 15.2906C39.1781 15.0281 38.7844 14.3156 38.925 13.6031C38.9813 13.3219 39.0094 13.0406 39.0094 12.7406C39.0094 10.6406 37.5656 8.86875 35.6156 8.38125C34.9969 8.22188 34.5469 7.69688 34.4906 7.06875C34.2656 4.79063 32.3438 3 30 3C27.5156 3 25.5 5.01562 25.5 7.5V40.5C25.5 42.9 27.375 44.8594 29.7375 44.9906C30.2063 46.0969 30.7594 47.0625 31.3313 47.8781C30.9 47.9531 30.45 48 30 48C27.5437 48 25.3688 46.8187 24 45ZM49.3781 21.75L59.5594 31.9406C59.8406 32.2219 60 32.6063 60 33C60 33.3937 59.8406 33.7781 59.5594 34.0594L49.3687 44.25C48.8906 44.7281 48.2437 45 47.5781 45C46.1625 45.0094 45 43.8563 45 42.4406V37.5H43.5C40.1906 37.5 37.5 40.1906 37.5 43.5V46.5C37.5 47.1 37.1438 47.6438 36.5813 47.8781C36.0188 48.1125 35.3812 47.9906 34.95 47.5781C33.5812 46.2469 31.5 43.0688 31.5 39C31.5 33.1969 36.1969 28.5 42 28.5H45V23.5687C45 22.1625 46.1344 21.0188 47.55 21.0094C48.2344 21.0094 48.8906 21.2719 49.3781 21.7594V21.75ZM48 30C48 30.825 47.325 31.5 46.5 31.5H42C37.8562 31.5 34.5 34.8562 34.5 39C34.5 39.7969 34.6125 40.5562 34.7812 41.25C35.7844 37.3687 39.3 34.5 43.5 34.5H46.5C47.325 34.5 48 35.175 48 36V41.3812L56.3813 33L48 24.6188V30Z" fill="#4F3422"/>
</g>
<defs>
<clipPath id="clip0_696_5911">
<rect width="60" height="48" fill="white"/>
</clipPath>
</defs>
</svg>
