<svg width="60" height="48" viewBox="0 0 60 48" fill="none" xmlns="http://www.w3.org/2000/svg">
<g clip-path="url(#clip0_696_5914)">
<path d="M15 4.5V9H33V4.5C33 3.675 32.325 3 31.5 3H16.5C15.675 3 15 3.675 15 4.5ZM12 9V4.5C12 2.01562 14.0156 0 16.5 0H31.5C33.9844 0 36 2.01562 36 4.5V9H42C45.3094 9 48 11.6906 48 15V18.0656C47.5031 18.0187 47.0063 18 46.5 18C45.9937 18 45.4969 18.0187 45 18.0656V15C45 13.3406 43.6594 12 42 12H34.5H13.5H6C4.34062 12 3 13.3406 3 15V24H16.5H19.5H33H33.7688C33.0094 24.9188 32.3438 25.9313 31.8 27H19.5V31.5H30.2719C30.0937 32.475 30 33.4781 30 34.5H19.5C17.8406 34.5 16.5 33.1594 16.5 31.5V27H3V39C3 40.6594 4.34062 42 6 42H31.8C32.3531 43.0687 33.0094 44.0812 33.7688 45H6C2.69063 45 0 42.3094 0 39V15C0 11.6906 2.69063 9 6 9H12ZM46.5 45C49.2848 45 51.9555 43.8938 53.9246 41.9246C55.8938 39.9555 57 37.2848 57 34.5C57 31.7152 55.8938 29.0445 53.9246 27.0754C51.9555 25.1062 49.2848 24 46.5 24C43.7152 24 41.0445 25.1062 39.0754 27.0754C37.1062 29.0445 36 31.7152 36 34.5C36 37.2848 37.1062 39.9555 39.0754 41.9246C41.0445 43.8938 43.7152 45 46.5 45ZM46.5 21C50.0804 21 53.5142 22.4223 56.0459 24.9541C58.5777 27.4858 60 30.9196 60 34.5C60 38.0804 58.5777 41.5142 56.0459 44.0459C53.5142 46.5777 50.0804 48 46.5 48C42.9196 48 39.4858 46.5777 36.9541 44.0459C34.4223 41.5142 33 38.0804 33 34.5C33 30.9196 34.4223 27.4858 36.9541 24.9541C39.4858 22.4223 42.9196 21 46.5 21ZM46.5 27C47.325 27 48 27.675 48 28.5V33H51C51.825 33 52.5 33.675 52.5 34.5C52.5 35.325 51.825 36 51 36H46.5C45.675 36 45 35.325 45 34.5V28.5C45 27.675 45.675 27 46.5 27Z" fill="#4F3422"/>
</g>
<defs>
<clipPath id="clip0_696_5914">
<rect width="60" height="48" fill="white"/>
</clipPath>
</defs>
</svg>
