<svg width="60" height="48" viewBox="0 0 60 48" fill="none" xmlns="http://www.w3.org/2000/svg">
<g clip-path="url(#clip0_696_5884)">
<path d="M37.9781 0.074998C37.1906 -0.187502 36.3469 0.234373 36.0844 1.02187L21.0844 46.0219C20.8219 46.8094 21.2438 47.6531 22.0312 47.9156C22.8187 48.1781 23.6625 47.7563 23.925 46.9688L38.925 1.96875C39.1875 1.18125 38.7656 0.337498 37.9781 0.074998ZM16.125 11.0062C15.5719 10.3875 14.625 10.3312 14.0062 10.8844L0.50625 22.8844C0.1875 23.1656 0 23.5687 0 24C0 24.4312 0.1875 24.8344 0.50625 25.125L14.0062 37.125C14.625 37.6781 15.5719 37.6219 16.125 37.0031C16.6781 36.3844 16.6219 35.4375 16.0031 34.8844L3.75937 24L15.9938 13.125C16.6125 12.5719 16.6687 11.625 16.1156 11.0062H16.125ZM43.8844 11.0062C43.3313 11.625 43.3875 12.5719 44.0062 13.125L56.2406 24L44.0062 34.875C43.3875 35.4281 43.3313 36.375 43.8844 36.9938C44.4375 37.6125 45.3844 37.6687 46.0031 37.1156L59.5031 25.1156C59.8219 24.8344 60.0094 24.4219 60.0094 23.9906C60.0094 23.5594 59.8219 23.1562 59.5031 22.8656L46.0031 10.8656C45.3844 10.3125 44.4375 10.3687 43.8844 10.9875V11.0062Z" fill="#4F3422"/>
</g>
<defs>
<clipPath id="clip0_696_5884">
<rect width="60" height="48" fill="white"/>
</clipPath>
</defs>
</svg>
