<svg width="60" height="48" viewBox="0 0 60 48" fill="none" xmlns="http://www.w3.org/2000/svg">
<g clip-path="url(#clip0_696_5878)">
<path d="M30 0C30.825 0 31.5 0.675 31.5 1.5V3.075C32.5312 3.1875 33.525 3.42187 34.425 3.66562C35.2219 3.88125 35.6906 4.70625 35.475 5.5125C35.2594 6.31875 34.4344 6.77812 33.6375 6.5625C32.5031 6.25313 31.3875 6.01875 30.3562 6.00937C29.4937 6 28.5656 6.20625 27.9094 6.6C27.3094 6.96563 27.0094 7.425 27.0094 8.08125C27.0094 8.55937 27.1969 8.89688 27.825 9.28125C28.5375 9.72187 29.5406 10.0406 30.8156 10.4344L30.8531 10.4438C32.0063 10.8 33.4125 11.2406 34.5188 11.9531C35.7281 12.7313 36.7312 13.95 36.75 15.7875C36.7781 17.7187 35.8219 19.125 34.5 19.9594C33.5906 20.5406 32.5406 20.85 31.5 20.9531V22.5C31.5 23.325 30.825 24 30 24C29.175 24 28.5 23.325 28.5 22.5V20.7562C27.4688 20.5312 26.5031 20.1938 25.65 19.8844C25.4344 19.8094 25.2187 19.7344 25.0219 19.6594C24.2344 19.3875 23.8219 18.5344 24.0844 17.7562C24.3469 16.9781 25.2094 16.5562 25.9875 16.8187C26.2313 16.9031 26.475 16.9875 26.7094 17.0719C28.0875 17.55 29.2219 17.9437 30.4313 17.9906C31.3688 18.0187 32.2781 17.8125 32.8875 17.4188C33.4312 17.0719 33.7594 16.5844 33.75 15.8156C33.7406 15.2437 33.5062 14.8594 32.8875 14.4656C32.175 14.0063 31.1813 13.6781 29.9156 13.2844L29.7562 13.2375C28.6406 12.8906 27.2906 12.4781 26.2406 11.8219C25.0406 11.0812 24.0188 9.90937 24.0094 8.08125C24 6.15 25.05 4.80938 26.3531 4.02188C27.0188 3.61875 27.7594 3.34688 28.5 3.1875V1.5C28.5 0.675 29.175 0 30 0ZM6 6C9.30937 6 12 8.69063 12 12V23.6531C12 24.0844 12.0375 24.5062 12.1219 24.9187C12.3188 24.6187 12.5531 24.3281 12.8156 24.0656C14.85 22.0313 18.15 22.0313 20.1844 24.0656L28.7438 32.625C29.2219 33.1031 29.6438 33.6188 30 34.1813C30.3562 33.6281 30.7781 33.1031 31.2562 32.625L39.8156 24.0656C41.85 22.0313 45.15 22.0313 47.1844 24.0656C47.4469 24.3281 47.6813 24.6187 47.8781 24.9187C47.9625 24.5062 48 24.0844 48 23.6531V12C48 8.69063 50.6906 6 54 6C57.3094 6 60 8.69063 60 12V32.2688C60 35.0531 58.8938 37.725 56.925 39.6937L49.0594 47.5594C48.4781 48.1406 47.5219 48.1406 46.9406 47.5594C46.3594 46.9781 46.3594 46.0219 46.9406 45.4406L54.8062 37.575C56.2125 36.1687 57 34.2563 57 32.2688V12C57 10.3406 55.6594 9 54 9C52.3406 9 51 10.3406 51 12V23.6531C51 26.1938 49.9875 28.6312 48.1969 30.4219L47.1844 31.4344L43.0594 35.5594L41.5594 37.0594C40.9781 37.6406 40.0219 37.6406 39.4406 37.0594C38.8594 36.4781 38.8594 35.5219 39.4406 34.9406L40.9406 33.4406L45.0656 29.3156C45.9281 28.4531 45.9281 27.0469 45.0656 26.1844C44.2031 25.3219 42.7969 25.3219 41.9344 26.1844L33.375 34.7438C32.175 35.9438 31.5 37.575 31.5 39.2719V46.5C31.5 47.325 30.825 48 30 48C29.175 48 28.5 47.325 28.5 46.5V39.2719C28.5 37.575 27.825 35.9438 26.625 34.7438L18.0656 26.1844C17.2031 25.3219 15.7969 25.3219 14.9344 26.1844C14.0719 27.0469 14.0719 28.4531 14.9344 29.3156L19.0594 33.4406L20.5594 34.9406C21.1406 35.5219 21.1406 36.4781 20.5594 37.0594C19.9781 37.6406 19.0219 37.6406 18.4406 37.0594L16.9406 35.5594L12.8156 31.4344L11.8125 30.4219C10.0125 28.6312 9 26.1938 9 23.6531V12C9 10.3406 7.65938 9 6 9C4.34062 9 3 10.3406 3 12V32.2688C3 34.2563 3.7875 36.1687 5.19375 37.575L13.0594 45.4406C13.6406 46.0219 13.6406 46.9781 13.0594 47.5594C12.4781 48.1406 11.5219 48.1406 10.9406 47.5594L3.075 39.6937C1.10625 37.725 0 35.0531 0 32.2688V12C0 8.69063 2.69063 6 6 6Z" fill="#4F3422"/>
</g>
<defs>
<clipPath id="clip0_696_5878">
<rect width="60" height="48" fill="white"/>
</clipPath>
</defs>
</svg>
