<svg width="60" height="48" viewBox="0 0 60 48" fill="none" xmlns="http://www.w3.org/2000/svg">
<g clip-path="url(#clip0_696_5875)">
<path d="M15.75 5.25C15.75 4.65326 15.9871 4.08097 16.409 3.65901C16.831 3.23705 17.4033 3 18 3C18.5967 3 19.169 3.23705 19.591 3.65901C20.0129 4.08097 20.25 4.65326 20.25 5.25C20.25 5.84674 20.0129 6.41903 19.591 6.84099C19.169 7.26295 18.5967 7.5 18 7.5C17.4033 7.5 16.831 7.26295 16.409 6.84099C15.9871 6.41903 15.75 5.84674 15.75 5.25ZM23.25 5.25C23.25 4.56056 23.1142 3.87787 22.8504 3.24091C22.5865 2.60395 22.1998 2.0252 21.7123 1.53769C21.2248 1.05018 20.646 0.66347 20.0091 0.399632C19.3721 0.135795 18.6894 0 18 0C17.3106 0 16.6279 0.135795 15.9909 0.399632C15.354 0.66347 14.7752 1.05018 14.2877 1.53769C13.8002 2.0252 13.4135 2.60395 13.1496 3.24091C12.8858 3.87787 12.75 4.56056 12.75 5.25C12.75 5.93944 12.8858 6.62213 13.1496 7.25909C13.4135 7.89605 13.8002 8.4748 14.2877 8.96231C14.7752 9.44982 15.354 9.83653 15.9909 10.1004C16.6279 10.3642 17.3106 10.5 18 10.5C18.6894 10.5 19.3721 10.3642 20.0091 10.1004C20.646 9.83653 21.2248 9.44982 21.7123 8.96231C22.1998 8.4748 22.5865 7.89605 22.8504 7.25909C23.1142 6.62213 23.25 5.93944 23.25 5.25ZM16.8094 15H19.1906C19.8281 15 20.4375 15.1313 21 15.375V30H15V15.375C15.5625 15.1313 16.1719 15 16.8094 15ZM15 45V33H21V45H15ZM12 45H1.5C0.675 45 0 45.675 0 46.5C0 47.325 0.675 48 1.5 48H13.5H22.5H58.5C59.325 48 60 47.325 60 46.5C60 45.675 59.325 45 58.5 45H24V18.9562L28.6781 27.7125C29.0719 28.4438 29.9813 28.7156 30.7125 28.3313C31.4438 27.9469 31.7156 27.0281 31.3313 26.2969L25.8094 15.9656C24.5062 13.5281 21.9656 12 19.1906 12H16.8094C14.0438 12 11.4937 13.5281 10.1906 15.9656L4.67813 26.2969C4.28438 27.0281 4.56562 27.9375 5.29688 28.3313C6.02813 28.725 6.9375 28.4438 7.33125 27.7125L12 18.9469V45ZM56.5594 12.4406L47.5594 3.44063C46.9781 2.85938 46.0219 2.85938 45.4406 3.44063L36.4406 12.4406C35.8594 13.0219 35.8594 13.9781 36.4406 14.5594C37.0219 15.1406 37.9781 15.1406 38.5594 14.5594L45 8.11875V37.5C45 38.325 45.675 39 46.5 39C47.325 39 48 38.325 48 37.5V8.11875L54.4406 14.5594C55.0219 15.1406 55.9781 15.1406 56.5594 14.5594C57.1406 13.9781 57.1406 13.0219 56.5594 12.4406Z" fill="#4F3422"/>
</g>
<defs>
<clipPath id="clip0_696_5875">
<rect width="60" height="48" fill="white"/>
</clipPath>
</defs>
</svg>
