<svg width="60" height="48" viewBox="0 0 60 48" fill="none" xmlns="http://www.w3.org/2000/svg">
<g clip-path="url(#clip0_696_5890)">
<path d="M2.42814 0.318639C1.78127 -0.187611 0.83439 -0.0751108 0.318765 0.571764C-0.19686 1.21864 -0.0749847 2.16551 0.57189 2.68114L57.5719 47.6811C58.2188 48.1968 59.1656 48.0843 59.6813 47.4374C60.1969 46.7905 60.0844 45.8436 59.4375 45.328L2.42814 0.318639ZM60 34.4999V14.9999C60 13.3405 58.6594 11.9999 57 11.9999H52.5H49.5V14.9999V31.753L52.5 34.1249V14.9999H57V34.4999C57 35.3249 56.325 35.9999 55.5 35.9999H54.8813L57.8438 38.3436C59.1375 37.5561 60 36.1311 60 34.4999ZM37.8094 37.8093L34.7813 35.4186C34.7625 35.5218 34.7625 35.6249 34.7625 35.728C34.8 36.4874 34.5469 37.2561 34.0031 37.8749C32.85 39.178 30.8344 39.2343 29.6063 38.0061L28.8469 37.2468C28.5094 36.9093 28.0313 36.7499 27.5625 36.8249C27.0938 36.8999 26.6813 37.1905 26.4563 37.6124C26.2781 37.9499 26.0438 38.2593 25.7438 38.5311C24.45 39.6843 22.4813 39.628 21.2625 38.4093L17.5219 34.678L14.8406 31.9968C13.6781 30.8343 12.1313 30.1405 10.5 30.0374V16.2468L5.11876 11.9999H3.00002C1.34064 11.9999 1.53119e-05 13.3405 1.53119e-05 14.9999V34.4999C1.53119e-05 36.9843 2.01564 38.9999 4.50002 38.9999H6.00002C8.48439 38.9999 10.5 36.9843 10.5 34.4999V33.028C11.3344 33.1218 12.1125 33.4968 12.7125 34.0968L15.3938 36.778L16.8375 38.2218L16.8469 38.2311L19.125 40.5093C21.4781 42.8624 25.2563 42.9655 27.7313 40.753C27.8063 40.6874 27.8813 40.6218 27.9469 40.5468C30.4125 42.5436 34.0688 42.2905 36.2344 39.8624C36.7969 39.2343 37.2 38.5124 37.4531 37.753C37.5656 37.7811 37.6875 37.7999 37.8094 37.8186V37.8093ZM18.4125 22.4999L18.15 22.2936C18.1688 22.3686 18.1875 22.4343 18.2063 22.4999H18.4219H18.4125ZM27.4031 9.28114L24.5063 12.0186L26.8875 13.8936L29.4656 11.4561C31.1438 9.88114 33.3563 8.99989 35.6625 8.99989C37.7906 8.99989 39.8438 9.74989 41.4656 11.1186L45.6656 14.653C45.9 14.8499 46.1906 14.9718 46.4906 14.9999V11.4186L43.3969 8.82176C41.2313 6.99364 38.4938 5.99989 35.6625 5.99989C32.5875 5.99989 29.6344 7.17176 27.4031 9.28114ZM22.2563 9.29989L25.5563 5.99989H24.7406C22.6313 5.99989 20.5594 6.49676 18.6938 7.43426L21.3844 9.55301C21.675 9.45926 21.9656 9.37489 22.2563 9.29989ZM33.6375 16.7155L32.175 18.0655L34.3406 19.7811L36.0281 18.4124C36.2531 17.8874 36.1688 17.2499 35.7563 16.7999C35.1938 16.1905 34.2469 16.153 33.6375 16.7155ZM7.50002 14.9999V34.4999C7.50002 35.3249 6.82502 35.9999 6.00002 35.9999H4.50002C3.67502 35.9999 3.00002 35.3249 3.00002 34.4999V14.9999H7.50002Z" fill="#4F3422"/>
</g>
<defs>
<clipPath id="clip0_696_5890">
<rect width="60" height="48" fill="white"/>
</clipPath>
</defs>
</svg>
