<svg width="60" height="48" viewBox="0 0 60 48" fill="none" xmlns="http://www.w3.org/2000/svg">
<path d="M31.5 7.5C31.5 7.10218 31.342 6.72064 31.0607 6.43934C30.7794 6.15804 30.3978 6 30 6C29.6022 6 29.2206 6.15804 28.9393 6.43934C28.658 6.72064 28.5 7.10218 28.5 7.5C28.5 7.89782 28.658 8.27936 28.9393 8.56066C29.2206 8.84196 29.6022 9 30 9C30.3978 9 30.7794 8.84196 31.0607 8.56066C31.342 8.27936 31.5 7.89782 31.5 7.5ZM25.5 7.5C25.5 6.30653 25.9741 5.16193 26.818 4.31802C27.6619 3.47411 28.8065 3 30 3C31.1935 3 32.3381 3.47411 33.182 4.31802C34.0259 5.16193 34.5 6.30653 34.5 7.5C34.5 8.69347 34.0259 9.83807 33.182 10.682C32.3381 11.5259 31.1935 12 30 12C28.8065 12 27.6619 11.5259 26.818 10.682C25.9741 9.83807 25.5 8.69347 25.5 7.5ZM27.75 27H32.25V16.6406C31.8938 16.5469 31.5281 16.5 31.1438 16.5H28.8562C28.4812 16.5 28.1062 16.5469 27.75 16.6406V27ZM39.225 25.5375L35.25 19.0781V27C35.25 28.6594 33.9094 30 32.25 30H27.75C26.0906 30 24.75 28.6594 24.75 27V19.0781L20.775 25.5375C20.7563 25.5656 20.7469 25.5844 20.7281 25.6125C20.8313 25.7625 20.9344 25.9125 21.0375 26.0719L25.2844 32.9625C25.7156 33.6656 25.5 34.5938 24.7969 35.025C24.0938 35.4563 23.1656 35.2406 22.7344 34.5375L18.75 28.0781V34.5C18.75 36.1594 17.4094 37.5 15.75 37.5H11.25C9.59062 37.5 8.25 36.1594 8.25 34.5V28.0781L4.275 34.5375C3.84375 35.2406 2.91563 35.4656 2.2125 35.025C1.50938 34.5844 1.28437 33.6656 1.725 32.9625L5.97188 26.0719C7.33125 23.85 9.75 22.5 12.3563 22.5H14.6531C16.0219 22.5 17.3438 22.875 18.4781 23.55L22.4625 17.0719C23.8313 14.85 26.25 13.5 28.8562 13.5H31.1531C33.7594 13.5 36.1781 14.85 37.5375 17.0719L41.5312 23.55C42.675 22.875 43.9875 22.5 45.3562 22.5H47.6531C50.2594 22.5 52.6781 23.85 54.0375 26.0719L58.2844 32.9625C58.7156 33.6656 58.5 34.5938 57.7969 35.025C57.0938 35.4563 56.1656 35.2406 55.7344 34.5375L51.75 28.0781V34.5C51.75 36.1594 50.4094 37.5 48.75 37.5H44.25C42.5906 37.5 41.25 36.1594 41.25 34.5V28.0781L37.275 34.5375C36.8438 35.2406 35.9156 35.4656 35.2125 35.025C34.5094 34.5844 34.2844 33.6656 34.725 32.9625L38.9719 26.0719C39.0656 25.9125 39.1687 25.7625 39.2812 25.6125C39.2625 25.5844 39.2438 25.5656 39.2344 25.5375H39.225ZM1.5 42H58.5C59.325 42 60 42.675 60 43.5C60 44.325 59.325 45 58.5 45H1.5C0.675 45 0 44.325 0 43.5C0 42.675 0.675 42 1.5 42ZM13.5 18C13.8978 18 14.2794 17.842 14.5607 17.5607C14.842 17.2794 15 16.8978 15 16.5C15 16.1022 14.842 15.7206 14.5607 15.4393C14.2794 15.158 13.8978 15 13.5 15C13.1022 15 12.7206 15.158 12.4393 15.4393C12.158 15.7206 12 16.1022 12 16.5C12 16.8978 12.158 17.2794 12.4393 17.5607C12.7206 17.842 13.1022 18 13.5 18ZM13.5 12C14.0909 12 14.6761 12.1164 15.2221 12.3425C15.768 12.5687 16.2641 12.9002 16.682 13.318C17.0998 13.7359 17.4313 14.232 17.6575 14.7779C17.8836 15.3239 18 15.9091 18 16.5C18 17.0909 17.8836 17.6761 17.6575 18.2221C17.4313 18.768 17.0998 19.2641 16.682 19.682C16.2641 20.0998 15.768 20.4313 15.2221 20.6575C14.6761 20.8836 14.0909 21 13.5 21C12.9091 21 12.3239 20.8836 11.7779 20.6575C11.232 20.4313 10.7359 20.0998 10.318 19.682C9.90016 19.2641 9.56869 18.768 9.34254 18.2221C9.1164 17.6761 9 17.0909 9 16.5C9 15.9091 9.1164 15.3239 9.34254 14.7779C9.56869 14.232 9.90016 13.7359 10.318 13.318C10.7359 12.9002 11.232 12.5687 11.7779 12.3425C12.3239 12.1164 12.9091 12 13.5 12ZM11.25 25.6406V34.5H15.75V25.6406C15.3938 25.5469 15.0281 25.5 14.6437 25.5H12.3563C11.9813 25.5 11.6062 25.5469 11.25 25.6406ZM48 16.5C48 16.1022 47.842 15.7206 47.5607 15.4393C47.2794 15.158 46.8978 15 46.5 15C46.1022 15 45.7206 15.158 45.4393 15.4393C45.158 15.7206 45 16.1022 45 16.5C45 16.8978 45.158 17.2794 45.4393 17.5607C45.7206 17.842 46.1022 18 46.5 18C46.8978 18 47.2794 17.842 47.5607 17.5607C47.842 17.2794 48 16.8978 48 16.5ZM42 16.5C42 15.3065 42.4741 14.1619 43.318 13.318C44.1619 12.4741 45.3065 12 46.5 12C47.6935 12 48.8381 12.4741 49.682 13.318C50.5259 14.1619 51 15.3065 51 16.5C51 17.6935 50.5259 18.8381 49.682 19.682C48.8381 20.5259 47.6935 21 46.5 21C45.3065 21 44.1619 20.5259 43.318 19.682C42.4741 18.8381 42 17.6935 42 16.5ZM44.25 34.5H48.75V25.6406C48.3938 25.5469 48.0281 25.5 47.6438 25.5H45.3562C44.9812 25.5 44.6062 25.5469 44.25 25.6406V34.5Z" fill="#4F3422"/>
</svg>
