<svg width="36" height="48" viewBox="0 0 36 48" fill="none" xmlns="http://www.w3.org/2000/svg">
<g clip-path="url(#clip0_696_5899)">
<path d="M13.6406 6.375C14.1375 4.43437 15.9 3 18 3C20.1 3 21.8625 4.43437 22.3594 6.375C22.5281 7.04062 23.1281 7.5 23.8125 7.5H25.5C26.325 7.5 27 8.175 27 9V12H18H9V9C9 8.175 9.675 7.5 10.5 7.5H12.1875C12.8719 7.5 13.4719 7.04062 13.6406 6.375ZM18 0C14.925 0 12.2812 1.85625 11.1281 4.5H10.5C8.54063 4.5 6.87187 5.75625 6.25312 7.5H6C2.69063 7.5 0 10.1906 0 13.5V42C0 45.3094 2.69063 48 6 48H30C33.3094 48 36 45.3094 36 42V13.5C36 10.1906 33.3094 7.5 30 7.5H29.7469C29.1281 5.75625 27.4594 4.5 25.5 4.5H24.8719C23.7187 1.85625 21.075 0 18 0ZM30 10.5C31.6594 10.5 33 11.8406 33 13.5V42C33 43.6594 31.6594 45 30 45H6C4.34062 45 3 43.6594 3 42V13.5C3 11.8406 4.34062 10.5 6 10.5V12C6 13.6594 7.34062 15 9 15H18H27C28.6594 15 30 13.6594 30 12V10.5ZM19.5 7.5C19.5 7.10218 19.342 6.72064 19.0607 6.43934C18.7794 6.15804 18.3978 6 18 6C17.6022 6 17.2206 6.15804 16.9393 6.43934C16.658 6.72064 16.5 7.10218 16.5 7.5C16.5 7.89782 16.658 8.27936 16.9393 8.56066C17.2206 8.84196 17.6022 9 18 9C18.3978 9 18.7794 8.84196 19.0607 8.56066C19.342 8.27936 19.5 7.89782 19.5 7.5ZM9.81562 21.9188L9.79688 21.9844C9.59062 22.7812 10.0688 23.6062 10.8656 23.8125C11.6625 24.0188 12.4875 23.5406 12.6937 22.7438L12.7125 22.6781C12.975 21.6844 13.8656 21 14.8875 21H20.25C21.9 21 23.25 22.3594 23.25 24.0281C23.25 25.1625 22.6125 26.2031 21.6094 26.7188L17.3156 28.9125C16.8094 29.1656 16.5 29.6813 16.5 30.2531V33C16.5 33.825 17.175 34.5 18 34.5C18.825 34.5 19.5 33.825 19.5 33V31.1531L22.9781 29.3812C24.9938 28.35 26.25 26.2688 26.25 24.0188C26.25 20.7188 23.5781 17.9906 20.25 17.9906H14.8969C12.5062 17.9906 10.425 19.6031 9.81562 21.9094V21.9188ZM20.25 39C20.25 38.4033 20.0129 37.831 19.591 37.409C19.169 36.9871 18.5967 36.75 18 36.75C17.4033 36.75 16.831 36.9871 16.409 37.409C15.9871 37.831 15.75 38.4033 15.75 39C15.75 39.5967 15.9871 40.169 16.409 40.591C16.831 41.0129 17.4033 41.25 18 41.25C18.5967 41.25 19.169 41.0129 19.591 40.591C20.0129 40.169 20.25 39.5967 20.25 39Z" fill="#4F3422"/>
</g>
<defs>
<clipPath id="clip0_696_5899">
<rect width="36" height="48" fill="white"/>
</clipPath>
</defs>
</svg>
