<svg width="60" height="48" viewBox="0 0 60 48" fill="none" xmlns="http://www.w3.org/2000/svg">
<g clip-path="url(#clip0_696_5893)">
<path d="M4.5 3C3.675 3 3 3.675 3 4.5V37.5C3 38.325 3.675 39 4.5 39H12V32.4C12 25.7813 15.8625 19.7719 21.8719 17.0156C26.8219 14.7469 30 9.79688 30 4.35V3H4.5ZM33 4.35C33 10.3313 29.85 15.8156 24.8063 18.8531L30.7594 27H36.8063C37.6781 27 38.5125 27.3844 39.0844 28.05L47.6344 38.025L48.4688 39H55.5C56.325 39 57 38.325 57 37.5V4.5C57 3.675 56.325 3 55.5 3H33V4.35ZM34.4062 39H44.5219L36.8063 30H31.9969L26.9344 33.7969L35.7 45.6094C36.1969 46.275 36.0562 47.2125 35.3906 47.7094C34.725 48.2062 33.7875 48.0656 33.2906 47.4L29.2969 42H4.5C2.01562 42 0 39.9844 0 37.5V4.5C0 2.01562 2.01562 0 4.5 0H55.5C57.9844 0 60 2.01562 60 4.5V37.5C60 39.9844 57.9844 42 55.5 42H36.6094L34.4062 39ZM25.1531 31.3875L28.4437 28.9219L22.1063 20.2594C20.8688 20.9531 19.7531 21.825 18.8063 22.8375L25.1531 31.3875ZM16.9219 25.3313C15.6844 27.4313 14.9906 29.8594 14.9906 32.4V39H27.0656L16.9313 25.3313H16.9219ZM15.75 12.75C15.75 12.1533 15.5129 11.581 15.091 11.159C14.669 10.7371 14.0967 10.5 13.5 10.5C12.9033 10.5 12.331 10.7371 11.909 11.159C11.4871 11.581 11.25 12.1533 11.25 12.75C11.25 13.3467 11.4871 13.919 11.909 14.341C12.331 14.7629 12.9033 15 13.5 15C14.0967 15 14.669 14.7629 15.091 14.341C15.5129 13.919 15.75 13.3467 15.75 12.75ZM8.25 12.75C8.25 12.0606 8.3858 11.3779 8.64963 10.7409C8.91347 10.104 9.30018 9.5252 9.78769 9.03769C10.2752 8.55018 10.854 8.16347 11.4909 7.89963C12.1279 7.6358 12.8106 7.5 13.5 7.5C14.1894 7.5 14.8721 7.6358 15.5091 7.89963C16.146 8.16347 16.7248 8.55018 17.2123 9.03769C17.6998 9.5252 18.0865 10.104 18.3504 10.7409C18.6142 11.3779 18.75 12.0606 18.75 12.75C18.75 13.4394 18.6142 14.1221 18.3504 14.7591C18.0865 15.396 17.6998 15.9748 17.2123 16.4623C16.7248 16.9498 16.146 17.3365 15.5091 17.6004C14.8721 17.8642 14.1894 18 13.5 18C12.8106 18 12.1279 17.8642 11.4909 17.6004C10.854 17.3365 10.2752 16.9498 9.78769 16.4623C9.30018 15.9748 8.91347 15.396 8.64963 14.7591C8.3858 14.1221 8.25 13.4394 8.25 12.75Z" fill="#4F3422"/>
</g>
<defs>
<clipPath id="clip0_696_5893">
<rect width="60" height="48" fill="white"/>
</clipPath>
</defs>
</svg>
