<svg width="60" height="48" viewBox="0 0 60 48" fill="none" xmlns="http://www.w3.org/2000/svg">
<path d="M24.7406 6C21.5625 6 18.4875 7.125 16.0594 9.15937L13.5 11.3156V14.9813C13.7531 14.9344 13.9969 14.8219 14.1937 14.6531L17.9906 11.4656C19.2375 10.4156 20.7 9.68437 22.2562 9.3L25.5563 6H24.7406ZM10.5 33.0281C11.3344 33.1219 12.1125 33.4969 12.7125 34.0969L15.3937 36.7781L16.8375 38.2219L16.8469 38.2312L19.125 40.5094C21.4781 42.8625 25.2562 42.9656 27.7312 40.7531C27.8062 40.6875 27.8813 40.6219 27.9469 40.5469C30.4125 42.5437 34.0687 42.2906 36.2344 39.8625C36.7969 39.2344 37.2 38.5125 37.4531 37.7531C39.2531 38.1281 41.2031 37.6781 42.675 36.3656C43.7344 35.4187 44.3812 34.1906 44.6062 32.8969H49.5V34.5C49.5 36.9844 51.5156 39 54 39H55.5C57.9844 39 60 36.9844 60 34.5V15C60 13.3406 58.6594 12 57 12H52.5H49.5V15V29.8875H44.3531C44.0625 29.0719 43.5938 28.2937 42.9375 27.6375L34.9125 19.6125L35.6719 18.9094C36.2812 18.3469 36.3187 17.4 35.7562 16.7906C35.1937 16.1813 34.2469 16.1437 33.6375 16.7062L26.5031 23.2875C25.2656 24.4312 23.3531 24.45 22.0969 23.325C20.6531 22.0406 20.625 19.8094 22.0219 18.4875L29.4656 11.4562C31.1437 9.88125 33.3562 9 35.6625 9C37.7906 9 39.8437 9.75 41.4656 11.1187L45.6656 14.6531C45.9 14.85 46.1906 14.9719 46.4906 15V11.4188L43.3969 8.82187C41.2312 6.99375 38.4937 6 35.6625 6C32.5875 6 29.6344 7.17188 27.4031 9.28125L19.9594 16.3125C17.2781 18.8438 17.3437 23.1281 20.1 25.575C22.5187 27.7219 26.1656 27.6844 28.5375 25.5L32.7094 21.6562L40.8187 29.7656C42.0375 30.9844 41.9813 32.9813 40.6875 34.125C39.6656 35.0344 38.1844 35.1187 37.0687 34.4062C36.6 34.0969 36 34.0875 35.5125 34.3594C35.025 34.6313 34.7344 35.1656 34.7625 35.7281C34.8 36.4875 34.5469 37.2563 34.0031 37.875C32.85 39.1781 30.8344 39.2344 29.6062 38.0062L28.8469 37.2469C28.5094 36.9094 28.0312 36.75 27.5625 36.825C27.0938 36.9 26.6813 37.1906 26.4563 37.6125C26.2781 37.95 26.0438 38.2594 25.7438 38.5312C24.45 39.6844 22.4813 39.6281 21.2625 38.4094L17.5219 34.6781L14.8406 31.9969C13.6781 30.8344 12.1312 30.1406 10.5 30.0375V15V12H7.5H3C1.34062 12 0 13.3406 0 15V34.5C0 36.9844 2.01562 39 4.5 39H6C8.48438 39 10.5 36.9844 10.5 34.5V33.0281ZM7.5 15V34.5C7.5 35.325 6.825 36 6 36H4.5C3.675 36 3 35.325 3 34.5V15H7.5ZM57 15V34.5C57 35.325 56.325 36 55.5 36H54C53.175 36 52.5 35.325 52.5 34.5V15H57Z" fill="#4F3422"/>
</svg>
