<svg width="60" height="48" viewBox="0 0 60 48" fill="none" xmlns="http://www.w3.org/2000/svg">
<g clip-path="url(#clip0_696_5896)">
<path d="M48 9H6C4.34062 9 3 10.3406 3 12V36C3 37.6594 4.34062 39 6 39H31.7063L30.9563 42H6C2.69063 42 0 39.3094 0 36V12C0 8.69063 2.69063 6 6 6H48C51.3094 6 54 8.69063 54 12V18C52.9781 17.9719 51.9562 18.1406 51 18.525V12C51 10.3406 49.6594 9 48 9ZM24 28.5C24 27.675 24.675 27 25.5 27H34.5C35.325 27 36 27.675 36 28.5C36 29.325 35.325 30 34.5 30H25.5C24.675 30 24 29.325 24 28.5ZM25.5 18H43.5C44.325 18 45 18.675 45 19.5C45 20.325 44.325 21 43.5 21H25.5C24.675 21 24 20.325 24 19.5C24 18.675 24.675 18 25.5 18ZM13.5 12.75C14.325 12.75 15 13.425 15 14.25V15.8719C15.7969 15.9844 16.5656 16.1625 17.2594 16.35C18.0563 16.5656 18.5344 17.3812 18.3187 18.1875C18.1031 18.9938 17.2875 19.4625 16.4813 19.2469C15.4406 18.9656 14.4187 18.7594 13.4719 18.75C12.6844 18.7406 11.8406 18.9187 11.2594 19.2656C10.725 19.5844 10.5 19.95 10.5 20.4656C10.5 20.8125 10.6219 21.075 11.1844 21.4125C11.8313 21.7969 12.7406 22.0781 13.9219 22.4344L13.9688 22.4437C15.0281 22.7625 16.3406 23.1562 17.3719 23.8125C18.5063 24.525 19.4719 25.6594 19.5 27.3938C19.5281 29.2031 18.6 30.5156 17.3531 31.2937C16.6313 31.7437 15.8156 32.0062 15 32.1469V33.75C15 34.575 14.325 35.25 13.5 35.25C12.675 35.25 12 34.575 12 33.75V32.0813C10.95 31.8844 9.96562 31.5469 9.10312 31.2469C8.90625 31.1812 8.70938 31.1156 8.52188 31.05C7.73438 30.7875 7.3125 29.9344 7.575 29.1562C7.8375 28.3781 8.69062 27.9469 9.46875 28.2094C9.70312 28.2844 9.91875 28.3594 10.1344 28.4344C11.4094 28.8656 12.4406 29.2219 13.5375 29.25C14.3906 29.2781 15.2156 29.0906 15.7594 28.7531C16.2375 28.4531 16.5 28.0688 16.4906 27.4406C16.4812 27.0094 16.3219 26.7094 15.7687 26.3531C15.1312 25.95 14.2219 25.6594 13.05 25.3031L12.9 25.2562C11.8688 24.9469 10.6219 24.5719 9.6375 23.9719C8.5125 23.2969 7.51875 22.2 7.50937 20.475C7.5 18.6562 8.52188 17.4 9.74063 16.6781C10.4438 16.2656 11.2219 16.0031 12 15.8625V14.25C12 13.425 12.675 12.75 13.5 12.75ZM54.6375 24.75C54.0562 24.1688 53.1 24.1688 52.5188 24.75L50.1938 27.075L53.9438 30.825L56.2688 28.5C56.85 27.9188 56.85 26.9625 56.2688 26.3812L54.6375 24.75ZM38.1094 39.1594C37.9125 39.3563 37.7812 39.5906 37.7156 39.8531L36.5625 44.4469L41.1562 43.2937C41.4187 43.2281 41.6625 43.0875 41.85 42.9L51.8156 32.9437L48.0656 29.1937L38.1094 39.1594ZM50.3906 22.6312C52.1438 20.8781 54.9938 20.8781 56.7563 22.6312L58.3875 24.2625C60.1406 26.0156 60.1406 28.8656 58.3875 30.6281L43.9781 45.0281C43.3969 45.6094 42.675 46.0125 41.8875 46.2094L34.8656 47.9625C34.35 48.0938 33.8156 47.9437 33.4406 47.5687C33.0656 47.1937 32.9156 46.6594 33.0469 46.1438L34.8 39.1219C34.9969 38.3344 35.4094 37.6125 35.9812 37.0312L50.3906 22.6312Z" fill="#4F3422"/>
</g>
<defs>
<clipPath id="clip0_696_5896">
<rect width="60" height="48" fill="white"/>
</clipPath>
</defs>
</svg>
