<svg width="48" height="48" viewBox="0 0 48 48" fill="none" xmlns="http://www.w3.org/2000/svg">
<path d="M15 4.5V9H33V4.5C33 3.675 32.325 3 31.5 3H16.5C15.675 3 15 3.675 15 4.5ZM12 9V4.5C12 2.01562 14.0156 0 16.5 0H31.5C33.9844 0 36 2.01562 36 4.5V9H42C45.3094 9 48 11.6906 48 15V39C48 42.3094 45.3094 45 42 45H6C2.69063 45 0 42.3094 0 39V15C0 11.6906 2.69063 9 6 9H12ZM34.5 12H13.5H6C4.34062 12 3 13.3406 3 15V24H16.5H19.5H28.5H31.5H45V15C45 13.3406 43.6594 12 42 12H34.5ZM45 27H31.5V31.5C31.5 33.1594 30.1594 34.5 28.5 34.5H19.5C17.8406 34.5 16.5 33.1594 16.5 31.5V27H3V39C3 40.6594 4.34062 42 6 42H42C43.6594 42 45 40.6594 45 39V27ZM19.5 27V31.5H28.5V27H19.5Z" fill="#4F3422"/>
</svg>
