<svg width="54" height="48" viewBox="0 0 54 48" fill="none" xmlns="http://www.w3.org/2000/svg">
<g clip-path="url(#clip0_697_6170)">
<path d="M6.31896 0.572363C6.83458 -0.0745117 7.77208 -0.187012 8.42833 0.319238L28.7815 16.313L31.1158 2.32549C31.3315 0.984863 32.494 0.000488281 33.8627 0.000488281C34.7346 0.000488281 35.5596 0.412988 36.094 1.11611L37.5002 3.00049H41.6346C42.8252 3.00049 43.969 3.47861 44.8127 4.32236L46.5002 6.00049H49.5002C51.9846 6.00049 54.0002 8.01611 54.0002 10.5005V12.0005C54.0002 16.9692 49.969 21.0005 45.0002 21.0005H40.9971L40.5002 24.0005V42.7505C40.5002 45.6474 38.1471 48.0005 35.2502 48.0005H33.7502C30.8533 48.0005 28.5002 45.6474 28.5002 42.7505V38.3161V35.1849C27.5346 35.4942 26.5315 35.7192 25.5002 35.8505C24.7596 35.9442 24.0096 36.0005 23.2502 36.0005C22.4908 36.0005 21.7408 35.9536 21.0002 35.8505C19.969 35.7192 18.9658 35.4942 18.0002 35.1849V38.3067V42.7505C18.0002 45.6474 15.6471 48.0005 12.7502 48.0005H11.2502C8.35333 48.0005 6.00021 45.6474 6.00021 42.7505V19.5005C6.00021 19.4349 6.00021 19.3692 6.00958 19.313C5.94396 19.2942 5.87833 19.2849 5.81271 19.2661C3.19708 18.5911 1.09708 16.538 0.412707 13.8192L0.047082 12.3661C-0.149793 11.5599 0.337707 10.7442 1.13458 10.5474C1.93146 10.3505 2.75646 10.838 2.95333 11.6349L3.31896 13.088C3.34708 13.2192 3.39396 13.3411 3.43146 13.4724C3.61896 14.0161 3.90958 14.513 4.27521 14.9349C5.10958 15.9099 6.33771 16.5005 7.68771 16.5005H9.00021H12.7502H15.0002H24.1596L6.57208 2.68174C5.92521 2.16611 5.81271 1.22861 6.31896 0.572363ZM30.2721 32.7661C31.0408 33.3286 31.5002 34.2286 31.5002 35.1849V42.7505C31.5002 43.9974 32.5033 45.0005 33.7502 45.0005H35.2502C36.4971 45.0005 37.5002 43.9974 37.5002 42.7505V24.5536H37.4908L28.8377 19.5005C28.8096 19.5005 28.7721 19.5005 28.744 19.5005H27.0002V32.5036C27.1971 32.4474 27.394 32.3911 27.5908 32.3255C28.5002 32.0349 29.5033 32.1942 30.2721 32.7567V32.7661ZM24.0002 32.9817V19.5005H15.0002H12.7502H9.00021V42.7505C9.00021 43.9974 10.0033 45.0005 11.2502 45.0005H12.7502C13.9971 45.0005 15.0002 43.9974 15.0002 42.7505V35.1849C15.0002 34.2286 15.4596 33.3286 16.2283 32.7661C16.9971 32.2036 18.0002 32.0349 18.9096 32.3349C20.269 32.7661 21.7315 33.0099 23.2502 33.0099C23.5033 33.0099 23.7565 33.0005 24.0002 32.9911V32.9817ZM38.044 20.5036C38.2877 19.0599 39.5346 18.0005 41.0065 18.0005H45.0002C48.3096 18.0005 51.0002 15.3099 51.0002 12.0005V10.5005C51.0002 9.67549 50.3252 9.00049 49.5002 9.00049H46.5002C45.7033 9.00049 44.944 8.68174 44.3815 8.11924L42.694 6.44111C42.4127 6.15986 42.0283 6.00049 41.6346 6.00049H37.5002C36.5533 6.00049 35.6627 5.55986 35.1002 4.80049L33.9846 3.31924L31.7065 16.9974C31.669 17.213 31.6127 17.4099 31.5377 17.6067L37.9033 21.3192L38.0346 20.513L38.044 20.5036ZM40.5002 9.00049C40.898 9.00049 41.2796 9.15852 41.5609 9.43983C41.8422 9.72113 42.0002 10.1027 42.0002 10.5005C42.0002 10.8983 41.8422 11.2798 41.5609 11.5611C41.2796 11.8425 40.898 12.0005 40.5002 12.0005C40.1024 12.0005 39.7209 11.8425 39.4395 11.5611C39.1582 11.2798 39.0002 10.8983 39.0002 10.5005C39.0002 10.1027 39.1582 9.72113 39.4395 9.43983C39.7209 9.15852 40.1024 9.00049 40.5002 9.00049Z" fill="#4F3422"/>
</g>
<defs>
<clipPath id="clip0_697_6170">
<rect width="54" height="48" fill="white" transform="translate(0 0.000488281)"/>
</clipPath>
</defs>
</svg>
