<svg width="48" height="48" viewBox="0 0 48 48" fill="none" xmlns="http://www.w3.org/2000/svg">
<path d="M19.1063 9.20674C20.0531 7.26611 21.9187 6.00049 24 6.00049C26.0813 6.00049 27.9469 7.26611 28.8938 9.20674C29.0813 9.59111 29.4188 9.88174 29.8313 9.99424C30.2438 10.1067 30.6844 10.0505 31.0406 9.81611C31.875 9.30049 32.8312 9.00049 33.8438 9.00049C36.45 9.00049 38.7281 10.988 39.2625 13.7817C39.4031 14.5036 40.0406 15.0192 40.7719 15.0005C40.8094 15.0005 40.8375 15.0005 40.875 15.0005C43.0594 15.0005 45 16.9224 45 19.5005C45 20.3255 45.675 21.0005 46.5 21.0005C47.325 21.0005 48 20.3255 48 19.5005C48 15.8067 45.4219 12.6099 41.9156 12.0755C40.7813 8.58799 37.6406 6.00049 33.8438 6.00049C32.775 6.00049 31.7531 6.20674 30.8156 6.58174C29.2688 4.42549 26.8125 3.00049 24 3.00049C21.1875 3.00049 18.7313 4.42549 17.1844 6.58174C16.2469 6.20674 15.225 6.00049 14.1562 6.00049C10.3594 6.00049 7.21875 8.58799 6.08438 12.0755C2.57812 12.6099 0 15.8067 0 19.5005C0 20.3255 0.675 21.0005 1.5 21.0005C2.325 21.0005 3 20.3255 3 19.5005C3 16.9224 4.94063 15.0005 7.125 15.0005C7.1625 15.0005 7.19062 15.0005 7.22812 15.0005C7.95937 15.0192 8.60625 14.5036 8.7375 13.7817C9.27187 10.988 11.55 9.00049 14.1562 9.00049C15.1688 9.00049 16.125 9.30049 16.95 9.81611C17.3063 10.0411 17.7562 10.1067 18.1594 9.99424C18.5625 9.88174 18.9094 9.59111 19.0969 9.20674H19.1063ZM12.1219 39.8536C11.8688 39.0099 11.2594 38.3161 10.4531 37.9599C6.17813 36.0942 3.17812 31.9036 3.00937 27.0005H44.9906C44.8219 31.9036 41.8125 36.0942 37.5469 37.9599C36.7406 38.3161 36.1219 39.0099 35.8781 39.8536C35.5031 41.1005 34.3594 42.0005 33 42.0005H15C13.6406 42.0005 12.4969 41.1005 12.1219 39.8536ZM2.56875 24.0005C1.15312 24.0005 0 25.1536 0 26.5692C0 32.888 3.80625 38.3255 9.24375 40.7067C9.98437 43.1911 12.2812 45.0005 15 45.0005H33C35.7188 45.0005 38.0156 43.1911 38.7562 40.7161C44.2031 38.3349 48 32.8974 48 26.5786C48 25.163 46.8469 24.0099 45.4313 24.0099H2.56875V24.0005Z" fill="#4F3422"/>
</svg>
