<svg width="48" height="48" viewBox="0 0 48 48" fill="none" xmlns="http://www.w3.org/2000/svg">
<path d="M25.5 11.8217L26.2406 10.9874L26.6344 10.5467C29.0719 7.80924 32.7562 6.53424 36.3656 7.19049C41.3625 8.09986 44.9906 12.4499 44.9906 17.5311V17.8592C44.9906 20.8874 43.7344 23.7749 41.5219 25.8374L24.2812 41.8874C24.2062 41.953 24.1031 41.9999 24 41.9999C23.8969 41.9999 23.7938 41.9624 23.7188 41.8874L6.47812 25.828C4.25625 23.7655 3 20.878 3 17.8499V17.5217C3 12.4405 6.62813 8.09049 11.625 7.18111C15.2344 6.52486 18.9188 7.79986 21.3563 10.5374L21.75 10.978L22.4906 11.8124V13.4999C22.4906 13.8936 22.65 14.278 22.9313 14.5592L26.1375 17.7655L18.6562 22.753C18.3094 22.9874 18.075 23.353 18.0094 23.7749C17.9438 24.1967 18.0562 24.6092 18.3187 24.9374L24.3187 32.4374C24.8344 33.0842 25.7812 33.1874 26.4281 32.6717C27.075 32.1561 27.1781 31.2092 26.6625 30.5624L21.6844 24.3374L29.325 19.2467C29.7 18.9936 29.9437 18.5905 29.9812 18.1499C30.0187 17.7092 29.8688 17.2592 29.55 16.9405L25.5 12.8811V11.8217ZM36.9094 4.22799C33.075 3.53424 29.1656 4.52799 26.1562 6.89049C25.9875 7.02174 25.8188 7.16236 25.65 7.31236C25.2094 7.69674 24.7969 8.09986 24.4031 8.54049L24 8.99049L23.6063 8.54986C23.0625 7.94049 22.4813 7.38736 21.8531 6.89986C18.8438 4.53736 14.9344 3.53424 11.0906 4.22799C4.66875 5.39986 0 10.9967 0 17.5217V17.8499C0 21.2249 1.22812 24.4686 3.43125 26.9905C3.75 27.3467 4.07812 27.6936 4.43437 28.0217L21.6844 44.0811C22.3125 44.6717 23.1469 44.9905 24.0094 44.9905C24.7594 44.9905 25.4906 44.7374 26.0813 44.2874C26.1656 44.2217 26.25 44.1561 26.325 44.0811L43.575 28.0311C43.9312 27.703 44.2594 27.3561 44.5781 26.9999C46.7719 24.4686 48 21.2249 48 17.8499V17.5217C48 10.9967 43.3313 5.39986 36.9094 4.22799Z" fill="#4F3422"/>
</svg>
