<svg width="48" height="48" viewBox="0 0 48 48" fill="none" xmlns="http://www.w3.org/2000/svg">
<g clip-path="url(#clip0_697_6183)">
<path d="M3 24C3 12.4031 12.4031 3 24 3C35.5969 3 45 12.4031 45 24C45 24.9469 44.9344 25.8844 44.8125 26.8031C44.7 27.6281 45.2813 28.3781 46.0969 28.4906C46.9125 28.6031 47.6719 28.0219 47.7844 27.2063C47.925 26.1563 48 25.0875 48 24.0094C48 10.7438 37.2562 0 24 0C10.7438 0 0 10.7438 0 24C0 37.2562 10.7438 48 24 48C27.0375 48 29.9531 47.4375 32.6344 46.3969C33.4031 46.0969 33.7969 45.2344 33.4969 44.4563C33.1969 43.6781 32.3344 43.2937 31.5563 43.5938C29.2125 44.4938 26.6719 44.9906 24 44.9906C12.4031 45 3 35.5969 3 24ZM21 31.5C21 30.675 20.325 30 19.5 30C18.675 30 18 30.675 18 31.5V34.5C18 35.325 18.675 36 19.5 36C20.325 36 21 35.325 21 34.5V31.5ZM25.5 30C24.675 30 24 30.675 24 31.5V34.5C24 35.325 24.675 36 25.5 36C26.325 36 27 35.325 27 34.5V31.5C27 30.675 26.325 30 25.5 30ZM15 31.5C15 30.675 14.325 30 13.5 30C12.675 30 12 30.675 12 31.5V34.5C12 35.325 12.675 36 13.5 36C14.325 36 15 35.325 15 34.5V31.5ZM18.7875 19.5C18.7875 18.9033 18.5504 18.331 18.1285 17.909C17.7065 17.4871 17.1342 17.25 16.5375 17.25C15.9408 17.25 15.3685 17.4871 14.9465 17.909C14.5246 18.331 14.2875 18.9033 14.2875 19.5C14.2875 20.0967 14.5246 20.669 14.9465 21.091C15.3685 21.5129 15.9408 21.75 16.5375 21.75C17.1342 21.75 17.7065 21.5129 18.1285 21.091C18.5504 20.669 18.7875 20.0967 18.7875 19.5ZM31.5375 21.75C32.1342 21.75 32.7065 21.5129 33.1285 21.091C33.5504 20.669 33.7875 20.0967 33.7875 19.5C33.7875 18.9033 33.5504 18.331 33.1285 17.909C32.7065 17.4871 32.1342 17.25 31.5375 17.25C30.9408 17.25 30.3685 17.4871 29.9465 17.909C29.5246 18.331 29.2875 18.9033 29.2875 19.5C29.2875 20.0967 29.5246 20.669 29.9465 21.091C30.3685 21.5129 30.9408 21.75 31.5375 21.75ZM34.7906 29.6906L32.6813 31.8C31.7813 32.7 31.5469 34.0594 32.0906 35.2031L34.8281 40.9969C36.8625 45.3 42.5438 46.2844 45.9094 42.9187C49.275 39.5531 48.2906 33.8719 43.9875 31.8375L38.1937 29.1C37.05 28.5562 35.6906 28.8 34.7906 29.6906ZM42.7031 34.5469C45.1312 35.6906 45.6844 38.8969 43.7906 40.7906C41.8969 42.6844 38.6906 42.1312 37.5469 39.7031L34.8094 33.9094L36.9187 31.8L42.7125 34.5375L42.7031 34.5469ZM42.7969 38.2969C43.2375 37.8563 43.2375 37.1437 42.7969 36.7031C42.3563 36.2625 41.6437 36.2625 41.2031 36.7031L39.7031 38.2031C39.2625 38.6437 39.2625 39.3563 39.7031 39.7969C40.1437 40.2375 40.8563 40.2375 41.2969 39.7969L42.7969 38.2969Z" fill="#4F3422"/>
</g>
<defs>
<clipPath id="clip0_697_6183">
<rect width="48" height="48" fill="white"/>
</clipPath>
</defs>
</svg>
