<svg width="48" height="48" viewBox="0 0 48 48" fill="none" xmlns="http://www.w3.org/2000/svg">
<g clip-path="url(#clip0_697_6189)">
<path d="M14.5594 0.44082L20.5594 6.44082C21.1406 7.02207 21.1406 7.97832 20.5594 8.55957C19.9781 9.14082 19.0219 9.14082 18.4406 8.55957L13.5 3.61895L8.55938 8.55957C7.97813 9.14082 7.02187 9.14082 6.44062 8.55957C5.85937 7.97832 5.85937 7.02207 6.44062 6.44082L12.4406 0.44082C13.0219 -0.14043 13.9781 -0.14043 14.5594 0.44082ZM29.5594 0.44082L34.5 5.38145L39.4406 0.44082C40.0219 -0.14043 40.9781 -0.14043 41.5594 0.44082C42.1406 1.02207 42.1406 1.97832 41.5594 2.55957L35.5594 8.55957C34.9781 9.14082 34.0219 9.14082 33.4406 8.55957L27.4406 2.55957C26.8594 1.97832 26.8594 1.02207 27.4406 0.44082C28.0219 -0.14043 28.9781 -0.14043 29.5594 0.44082ZM6 15.0002C4.34062 15.0002 3 16.3408 3 18.0002V42.0002C3 43.6596 4.34062 45.0002 6 45.0002H42C43.6594 45.0002 45 43.6596 45 42.0002V18.0002C45 16.3408 43.6594 15.0002 42 15.0002H6ZM0 18.0002C0 14.6908 2.69063 12.0002 6 12.0002H42C45.3094 12.0002 48 14.6908 48 18.0002V42.0002C48 45.3096 45.3094 48.0002 42 48.0002H6C2.69063 48.0002 0 45.3096 0 42.0002V18.0002ZM17.25 24.7502C17.25 24.1535 17.0129 23.5812 16.591 23.1592C16.169 22.7372 15.5967 22.5002 15 22.5002C14.4033 22.5002 13.831 22.7372 13.409 23.1592C12.9871 23.5812 12.75 24.1535 12.75 24.7502C12.75 25.3469 12.9871 25.9192 13.409 26.3412C13.831 26.7631 14.4033 27.0002 15 27.0002C15.5967 27.0002 16.169 26.7631 16.591 26.3412C17.0129 25.9192 17.25 25.3469 17.25 24.7502ZM9.75 24.7502C9.75 24.0608 9.8858 23.3781 10.1496 22.7411C10.4135 22.1041 10.8002 21.5254 11.2877 21.0379C11.7752 20.5504 12.354 20.1637 12.9909 19.8998C13.6279 19.636 14.3106 19.5002 15 19.5002C15.6894 19.5002 16.3721 19.636 17.0091 19.8998C17.646 20.1637 18.2248 20.5504 18.7123 21.0379C19.1998 21.5254 19.5865 22.1041 19.8504 22.7411C20.1142 23.3781 20.25 24.0608 20.25 24.7502C20.25 25.4396 20.1142 26.1223 19.8504 26.7593C19.5865 27.3962 19.1998 27.975 18.7123 28.4625C18.2248 28.95 17.646 29.3367 17.0091 29.6006C16.3721 29.8644 15.6894 30.0002 15 30.0002C14.3106 30.0002 13.6279 29.8644 12.9909 29.6006C12.354 29.3367 11.7752 28.95 11.2877 28.4625C10.8002 27.975 10.4135 27.3962 10.1496 26.7593C9.8858 26.1223 9.75 25.4396 9.75 24.7502ZM33 27.0002C33.5967 27.0002 34.169 26.7631 34.591 26.3412C35.0129 25.9192 35.25 25.3469 35.25 24.7502C35.25 24.1535 35.0129 23.5812 34.591 23.1592C34.169 22.7372 33.5967 22.5002 33 22.5002C32.4033 22.5002 31.831 22.7372 31.409 23.1592C30.9871 23.5812 30.75 24.1535 30.75 24.7502C30.75 25.3469 30.9871 25.9192 31.409 26.3412C31.831 26.7631 32.4033 27.0002 33 27.0002ZM33 19.5002C33.6894 19.5002 34.3721 19.636 35.0091 19.8998C35.646 20.1637 36.2248 20.5504 36.7123 21.0379C37.1998 21.5254 37.5865 22.1041 37.8504 22.7411C38.1142 23.3781 38.25 24.0608 38.25 24.7502C38.25 25.4396 38.1142 26.1223 37.8504 26.7593C37.5865 27.3962 37.1998 27.975 36.7123 28.4625C36.2248 28.95 35.646 29.3367 35.0091 29.6006C34.3721 29.8644 33.6894 30.0002 33 30.0002C32.3106 30.0002 31.6279 29.8644 30.9909 29.6006C30.354 29.3367 29.7752 28.95 29.2877 28.4625C28.8002 27.975 28.4135 27.3962 28.1496 26.7593C27.8858 26.1223 27.75 25.4396 27.75 24.7502C27.75 24.0608 27.8858 23.3781 28.1496 22.7411C28.4135 22.1041 28.8002 21.5254 29.2877 21.0379C29.7752 20.5504 30.354 20.1637 30.9909 19.8998C31.6279 19.636 32.3106 19.5002 33 19.5002ZM13.5 36.0002C11.8406 36.0002 10.5 37.3408 10.5 39.0002V40.5002C10.5 41.3252 9.825 42.0002 9 42.0002C8.175 42.0002 7.5 41.3252 7.5 40.5002V39.0002C7.5 35.6908 10.1906 33.0002 13.5 33.0002H16.5C19.8094 33.0002 22.5 35.6908 22.5 39.0002V40.5002C22.5 41.3252 21.825 42.0002 21 42.0002C20.175 42.0002 19.5 41.3252 19.5 40.5002V39.0002C19.5 37.3408 18.1594 36.0002 16.5 36.0002H13.5ZM28.5 39.0002V40.5002C28.5 41.3252 27.825 42.0002 27 42.0002C26.175 42.0002 25.5 41.3252 25.5 40.5002V39.0002C25.5 35.6908 28.1906 33.0002 31.5 33.0002H34.5C37.8094 33.0002 40.5 35.6908 40.5 39.0002V40.5002C40.5 41.3252 39.825 42.0002 39 42.0002C38.175 42.0002 37.5 41.3252 37.5 40.5002V39.0002C37.5 37.3408 36.1594 36.0002 34.5 36.0002H31.5C29.8406 36.0002 28.5 37.3408 28.5 39.0002Z" fill="#4F3422"/>
</g>
<defs>
<clipPath id="clip0_697_6189">
<rect width="48" height="48" fill="white"/>
</clipPath>
</defs>
</svg>
