<svg width="48" height="48" viewBox="0 0 48 48" fill="none" xmlns="http://www.w3.org/2000/svg">
<g clip-path="url(#clip0_697_6186)">
<path d="M43.5 24C43.5 18.8283 41.4455 13.8684 37.7886 10.2114C34.1316 6.55446 29.1717 4.5 24 4.5C18.8283 4.5 13.8684 6.55446 10.2114 10.2114C6.55446 13.8684 4.5 18.8283 4.5 24C4.5 29.1717 6.55446 34.1316 10.2114 37.7886C13.8684 41.4455 18.8283 43.5 24 43.5C29.1717 43.5 34.1316 41.4455 37.7886 37.7886C41.4455 34.1316 43.5 29.1717 43.5 24ZM0 24C0 17.6348 2.52856 11.5303 7.02944 7.02944C11.5303 2.52856 17.6348 0 24 0C30.3652 0 36.4697 2.52856 40.9706 7.02944C45.4714 11.5303 48 17.6348 48 24C48 30.3652 45.4714 36.4697 40.9706 40.9706C36.4697 45.4714 30.3652 48 24 48C17.6348 48 11.5303 45.4714 7.02944 40.9706C2.52856 36.4697 0 30.3652 0 24ZM28.5656 27.9094C28.9688 28.3875 29.25 28.9781 29.25 29.625C29.25 30.2719 28.9594 30.8625 28.5656 31.3406C28.1625 31.8281 27.6187 32.25 27 32.5969C26.7469 32.7375 26.4656 32.8781 26.1844 33C26.475 33.1219 26.7469 33.2531 27 33.4031C27.6187 33.75 28.1719 34.1719 28.5656 34.6594C28.9688 35.1375 29.25 35.7281 29.25 36.375C29.25 37.0219 28.9594 37.6125 28.5656 38.0906C28.1625 38.5781 27.6187 39 27 39.3469C25.7531 40.0406 24.1312 40.5 22.5 40.5C22.1625 40.5 21.8625 40.2656 21.7781 39.9375C21.6938 39.6094 21.8344 39.2625 22.1344 39.0938L22.1531 39.0844C22.1719 39.075 22.2 39.0562 22.2375 39.0375C22.3125 38.9906 22.425 38.925 22.5563 38.8406C22.8188 38.6625 23.1656 38.4188 23.5125 38.1281C23.8594 37.8375 24.1875 37.5094 24.4125 37.1813C24.6469 36.8531 24.7406 36.5813 24.7406 36.375C24.7406 36.1687 24.6469 35.9062 24.4125 35.5687C24.1781 35.2406 23.8594 34.9219 23.5125 34.6219C23.1656 34.3312 22.8188 34.0875 22.5563 33.9094C22.425 33.825 22.3125 33.7594 22.2375 33.7125C22.2 33.6938 22.1719 33.675 22.1531 33.6656L22.1344 33.6562C21.9 33.525 21.75 33.2719 21.75 33C21.75 32.7281 21.9 32.475 22.1344 32.3438L22.1531 32.3344C22.1719 32.325 22.2 32.3062 22.2375 32.2875C22.3125 32.2406 22.425 32.175 22.5563 32.0906C22.8188 31.9125 23.1656 31.6688 23.5125 31.3781C23.8594 31.0875 24.1875 30.7594 24.4125 30.4313C24.6469 30.1031 24.7406 29.8313 24.7406 29.625C24.7406 29.4187 24.6469 29.1562 24.4125 28.8187C24.1781 28.4906 23.8594 28.1719 23.5125 27.8719C23.1656 27.5812 22.8188 27.3375 22.5563 27.1594C22.425 27.075 22.3125 27.0094 22.2375 26.9625C22.2 26.9438 22.1719 26.925 22.1531 26.9156L22.1344 26.9062C21.8344 26.7375 21.6938 26.3906 21.7781 26.0625C21.8625 25.7344 22.1625 25.5 22.5 25.5C24.1312 25.5 25.7531 25.9594 26.9906 26.6531C27.6094 27 28.1625 27.4219 28.5563 27.9094H28.5656ZM16.4625 20.625C15.4688 20.625 14.5969 20.9812 14.0812 21.5344C13.3687 22.2937 12.1875 22.3313 11.4281 21.6188C10.6688 20.9063 10.6313 19.725 11.3438 18.9656C12.7031 17.5125 14.6438 16.875 16.4625 16.875C18.2813 16.875 20.2219 17.5125 21.5812 18.9656C22.2937 19.725 22.2469 20.9063 21.4969 21.6188C20.7469 22.3313 19.5562 22.2844 18.8438 21.5344C18.3281 20.9906 17.4563 20.625 16.4625 20.625ZM29.0813 21.5344C28.3688 22.2937 27.1875 22.3313 26.4281 21.6188C25.6687 20.9063 25.6313 19.725 26.3438 18.9656C27.7031 17.5125 29.6438 16.875 31.4625 16.875C33.2813 16.875 35.2219 17.5125 36.5813 18.9656C37.2938 19.725 37.2469 20.9063 36.4969 21.6188C35.7469 22.3313 34.5562 22.2844 33.8438 21.5344C33.3281 20.9906 32.4563 20.625 31.4625 20.625C30.4688 20.625 29.5969 20.9812 29.0813 21.5344Z" fill="#4F3422"/>
</g>
<defs>
<clipPath id="clip0_697_6186">
<rect width="48" height="48" fill="white"/>
</clipPath>
</defs>
</svg>
