<svg width="48" height="48" viewBox="0 0 48 48" fill="none" xmlns="http://www.w3.org/2000/svg">
<path d="M27.2359 21.9094C28.0609 22.2844 29.0037 22.5 30.0001 22.5C31.2966 22.5 32.4966 22.1438 33.4823 21.525C34.543 23.0156 36.4287 24 38.5716 24C39.493 24 40.3609 23.8219 41.143 23.4938V24C41.143 27.6187 39.0537 30.8063 35.8716 32.6906C34.9501 33.2344 34.2859 34.1625 34.2859 35.2594V46.5C34.2859 47.325 35.0573 48 36.0001 48C36.943 48 37.7144 47.325 37.7144 46.5V35.2594V35.25L37.7251 35.2406C37.7359 35.2219 37.7573 35.1938 37.8001 35.175C41.8823 32.7469 44.5716 28.65 44.5716 24V18.75V18V14.25C44.5716 11.3531 41.8823 9 38.5716 9C37.6501 9 36.7823 9.17813 36.0001 9.50625V8.25C36.0001 5.35313 33.3109 3 30.0001 3C28.9609 3 27.9859 3.23437 27.1394 3.6375C26.3573 1.52812 24.0966 0 21.4287 0C18.7609 0 16.5001 1.52812 15.718 3.6375C14.8716 3.23437 13.8966 3 12.8573 3C9.54657 3 6.85728 5.35313 6.85728 8.25V18.75C6.85728 18.9937 6.87871 19.2281 6.91085 19.4625C4.80014 20.8313 3.42871 23.025 3.42871 25.5C3.42871 31.0312 7.70371 35.6906 13.5216 37.0781C13.6073 37.0969 13.6609 37.1344 13.693 37.1719C13.7037 37.1906 13.7144 37.2 13.7144 37.2V46.5C13.7144 47.325 14.4859 48 15.4287 48C16.3716 48 17.143 47.325 17.143 46.5V37.1906C17.143 35.6625 15.868 34.5281 14.4216 34.1813C10.0609 33.1406 6.85728 29.6438 6.85728 25.5C6.85728 23.0156 9.16085 21 12.0001 21H21.4287C22.8537 21 24.0001 22.0031 24.0001 23.25C24.0001 24.4969 22.8537 25.5 21.4287 25.5H15.4287C14.4859 25.5 13.7144 26.175 13.7144 27C13.7144 27.825 14.4859 28.5 15.4287 28.5H21.4287C24.7394 28.5 27.4287 26.1469 27.4287 23.25C27.4287 22.7906 27.3644 22.3406 27.2359 21.9094ZM24.0001 18.5062C23.218 18.1781 22.3501 18 21.4287 18H18.8573V8.25V5.25C18.8573 4.00312 20.0037 3 21.4287 3C22.8537 3 24.0001 4.00312 24.0001 5.25V8.25V17.25V18.5062ZM15.4287 18H12.0001C11.4109 18 10.843 18.0563 10.2859 18.15V8.25C10.2859 7.00312 11.4323 6 12.8573 6C14.2823 6 15.4287 7.00312 15.4287 8.25V18ZM41.143 18V18.75C41.143 19.9969 39.9966 21 38.5716 21C37.1466 21 36.0001 19.9969 36.0001 18.75V17.25V14.25C36.0001 13.0031 37.1466 12 38.5716 12C39.9966 12 41.143 13.0031 41.143 14.25V18ZM27.4287 8.25C27.4287 7.00312 28.5751 6 30.0001 6C31.4251 6 32.5716 7.00312 32.5716 8.25V14.25V17.25C32.5716 18.4969 31.4251 19.5 30.0001 19.5C28.5751 19.5 27.4287 18.4969 27.4287 17.25V8.25Z" fill="#4F3422"/>
</svg>
