<svg width="48" height="48" viewBox="0 0 48 48" fill="none" xmlns="http://www.w3.org/2000/svg">
<g clip-path="url(#clip0_697_6192)">
<path d="M45 24C45 18.4305 42.7875 13.089 38.8492 9.15076C34.911 5.21249 29.5695 3 24 3C18.4305 3 13.089 5.21249 9.15076 9.15076C5.21249 13.089 3 18.4305 3 24C3 29.5695 5.21249 34.911 9.15076 38.8492C13.089 42.7875 18.4305 45 24 45C29.5695 45 34.911 42.7875 38.8492 38.8492C42.7875 34.911 45 29.5695 45 24ZM0 24C0 17.6348 2.52856 11.5303 7.02944 7.02944C11.5303 2.52856 17.6348 0 24 0C30.3652 0 36.4697 2.52856 40.9706 7.02944C45.4714 11.5303 48 17.6348 48 24C48 30.3652 45.4714 36.4697 40.9706 40.9706C36.4697 45.4714 30.3652 48 24 48C17.6348 48 11.5303 45.4714 7.02944 40.9706C2.52856 36.4697 0 30.3652 0 24ZM24 33.1969C21.075 33.1969 18.2438 32.925 15.5719 32.4187C17.6906 34.6312 20.6812 36.0094 24 36.0094C27.3188 36.0094 30.3094 34.6312 32.4281 32.4187C29.7562 32.925 26.925 33.1969 24 33.1969ZM37.3875 30.3187C35.1281 35.4375 29.9812 39.0094 24 39.0094C18.0188 39.0094 12.8719 35.4375 10.6125 30.3187C10.125 29.2219 11.25 28.2188 12.4031 28.5656C15.9 29.6063 19.8375 30.1969 24.0094 30.1969C28.1813 30.1969 32.1094 29.6063 35.6156 28.5656C36.7687 28.2188 37.8844 29.2219 37.4062 30.3187H37.3875ZM18.2906 13.5563C17.4188 13.3219 16.5281 13.8375 16.2938 14.7094L15.8906 16.2188C15.675 17.0156 14.85 17.4938 14.0531 17.2781L12.5438 16.875C11.6719 16.6406 10.7812 17.1563 10.5469 18.0281C10.3125 18.9 10.8281 19.7906 11.7 20.025L17.8125 21.6469L19.4437 15.5531C19.6781 14.6812 19.1625 13.7906 18.2906 13.5563ZM13.3969 13.9313C14.0625 11.4656 16.5938 9.99375 19.0594 10.6594C21.525 11.325 22.9969 13.8563 22.3312 16.3219L20.7 22.4156C20.2688 24.0188 18.6281 24.9656 17.025 24.5344L10.9219 22.9031C8.45625 22.2375 6.98437 19.7062 7.65 17.2406C8.31562 14.775 10.8469 13.3031 13.3125 13.9688L13.3781 13.9875L13.3969 13.9313ZM34.5938 13.9313L34.6125 13.9875L34.6781 13.9688C37.1437 13.3031 39.6844 14.775 40.3406 17.2406C40.9969 19.7062 39.5344 22.2469 37.0687 22.9031L30.9656 24.5344C29.3625 24.9656 27.7219 24.0094 27.2906 22.4156L25.6594 16.3219C24.9938 13.8563 26.4656 11.3156 28.9313 10.6594C31.3969 10.0031 33.9375 11.4656 34.5938 13.9313ZM29.7 13.5563C28.8281 13.7906 28.3125 14.6812 28.5469 15.5531L30.1781 21.6469L36.2812 20.0156C37.1531 19.7812 37.6687 18.8906 37.4344 18.0187C37.2 17.1469 36.3094 16.6312 35.4375 16.8656L33.9375 17.2687C33.1406 17.4844 32.3156 17.0062 32.1 16.2094L31.6969 14.7C31.4625 13.8281 30.5719 13.3125 29.7 13.5469V13.5563Z" fill="#4F3422"/>
</g>
<defs>
<clipPath id="clip0_697_6192">
<rect width="48" height="48" fill="white"/>
</clipPath>
</defs>
</svg>
