<svg width="54" height="48" viewBox="0 0 54 48" fill="none" xmlns="http://www.w3.org/2000/svg">
<path d="M22.875 12.2436L21.75 10.978L21.3563 10.5374C18.9188 7.79986 15.2344 6.52486 11.625 7.18111C6.62813 8.09049 3 12.4405 3 17.5217V17.8499C3 20.878 4.25625 23.7655 6.47812 25.828L23.7188 41.8874C23.7938 41.953 23.8969 41.9999 24 41.9999C24.1031 41.9999 24.2062 41.9624 24.2812 41.8874L25.3031 40.9311C25.7062 41.8874 26.2031 42.8061 26.775 43.6592L26.3156 44.0811C26.2406 44.1561 26.1563 44.2217 26.0719 44.2874C25.4813 44.7467 24.75 44.9905 24 44.9905C23.1375 44.9905 22.3125 44.6624 21.675 44.0811L4.425 28.0311C4.06875 27.703 3.74063 27.3561 3.42188 26.9999C1.22813 24.4686 0 21.2249 0 17.8499V17.5217C0 10.9967 4.66875 5.39986 11.0906 4.22799C14.925 3.53424 18.8344 4.52799 21.8438 6.89049C22.4719 7.38736 23.0625 7.93111 23.5969 8.54049L23.9906 8.98111L24.3844 8.54049C24.7781 8.09986 25.1906 7.68736 25.6312 7.31236C25.8 7.17174 25.9687 7.03111 26.1375 6.89049C29.1562 4.53736 33.0656 3.53424 36.9094 4.22799C43.3313 5.39986 48 10.9967 48 17.5217V17.8499C48 18.4874 47.9531 19.1155 47.8688 19.7342C46.95 19.2749 45.975 18.8999 44.9719 18.6092C44.9906 18.3561 45 18.103 45 17.8499V17.5217C45 12.4405 41.3719 8.09049 36.375 7.18111C32.7656 6.52486 29.0813 7.79986 26.6438 10.5374L26.25 10.978L25.125 12.2436C24.8438 12.5624 24.4312 12.7499 24 12.7499C23.5688 12.7499 23.1656 12.5624 22.875 12.2436ZM51 34.4999C51 31.7151 49.8938 29.0444 47.9246 27.0752C45.9555 25.1061 43.2848 23.9999 40.5 23.9999C37.7152 23.9999 35.0445 25.1061 33.0754 27.0752C31.1062 29.0444 30 31.7151 30 34.4999C30 37.2846 31.1062 39.9554 33.0754 41.9245C35.0445 43.8936 37.7152 44.9999 40.5 44.9999C43.2848 44.9999 45.9555 43.8936 47.9246 41.9245C49.8938 39.9554 51 37.2846 51 34.4999ZM27 34.4999C27 30.9194 28.4223 27.4857 30.9541 24.9539C33.4858 22.4222 36.9196 20.9999 40.5 20.9999C44.0804 20.9999 47.5142 22.4222 50.0459 24.9539C52.5777 27.4857 54 30.9194 54 34.4999C54 38.0803 52.5777 41.5141 50.0459 44.0458C47.5142 46.5775 44.0804 47.9999 40.5 47.9999C36.9196 47.9999 33.4858 46.5775 30.9541 44.0458C28.4223 41.5141 27 38.0803 27 34.4999ZM42 28.4999V32.9999H46.5C47.325 32.9999 48 33.6749 48 34.4999C48 35.3249 47.325 35.9999 46.5 35.9999H42V40.4999C42 41.3249 41.325 41.9999 40.5 41.9999C39.675 41.9999 39 41.3249 39 40.4999V35.9999H34.5C33.675 35.9999 33 35.3249 33 34.4999C33 33.6749 33.675 32.9999 34.5 32.9999H39V28.4999C39 27.6749 39.675 26.9999 40.5 26.9999C41.325 26.9999 42 27.6749 42 28.4999Z" fill="#4F3422"/>
</svg>
