<svg width="48" height="48" viewBox="0 0 48 48" fill="none" xmlns="http://www.w3.org/2000/svg">
<g clip-path="url(#clip0_697_6201)">
<path d="M43.5 0C44.325 0 45 0.675 45 1.5V3H46.5C47.325 3 48 3.675 48 4.5C48 5.325 47.325 6 46.5 6H45V7.5C45 8.325 44.325 9 43.5 9C42.675 9 42 8.325 42 7.5V6H40.5C39.675 6 39 5.325 39 4.5C39 3.675 39.675 3 40.5 3H42V1.5C42 0.675 42.675 0 43.5 0ZM4.5 6C5.325 6 6 6.675 6 7.5V9H7.5C8.325 9 9 9.675 9 10.5C9 11.325 8.325 12 7.5 12H6V13.5C6 14.325 5.325 15 4.5 15C3.675 15 3 14.325 3 13.5V12H1.5C0.675 12 0 11.325 0 10.5C0 9.675 0.675 9 1.5 9H3V7.5C3 6.675 3.675 6 4.5 6ZM24 7.5C24.2955 7.5 24.5881 7.4418 24.861 7.32873C25.134 7.21566 25.3821 7.04992 25.591 6.84099C25.7999 6.63206 25.9657 6.38402 26.0787 6.11104C26.1918 5.83806 26.25 5.54547 26.25 5.25C26.25 4.95453 26.1918 4.66194 26.0787 4.38896C25.9657 4.11598 25.7999 3.86794 25.591 3.65901C25.3821 3.45008 25.134 3.28434 24.861 3.17127C24.5881 3.0582 24.2955 3 24 3C23.7045 3 23.4119 3.0582 23.139 3.17127C22.866 3.28434 22.6179 3.45008 22.409 3.65901C22.2001 3.86794 22.0343 4.11598 21.9213 4.38896C21.8082 4.66194 21.75 4.95453 21.75 5.25C21.75 5.54547 21.8082 5.83806 21.9213 6.11104C22.0343 6.38402 22.2001 6.63206 22.409 6.84099C22.6179 7.04992 22.866 7.21566 23.139 7.32873C23.4119 7.4418 23.7045 7.5 24 7.5ZM24 0C25.3924 0 26.7277 0.553123 27.7123 1.53769C28.6969 2.52226 29.25 3.85761 29.25 5.25C29.25 6.64239 28.6969 7.97774 27.7123 8.96231C26.7277 9.94688 25.3924 10.5 24 10.5C22.6076 10.5 21.2723 9.94688 20.2877 8.96231C19.3031 7.97774 18.75 6.64239 18.75 5.25C18.75 3.85761 19.3031 2.52226 20.2877 1.53769C21.2723 0.553123 22.6076 0 24 0ZM12 46.5C12 47.325 11.325 48 10.5 48C9.675 48 9 47.325 9 46.5C9 44.0156 11.0156 42 13.5 42H34.5C36.9844 42 39 44.0156 39 46.5C39 47.325 38.325 48 37.5 48C36.675 48 36 47.325 36 46.5C36 45.675 35.325 45 34.5 45H13.5C12.675 45 12 45.675 12 46.5ZM18 18.1031C17.9531 18.1594 17.9062 18.225 17.8594 18.2812L11.7 26.4094C11.2031 27.0656 10.2563 27.1969 9.6 26.7C8.94375 26.2031 8.8125 25.2562 9.30938 24.6L15.4688 16.4719C16.8844 14.6062 19.0969 13.5 21.4406 13.5H26.5594C28.9031 13.5 31.1156 14.5969 32.5312 16.4719L38.6906 24.6C39.1875 25.2562 39.0656 26.2031 38.4 26.7C37.7344 27.1969 36.7969 27.075 36.3 26.4094L30.1406 18.2812C30.0938 18.2156 30.0469 18.1594 30 18.1031V28.5V37.5V39H27V37.5V30H21V37.5V39H18V37.5V28.5V18.1031ZM21 16.5281V27H27V16.5187C26.85 16.5 26.7094 16.5 26.5594 16.5H21.4406C21.2906 16.5 21.1406 16.5094 21 16.5187V16.5281Z" fill="#4F3422"/>
</g>
<defs>
<clipPath id="clip0_697_6201">
<rect width="48" height="48" fill="white"/>
</clipPath>
</defs>
</svg>
