<svg width="48" height="48" viewBox="0 0 48 48" fill="none" xmlns="http://www.w3.org/2000/svg">
<g clip-path="url(#clip0_697_6207)">
<path d="M40.1025 18C38.04 9.32812 31.6125 3 24 3C16.3875 3 9.96 9.32812 7.8975 18H5.4075C7.5375 7.65 15.0525 0 24 0C32.9475 0 40.4625 7.65 42.5925 18H40.1025ZM19.83 16.5C19.83 17.7469 19.0275 18.75 18.03 18.75C17.0325 18.75 16.23 17.7469 16.23 16.5C16.23 15.7406 16.53 15.0656 16.995 14.6625L14.025 13.425C13.395 13.1625 13.0575 12.3094 13.2675 11.5312C13.4775 10.7531 14.16 10.3219 14.7825 10.5844L21.9825 13.5844C22.6125 13.8469 22.95 14.7 22.74 15.4781C22.53 16.2563 21.8475 16.6875 21.225 16.425L19.7475 15.8063C19.8075 16.0219 19.8375 16.2563 19.8375 16.5H19.83ZM30.03 18.75C29.0325 18.75 28.23 17.7469 28.23 16.5C28.23 16.2469 28.26 16.0031 28.3275 15.7781L26.7825 16.425C26.1525 16.6875 25.4775 16.2656 25.2675 15.4781C25.0575 14.6906 25.395 13.8469 26.025 13.5844L33.225 10.5844C33.855 10.3219 34.53 10.7438 34.74 11.5312C34.95 12.3187 34.6125 13.1625 33.9825 13.425L31.05 14.6437C31.5225 15.0469 31.83 15.7313 31.83 16.5C31.83 17.7469 31.0275 18.75 30.03 18.75ZM2.4 27V42C2.4 43.6594 3.4725 45 4.8 45H43.2C44.5275 45 45.6 43.6594 45.6 42V27C45.6 25.3406 44.5275 24 43.2 24H4.8C3.4725 24 2.4 25.3406 2.4 27ZM0 27C0 23.6906 2.1525 21 4.8 21H43.2C45.8475 21 48 23.6906 48 27V42C48 45.3094 45.8475 48 43.2 48H4.8C2.1525 48 0 45.3094 0 42V27ZM30 33H28.8V36H30C30.66 36 31.2 36.675 31.2 37.5C31.2 38.325 30.66 39 30 39H28.8V40.5C28.8 41.325 28.26 42 27.6 42C26.94 42 26.4 41.325 26.4 40.5V39H24V40.5C24 41.325 23.46 42 22.8 42C22.14 42 21.6 41.325 21.6 40.5V39H20.4C19.74 39 19.2 38.325 19.2 37.5C19.2 36.675 19.74 36 20.4 36H21.6V33H20.4C19.74 33 19.2 32.325 19.2 31.5C19.2 30.675 19.74 30 20.4 30H21.6V28.5C21.6 27.675 22.14 27 22.8 27C23.46 27 24 27.675 24 28.5V30H26.4V28.5C26.4 27.675 26.94 27 27.6 27C28.26 27 28.8 27.675 28.8 28.5V30H30C30.66 30 31.2 30.675 31.2 31.5C31.2 32.325 30.66 33 30 33ZM24 33V36H26.4V33H24ZM42.78 28.1156C43.2825 28.6594 43.3425 29.6063 42.9075 30.2344L35.7075 40.7344C35.2725 41.3625 34.5225 41.4375 34.0125 40.8938C33.5025 40.35 33.45 39.4125 33.885 38.775L41.085 28.275C41.52 27.6469 42.27 27.5719 42.78 28.1156ZM33.6 30C33.6 29.4033 33.7896 28.831 34.1272 28.409C34.4648 27.9871 34.9226 27.75 35.4 27.75C35.8774 27.75 36.3352 27.9871 36.6728 28.409C37.0104 28.831 37.2 29.4033 37.2 30C37.2 30.5967 37.0104 31.169 36.6728 31.591C36.3352 32.0129 35.8774 32.25 35.4 32.25C34.9226 32.25 34.4648 32.0129 34.1272 31.591C33.7896 31.169 33.6 30.5967 33.6 30ZM41.4 36.75C41.8774 36.75 42.3352 36.9871 42.6728 37.409C43.0104 37.831 43.2 38.4033 43.2 39C43.2 39.5967 43.0104 40.169 42.6728 40.591C42.3352 41.0129 41.8774 41.25 41.4 41.25C40.9226 41.25 40.4648 41.0129 40.1272 40.591C39.7896 40.169 39.6 39.5967 39.6 39C39.6 38.4033 39.7896 37.831 40.1272 37.409C40.4648 36.9871 40.9226 36.75 41.4 36.75ZM15.6 27C16.26 27 16.8 27.675 16.8 28.5V34.5C16.8 35.325 16.26 36 15.6 36C14.94 36 14.4 35.325 14.4 34.5V28.5C14.4 27.675 14.94 27 15.6 27ZM13.8 39.75C13.8 39.1533 13.9896 38.581 14.3272 38.159C14.6648 37.7371 15.1226 37.5 15.6 37.5C16.0774 37.5 16.5352 37.7371 16.8728 38.159C17.2104 38.581 17.4 39.1533 17.4 39.75C17.4 40.3467 17.2104 40.919 16.8728 41.341C16.5352 41.7629 16.0774 42 15.6 42C15.1226 42 14.6648 41.7629 14.3272 41.341C13.9896 40.919 13.8 40.3467 13.8 39.75ZM9.6 28.5V28.6687C9.945 28.7437 10.2525 28.8281 10.5075 28.9125C11.145 29.1281 11.5275 29.9437 11.355 30.75C11.1825 31.5563 10.53 32.025 9.885 31.8094C9.2925 31.6125 8.4975 31.4437 7.875 31.5375C7.5675 31.5844 7.4025 31.6688 7.32 31.7438C7.1475 31.9031 7.155 32.1656 7.3125 32.2969C7.83 32.7375 8.43 32.9438 9.03 33.1594C9.675 33.3844 10.32 33.6094 10.875 34.1156C11.2275 34.4344 11.5725 34.8844 11.7825 35.4938C12 36.1125 12.0375 36.7875 11.9475 37.4719C11.7975 38.55 11.355 39.3938 10.6725 39.9C10.305 40.1813 9.915 40.3312 9.525 40.4062V40.4812C9.525 41.3062 8.985 41.9812 8.325 41.9812C7.665 41.9812 7.125 41.3062 7.125 40.4812V40.2C6.5175 40.0219 5.9775 39.8062 5.61 39.6469C4.98 39.3844 4.6425 38.5313 4.8525 37.7531C5.0625 36.975 5.745 36.5438 6.3675 36.8063C7.08 37.1063 8.01 37.4531 8.7675 37.4719C9.1425 37.4813 9.3375 37.3969 9.4275 37.3313C9.6525 37.1625 9.645 36.7031 9.4575 36.5344C8.9475 36.0656 8.3175 35.85 7.6875 35.625C7.08 35.4094 6.4725 35.2031 5.955 34.7625C5.6025 34.4625 5.25 34.0406 5.025 33.4406C4.7925 32.8313 4.7475 32.1562 4.8375 31.4812C4.9725 30.525 5.3625 29.7844 5.925 29.2781C6.3225 28.9219 6.765 28.725 7.1925 28.6219V28.5C7.1925 27.675 7.7325 27 8.3925 27C9.0525 27 9.5925 27.675 9.5925 28.5H9.6Z" fill="#4F3422"/>
</g>
<defs>
<clipPath id="clip0_697_6207">
<rect width="48" height="48" fill="white"/>
</clipPath>
</defs>
</svg>
