<svg width="60" height="48" viewBox="0 0 60 48" fill="none" xmlns="http://www.w3.org/2000/svg">
<g clip-path="url(#clip0_697_6213)">
<path d="M16.5 30C20.0804 30 23.5142 28.5777 26.0459 26.0459C28.5777 23.5142 30 20.0804 30 16.5C30 12.9196 28.5777 9.4858 26.0459 6.95406C23.5142 4.42232 20.0804 3 16.5 3C12.9196 3 9.4858 4.42232 6.95406 6.95406C4.42232 9.4858 3 12.9196 3 16.5C3 20.0804 4.42232 23.5142 6.95406 26.0459C9.4858 28.5777 12.9196 30 16.5 30ZM33 16.5C33 25.1063 26.4094 32.175 18 32.9344V39H24C24.825 39 25.5 39.675 25.5 40.5C25.5 41.325 24.825 42 24 42H18V46.5C18 47.325 17.325 48 16.5 48C15.675 48 15 47.325 15 46.5V42H9C8.175 42 7.5 41.325 7.5 40.5C7.5 39.675 8.175 39 9 39H15V32.9344C6.59063 32.175 0 25.1063 0 16.5C0 7.3875 7.3875 0 16.5 0C25.6125 0 33 7.3875 33 16.5ZM25.4906 33.8063C26.4 33.3281 27.2719 32.7844 28.0969 32.175C30.525 34.5469 33.8438 36 37.5 36C44.9531 36 51 29.9531 51 22.5C51 15.0469 44.9531 9 37.5 9C36.5156 9 35.5594 9.10313 34.6312 9.30938C34.2469 8.35313 33.7969 7.425 33.2719 6.55313C34.6219 6.1875 36.0375 6 37.5 6C41.5125 6 45.1969 7.43437 48.0562 9.81562L54.8813 3H46.5C45.675 3 45 2.325 45 1.5C45 0.675 45.675 0 46.5 0H58.5C59.325 0 60 0.675 60 1.5V13.5C60 14.325 59.325 15 58.5 15C57.675 15 57 14.325 57 13.5V5.11875L50.1844 11.9344C52.5656 14.8031 54 18.4875 54 22.5C54 31.6125 46.6125 39 37.5 39C32.7656 39 28.5 37.0031 25.4906 33.8063Z" fill="#4F3422"/>
</g>
<defs>
<clipPath id="clip0_697_6213">
<rect width="60" height="48" fill="white"/>
</clipPath>
</defs>
</svg>
