<svg width="48" height="48" viewBox="0 0 48 48" fill="none" xmlns="http://www.w3.org/2000/svg">
<path d="M6.85714 6C4.96071 6 3.42857 7.34062 3.42857 9V39C3.42857 40.6594 4.96071 42 6.85714 42H41.1429C43.0393 42 44.5714 40.6594 44.5714 39V9C44.5714 7.34062 43.0393 6 41.1429 6H6.85714ZM0 9C0 5.69063 3.075 3 6.85714 3H41.1429C44.925 3 48 5.69063 48 9V39C48 42.3094 44.925 45 41.1429 45H6.85714C3.075 45 0 42.3094 0 39V9ZM31.7143 18C35.025 18 37.7143 20.3531 37.7143 23.25V33.75C37.7143 36.6469 35.025 39 31.7143 39C29.025 39 26.4857 37.9219 24.8143 36.0656L19.0821 29.6719L13.4893 38.2406C13.0179 38.9625 11.9679 39.2062 11.1536 38.8031C10.3393 38.4 10.05 37.4719 10.5107 36.7594L17.3679 26.2594C17.6464 25.8281 18.1607 25.5469 18.7286 25.5094C19.2964 25.4719 19.8536 25.6875 20.2071 26.0813L25.7143 32.2125V23.25C25.7143 20.3531 28.4036 18 31.7143 18ZM34.2857 33.75V23.25C34.2857 22.0031 33.1393 21 31.7143 21C30.2893 21 29.1429 22.0031 29.1429 23.25V33.75C29.1429 34.9969 30.2893 36 31.7143 36C33.1393 36 34.2857 34.9969 34.2857 33.75ZM24.8571 14.25C24.8571 13.6533 24.5862 13.081 24.104 12.659C23.6218 12.2371 22.9677 12 22.2857 12C21.6037 12 20.9497 12.2371 20.4674 12.659C19.9852 13.081 19.7143 13.6533 19.7143 14.25C19.7143 14.8467 19.9852 15.419 20.4674 15.841C20.9497 16.2629 21.6037 16.5 22.2857 16.5C22.9677 16.5 23.6218 16.2629 24.104 15.841C24.5862 15.419 24.8571 14.8467 24.8571 14.25ZM16.2857 14.25C16.2857 12.8576 16.9179 11.5223 18.0431 10.5377C19.1683 9.55312 20.6944 9 22.2857 9C23.877 9 25.4031 9.55312 26.5284 10.5377C27.6536 11.5223 28.2857 12.8576 28.2857 14.25C28.2857 15.6424 27.6536 16.9777 26.5284 17.9623C25.4031 18.9469 23.877 19.5 22.2857 19.5C20.6944 19.5 19.1683 18.9469 18.0431 17.9623C16.9179 16.9777 16.2857 15.6424 16.2857 14.25Z" fill="#4F3422"/>
</svg>
